<svg width="338.29" height="98.867" version="1.1" viewBox="0 0 338.29 98.867" xml:space="preserve"
     xmlns="http://www.w3.org/2000/svg"><g transform="matrix(1.3333 0 0 -1.3333 0 98.867)"><g transform="scale(.1)"><g fill="#2056ae"><path d="m0 229.13h150.48c39.79 0 74.364 8.531 98.875 30.152 24.512 21.602 39.532 56.52 39.571 110.75-0.02 58.242-14.043 93.613-37.383 114.56-23.34 20.969-56.762 28.008-96.641 28v8e-3h-154.9v-61.219h131.2c19.879 0.105 33.469-6.945 41.149-20.586 7.703-13.535 10.011-32.793 10.039-57.863-0.028-24.227-2.137-43.27-9.668-56.817-7.52-13.621-21.02-20.918-41.117-20.801h-29.891v100.34h-101.71v-166.53"/><path
        d="m311.02 229.13h101.7v102.82h126.72v63.703h-126.72v55.723h126.72v61.219h-228.42v-283.47"/><path
        d="m609.48 481.82c-30.059-23.769-49.043-59.109-49.082-106.82 0.039-50.918 18.32-88.348 47.949-113.36 29.648-24.976 70.918-37.5 116.99-37.5 43.144 0.024 77.246 4.36 113.12 15v130.81h-86.426v-76.184l-1.914-0.742c-7.266-2.773-16.328-2.656-23.984-2.695-22.285-0.059-38.164 9.258-47.91 23.703-9.766 14.422-13.692 33.641-13.711 53.926-0.02 26.961 9.14 48.086 25.371 62.207 16.211 14.129 39.16 21.211 66.386 21.211 27.832 0 49.766-6.262 65.372-14.485v70.528c-25.704 6.281-45.274 10.129-96.309 10.148h-0.02c-44.453 0-85.781-12.011-115.84-35.754"/><path
        d="m993.52 417.56h8.28c30.8-0.684 46.62 13.984 47.42 43.984-0.23 15.77-4.2 26.895-11.89 33.379-7.83 6.18-17.56 9.227-29.16 9.129h-14.65zm-9.903 95.39h25.003c17.95-0.195 30.92-5.019 38.92-14.453 7.84-9.484 11.68-21.992 11.59-37.512-0.18-18.632-5.65-32.039-16.39-40.203-10.59-8.086-24.41-12.121-41.47-12.121h-17.653v104.29"/><path
        d="m1128.2 452.07c0 7.012-1.43 13.125-4.26 18.36-2.97 5.293-7.87 8.027-14.67 8.222-6.66-0.195-11.91-2.988-15.8-8.359-3.96-5.441-5.94-11.504-5.94-18.223zm4.41-41.035c-6.91-2.707-14.06-4.101-21.4-4.199-12.07 0.242-20.73 4.082-25.96 11.531-5.18 7.297-7.74 16.758-7.64 28.391 0.1 11.875 2.99 21.484 8.69 28.828 5.51 7.293 12.99 10.996 22.41 11.094 10.31-0.196 17.85-3.946 22.61-11.242 4.52-7.157 6.78-16.004 6.78-26.563v-4.812h-50.57c0-8.301 2.07-15.129 6.23-20.489 4.05-5.722 10.1-8.613 18.11-8.711 3.59 0 7.36 0.653 11.33 1.973 3.96 1.074 7.11 2.313 9.41 3.731v-9.532"/><path
        d="m1215.4 426.6c-0.1-5.782 0.09-11.758 0.62-17.942h-8.83v13.567h-0.29c-0.66-1.653-1.58-3.332-2.75-5.032-1.14-1.804-2.62-3.503-4.46-5.105-1.83-1.504-4.1-2.695-6.83-3.574-2.7-1.114-5.96-1.68-9.83-1.68-8.94 0.098-15.39 2.891-19.33 8.398-3.97 5.391-5.9 12.383-5.8 20.938v48.68h9.04v-46.317c0-7.304 1.39-13.008 4.18-17.101 2.73-4.383 7.19-6.571 13.38-6.571 4.14 0 7.65 0.899 10.52 2.696 2.93 1.707 5.16 3.894 6.67 6.582 1.73 2.773 2.94 5.761 3.61 8.984 0.7 3.164 1.05 6.348 1.05 9.57v42.157h9.05v-58.25"/><path
        d="m1272.7 476.83h-16.78v-49.414c0-3.496 0.76-6.445 2.33-8.84 1.42-2.488 3.92-3.719 7.52-3.719 3.3 0 6.11 0.606 8.41 1.817l0.57-7.746c-1.07-0.379-2.58-0.821-4.51-1.297-2.03-0.528-4.24-0.801-6.64-0.801-3.95 0-7.07 0.703-9.38 2.117-2.22 1.418-3.88 3.254-5.02 5.547-0.97 2.383-1.62 5.059-1.89 8.027-0.29 3.02-0.43 6.282-0.43 9.778v44.531h-14.47v8.016h14.47v18.39l9.04 3.282v-21.672h16.78v-8.016"/><path
        d="m1285.1 419.68c5.61-3.125 11.99-4.727 19.2-4.825 4.57 0 8.42 1.231 11.58 3.719 3.11 2.297 4.71 5.578 4.81 9.863-0.1 4.532-1.9 8.086-5.37 10.676-3.5 2.481-7.6 4.715-12.31 6.719-2.2 1.074-4.33 2.207-6.35 3.437-2.03 1.211-3.96 2.547-5.8 4.004-1.64 1.621-3 3.465-4.1 5.567-1.03 1.992-1.54 4.324-1.54 7.011 0.1 7.598 2.58 12.969 7.48 16.141 4.75 3.117 10.25 4.68 16.52 4.68 2.11 0 4.87-0.196 8.26-0.586 3.34-0.578 6.65-1.524 9.95-2.824l-0.84-8.192c-5.34 2.285-10.8 3.477-16.43 3.574-4.71 0-8.46-0.878-11.25-2.628-1.44-0.926-2.58-2.196-3.38-3.797-0.86-1.563-1.29-3.653-1.29-6.289 0-1.555 0.55-3.047 1.64-4.454 1.04-1.308 2.43-2.5 4.16-3.574 1.76-1.027 3.73-2.07 5.94-3.144 2.23-1.028 4.4-2.121 6.5-3.282 4.83-2.109 9.01-4.902 12.6-8.41 3.58-3.504 5.41-8.347 5.51-14.539 0-3.996-0.78-7.324-2.32-10.011-1.64-2.774-3.71-5.008-6.21-6.719-5.41-3.309-11.14-4.969-17.21-4.969-7.09 0-13.97 1.211-20.59 3.613l0.84 9.239"/><path
        d="m1396.9 474.77c-5.24 2.492-10.51 3.781-15.84 3.878-8.87-0.097-15.65-3.027-20.37-8.769-4.94-5.91-7.42-13.613-7.42-23.125 0-8.879 2.44-16.32 7.28-22.316 4.73-6.297 11.23-9.481 19.53-9.579 5.71 0 11.25 1.141 16.68 3.438l0.84-8.789c-5.97-1.875-12.28-2.774-18.92-2.676-11.86 0.242-20.71 4.277-26.49 12.109-5.9 7.696-8.83 16.961-8.83 27.813 0.1 12.07 3.46 21.68 10.1 28.828 6.6 7.293 15.37 10.996 26.35 11.094 4.53 0 8.28-0.344 11.31-1.016 1.54-0.293 2.89-0.605 4.02-0.937 1.07-0.391 1.91-0.723 2.46-1.016l-0.7-8.937"/><path
        d="m1415.3 520.76h9.04v-48.692h0.27c2.04 4.258 5.02 7.793 8.99 10.606 3.94 2.578 8.61 3.906 13.98 4.004 9.85-0.098 16.55-3.098 20.14-8.985 3.48-5.976 5.18-13.789 5.08-23.418v-45.617h-9.04v45.52c0 3.359-0.18 6.551-0.57 9.57-0.41 2.871-1.25 5.41-2.48 7.598-2.31 4.773-7.15 7.207-14.49 7.304-7.93-0.195-13.6-3.339-17-9.425-3.36-6.082-4.98-12.664-4.88-19.727v-40.84h-9.04v112.1"/><path
        d="m1543.4 452.07c0 7.012-1.4 13.125-4.24 18.36-2.98 5.293-7.87 8.027-14.66 8.222-6.66-0.195-11.94-2.988-15.8-8.359-3.97-5.441-5.96-11.504-5.96-18.223zm4.44-41.035c-6.94-2.707-14.07-4.101-21.43-4.199-12.07 0.242-20.7 4.082-25.94 11.531-5.19 7.297-7.73 16.758-7.63 28.391 0.09 11.875 2.98 21.484 8.69 28.828 5.51 7.293 12.97 10.996 22.4 11.094 10.31-0.196 17.85-3.946 22.6-11.242 4.53-7.157 6.79-16.004 6.79-26.563v-4.812h-50.58c0-8.301 2.09-15.129 6.23-20.489 4.06-5.722 10.1-8.613 18.12-8.711 3.6 0 7.37 0.653 11.33 1.973 3.97 1.074 7.11 2.313 9.42 3.731v-9.532"/><path
        d="m983.17 333.59h48.012v-8.899h-38.09v-37.304h36.33v-8.879h-36.33v-49.203h-9.922v104.28"/><path
        d="m1054 267.39c0-9.063 2.13-16.563 6.37-22.461 4.06-6.192 10.11-9.336 18.16-9.434 8.03 0.098 14.16 3.242 18.42 9.434 4.06 5.898 6.09 13.398 6.09 22.461 0 9.121-2.03 16.714-6.09 22.761-4.26 5.996-10.39 9.043-18.42 9.141-8.05-0.098-14.1-3.145-18.16-9.141-4.24-6.047-6.37-13.64-6.37-22.761zm-9.92 0c0 10.863 2.81 20.125 8.41 27.808 5.55 7.883 14.22 11.926 26 12.121 11.95-0.195 20.74-4.238 26.35-12.121 5.41-7.683 8.12-16.945 8.12-27.808 0-10.645-2.71-19.864-8.12-27.657-5.61-7.929-14.4-12.011-26.35-12.265-11.78 0.254-20.45 4.336-26 12.265-5.6 7.793-8.41 17.012-8.41 27.657"/><path
        d="m1132.9 288.49c0 7.051-0.19 12.715-0.56 17h9.04v-14.59h0.27c1.74 4.473 4.2 8.293 7.37 11.457 3.1 3.204 6.97 4.864 11.58 4.961 2.4-0.097 4.53-0.39 6.37-0.871v-9.785c-2.03 0.586-4.24 0.879-6.64 0.879-3.6-0.098-6.55-0.996-8.85-2.703-2.31-1.797-4.2-4.238-5.65-7.305-1.38-3.019-2.34-6.258-2.91-9.715-0.66-3.711-0.99-7.304-0.99-10.816v-37.699h-9.03v59.187"/><path
        d="m1177 240.32c5.6-3.125 11.99-4.726 19.2-4.824 4.57 0 8.41 1.25 11.58 3.731 3.1 2.285 4.7 5.57 4.8 9.867-0.1 4.527-1.89 8.086-5.37 10.664-3.5 2.476-7.6 4.722-12.3 6.715-2.21 1.078-4.34 2.226-6.35 3.437-2.03 1.211-3.97 2.559-5.8 4.024-1.64 1.601-3.01 3.457-4.1 5.546-1.04 1.993-1.55 4.333-1.55 7.02 0.1 7.598 2.58 12.977 7.48 16.141 4.75 3.117 10.26 4.679 16.53 4.679 2.11 0 4.86-0.195 8.26-0.586 3.34-0.578 6.64-1.523 9.94-2.824l-0.84-8.191c-5.33 2.285-10.8 3.476-16.43 3.574-4.7 0-8.45-0.871-11.25-2.629-1.44-0.926-2.57-2.187-3.37-3.797-0.86-1.562-1.29-3.652-1.29-6.281 0-1.563 0.54-3.039 1.64-4.469 1.03-1.308 2.42-2.5 4.16-3.57 1.76-1.02 3.73-2.074 5.94-3.149 2.22-1.011 4.39-2.109 6.5-3.281 4.82-2.09 9-4.898 12.6-8.398 3.57-3.516 5.41-8.36 5.5-14.547 0-3.988-0.78-7.328-2.32-10-1.64-2.777-3.71-5.024-6.21-6.723-5.41-3.316-11.13-4.98-17.21-4.98-7.09 0-13.96 1.211-20.58 3.617l0.84 9.234"/><path
        d="m1288.8 295.41c-5.23 2.492-10.51 3.781-15.84 3.879-8.86-0.098-15.64-3.02-20.37-8.781-4.94-5.899-7.42-13.61-7.42-23.121 0-8.868 2.44-16.305 7.28-22.301 4.73-6.289 11.24-9.496 19.54-9.594 5.7 0 11.25 1.152 16.68 3.438l0.84-8.789c-5.98-1.875-12.29-2.774-18.93-2.676-11.86 0.254-20.7 4.297-26.48 12.129-5.9 7.675-8.83 16.957-8.83 27.793 0.1 12.074 3.45 21.675 10.1 28.836 6.6 7.293 15.37 10.996 26.34 11.093 4.53 0 8.28-0.343 11.31-1.015 1.54-0.293 2.89-0.606 4.02-0.938 1.08-0.39 1.92-0.722 2.47-1.015l-0.71-8.938"/><path
        d="m1307.2 341.4h9.05v-48.691h0.27c2.03 4.266 5.02 7.801 8.98 10.605 3.95 2.567 8.62 3.907 13.99 4.004 9.84-0.097 16.54-3.097 20.13-8.984 3.48-5.977 5.18-13.789 5.08-23.426v-45.605h-9.04v45.508c0 3.363-0.18 6.566-0.57 9.578-0.41 2.871-1.25 5.41-2.48 7.597-2.3 4.774-7.15 7.207-14.49 7.305-7.93-0.195-13.59-3.332-16.99-9.426-3.36-6.082-4.98-12.672-4.88-19.722v-40.84h-9.05v112.1"/><path
        d="m1447.8 247.26c-0.1-5.805 0.1-11.781 0.62-17.953h-8.83v13.554h-0.29c-0.66-1.64-1.58-3.32-2.75-5.015-1.14-1.797-2.62-3.52-4.46-5.121-1.83-1.504-4.1-2.696-6.83-3.575-2.7-1.113-5.96-1.679-9.83-1.679-8.94 0.097-15.39 2.914-19.33 8.398-3.97 5.41-5.9 12.387-5.8 20.938v48.687h9.04v-46.32c0-7.309 1.39-13.012 4.18-17.094 2.73-4.394 7.19-6.582 13.38-6.582 4.14 0 7.66 0.899 10.53 2.695 2.93 1.719 5.15 3.907 6.66 6.582 1.73 2.778 2.95 5.782 3.61 8.989 0.7 3.164 1.05 6.367 1.05 9.566v42.164h9.05v-58.234"/><path
        d="m1473.4 287.62c0 5.832-0.17 11.789-0.56 17.871h8.82v-13.562h0.28c0.84 1.797 1.85 3.593 3.02 5.39 1.14 1.805 2.58 3.426 4.32 4.891 1.84 1.602 4.08 2.871 6.78 3.789 2.71 0.879 5.94 1.32 9.65 1.32 9.08-0.097 15.6-2.902 19.55-8.398 3.77-5.352 5.64-12.305 5.64-20.867v-48.75h-9.04v46.386c0 7.27-1.29 13.036-3.89 17.321-2.83 4.093-7.38 6.183-13.65 6.281-8.12-0.195-13.83-3.164-17.13-8.906-1.7-2.735-2.91-5.684-3.61-8.856-0.76-3.301-1.13-6.66-1.13-10.078v-42.148h-9.05v58.316"/><path
        d="m1562.1 267.39c-0.09-7.793 1.53-14.629 4.89-20.489 3.32-6.187 8.79-9.39 16.44-9.589 8.23 0.199 14.07 3.496 17.52 9.882 3.3 6.192 4.96 12.934 4.96 20.196 0 9.511-1.54 17.175-4.61 22.976-3.22 5.86-8.98 8.828-17.3 8.926-4.34 0-7.89-0.949-10.63-2.852-2.79-1.757-5.05-4.238-6.79-7.461-1.57-2.98-2.72-6.375-3.48-10.164-0.66-3.804-1-7.617-1-11.425zm52.84-31.817c0-10.855-2.54-19.922-7.64-27.226-5.31-7.34-14.3-11.114-26.91-11.309-4.85 0.098-9.3 0.625-13.36 1.602-3.95 1.015-6.96 1.82-8.97 2.406l0.78 9.351c6.08-3.359 13.32-5.136 21.72-5.332 5.9 0.098 10.53 1.196 13.89 3.282 3.48 1.996 6.05 4.789 7.71 8.379 1.74 3.593 2.85 7.714 3.32 12.382 0.39 4.668 0.57 9.692 0.57 15.102h-0.29c-5.22-10.141-12.7-15.102-22.41-14.906-11.58 0.293-19.68 4.574-24.29 12.832-2.46 3.808-4.16 7.89-5.1 12.265-1.17 4.375-1.76 8.711-1.76 12.989-0.1 11.875 2.27 21.433 7.13 28.687 4.81 7.395 12.56 11.145 23.26 11.242 4.85 0 9.1-0.558 12.78-1.672 3.53-1.355 6.95-4.246 10.25-8.691h0.29v8.555l9.03-0.02v-69.918"/><path
        d="m1634 240.32c5.6-3.125 11.99-4.726 19.2-4.824 4.57 0 8.42 1.25 11.58 3.731 3.11 2.285 4.71 5.57 4.8 9.867-0.09 4.527-1.89 8.086-5.37 10.664-3.49 2.476-7.59 4.722-12.3 6.715-2.21 1.078-4.34 2.226-6.35 3.437-2.03 1.211-3.96 2.559-5.8 4.024-1.64 1.601-3.01 3.457-4.1 5.546-1.04 1.993-1.54 4.333-1.54 7.02 0.09 7.598 2.57 12.977 7.48 16.141 4.74 3.117 10.25 4.679 16.52 4.679 2.11 0 4.86-0.195 8.26-0.586 3.34-0.578 6.64-1.523 9.94-2.824l-0.84-8.191c-5.33 2.285-10.8 3.476-16.42 3.574-4.71 0-8.46-0.871-11.25-2.629-1.45-0.926-2.58-2.187-3.38-3.797-0.86-1.562-1.29-3.652-1.29-6.281 0-1.563 0.55-3.039 1.64-4.469 1.03-1.308 2.42-2.5 4.16-3.57 1.76-1.02 3.73-2.074 5.94-3.149 2.22-1.011 4.39-2.109 6.5-3.281 4.83-2.09 9.01-4.898 12.6-8.398 3.57-3.516 5.41-8.36 5.51-14.547 0-3.988-0.78-7.328-2.33-10-1.64-2.777-3.71-5.024-6.21-6.723-5.41-3.316-11.13-4.98-17.21-4.98-7.09 0-13.96 1.211-20.58 3.617l0.84 9.234"/><path
        d="m1703.4 267.39c-0.09-7.793 1.53-14.629 4.89-20.489 3.32-6.187 8.79-9.39 16.44-9.589 8.22 0.199 14.06 3.496 17.52 9.882 3.3 6.192 4.96 12.934 4.96 20.196 0 9.511-1.54 17.175-4.61 22.976-3.22 5.86-8.98 8.828-17.3 8.926-4.34 0-7.89-0.949-10.63-2.852-2.79-1.757-5.06-4.238-6.79-7.461-1.57-2.98-2.72-6.375-3.48-10.164-0.66-3.804-1-7.617-1-11.425zm52.84-31.817c0-10.855-2.54-19.922-7.64-27.226-5.31-7.34-14.3-11.114-26.91-11.309-4.85 0.098-9.3 0.625-13.36 1.602-3.95 1.015-6.96 1.82-8.97 2.406l0.78 9.351c6.08-3.359 13.32-5.136 21.72-5.332 5.9 0.098 10.53 1.196 13.89 3.282 3.47 1.996 6.05 4.789 7.71 8.379 1.74 3.593 2.85 7.714 3.32 12.382 0.39 4.668 0.57 9.692 0.57 15.102h-0.29c-5.22-10.141-12.7-15.102-22.41-14.906-11.58 0.293-19.68 4.574-24.29 12.832-2.46 3.808-4.16 7.89-5.1 12.265-1.17 4.375-1.76 8.711-1.76 12.989-0.1 11.875 2.27 21.433 7.13 28.687 4.81 7.395 12.56 11.145 23.26 11.242 4.85 0 9.1-0.558 12.78-1.672 3.53-1.355 6.95-4.246 10.25-8.691h0.29v8.555l9.03-0.02v-69.918"/><path
        d="m1826 272.72c0 6.996-1.41 13.113-4.24 18.347-2.99 5.293-7.87 8.028-14.67 8.223-6.66-0.195-11.93-2.98-15.8-8.371-3.96-5.43-5.95-11.496-5.95-18.199zm4.43-41.051c-6.93-2.699-14.06-4.106-21.42-4.203-12.07 0.254-20.7 4.101-25.94 11.543-5.19 7.289-7.73 16.758-7.64 28.379 0.1 11.875 2.99 21.48 8.7 28.836 5.5 7.293 12.96 10.996 22.4 11.093 10.31-0.195 17.85-3.945 22.6-11.242 4.53-7.148 6.79-16.012 6.79-26.558v-4.825h-50.58c0-8.281 2.09-15.117 6.23-20.484 4.06-5.703 10.1-8.617 18.12-8.715 3.6 0 7.37 0.664 11.33 1.973 3.97 1.078 7.11 2.328 9.41 3.73v-9.527"/><path
        d="m1946.3 229.3v50.707c0 2.808-0.19 5.422-0.58 7.816-0.61 2.285-1.56 4.285-2.89 5.985-1.17 1.757-2.81 3.144-4.94 4.171-2.11 0.868-4.75 1.309-7.89 1.309-5.3 0-10.02-2.188-14.14-6.574-4.24-4.578-6.41-11.672-6.51-21.266v-42.148h-9.02v50.707c0 2.808-0.24 5.422-0.67 7.816-0.58 2.285-1.56 4.285-2.87 5.985-1.19 1.757-2.83 3.144-4.94 4.171-2.13 0.868-4.74 1.309-7.89 1.309-5.31 0-10.04-2.188-14.16-6.574-4.24-4.578-6.39-11.672-6.48-21.266v-42.148h-9.07v58.308c0 5.84-0.17 11.797-0.56 17.879h9.1v-12.851l0.27-0.137c0.69 1.406 1.64 2.961 2.85 4.668 0.96 1.699 2.35 3.281 4.14 4.746 1.8 1.504 4.03 2.824 6.68 3.937 2.68 0.977 6 1.465 9.97 1.465 1.79 0 3.75-0.195 5.82-0.586 1.99-0.39 3.98-1.191 5.97-2.402 1.97-1.113 3.73-2.715 5.24-4.797 1.44-2.176 2.5-4.941 3.12-8.289h0.29c1.88 4.559 4.93 8.359 9.09 11.414 4.08 3.008 9.14 4.563 15.19 4.66 7.72-0.097 13.65-2.48 17.81-7.16 4.09-4.617 6.12-10.75 6.12-18.394v-52.461h-9.05"/><path
        d="m2025.2 272.72c0 6.996-1.43 13.113-4.26 18.347-2.97 5.293-7.87 8.028-14.67 8.223-6.66-0.195-11.91-2.98-15.8-8.371-3.96-5.43-5.93-11.496-5.93-18.199zm4.41-41.051c-6.91-2.699-14.06-4.106-21.4-4.203-12.07 0.254-20.73 4.101-25.96 11.543-5.18 7.289-7.73 16.758-7.64 28.379 0.1 11.875 2.99 21.48 8.69 28.836 5.51 7.293 12.99 10.996 22.41 11.093 10.31-0.195 17.85-3.945 22.61-11.242 4.52-7.148 6.78-16.012 6.78-26.558v-4.825h-50.56c0-8.281 2.07-15.117 6.23-20.484 4.04-5.703 10.09-8.617 18.1-8.715 3.59 0 7.36 0.664 11.33 1.973 3.96 1.078 7.11 2.328 9.41 3.73v-9.527"/><path
        d="m2055 305.49h9.02v-76.187h-9.02zm9.02 20.363h-9.02v12.54h9.02v-12.54"/><path
        d="m2088.2 287.62c0 5.832-0.2 11.789-0.57 17.871h8.81v-13.562h0.29c0.84 1.797 1.86 3.593 3.03 5.39 1.13 1.805 2.56 3.426 4.3 4.891 1.83 1.602 4.1 2.871 6.78 3.789 2.73 0.879 5.95 1.32 9.66 1.32 9.09-0.097 15.59-2.902 19.54-8.398 3.76-5.352 5.64-12.305 5.64-20.867v-48.75h-9.02v46.386c0 7.27-1.31 13.036-3.91 17.321-2.83 4.093-7.38 6.183-13.65 6.281-8.11-0.195-13.83-3.164-17.13-8.906-1.7-2.735-2.89-5.684-3.61-8.856-0.75-3.301-1.14-6.66-1.14-10.078v-42.148h-9.02v58.316"/><path
        d="m2165.6 240.32c5.61-3.125 11.99-4.726 19.2-4.824 4.57 0 8.42 1.25 11.58 3.731 3.11 2.285 4.71 5.57 4.81 9.867-0.1 4.527-1.9 8.086-5.37 10.664-3.5 2.476-7.6 4.722-12.31 6.715-2.21 1.078-4.34 2.226-6.35 3.437-2.03 1.211-3.96 2.559-5.8 4.024-1.64 1.601-3.01 3.457-4.1 5.546-1.03 1.993-1.54 4.333-1.54 7.02 0.1 7.598 2.58 12.977 7.48 16.141 4.74 3.117 10.25 4.679 16.52 4.679 2.11 0 4.86-0.195 8.26-0.586 3.34-0.578 6.64-1.523 9.94-2.824l-0.84-8.191c-5.33 2.285-10.8 3.476-16.42 3.574-4.71 0-8.46-0.871-11.25-2.629-1.45-0.926-2.58-2.187-3.38-3.797-0.86-1.562-1.29-3.652-1.29-6.281 0-1.563 0.55-3.039 1.64-4.469 1.04-1.308 2.42-2.5 4.16-3.57 1.76-1.02 3.73-2.074 5.94-3.149 2.23-1.011 4.39-2.109 6.5-3.281 4.83-2.09 9.01-4.898 12.6-8.398 3.58-3.516 5.41-8.36 5.51-14.547 0-3.988-0.78-7.328-2.33-10-1.64-2.777-3.71-5.024-6.21-6.723-5.41-3.316-11.13-4.98-17.2-4.98-7.09 0-13.97 1.211-20.59 3.617l0.84 9.234"/><path
        d="m2277.4 295.41c-5.24 2.492-10.51 3.781-15.84 3.879-8.87-0.098-15.65-3.02-20.37-8.781-4.95-5.899-7.43-13.61-7.43-23.121 0-8.868 2.45-16.305 7.29-22.301 4.73-6.289 11.23-9.496 19.53-9.594 5.7 0 11.25 1.152 16.68 3.438l0.84-8.789c-5.98-1.875-12.29-2.774-18.93-2.676-11.85 0.254-20.7 4.297-26.48 12.129-5.9 7.675-8.83 16.957-8.83 27.793 0.1 12.074 3.46 21.675 10.1 28.836 6.6 7.293 15.37 10.996 26.35 11.093 4.53 0 8.28-0.343 11.31-1.015 1.54-0.293 2.89-0.606 4.02-0.938 1.07-0.39 1.91-0.722 2.46-1.015l-0.7-8.938"/><path
        d="m2295.8 341.4h9.02v-48.691h0.29c2.03 4.266 5.02 7.801 8.97 10.605 3.96 2.567 8.61 3.907 13.98 4.004 9.85-0.097 16.56-3.097 20.14-8.984 3.5-5.977 5.17-13.789 5.08-23.426v-45.605h-9.03v45.508c0 3.363-0.19 6.566-0.56 9.578-0.43 2.871-1.25 5.41-2.48 7.597-2.31 4.774-7.15 7.207-14.51 7.305-7.93-0.195-13.6-3.332-17-9.426-3.34-6.082-4.98-12.672-4.88-19.722v-40.84h-9.02v112.1"/><path
        d="m2420.4 267.7h-2.62c-3.97 0-7.93-0.113-11.9-0.312-4.16-0.371-7.93-1.231-11.32-2.555-3.4-1.176-6.12-2.992-8.15-5.492-2.23-2.539-3.32-5.899-3.32-10.098 0-4.859 1.54-8.359 4.67-10.445 2.87-2.207 6.44-3.305 10.68-3.305 5.33 0 9.53 1.098 12.6 3.305 3.03 2.086 5.21 4.566 6.58 7.461 1.43 3.125 2.23 6.168 2.42 9.136 0.24 3.125 0.36 5.688 0.36 7.676zm0.83-26.211h-0.29c-2.11-4.453-5.37-7.871-9.74-10.23-4.34-2.422-8.91-3.696-13.72-3.793-5.13 0.097-9.27 0.961-12.44 2.558-3.3 1.504-5.82 3.403-7.56 5.688-3.06 4.937-4.51 9.375-4.31 13.258 0 6.371 1.48 11.386 4.45 15.082 2.93 3.687 6.64 6.328 11.17 7.949 4.53 1.637 9.46 2.73 14.77 3.258 5.23 0.293 10.25 0.453 15.06 0.453h1.78v3.883c0.29 13.132-5.34 19.695-16.86 19.695-7.64 0.098-14.88-2.004-21.72-6.32v9.14c6.84 3.274 14.06 5.012 21.68 5.207 17.48 0.184 26.11-9.269 25.92-28.386v-33.653c-0.14-5.777 0.12-11.109 0.76-15.976h-8.95v12.187"/><path
        d="m2459.8 297.46h-14.9v8.027h14.9v5.547c0 4.082 0.17 8.078 0.57 11.965 0.17 3.797 0.91 7.176 2.18 10.144 1.21 3.118 3.19 5.567 5.92 7.375 2.58 1.747 6.19 2.625 10.8 2.625 1.54 0 3.15-0.046 4.79-0.144 1.66-0.293 2.89-0.734 3.75-1.309l-0.57-8.242c-2.03 1.113-4.43 1.68-7.23 1.68-3.02 0-5.31-0.715-6.85-2.121-1.66-1.61-2.77-3.555-3.34-5.84s-0.84-4.727-0.84-7.305c-0.1-2.676-0.16-5.254-0.16-7.734v-6.641h16.64v-8.027h-16.64v-68.16h-9.02v68.16"/><path
        d="m2535.1 297.46h-16.78v-49.391c0-3.515 0.77-6.465 2.33-8.847 1.42-2.481 3.92-3.731 7.52-3.731 3.3 0 6.11 0.606 8.42 1.84l0.56-7.758c-1.07-0.39-2.58-0.816-4.51-1.308-2.03-0.528-4.24-0.801-6.64-0.801-3.94 0-7.07 0.707-9.37 2.129-2.23 1.41-3.89 3.261-5.02 5.547-0.98 2.382-1.63 5.058-1.9 8.031-0.29 3.004-0.43 6.265-0.43 9.762v44.527h-14.47v8.027h14.47v18.391l9.04 3.281v-21.672h16.78v-8.027"/></g><g
        transform="scale(10)" fill="#6ba2dc"><g transform="matrix(1 0 0 -1 97.461 2.75)" aria-label="German Research Foundation"><path d="m6.204-3.498h-1.782v-0.66h2.541v3.817q-1.144 0.484-2.387 0.473-1.826-0.022-2.838-1.1-1.034-1.067-1.034-2.871 0.011-1.782 1.045-2.871 1.023-1.078 2.827-1.1 0.473 0 1.067 0.077 0.583 0.088 0.99 0.286l-0.088 0.704q-0.451-0.242-0.946-0.341-0.506-0.066-1.023-0.066-1.496 0.022-2.299 0.935-0.814 0.913-0.814 2.376 0 1.474 0.803 2.376 0.792 0.924 2.31 0.935 0.385 0 0.869-0.066 0.473-0.044 0.759-0.209z" style=""/><path
        d="m12.234-3.201q0-0.77-0.319-1.342-0.341-0.583-1.111-0.605-0.759 0.022-1.199 0.616-0.451 0.594-0.451 1.331zm0.341 3.025q-0.792 0.297-1.628 0.308-1.375-0.022-1.969-0.847-0.594-0.803-0.583-2.09 0.011-1.309 0.66-2.123 0.627-0.803 1.705-0.814 1.177 0.022 1.716 0.825 0.517 0.792 0.517 1.958v0.352h-3.839q0 0.913 0.473 1.507 0.462 0.627 1.375 0.638 0.407 0 0.858-0.143 0.451-0.121 0.715-0.275z"
        style=""/><path
        d="m14.313-4.356q0-0.781-0.044-1.254h0.693v1.078h0.022q0.198-0.495 0.561-0.847 0.352-0.352 0.88-0.363 0.275 0.011 0.484 0.066v0.726q-0.231-0.066-0.506-0.066-0.407 0.011-0.671 0.198-0.264 0.198-0.429 0.539-0.154 0.33-0.22 0.715-0.077 0.407-0.077 0.792v2.772h-0.693z"
        style=""/><path
        d="m24.751 0v-3.729q0-0.308-0.044-0.572-0.066-0.253-0.209-0.44-0.132-0.198-0.363-0.308-0.231-0.099-0.572-0.099-0.583 0-1.034 0.484-0.462 0.506-0.473 1.562v3.102h-0.693v-3.729q0-0.308-0.044-0.572-0.066-0.253-0.209-0.44-0.132-0.198-0.363-0.308-0.231-0.099-0.572-0.099-0.583 0-1.034 0.484-0.462 0.506-0.473 1.562v3.102h-0.693v-4.29q0-0.649-0.044-1.32h0.671v0.946l0.022 0.011q0.077-0.154 0.209-0.341 0.11-0.187 0.308-0.352t0.495-0.286q0.297-0.11 0.737-0.11 0.198 0 0.429 0.044 0.22 0.044 0.44 0.176 0.22 0.121 0.385 0.352 0.165 0.242 0.231 0.616h0.022q0.209-0.506 0.671-0.847 0.451-0.33 1.122-0.341 0.858 0.011 1.32 0.528 0.451 0.506 0.451 1.353v3.861z"
        style=""/><path
        d="m30.297-2.827h-0.198q-0.451 0-0.902 0.022-0.473 0.044-0.858 0.187-0.385 0.132-0.616 0.407-0.253 0.275-0.253 0.737 0 0.539 0.352 0.77 0.33 0.242 0.814 0.242 0.605 0 0.957-0.242 0.341-0.231 0.495-0.55 0.165-0.341 0.187-0.671 0.022-0.341 0.022-0.561zm0.066 1.925h-0.022q-0.242 0.495-0.737 0.759t-1.045 0.275q-0.583-0.011-0.946-0.187-0.374-0.165-0.572-0.418-0.352-0.55-0.33-0.979 0-0.704 0.341-1.111 0.33-0.407 0.847-0.583 0.517-0.187 1.122-0.242 0.594-0.033 1.144-0.033h0.132v-0.286q0.033-1.441-1.276-1.441-0.869-0.011-1.65 0.462v-0.671q0.781-0.363 1.65-0.385 1.991-0.022 1.969 2.09v2.475q-0.011 0.638 0.055 1.177h-0.682z"
        style=""/><path
        d="m32.64-4.29q0-0.649-0.044-1.32h0.671v1.001h0.022q0.099-0.198 0.231-0.396t0.33-0.363q0.209-0.176 0.517-0.275t0.737-0.099q1.034 0.011 1.485 0.616 0.429 0.594 0.429 1.54v3.586h-0.693v-3.41q0-0.803-0.297-1.276-0.319-0.451-1.034-0.462-0.924 0.022-1.298 0.66-0.198 0.297-0.275 0.649-0.088 0.363-0.088 0.737v3.102h-0.693z"
        style=""/><path
        d="m41.912-7.678h1.98q2.2-0.033 2.255 1.991-0.011 0.748-0.495 1.199-0.484 0.462-1.21 0.572v0.022q0.44 0.055 0.638 0.286 0.11 0.11 0.187 0.275 0.088 0.165 0.165 0.363l1.309 2.97h-0.836l-1.111-2.596q-0.308-0.715-0.638-0.891-0.165-0.099-0.374-0.121-0.209-0.011-0.484-0.011h-0.627v3.619h-0.759zm0.759 3.399h0.803q0.715 0.011 1.298-0.308 0.594-0.319 0.616-1.1 0-0.473-0.154-0.748t-0.418-0.396q-0.264-0.132-0.616-0.165-0.352-0.022-0.748-0.022h-0.781z"
        style=""/><path
        d="m51.352-3.201q0-0.77-0.319-1.342-0.341-0.583-1.111-0.605-0.759 0.022-1.199 0.616-0.451 0.594-0.451 1.331zm0.341 3.025q-0.792 0.297-1.628 0.308-1.375-0.022-1.969-0.847-0.594-0.803-0.583-2.09 0.011-1.309 0.66-2.123 0.627-0.803 1.705-0.814 1.177 0.022 1.716 0.825 0.517 0.792 0.517 1.958v0.352h-3.839q0 0.913 0.473 1.507 0.462 0.627 1.375 0.638 0.407 0 0.858-0.143 0.451-0.121 0.715-0.275z"
        style=""/><path
        d="m53.002-0.814q0.638 0.341 1.463 0.352 0.517 0 0.88-0.275 0.352-0.253 0.363-0.726-0.011-0.495-0.407-0.781-0.396-0.275-0.935-0.495-0.253-0.121-0.484-0.253t-0.44-0.297q-0.187-0.176-0.308-0.407-0.121-0.22-0.121-0.517 0.011-0.836 0.572-1.188 0.539-0.341 1.254-0.341 0.242 0 0.627 0.044 0.385 0.066 0.759 0.209l-0.066 0.605q-0.605-0.253-1.243-0.264-0.539 0-0.858 0.198-0.165 0.099-0.253 0.275-0.099 0.176-0.099 0.462 0 0.176 0.121 0.33 0.121 0.143 0.319 0.264 0.198 0.11 0.451 0.231 0.253 0.11 0.495 0.242 0.55 0.231 0.957 0.616t0.418 1.067q0 0.44-0.176 0.737-0.187 0.308-0.473 0.495-0.616 0.363-1.309 0.363-0.814 0-1.573-0.264z"
        style=""/><path
        d="m61.133-3.201q0-0.77-0.319-1.342-0.341-0.583-1.111-0.605-0.759 0.022-1.199 0.616-0.451 0.594-0.451 1.331zm0.341 3.025q-0.792 0.297-1.628 0.308-1.375-0.022-1.969-0.847-0.594-0.803-0.583-2.09 0.011-1.309 0.66-2.123 0.627-0.803 1.705-0.814 1.177 0.022 1.716 0.825 0.517 0.792 0.517 1.958v0.352h-3.839q0 0.913 0.473 1.507 0.462 0.627 1.375 0.638 0.407 0 0.858-0.143 0.451-0.121 0.715-0.275z"
        style=""/><path
        d="m66.369-2.827h-0.198q-0.451 0-0.902 0.022-0.473 0.044-0.858 0.187-0.385 0.132-0.616 0.407-0.253 0.275-0.253 0.737 0 0.539 0.352 0.77 0.33 0.242 0.814 0.242 0.605 0 0.957-0.242 0.341-0.231 0.495-0.55 0.165-0.341 0.187-0.671 0.022-0.341 0.022-0.561zm0.066 1.925h-0.022q-0.242 0.495-0.737 0.759t-1.045 0.275q-0.583-0.011-0.946-0.187-0.374-0.165-0.572-0.418-0.352-0.55-0.33-0.979 0-0.704 0.341-1.111 0.33-0.407 0.847-0.583 0.517-0.187 1.122-0.242 0.594-0.033 1.144-0.033h0.132v-0.286q0.033-1.441-1.276-1.441-0.869-0.011-1.65 0.462v-0.671q0.781-0.363 1.65-0.385 1.991-0.022 1.969 2.09v2.475q-0.011 0.638 0.055 1.177h-0.682z"
        style=""/><path
        d="m68.712-4.356q0-0.781-0.044-1.254h0.693v1.078h0.022q0.198-0.495 0.561-0.847 0.352-0.352 0.88-0.363 0.275 0.011 0.484 0.066v0.726q-0.231-0.066-0.506-0.066-0.407 0.011-0.671 0.198-0.264 0.198-0.429 0.539-0.154 0.33-0.22 0.715-0.077 0.407-0.077 0.792v2.772h-0.693z"
        style=""/><path
        d="m75.828-4.862q-0.594-0.275-1.199-0.286-1.012 0.011-1.551 0.649-0.561 0.649-0.561 1.694 0 0.979 0.55 1.639 0.539 0.693 1.485 0.704 0.649 0 1.265-0.253l0.066 0.649q-0.682 0.209-1.441 0.198-1.353-0.022-2.013-0.891-0.671-0.847-0.671-2.046 0.011-1.331 0.77-2.123 0.748-0.803 2.002-0.814 0.517 0 0.858 0.077 0.176 0.033 0.308 0.066 0.121 0.044 0.187 0.077z"
        style=""/><path
        d="m77.057-8.25h0.693v3.586h0.022q0.231-0.473 0.682-0.781 0.451-0.286 1.067-0.297 1.122 0.011 1.529 0.66 0.396 0.66 0.385 1.727v3.355h-0.693v-3.344q0-0.374-0.044-0.704-0.044-0.319-0.187-0.561-0.264-0.528-1.1-0.539-0.902 0.022-1.287 0.693t-0.374 1.452v3.003h-0.693z"
        style=""/><path d="m86.209-7.678h3.652v0.66h-2.893v2.739h2.761v0.66h-2.761v3.619h-0.759z" style=""/><path
        d="m91.444-2.805q0 1.001 0.484 1.65 0.462 0.682 1.375 0.693 0.913-0.011 1.397-0.693 0.462-0.649 0.462-1.65t-0.462-1.672q-0.484-0.66-1.397-0.671-0.913 0.011-1.375 0.671-0.484 0.671-0.484 1.672zm-0.759 0q0-1.199 0.638-2.046 0.638-0.869 1.98-0.891 1.364 0.022 2.002 0.891 0.616 0.847 0.616 2.046 0 1.177-0.616 2.035-0.638 0.88-2.002 0.902-1.342-0.022-1.98-0.902-0.638-0.858-0.638-2.035z"
        style=""/><path
        d="m101.61-1.32q-0.011 0.638 0.044 1.32h-0.671v-1.001h-0.022q-0.077 0.187-0.209 0.374-0.132 0.198-0.341 0.374-0.209 0.165-0.517 0.264-0.308 0.121-0.748 0.121-1.023-0.011-1.474-0.616-0.451-0.594-0.44-1.54v-3.586h0.693v3.41q0 0.803 0.319 1.254 0.308 0.484 1.012 0.484 0.473 0 0.803-0.198 0.33-0.187 0.506-0.484 0.198-0.308 0.275-0.66t0.077-0.704v-3.102h0.693z"
        style=""/><path
        d="m103.35-4.29q0-0.649-0.044-1.32h0.671v1.001h0.022q0.099-0.198 0.231-0.396t0.33-0.363q0.209-0.176 0.517-0.275t0.737-0.099q1.034 0.011 1.485 0.616 0.429 0.594 0.429 1.54v3.586h-0.693v-3.41q0-0.803-0.297-1.276-0.319-0.451-1.034-0.462-0.924 0.022-1.298 0.66-0.198 0.297-0.275 0.649-0.088 0.363-0.088 0.737v3.102h-0.693z"
        style=""/><path
        d="m109.9-2.805q0 0.396 0.077 0.803 0.088 0.418 0.264 0.77 0.198 0.33 0.517 0.539 0.308 0.231 0.803 0.231 0.462 0 0.792-0.231 0.308-0.209 0.506-0.561 0.374-0.748 0.363-1.551 0-0.396-0.077-0.814-0.088-0.396-0.286-0.748t-0.506-0.572q-0.33-0.209-0.792-0.209-0.495 0-0.803 0.209-0.319 0.198-0.517 0.55-0.176 0.33-0.264 0.748-0.077 0.418-0.077 0.836zm4.015 2.805h-0.693v-0.891h-0.022q-0.55 1.034-1.749 1.023-1.155-0.022-1.727-0.847-0.583-0.825-0.583-2.09-0.011-1.309 0.539-2.112 0.55-0.814 1.771-0.825 0.418 0 0.726 0.121 0.319 0.121 0.528 0.308 0.429 0.385 0.495 0.649h0.022v-3.586h0.693z"
        style=""/><path
        d="m118.74-2.827h-0.198q-0.451 0-0.902 0.022-0.473 0.044-0.858 0.187-0.385 0.132-0.616 0.407-0.253 0.275-0.253 0.737 0 0.539 0.352 0.77 0.33 0.242 0.814 0.242 0.605 0 0.957-0.242 0.341-0.231 0.495-0.55 0.165-0.341 0.187-0.671 0.022-0.341 0.022-0.561zm0.066 1.925h-0.022q-0.242 0.495-0.737 0.759t-1.045 0.275q-0.583-0.011-0.946-0.187-0.374-0.165-0.572-0.418-0.352-0.55-0.33-0.979 0-0.704 0.341-1.111 0.33-0.407 0.847-0.583 0.517-0.187 1.122-0.242 0.594-0.033 1.144-0.033h0.132v-0.286q0.033-1.441-1.276-1.441-0.869-0.011-1.65 0.462v-0.671q0.781-0.363 1.65-0.385 1.991-0.022 1.969 2.09v2.475q-0.011 0.638 0.055 1.177h-0.682z"
        style=""/><path
        d="m123.5-5.016h-1.276v3.63q0 0.385 0.176 0.649 0.165 0.275 0.572 0.275 0.374 0 0.638-0.132l0.044 0.572q-0.121 0.044-0.341 0.099-0.231 0.055-0.506 0.055-0.451 0-0.715-0.154-0.253-0.154-0.385-0.407-0.11-0.264-0.143-0.594t-0.033-0.715v-3.278h-1.1v-0.594h1.1v-1.353l0.693-0.242v1.595h1.276z"
        style=""/><path d="m125.44-7.106h-0.693v-0.924h0.693zm-0.693 1.496h0.693v5.61h-0.693z" style=""/><path
        d="m127.52-2.805q0 1.001 0.484 1.65 0.462 0.682 1.375 0.693 0.913-0.011 1.397-0.693 0.462-0.649 0.462-1.65t-0.462-1.672q-0.484-0.66-1.397-0.671-0.913 0.011-1.375 0.671-0.484 0.671-0.484 1.672zm-0.759 0q0-1.199 0.638-2.046 0.638-0.869 1.98-0.891 1.364 0.022 2.002 0.891 0.616 0.847 0.616 2.046 0 1.177-0.616 2.035-0.638 0.88-2.002 0.902-1.342-0.022-1.98-0.902-0.638-0.858-0.638-2.035z"
        style=""/><path
        d="m133.31-4.29q0-0.649-0.044-1.32h0.671v1.001h0.022q0.099-0.198 0.231-0.396t0.33-0.363q0.209-0.176 0.517-0.275t0.737-0.099q1.034 0.011 1.485 0.616 0.429 0.594 0.429 1.54v3.586h-0.693v-3.41q0-0.803-0.297-1.276-0.319-0.451-1.034-0.462-0.924 0.022-1.298 0.66-0.198 0.297-0.275 0.649-0.088 0.363-0.088 0.737v3.102h-0.693z"
        style=""/></g>
    <g transform="matrix(1 0 0 -1 .0222 63.955)" aria-label="Funded by"><path d="m0.94611-8.5764h4.0793v0.73723h-3.2315v3.0595h3.0841v0.73723h-3.0841v4.0425h-0.84781z" style=""/>
        <path d="m11.316-1.4745q-0.012287 0.71265 0.049148 1.4745h-0.74951v-1.1181h-0.02457q-0.08601 0.20888-0.23346 0.41776-0.14745 0.22117-0.3809 0.41776-0.23345 0.18431-0.57749 0.29489-0.34404 0.13516-0.83552 0.13516-1.1427-0.012287-1.6465-0.68808-0.50377-0.6635-0.49148-1.7202v-4.0056h0.77409v3.809q0 0.89696 0.35633 1.4007 0.34404 0.54063 1.1304 0.54063 0.52835 0 0.89696-0.22117 0.36861-0.20888 0.56521-0.54063 0.22117-0.34404 0.30718-0.73723t0.08601-0.78637v-3.465h0.77409z"
              style=""/>
        <path d="m13.258-4.792q0-0.72494-0.04915-1.4745h0.74951v1.1181h0.02458q0.11058-0.22117 0.25803-0.44234t0.36861-0.40547q0.23346-0.19659 0.57749-0.30718 0.34404-0.11058 0.82324-0.11058 1.155 0.012287 1.6588 0.68808 0.4792 0.6635 0.4792 1.7202v4.0056h-0.77409v-3.809q0-0.89696-0.33175-1.4253-0.35632-0.50377-1.155-0.51606-1.0321 0.024574-1.4499 0.73723-0.22117 0.33175-0.30718 0.72494-0.0983 0.40547-0.0983 0.82324v3.465h-0.77409z"
              style=""/>
        <path d="m20.569-3.1332q0 0.44234 0.08601 0.89696 0.0983 0.46691 0.29489 0.8601 0.22117 0.36861 0.57749 0.60207 0.34404 0.25803 0.89696 0.25803 0.51606 0 0.88467-0.25803 0.34404-0.23345 0.56521-0.62664 0.41776-0.83552 0.40548-1.7325 0-0.44234-0.08601-0.90925-0.0983-0.44234-0.31946-0.83552-0.22117-0.39319-0.56521-0.63893-0.36861-0.23345-0.88467-0.23345-0.55292 0-0.89696 0.23345-0.35633 0.22117-0.57749 0.61436-0.19659 0.36861-0.29489 0.83552-0.08601 0.46691-0.08601 0.93382zm4.4848 3.1332h-0.77409v-0.99526h-0.02458q-0.61435 1.155-1.9536 1.1427-1.2901-0.024574-1.9291-0.94611-0.65122-0.92153-0.65122-2.3345-0.01229-1.4622 0.60207-2.3591 0.61436-0.90925 1.9782-0.92153 0.46691 0 0.81095 0.13516 0.35633 0.13516 0.58978 0.34404 0.4792 0.43005 0.55292 0.72494h0.02458v-4.0056h0.77409z"
              style=""/>
        <path d="m30.742-3.5755q0-0.8601-0.35632-1.499-0.3809-0.65122-1.241-0.67579-0.84781 0.024574-1.3393 0.68808-0.50377 0.6635-0.50377 1.4867zm0.3809 3.379q-0.88467 0.33175-1.8185 0.34404-1.5359-0.024574-2.1994-0.94611-0.6635-0.89696-0.65122-2.3345 0.01229-1.4622 0.73723-2.3714 0.70036-0.89696 1.9045-0.90925 1.3147 0.024574 1.9168 0.92153 0.57749 0.88467 0.57749 2.1871v0.39319h-4.2882q0 1.0198 0.52834 1.6833 0.51606 0.70036 1.5359 0.71265 0.45462 0 0.95839-0.15973 0.50377-0.13516 0.79866-0.30718z"
              style=""/>
        <path d="m33.544-3.1332q0 0.44234 0.08601 0.89696 0.0983 0.46691 0.29489 0.8601 0.22117 0.36861 0.57749 0.60207 0.34404 0.25803 0.89696 0.25803 0.51606 0 0.88467-0.25803 0.34404-0.23345 0.56521-0.62664 0.41776-0.83552 0.40547-1.7325 0-0.44234-0.08601-0.90925-0.0983-0.44234-0.31946-0.83552-0.22117-0.39319-0.56521-0.63893-0.36861-0.23345-0.88467-0.23345-0.55292 0-0.89696 0.23345-0.35633 0.22117-0.57749 0.61436-0.19659 0.36861-0.29489 0.83552-0.08601 0.46691-0.08601 0.93382zm4.4848 3.1332h-0.77409v-0.99526h-0.02457q-0.61436 1.155-1.9537 1.1427-1.2901-0.024574-1.9291-0.94611-0.65122-0.92153-0.65122-2.3345-0.01229-1.4622 0.60207-2.3591 0.61436-0.90925 1.9782-0.92153 0.46691 0 0.81095 0.13516 0.35633 0.13516 0.58978 0.34404 0.4792 0.43005 0.55292 0.72494h0.02457v-4.0056h0.77409z"
              style=""/>
        <path d="m47.723-3.1332q0-0.46691-0.06143-0.93382-0.08601-0.46691-0.30718-0.83552-0.19659-0.39319-0.56521-0.61436-0.36861-0.23345-0.92153-0.23345-0.51606 0-0.87238 0.23345-0.35633 0.24574-0.57749 0.63893-0.41776 0.82324-0.40548 1.7448-0.01229 0.89696 0.41776 1.7325 0.22117 0.39319 0.57749 0.62664 0.34404 0.25803 0.8601 0.25803 0.55292 0 0.92153-0.25803 0.36861-0.23345 0.56521-0.60207 0.22117-0.39319 0.30718-0.8601 0.06143-0.45462 0.06143-0.89696zm-4.4848-6.0821h0.77409v4.0056h0.02457q0.04915-0.13516 0.19659-0.34404 0.13516-0.19659 0.36861-0.3809 0.24574-0.20888 0.58978-0.34404t0.79866-0.13516q1.3762 0.012287 1.9905 0.92153 0.58978 0.89696 0.58978 2.3591 0 1.413-0.63893 2.3345-0.65121 0.92153-1.9414 0.94611-1.3393 0.012287-1.9536-1.1427h-0.02457v0.99526h-0.77409z"
              style=""/>
        <path d="m51.888-1.0444h0.01229l1.8062-5.222h0.81095l-2.5066 7.2002q-0.20888 0.67579-0.57749 1.1796-0.18431 0.24574-0.44234 0.3809-0.25803 0.14745-0.58978 0.15973-0.43005 0-0.83552-0.098297l0.07372-0.6635q0.11058 0.036861 0.24574 0.061435 0.13516 0.036861 0.33175 0.036861 0.4792-0.012287 0.72494-0.39319 0.24574-0.35633 0.40547-0.97068l0.15974-0.55292-2.224-6.3401h0.84781z"
              style=""/></g></g></g></g></svg>
