<svg width="186.34" height="70.87" version="1.1" viewBox="0 0 186.34 70.87" xml:space="preserve"
     xmlns="http://www.w3.org/2000/svg"><g transform="matrix(1.3333 0 0 -1.3333 -1.127 70.772)"><g transform="scale(.1)"><g transform="matrix(.27172 0 0 .27172 8.4522 -.73581)"><g><path d="m5143.3 1414.4h-700v113.33h700v-113.33" fill="#4190d5"/><path
        d="m5143.3 1263.3h-700v113.33h700v-113.33" fill="#5baee4"/><path d="m5143.3 1112.2h-700v113.33h700v-113.33"
                                                                         fill="#82beea"/><path
        d="m5143.3 961.07h-700v113.32h700v-113.32" fill="#a6d0ef"/><path d="m5143.3 809.95h-700v113.34h700v-113.34"
                                                                         fill="#a1bed8"/><path
        d="m5143.3 658.85h-700v113.33h700v-113.33" fill="#6394bd"/><path d="m5143.3 507.74h-700v113.33h700v-113.33"
                                                                         fill="#4d86b4"/><path
        d="m5143.3 356.62h-700v113.33h700v-113.33" fill="#2c679d"/></g><g fill="none" stroke-width="115"><path d="m2198.9 564.47s-7.26-0.028-8.39 0.011c-15.42 0.782-129.67 6.129-193.82-0.082-68.89-6.66-350-113.33-481.12-95.546-52.21 5.546-126.29 34.57-154.3 55.546-129.03 96.672-195.7 247.22-210.14 280.28-190 409.71-327.78 1140.8-327.78 1140.8" stroke="#a1bed8"/>
    <path d="m531.11 1546.6c230-25.55 517.77-44.44 882.23-202.23 378.28-189.45 732.53-178.02 777.25-175.8"
          stroke="#82beea"/>
    <path d="m562.22 494.4s541.12 480 813.33 471.11c317.73-42.067 351.98-108.4 814.63-98.988 1.69 0.031 3.39 0.058 5.1 0.101"
          stroke="#a6d0ef"/>
    <path d="m34.445 1375.5s877.78-656.66 1255.6-731.11c221.11-36.109 331.42 22.411 400.84 41.313 69.41 18.898 246.38 39.109 501.38 31.32"
          stroke="#4d86b4"/>
    <path d="m627.78 781.07s573.32-424.45 872.22-448.89c144.93-22.129 539.92 86.84 690.29 81.191 0.64-0.031 1.29-0.051 1.93-0.082"
          stroke="#5baee4"/>
    <path d="m2198.9 1320.2c-1.55 0-7.56-0.2-9.16-0.21-92.33-0.42-239.59-12.78-360.84 18.9-7.35 1.77-303.07 73.78-360 59.99-182.21-28.88-341.1-341.11-341.1-341.11-157.69-255.22-348.89-1043.3-348.89-1043.3"
          stroke="#4190d5"/>
    <path d="m654.44 1192.2s563.34-27.79 805.56-83.28c247.97-63.16 536.09-92.32 730.07-91.19l8.8-0.01"
          stroke="#729dc3"/>
    <path d="m2198.9 1471.1-11.11-0.01s-230.9-4.14-333.33-70.46c-111.66-72.31-301.01-322.65-326.66-367.31-25.65-44.657-205-334.44-280-412.22-212.5-269.45-697.5-482.78-697.5-482.78"
          stroke="#2c679d"/></g><g><path d="m2189.6 355.86h9.3v115.09h-9.16l-0.14-115.09" fill="#5baee4"/>
    <path d="m2189.7 659.58h9.16v115.04h-9.16v-115.04" fill="#4d86b4"/>
    <path d="m2189.7 924.05h9.16v-115.05h-9.16v115.05" fill="#a6d0ef"/>
    <path d="m2189.7 1110.9h9.16v115.09h-10.89l1.73-115.09" fill="#82beea"/></g><g fill="#171717"><path d="m2653.9 1254.3v-253.1h-108.68v237.14c0 31.92-17.48 49.4-43.32 49.4h-18.24c-34.96 0-56.25-25.84-56.25-62.32v-224.22h-108.68v370.91h95.01l5.31-46.37c18.24 33.45 54.73 53.97 102.61 53.97h16.72c73.73 0 115.52-50.17 115.52-125.41"/>
    <path d="m2852.2 1402.5v-30.4h67.64v-82.09h-67.64v-288.82h-108.69v288.82h-46.36v82.09h46.36v40.28c0 94.24 47.13 128.45 123.89 128.45h60.81v-85.13h-25.85c-41.04 0-50.16-19-50.16-53.2"/>
    <path d="m3187.4 1160.8v51.68c0 50.17-22.79 76.01-57.76 76.01h-17.48c-34.2 0-51.68-26.6-51.68-66.13v-76c0-40.27 20.51-61.56 51.68-61.56h17.48c38 0 57.76 30.39 57.76 76zm108.69 372.42v-532.03h-95.01l-5.32 48.65c-19-34.97-53.96-56.247-98.8-56.247h-19c-76.77 0-128.45 55.477-128.45 138.34v102.59c0 87.41 52.44 145.18 131.48 145.18h15.97c39.52 0 70.68-15.96 90.44-43.33v196.85h108.69"/>
    <path d="m3383.5 1372.1h108.7v-370.91h-108.7zm0 152.76h108.7v-91.2h-108.7v91.2"/>
    <path d="m4054.1 1067.1h-56.25v-85.885h-102.6v85.885h-219.66v82.08l191.81 376.61 105.42-7.5-175.61-358.47h98.04v109.45h102.6v-109.45h56.25v-92.72"/>
    <path d="m2653.9 624.31v-253.1h-108.68v237.13c0 31.93-17.48 49.41-43.32 49.41h-18.24c-34.96 0-56.25-28.129-56.25-69.93v-216.61h-108.68v532.02h108.68v-200.64c18.24 29.64 50.93 47.121 94.25 47.121h16.72c73.73 0 115.52-50.16 115.52-125.4"/>
    <path d="m2824.1 599.22v-6.84h129.21v6.84c0 48.64-22.04 69.172-56.24 69.172h-15.97c-38.76 0-57-25.852-57-69.172zm0-95c0-40.278 15.96-62.321 52.44-62.321h32.69c28.11 0 47.12-3.328 79.55 29.133l57.9-57.312c-55.33-50.11-75.13-60.188-160.26-60.188l-24.26 1.5c-66.64 5.481-136.08 66.59-144.47 147.67v97.281c0 89.692 62.33 149.73 155.81 149.73h30.4c92.73 0 151.25-57.77 151.25-146.69v-81.321h-231.05v-17.48"/>
    <path d="m3335.6 501.17v23.566h-89.67c-25.09 0-40.29-16.718-40.29-41.808 0-26.59 19.01-41.032 47.12-41.032h22.04c38.01 0 60.8 24.313 60.8 59.274zm104.9 122.38v-252.34h-91.22l-5.31 43.32c-19-31.922-53.2-50.922-95.01-50.922h-24.31c-74.5 0-123.89 41.039-123.89 110.21 0 76 57.75 116.28 145.17 116.28h89.67v33.449c0 27.359-18.23 41.027-45.59 41.027h-23.57c-53.45 3.5-76.33-29.656-76.33-29.656l-62.3 59.398s40.24 57.032 125.71 55.391h55.48c79.05 0 131.5-50.16 131.5-126.16"/>
    <path d="m3521 488.25v414.98h108.68v-397.5c0-32.671 9.89-50.152 39.53-50.152h14.44v-91.969h-54.73c-72.2 0-107.92 44.09-107.92 124.64"/>
    <path d="m3953.7 459.38v-95.77h-63.84c-98.05 0-133.77 41.039-133.77 114.77v181.64h-44.84v82.089h44.84v117.04h108.68v-117.04h77.53v-82.089h-77.53v-152c0-36.489 22.04-48.641 57.01-48.641h31.92"/>
    <path d="m4341.3 614.31v-253.1h-108.69v237.13c0 31.93-17.48 49.41-43.32 49.41h-18.24c-34.96 0-56.25-28.129-56.25-69.93v-216.61h-108.68v532.02h108.68v-200.64c18.24 29.64 50.93 47.121 94.25 47.121h16.72c73.73 0 115.53-50.16 115.53-125.4"/>
    <path d="m2422.1 117.94h-38.74v-113.28h-23.5v113.28h-38.73v21.579h100.97v-21.579"/>
    <path d="m2497 53.789-6.54 20.621c-4.24 13.859-7.9 26.199-11.95 41.61-4.24-15.411-7.91-28.129-12.33-42.192l-6.55-20.039zm6.75-20.617h-50.68l-9.25-28.512h-25.42l48.17 134.86h23.89l47.58-134.86h-25.23l-9.06 28.512"/>
    <path d="m2563.2 17.148 16.25 15.711c15.13-12.09 16.92-10.5 29.91-12.059h7.51c15.61 0 21.97 8.0976 21.97 19.859 0 13.289-9.25 15.789-22.54 18.691-31.99 6.7382-50.1 13.859-50.1 40.648 0 25.422 17.46 40.328 42.69 40.328h7.75c28.39-1.019 29.83-3.207 45.18-15.859l-14.16-14.231c-6.12 8.422-20.96 7.684-32.32 7.684h-6.17c-13.87 0-19.27-7.141-19.27-16.781 0-13.672 11.17-16.36 29.47-20.032 32.57-6.7383 43.17-17.719 43.17-39.5 0-28.508-18.3-41.621-45.47-41.621l-7.96 0.15234c-30.14 3.9883-23.37 3.6289-45.91 17.008"/>
    <path d="m2737.9 66.691-21.2-26.391v-35.641h-23.5v134.86h23.5v-68.399l52.41 68.399h27.17l-43.93-54.719 46.82-80.141h-26.99l-34.28 62.031"/>
    <path d="m2858.2 118.53v-37.582h51.07v-20.621h-51.07v-55.668h-23.49v134.86h83.99v-20.989h-60.5"/>
    <path d="m2998.6 24.5c16.18 0 25.23 10.602 25.23 26.781v40.457c0 18.114-10.21 27.942-25.23 27.942h-7.91c-16.38 0-25.43-11.18-25.43-27.942v-40.457c0-17.332 10.21-26.781 25.43-26.781zm-57.23 24.66v44.891c0 28.519 19.47 47.41 48.55 47.41h9.26c29.08 0 48.54-18.691 48.54-47.41v-44.891c0-27.941-19.46-46.43-48.54-46.43h-9.26c-29.08 0-48.55 18.488-48.55 46.43"/>
    <path d="m3109.4 79.211h31.2c11.76 0 18.31 7.5196 18.31 18.898v1.9106c0 12.339-7.14 18.691-18.31 18.691h-31.2zm25.24-20.422h-25.24v-54.129h-23.51v134.86h57.42c24.08 0 39.49-15.411 39.49-38.911v-2.7106c0-18.098-9.44-31.207-24.85-36.219l28.72-57.02h-26.99l-25.04 54.129"/>
    <path d="m3221 49.16v44.891c0 28.519 19.47 47.41 48.55 47.41h6.75c26.39 0 43.15-15.621 43.15-41.051h-23.89c0 13.11-8.09 19.27-20.04 19.27h-5.2c-16.56 0-25.43-11.18-25.43-27.942v-40.457c0-18.109 10.21-26.781 25.43-26.781h5.2c12.72 0 20.24 6.75 20.24 18.691h23.69c0-25.043-16.94-40.461-43.15-40.461h-6.75c-30.43 0-48.55 18.488-48.55 46.43"/>
    <path d="m3376.4 118.53v-35.461h53.35v-20.422h-53.35v-36.988h62.81v-21h-86.32v134.86h86.32v-20.989h-62.81"/>
    <path d="m3524.7 49.16v44.891c0 28.519 19.47 47.41 48.56 47.41h6.75c26.39 0 43.15-15.621 43.15-41.051h-23.9c0 13.11-8.08 19.27-20.02 19.27h-5.21c-16.57 0-25.43-11.18-25.43-27.942v-40.457c0-18.109 10.21-26.781 25.43-26.781h5.21c12.71 0 20.23 6.75 20.23 18.691h23.69c0-25.043-16.95-40.461-43.15-40.461h-6.75c-30.44 0-48.56 18.488-48.56 46.43"/>
    <path d="m3703.6 24.5c16.18 0 25.24 10.602 25.24 26.781v40.457c0 18.114-10.22 27.942-25.24 27.942h-7.91c-16.37 0-25.43-11.18-25.43-27.942v-40.457c0-17.332 10.22-26.781 25.43-26.781zm-57.22 24.66v44.891c0 28.519 19.46 47.41 48.54 47.41h9.26c29.08 0 48.54-18.691 48.54-47.41v-44.891c0-27.941-19.46-46.43-48.54-46.43h-9.26c-29.08 0-48.54 18.488-48.54 46.43"/>
    <path d="m3881 139.52-44.5-134.86h-23.7l-44.71 134.86h25.44l19.27-63.391c4.24-14.449 8.09-28.508 11.75-42.391 3.86 14.07 7.7 28.152 11.95 42.59l19.26 63.192h25.24"/>
    <path d="m3904.9 139.52h23.5v-134.86h-23.5v134.86"/>
    <path d="m4047.1 89.621c0 18.109-10.02 28.32-25.05 28.32h-26.2v-91.71h26.2c15.99 0 25.05 10.789 25.05 26.969zm23.89 2.3203v-40.852c0-27.93-19.27-46.43-48.17-46.43h-50.48v134.86h50.48c28.9 0 48.17-18.872 48.17-47.579"/>
    <path d="m4103.4 67.852h58.96v-20.613h-58.96v20.613"/>
    <path d="m4226.3 135.67v-131.01h-22.74v105.39l-24.66-16.57v23.308l26.58 18.883h20.82"/>
    <path d="m4300 75.059c-9.52 0-17.33 8.8906-17.33 19.781 0 10.969 7.81 19.769 17.33 19.769 9.62 0 17.32-8.8 17.32-19.769 0-10.891-7.7-19.781-17.32-19.781zm0 61.32c-23.49 0-41.36-17.957-41.36-41.539 0-23.5 15.51-41.012 38.92-38.558 2.08 0.2695 4.08 0.5468 5.98 0.8085 0-0.8085-26.77-53.328-26.77-53.328h25.68s35.19 68.918 37.1 79.738c0.56 3.1797 1.54 6.5195 1.73 10.238 0.9 26.864-17.7 42.641-41.28 42.641"/></g></g></g></g></svg>
