<?xml version="1.0" encoding="utf-8"?>
<!-- Generator: Adobe Illustrator 25.0.1, SVG Export Plug-In . SVG Version: 6.00 Build 0)  -->
<svg version="1.1" id="Nachbau" xmlns="http://www.w3.org/2000/svg" x="0px" y="0px"
	 viewBox="0 0 32 32" style="enable-background:new 0 0 32 32;" xml:space="preserve">
<style type="text/css">
	.st0{fill:#B3CAE4;}
	.st1{fill:#83C2E9;}
	.st2{fill:#0067A2;}
	.st3{fill:#BBD7E8;}
	.st4{fill:#5F9BC7;}
	.st5{fill:#2DAADE;}
	.st6{fill:#008ACD;}
	.st7{fill:#8AB2D5;}
</style>
	<path class="st0" d="M23.6,24.2c-3.2,0-6.2-1.9-7.6-5.1c-3-6.9-4.7-16.4-4.8-16.8l1.6-0.3c0,0.1,1.8,9.7,4.7,16.4
	c1.3,3.1,4.5,4.7,7.7,3.9l0.6-0.1c1.8-0.4,3.1-0.8,6.2-0.8v1.6c-2.9,0-4,0.3-5.8,0.7L25.6,24C24.9,24.1,24.2,24.2,23.6,24.2z"/>
	<path class="st1" d="M30,14.3c-2.4,0-5.5-0.3-9.8-2.7c-4.7-2-8.5-2.4-11.6-2.8L7.6,8.8l0.2-1.6l0.9,0.1c3.2,0.3,7.2,0.8,12.1,2.9
	l0.1,0c4.6,2.6,7.6,2.5,10.1,2.5c0.3,0,0.6,0,0.9,0v1.6c-0.3,0-0.6,0-0.9,0C30.7,14.3,30.4,14.3,30,14.3z"/>
	<path class="st2" d="M8.4,29.2l-0.7-1.5c0.5-0.2,0.9-0.4,1.4-0.7c2.2-1,4.7-2.2,7.1-4.7c1.9-1.9,3.2-4.2,4.4-6.4
	c2.3-4,4.4-7.7,9.4-7.7H32v1.6H30c-4.1,0-5.8,3-8,6.9c-1.2,2.2-2.6,4.7-4.7,6.7c-2.7,2.7-5.3,3.9-7.6,5C9.2,28.8,8.8,29,8.4,29.2z"
	/>
	<path class="st3" d="M8.9,23.7l-1.4-0.9c5.1-7.9,10.2-7.2,16.7-6.4c2.3,0.3,4.9,0.6,7.8,0.6v1.6c-3,0-5.6-0.3-8-0.6
	C17.6,17.2,13.3,16.7,8.9,23.7z"/>
	<path class="st4" d="M18.4,21.4c-3.2,0-7-1.6-18.4-10.3l1-1.3c13.9,10.5,15.9,10.2,19.2,9.8c4.2-0.6,6-0.5,8.5-0.4
	c0.9,0,2,0.1,3.2,0.1v1.6c-1.3,0-2.4,0-3.3-0.1c-2.4-0.1-4.2-0.1-8.2,0.4C19.8,21.4,19.1,21.4,18.4,21.4z"/>
	<path class="st5" d="M22.8,26.7L22.8,26.7c-2.1,0-4.8-0.8-8.1-2.4c-2.8-1.4-5.4-2.9-7.9-4.7l0.9-1.3c7.2,5,12.5,6.8,15.1,6.8h0
	c1.8,0,3-0.3,4.3-0.7c1.3-0.4,2.7-0.8,4.9-0.8v1.6c-1.9,0-3.2,0.3-4.5,0.7C26.2,26.3,24.8,26.7,22.8,26.7z"/>
	<path class="st6" d="M12.1,30.4l-1.6-0.4C13,18.8,15.6,11.5,20.8,9.7c2.4-0.8,3.6-0.5,5.2,0c1.3,0.4,2.9,0.8,6,0.8v1.6
	c-3.3,0-5.1-0.5-6.4-0.9c-1.5-0.4-2.3-0.6-4.2,0C16.8,12.8,14.4,20,12.1,30.4z"/>
	<path class="st7" d="M32,16.5c-4.3,0-6.3-0.4-8.4-0.9c-0.8-0.2-1.6-0.3-2.5-0.5c-3.6-0.6-6.6-0.5-9.2-0.5c-0.7,0-1.4,0-2.1,0v-1.6
	c0.7,0,1.4,0,2.1,0c2.7-0.1,5.7-0.1,9.5,0.5c1,0.2,1.8,0.3,2.6,0.5c2,0.4,3.9,0.8,8,0.8V16.5z"/>
</svg>
