<svg width="187.26" height="102.76" version="1.1" viewBox="0 0 187.26 102.76" xml:space="preserve"
     xmlns="http://www.w3.org/2000/svg"><g transform="matrix(1.25 0 0 -1.25 0 102.76)"><g transform="scale(.1)"><g fill="#be1d2c"><path d="m682.58 203.75v17.367c0 9.649 7.832 17.469 17.52 17.469h17.414c9.675 0 17.519-7.82 17.519-17.469v-17.367c0-9.637-7.844-17.461-17.519-17.461h-17.414c-9.688 0-17.52 7.824-17.52 17.461"/><path
        d="m916.08 384.81h-17.363c-9.637 0-17.461 7.847-17.461 17.519v17.422c0 9.668 7.824 17.512 17.461 17.512h17.363c9.649 0 17.473-7.844 17.473-17.512v-17.422c0-9.672-7.824-17.519-17.473-17.519"/><path
        d="m781.99 303.15v17.364c0 9.64 7.84 17.457 17.508 17.457h17.422c9.668 0 17.512-7.817 17.512-17.457v-17.364c0-9.644-7.844-17.461-17.512-17.461h-17.422c-9.668 0-17.508 7.817-17.508 17.461"/></g><path
        d="m735.04 618.32v-17.371c0-9.64-7.844-17.461-17.519-17.461h-17.422c-9.68 0-17.512 7.821-17.512 17.461v17.371c0 9.649 7.832 17.461 17.512 17.461h17.422c9.675 0 17.519-7.812 17.519-17.461"
        fill="#d01d2c"/><g fill="#f47218"><path d="m501.53 437.26h17.364c9.648 0 17.461-7.844 17.461-17.512v-17.422c0-9.672-7.813-17.519-17.461-17.519h-17.364c-9.648 0-17.461 7.847-17.461 17.519v17.422c0 9.668 7.813 17.512 17.461 17.512"/>
    <path d="m635.63 518.92v-17.367c0-9.641-7.84-17.461-17.508-17.461h-17.422c-9.668 0-17.511 7.82-17.511 17.461v17.367c0 9.641 7.843 17.461 17.511 17.461h17.422c9.668 0 17.508-7.82 17.508-17.461"/>
    <path d="m682.58 203.75v17.367c0 9.649 7.832 17.469 17.52 17.469h17.414c9.675 0 17.519-7.82 17.519-17.469v-17.367c0-9.637-7.844-17.461-17.519-17.461h-17.414c-9.688 0-17.52 7.824-17.52 17.461"/>
    <path d="m781.99 303.15v17.364c0 9.64 7.84 17.457 17.508 17.457h17.422c9.668 0 17.512-7.817 17.512-17.457v-17.364c0-9.644-7.844-17.461-17.512-17.461h-17.422c-9.668 0-17.508 7.817-17.508 17.461"/>
    <path d="m916.08 384.81h-17.363c-9.637 0-17.461 7.847-17.461 17.519v17.422c0 9.668 7.824 17.512 17.461 17.512h17.363c9.649 0 17.473-7.844 17.473-17.512v-17.422c0-9.672-7.824-17.519-17.473-17.519"/></g><g
        fill="#be1d2c"><path d="m676.41 301.02v21.457c0 11.902 9.688 21.57 21.641 21.57h21.515c11.942 0 21.629-9.668 21.629-21.57v-21.457c0-11.914-9.687-21.575-21.629-21.575h-21.515c-11.953 0-21.641 9.661-21.641 21.575"/>
    <path d="m688.75 106.5v13.277c0 7.371 6.004 13.348 13.399 13.348h13.32c7.402 0 13.398-5.977 13.398-13.348v-13.277c0-7.3829-5.996-13.36-13.398-13.36h-13.32c-7.395 0-13.399 5.9766-13.399 13.36"/>
    <path d="m818.84 378.65h-21.465c-11.906 0-21.574 9.688-21.574 21.629v21.52c0 11.941 9.668 21.637 21.574 21.637h21.465c11.914 0 21.562-9.696 21.562-21.637v-21.52c0-11.941-9.648-21.629-21.562-21.629"/>
    <path d="m1013.3 390.98h-13.28c-7.369 0-13.357 5.997-13.357 13.395v13.324c0 7.395 5.988 13.391 13.357 13.391h13.28c7.39 0 13.35-5.996 13.35-13.391v-13.324c0-7.398-5.96-13.395-13.35-13.395"/>
    <path d="m887.44 305.18v13.277c0 7.383 5.996 13.36 13.386 13.36h13.321c7.394 0 13.398-5.977 13.398-13.36v-13.277c0-7.371-6.004-13.352-13.398-13.352h-13.321c-7.39 0-13.386 5.981-13.386 13.352"/>
    <path d="m788.15 205.9v13.278c0 7.379 5.997 13.351 13.399 13.351h13.32c7.395 0 13.391-5.972 13.391-13.351v-13.278c0-7.378-5.996-13.355-13.391-13.355h-13.32c-7.402 0-13.399 5.977-13.399 13.355"/></g><g
        fill="#d01d2c"><path d="m676.41 301.02v21.457c0 11.902 9.688 21.57 21.641 21.57h21.515c11.942 0 21.629-9.668 21.629-21.57v-21.457c0-11.914-9.687-21.575-21.629-21.575h-21.515c-11.953 0-21.641 9.661-21.641 21.575"/>
    <path d="m688.75 106.5v13.277c0 7.371 6.004 13.348 13.399 13.348h13.32c7.402 0 13.398-5.977 13.398-13.348v-13.277c0-7.3829-5.996-13.36-13.398-13.36h-13.32c-7.395 0-13.399 5.9766-13.399 13.36"/>
    <path d="m818.84 378.65h-21.465c-11.906 0-21.574 9.688-21.574 21.629v21.52c0 11.941 9.668 21.637 21.574 21.637h21.465c11.914 0 21.562-9.696 21.562-21.637v-21.52c0-11.941-9.648-21.629-21.562-21.629"/>
    <path d="m1013.3 390.98h-13.28c-7.369 0-13.357 5.997-13.357 13.395v13.324c0 7.395 5.988 13.391 13.357 13.391h13.28c7.39 0 13.35-5.996 13.35-13.391v-13.324c0-7.398-5.96-13.395-13.35-13.395"/>
    <path d="m887.44 305.18v13.277c0 7.383 5.996 13.36 13.386 13.36h13.321c7.394 0 13.398-5.977 13.398-13.36v-13.277c0-7.371-6.004-13.352-13.398-13.352h-13.321c-7.39 0-13.386 5.981-13.386 13.352"/></g><path
        d="m788.15 205.9v13.278c0 7.379 5.997 13.351 13.399 13.351h13.32c7.395 0 13.391-5.972 13.391-13.351v-13.278c0-7.378-5.996-13.355-13.391-13.355h-13.32c-7.402 0-13.399 5.977-13.399 13.355"
        fill="#f47218"/><path
        d="m741.2 521.06v-21.454c0-11.914-9.687-21.574-21.629-21.574h-21.515c-11.953 0-21.641 9.66-21.641 21.574v21.454c0 11.906 9.688 21.57 21.641 21.57h21.515c11.942 0 21.629-9.664 21.629-21.57"
        fill="#d01d2c"/><path
        d="m728.86 715.57v-13.273c0-7.379-5.996-13.363-13.398-13.363h-13.32c-7.395 0-13.399 5.984-13.399 13.363v13.273c0 7.379 6.004 13.356 13.399 13.356h13.32c7.402 0 13.398-5.977 13.398-13.356"
        fill="#f47218"/><g fill="#d01d2c"><path d="m598.78 443.43h21.445c11.922 0 21.571-9.696 21.571-21.637v-21.52c0-11.941-9.649-21.629-21.571-21.629h-21.445c-11.914 0-21.574 9.688-21.574 21.629v21.52c0 11.941 9.66 21.637 21.574 21.637"/>
    <path d="m404.27 431.09h13.27c7.383 0 13.359-5.996 13.359-13.391v-13.324c0-7.398-5.976-13.395-13.359-13.395h-13.27c-7.378 0-13.355 5.997-13.355 13.395v13.324c0 7.395 5.977 13.391 13.355 13.391"/>
    <path d="m530.18 516.9v-13.282c0-7.375-5.985-13.351-13.387-13.351h-13.32c-7.403 0-13.399 5.976-13.399 13.351v13.282c0 7.371 5.996 13.347 13.399 13.347h13.32c7.402 0 13.387-5.976 13.387-13.347"/></g><path
        d="m629.47 616.18v-13.281c0-7.379-5.996-13.356-13.399-13.356h-13.32c-7.395 0-13.391 5.977-13.391 13.356v13.281c0 7.375 5.996 13.344 13.391 13.344h13.32c7.403 0 13.399-5.969 13.399-13.344"
        fill="#f47218"/><g fill="#be1d2c"><path d="m812.82 99.394h-9.218c-5.118 0-9.278 4.1405-9.278 9.2465v9.195c0 5.109 4.16 9.242 9.278 9.242h9.218c5.118 0 9.258-4.133 9.258-9.242v-9.195c0-5.106-4.14-9.2465-9.258-9.2465"/>
    <path d="m912.09 198.68h-9.227c-5.117 0-9.269 4.137-9.269 9.25v9.191c0 5.102 4.152 9.246 9.269 9.246h9.227c5.129 0 9.277-4.144 9.277-9.246v-9.191c0-5.113-4.148-9.25-9.277-9.25"/>
    <path d="m1011.4 297.96h-9.23c-5.115 0-9.275 4.129-9.275 9.242v9.188c0 5.105 4.16 9.246 9.275 9.246h9.23c5.11 0 9.26-4.141 9.26-9.246v-9.188c0-5.113-4.15-9.242-9.26-9.242"/>
    <path d="m1119.8 415.65v-9.222c0-5.125-4.14-9.278-9.26-9.278h-9.17c-5.12 0-9.26 4.153-9.26 9.278v9.222c0 5.122 4.14 9.274 9.26 9.274h9.17c5.12 0 9.26-4.152 9.26-9.274"/>
    <path d="m721.58 372.47h-25.539c-14.187 0-25.684 11.531-25.684 25.765v25.606c0 14.219 11.497 25.761 25.684 25.761h25.539c14.188 0 25.684-11.542 25.684-25.761v-25.606c0-14.234-11.496-25.765-25.684-25.765"/></g><path
        d="m812.82 99.394h-9.218c-5.118 0-9.278 4.1405-9.278 9.2465v9.195c0 5.109 4.16 9.242 9.278 9.242h9.218c5.118 0 9.258-4.133 9.258-9.242v-9.195c0-5.106-4.14-9.2465-9.258-9.2465"
        fill="#d01d2c"/><path
        d="m912.09 198.68h-9.227c-5.117 0-9.269 4.137-9.269 9.25v9.191c0 5.102 4.152 9.246 9.269 9.246h9.227c5.129 0 9.277-4.144 9.277-9.246v-9.191c0-5.113-4.148-9.25-9.277-9.25"
        fill="#f47218"/><g fill="#d01d2c"><path d="m1011.4 297.96h-9.23c-5.115 0-9.275 4.129-9.275 9.242v9.188c0 5.105 4.16 9.246 9.275 9.246h9.23c5.11 0 9.26-4.141 9.26-9.246v-9.188c0-5.113-4.15-9.242-9.26-9.242"/>
    <path d="m1119.8 415.65v-9.222c0-5.125-4.14-9.278-9.26-9.278h-9.17c-5.12 0-9.26 4.153-9.26 9.278v9.222c0 5.122 4.14 9.274 9.26 9.274h9.17c5.12 0 9.26-4.152 9.26-9.274"/>
    <path d="m721.58 372.47h-25.539c-14.187 0-25.684 11.531-25.684 25.765v25.606c0 14.219 11.497 25.761 25.684 25.761h25.539c14.188 0 25.684-11.542 25.684-25.761v-25.606c0-14.234-11.496-25.765-25.684-25.765"/></g><path
        d="m604.8 722.67h9.219c5.125 0 9.277-4.141 9.277-9.242v-9.192c0-5.113-4.152-9.25-9.277-9.25h-9.219c-5.117 0-9.278 4.137-9.278 9.25v9.192c0 5.101 4.161 9.242 9.278 9.242"
        fill="#f47218"/><path
        d="m505.52 623.39h9.219c5.117 0 9.266-4.129 9.266-9.239v-9.191c0-5.105-4.149-9.242-9.266-9.242h-9.219c-5.128 0-9.277 4.137-9.277 9.242v9.191c0 5.11 4.149 9.239 9.277 9.239"
        fill="#f47218"/><path
        d="m406.23 524.12h9.231c5.117 0 9.265-4.14 9.265-9.246v-9.195c0-5.106-4.148-9.246-9.265-9.246h-9.231c-5.117 0-9.265 4.14-9.265 9.246v9.195c0 5.106 4.148 9.246 9.265 9.246"
        fill="#d01d2c"/><path
        d="m297.77 406.43v9.222c0 5.122 4.132 9.274 9.246 9.274h9.195c5.102 0 9.242-4.152 9.242-9.274v-9.222c0-5.125-4.14-9.278-9.242-9.278h-9.195c-5.114 0-9.246 4.153-9.246 9.278"
        fill="#d01d2c"/><path
        d="m713.42 0h-9.227c-5.117 0-9.269 4.1445-9.269 9.2422v9.1953c0 5.1133 4.152 9.2422 9.269 9.2422h9.227c5.129 0 9.277-4.1289 9.277-9.2422v-9.1953c0-5.0977-4.148-9.2422-9.277-9.2422"
        fill="#be1d2c"/><path
        d="m713.42 0h-9.227c-5.117 0-9.269 4.1445-9.269 9.2422v9.1953c0 5.1133 4.152 9.2422 9.269 9.2422h9.227c5.129 0 9.277-4.1289 9.277-9.2422v-9.1953c0-5.0977-4.148-9.2422-9.277-9.2422"
        fill="#d01d2c"/><path
        d="m704.2 822.07h9.219c5.137 0 9.285-4.144 9.285-9.246v-9.195c0-5.11-4.148-9.25-9.285-9.25h-9.219c-5.117 0-9.269 4.14-9.269 9.25v9.195c0 5.102 4.152 9.246 9.269 9.246"
        fill="#d01d2c"/><g fill="#41434a"><path d="m2.1094 340.97h93.352v-19.817l-65.113-113.36h65.535v-21.496h-95.883v19.805l65.117 113.38h-63.008v21.496"/>
    <path d="m164.99 207.36c20.024 0 32.028 4.848 32.028 24.028 0 16.437-10.114 23.597-27.817 23.597h-20.015v-47.625h15.804zm-4.847 67.856c15.8 0 31.187 5.269 31.187 25.078 0 14.113-7.379 19.805-24.652 19.805h-17.492v-44.883h10.957zm-37.09-88.926v154.68h47.629c35.187 0 47.41-14.543 47.41-37.727 0-21.488-14.539-32.66-29.922-36.031v-0.418c24.445-2.324 35.191-15.809 35.191-36.883 0-31.398-20.859-43.617-55.425-43.617h-44.883"/>
    <path d="m332.5 186.29-41.726 136.55h-0.629v-136.55h-13.911v154.68h23.18l40.246-136.34h0.641l40.457 136.34h22.336v-154.68h-13.906v136.34h-0.633l-41.731-136.34h-14.324"/>
    <path d="m508.44 259.84h-54.16v-61.328h65.742v-12.219h-80.918v154.68h75.86v-12.231h-60.684v-56.679h54.16v-12.219"/>
    <path d="m571.23 198.51c42.136 0 55.828 17.285 55.828 65.957 0 42.992-11.16 64.269-54.571 64.269h-10.957v-130.23h9.7zm-24.875-12.219v154.68h21.925c57.723 0 74.375-22.977 74.375-76.711 0-56.051-17.695-77.965-74.375-77.965h-21.925"/>
    <path d="m786.97 578.25h5.605v-5.457h-18.281v5.457h5.461v45.492h-5.461v5.453h18.281v-5.453h-5.605v-45.492"/>
    <path d="m832.82 572.8h-6.843v24.207c0 7.375-2.227 10.601-7.532 10.601-7.586 0-9.421-6.218-9.421-12.292v-22.516h-6.84v39.5h6.297l0.324-5.77h0.078c1.355 2.77 4.504 6.688 11.262 6.688 8.3 0 12.675-4.918 12.675-15.445v-24.973"/>
    <path d="m839.79 612.3h4.688v3.609c0 8.84 2.921 14.215 11.836 14.215 2.539 0 4.992-0.543 6.23-0.922l-0.691-5.226c-1.457 0.382-3.145 0.773-4.922 0.773-4.219 0-5.606-2.848-5.606-8.148v-4.301h8.985v-5.309h-8.985v-34.191h-6.847v34.191h-4.688v5.309"/>
    <path d="m889.2 592.85c0 8.757-2.156 14.906-9.219 14.906-7.07 0-9.609-6.371-9.609-15.137 0-8.988 2.07-15.441 9.453-15.441 7.141 0 9.375 6.609 9.375 15.672zm-25.984-0.309c0 13.605 7.078 20.672 17.148 20.672 10.449 0 15.899-6.91 15.899-19.899 0-14.218-5.84-21.441-16.75-21.441-11.289 0-16.297 7.223-16.297 20.668"/>
    <path d="m924.22 599.15c0.695 6.614-0.692 8.457-4.071 8.457-5.839 0-7.988-6.218-7.988-13.449v-21.359h-6.836v39.5h6.297l0.305-5.77h0.156c1.465 3.383 4.617 6.688 10.059 6.688 6.218 0 9.832-4.149 8.543-13.68l-6.465-0.387"/>
    <path d="m966.02 605.45c2.382 4.844 5.761 7.762 11.679 7.762 7.531 0 11.992-4.606 11.992-15.676v-24.742h-6.855v24.207c0 8.379-2.684 10.601-6.981 10.601-5.078 0-8.691-3.691-8.691-11.984v-22.824h-6.758v24.207c0 8.219-2.539 10.601-6.914 10.601-5.617 0-8.84-4.07-8.84-12.062v-22.746h-6.765v39.5h6.23l0.313-5.848h0.078c1.523 3.231 4.531 6.766 10.515 6.766 6.848 0 9.68-3.535 10.997-7.762"/>
    <path d="m1020.9 590.62c-12.92-0.465-15.44-2.922-15.44-7.457 0-3.609 2.15-6.297 6.75-6.297 4.7 0 8.69 3.692 8.69 8.91v4.844zm10.76-17.75c-1.54-0.387-2.85-0.539-3.92-0.539-4.15 0-5.61 2.223-6.14 5.457-1.93-3.535-5.92-5.918-11.46-5.918-8.37 0-11.756 5.305-11.756 10.758 0 10.219 9.386 11.836 22.516 12.758v2.605c0 7.844-3.3 9.992-7.75 9.992-5.93 0-7.16-2.765-7.16-6.3 0-1.153 0.08-2.301 0.23-3.45l-6.07-0.543c-0.301 1.305-0.38 2.614-0.38 3.836 0 6.844 4.23 11.684 13.91 11.684 12.29 0 13.9-8.606 13.9-18.668v-14.527c0-2.071 0.54-2.993 2.15-2.993 0.47 0 1.09 0.071 1.77 0.223l0.16-4.375"/>
    <path d="m1034.8 612.3h4.68v8.215l6.84 2.308v-10.523h8.99v-5.309h-8.99v-21.816c0-5.453 1.16-7.922 5.38-7.922 1.76 0 3.31 0.309 4.77 0.773l0.61-5.07c-1.31-0.543-3.92-1.078-6.76-1.078-8.22 0-10.84 4.609-10.84 12.52v22.593h-4.68v5.309"/>
    <path d="m1063.9 612.3h6.93v-39.5h-6.93v39.5zm0 16.902h6.93v-8.222h-6.93v8.222"/>
    <path d="m1105.7 592.85c0 8.757-2.15 14.906-9.22 14.906-7.08 0-9.61-6.371-9.61-15.137 0-8.988 2.07-15.441 9.45-15.441 7.15 0 9.38 6.609 9.38 15.672zm-25.97-0.309c0 13.605 7.06 20.672 17.12 20.672 10.47 0 15.91-6.91 15.91-19.899 0-14.218-5.84-21.441-16.74-21.441-11.3 0-16.29 7.223-16.29 20.668"/>
    <path d="m1152.5 572.8h-6.85v24.207c0 7.375-2.23 10.601-7.53 10.601-7.62 0-9.46-6.218-9.46-12.292v-22.516h-6.83v39.5h6.3l0.3-5.77h0.08c1.39 2.77 4.54 6.688 11.3 6.688 8.3 0 12.69-4.918 12.69-15.445v-24.973"/>
    <path d="m1182.9 600.31c-0.46 4.996-2.39 7.679-7.53 7.679-4.46 0-7.15-1.761-7.15-5.531 0-4.383 4-5.453 8.52-6.609 5.84-1.457 12.6-3.071 12.6-11.907 0-7.691-6.38-12.066-14.89-12.066-8.77 0-13.38 3.77-14.22 12.297l6.22 0.922c0.62-5.153 2.31-7.996 8.22-7.996 5.54 0 8 2.539 8 6.148 0 4.535-3.85 5.762-8.22 6.914-5.93 1.539-12.76 2.766-12.76 11.449 0 7.688 6.06 11.606 13.82 11.606 8.46 0 12.77-4.223 13.38-11.985l-5.99-0.921"/>
    <path d="m1195.1 612.3h26.9v-5.387l-19.82-28.347h19.89v-5.766h-27.89v5.379l19.76 28.351h-18.84v5.77"/>
    <path d="m1251.8 596c0.23 7.152-1.92 12.07-8.22 12.07-6.61 0-9.15-5.765-9.31-12.07h17.53zm6.3-10.523c-1.15-11.067-8.46-13.602-14.52-13.602-12.45 0-16.45 8.688-16.45 20.281 0 12.84 5.84 21.059 17.13 21.059 9.38 0 14.15-6.379 14.15-17.524 0-1.457-0.08-2.914-0.23-4.535h-23.91c0-7.832 2.08-13.906 9.45-13.906 4.86 0 7.85 2.547 8.62 8.766l5.76-0.539"/>
    <path d="m1298.2 572.8h-6.85v24.207c0 7.375-2.21 10.601-7.52 10.601-7.6 0-9.45-6.218-9.45-12.292v-22.516h-6.85v39.5h6.3l0.33-5.77h0.06c1.38 2.77 4.54 6.688 11.3 6.688 8.3 0 12.68-4.918 12.68-15.445v-24.973"/>
    <path d="m1305 612.3h4.68v8.215l6.84 2.308v-10.523h8.99v-5.309h-8.99v-21.816c0-5.453 1.16-7.922 5.39-7.922 1.77 0 3.3 0.309 4.75 0.773l0.63-5.07c-1.32-0.543-3.93-1.078-6.78-1.078-8.22 0-10.83 4.609-10.83 12.52v22.593h-4.68v5.309"/>
    <path d="m1353.1 599.15c0.68 6.614-0.7 8.457-4.07 8.457-5.84 0-7.99-6.218-7.99-13.449v-21.359h-6.86v39.5h6.31l0.32-5.77h0.15c1.46 3.383 4.61 6.688 10.06 6.688 6.23 0 9.84-4.149 8.54-13.68l-6.46-0.387"/>
    <path d="m1366.4 612.3h6.84v-24.211c0-7.445 2.15-10.68 7.07-10.68 7.37 0 9.14 6.688 9.14 13.219v21.672h6.84v-39.5h-6.15l-0.47 5.84h-0.06c-1.46-2.614-4.23-6.762-10.98-6.762-8.16 0-12.23 4.918-12.23 15.754v24.668"/>
    <path d="m1435 605.45c2.4 4.844 5.78 7.762 11.68 7.762 7.53 0 12-4.606 12-15.676v-24.742h-6.85v24.207c0 8.379-2.69 10.601-6.98 10.601-5.08 0-8.69-3.691-8.69-11.984v-22.824h-6.76v24.207c0 8.219-2.54 10.601-6.93 10.601-5.61 0-8.82-4.07-8.82-12.062v-22.746h-6.77v39.5h6.23l0.31-5.848h0.07c1.53 3.231 4.53 6.766 10.53 6.766 6.83 0 9.68-3.535 10.98-7.762"/>
    <path d="m785.14 486.6h20.742v-5.984h-28.047v56.391h7.305v-50.407"/>
    <path d="m834.55 503.82c0.223 7.153-1.926 12.071-8.234 12.071-6.61 0-9.141-5.766-9.297-12.071h17.531zm6.289-10.519c-1.152-11.07-8.449-13.602-14.523-13.602-12.442 0-16.434 8.684-16.434 20.285 0 12.833 5.828 21.055 17.129 21.055 9.383 0 14.14-6.383 14.14-17.519 0-1.461-0.078-2.926-0.234-4.536h-23.898c0-7.843 2.082-13.906 9.464-13.906 4.833 0 7.833 2.531 8.594 8.758l5.762-0.535"/>
    <path d="m865.56 484.84c6.238 0 9.531 4.769 9.531 16.293 0 11.68-3.614 14.676-8.672 14.676-5.996 0-9.688-4.536-9.688-15.442 0-11.301 3.153-15.527 8.829-15.527zm-15.352-4.219v56.391h6.758v-22.125h0.066c1.465 2.765 5.235 6.148 11.231 6.148 7.062 0 13.898-4.301 13.898-19.824 0-14.606-5.527-21.516-15.363-21.516-4.61 0-7.918 1.848-10.067 5.145h-0.226l-1.395-4.219h-4.902"/>
    <path d="m914.04 503.82c0.234 7.153-1.926 12.071-8.223 12.071-6.601 0-9.152-5.766-9.296-12.071h17.519zm6.297-10.519c-1.152-11.07-8.445-13.602-14.52-13.602-12.441 0-16.437 8.684-16.437 20.285 0 12.833 5.84 21.055 17.129 21.055 9.375 0 14.152-6.383 14.152-17.519 0-1.461-0.09-2.926-0.246-4.536h-23.894c0-7.843 2.078-13.906 9.453-13.906 4.851 0 7.84 2.531 8.601 8.758l5.762-0.535"/>
    <path d="m960.37 480.62h-6.836v24.199c0 7.383-2.238 10.602-7.539 10.602-7.597 0-9.445-6.223-9.445-12.285v-22.516h-6.844v39.492h6.297l0.324-5.761h0.078c1.368 2.765 4.532 6.683 11.278 6.683 8.312 0 12.687-4.918 12.687-15.449v-24.965"/>
    <path d="m990.78 508.12c-0.461 4.996-2.382 7.684-7.531 7.684-4.453 0-7.137-1.766-7.137-5.532 0-4.382 3.993-5.457 8.516-6.609 5.848-1.457 12.617-3.078 12.617-11.91 0-7.688-6.398-12.063-14.914-12.063-8.769 0-13.367 3.762-14.219 12.285l6.223 0.93c0.613-5.148 2.305-7.992 8.231-7.992 5.527 0 7.988 2.539 7.988 6.145 0 4.539-3.848 5.769-8.223 6.914-5.918 1.543-12.762 2.769-12.762 11.457 0 7.683 6.082 11.601 13.836 11.601 8.45 0 12.754-4.23 13.371-11.988l-5.996-0.922"/>
    <path d="m1012.4 480.62-11.45 39.492h7.07l8.15-31.734h0.08l8.37 31.734h7.6l8.46-31.734h0.08l8 31.734h6.82l-11.37-39.492h-7.29l-8.61 31.883-8.69-31.883h-7.22"/>
    <path d="m1062 520.11h6.91v-39.492h-6.91v39.492zm0 16.899h6.91v-8.211h-6.91v8.211"/>
    <path d="m1099.6 508.12c-0.47 4.996-2.4 7.684-7.53 7.684-4.46 0-7.16-1.766-7.16-5.532 0-4.382 4-5.457 8.53-6.609 5.85-1.457 12.61-3.078 12.61-11.91 0-7.688-6.38-12.063-14.91-12.063-8.76 0-13.36 3.762-14.22 12.285l6.22 0.93c0.63-5.148 2.31-7.992 8.22-7.992 5.54 0 8 2.539 8 6.145 0 4.539-3.84 5.769-8.22 6.914-5.92 1.543-12.76 2.769-12.76 11.457 0 7.683 6.08 11.601 13.83 11.601 8.46 0 12.76-4.23 13.38-11.988l-5.99-0.922"/>
    <path d="m1134.4 508.12c-0.47 4.996-2.39 7.684-7.53 7.684-4.46 0-7.15-1.766-7.15-5.532 0-4.382 4-5.457 8.53-6.609 5.84-1.457 12.6-3.078 12.6-11.91 0-7.688-6.38-12.063-14.91-12.063-8.75 0-13.37 3.762-14.21 12.285l6.22 0.93c0.62-5.148 2.31-7.992 8.23-7.992 5.52 0 7.98 2.539 7.98 6.145 0 4.539-3.84 5.769-8.22 6.914-5.92 1.543-12.75 2.769-12.75 11.457 0 7.683 6.07 11.601 13.84 11.601 8.44 0 12.74-4.23 13.36-11.988l-5.99-0.922"/>
    <path d="m1172.2 503.82c0.24 7.153-1.92 12.071-8.22 12.071-6.61 0-9.15-5.766-9.3-12.071h17.52zm6.3-10.519c-1.16-11.07-8.45-13.602-14.52-13.602-12.45 0-16.45 8.684-16.45 20.285 0 12.833 5.84 21.055 17.14 21.055 9.38 0 14.14-6.383 14.14-17.519 0-1.461-0.08-2.926-0.23-4.536h-23.9c0-7.843 2.07-13.906 9.46-13.906 4.84 0 7.83 2.531 8.6 8.758l5.76-0.535"/>
    <path d="m1218.5 480.62h-6.84v24.199c0 7.383-2.22 10.602-7.53 10.602-7.6 0-9.45-6.223-9.45-12.285v-22.516h-6.83v39.492h6.29l0.31-5.761h0.08c1.38 2.765 4.53 6.683 11.29 6.683 8.31 0 12.68-4.918 12.68-15.449v-24.965"/>
    <path d="m1249 508.12c-0.46 4.996-2.38 7.684-7.53 7.684-4.45 0-7.15-1.766-7.15-5.532 0-4.382 4-5.457 8.54-6.609 5.84-1.457 12.6-3.078 12.6-11.91 0-7.688-6.38-12.063-14.92-12.063-8.76 0-13.36 3.762-14.21 12.285l6.22 0.93c0.62-5.148 2.31-7.992 8.23-7.992 5.52 0 8 2.539 8 6.145 0 4.539-3.85 5.769-8.24 6.914-5.92 1.543-12.75 2.769-12.75 11.457 0 7.683 6.07 11.601 13.84 11.601 8.44 0 12.75-4.23 13.37-11.988l-6-0.922"/>
    <path d="m1287.2 506.21c-0.38 6.297-3.3 9.445-8.3 9.445-6.44 0-9.68-5.148-9.68-15.519 0-9.602 2.61-15.059 9.53-15.059 5.23 0 7.52 2.84 8.3 8.91l5.99-0.461c-0.99-10.527-7.38-13.828-14.68-13.828-12.13 0-16.29 8.836-16.29 20.051 0 13.445 6.16 21.289 17.21 21.289 10.07 0 13.76-6.609 14.06-14.371l-6.14-0.457"/>
    <path d="m1332 480.62h-6.83v24.199c0 5.301-1 10.602-7.46 10.602-7.61 0-9.53-5.988-9.53-12.367v-22.434h-6.85v56.391h6.85v-22.438c1.84 3.078 4.75 6.461 11.3 6.461 8.14 0 12.52-4.996 12.52-15.527v-24.887"/>
    <path d="m1363.2 498.44c-12.92-0.464-15.45-2.914-15.45-7.449 0-3.609 2.15-6.304 6.77-6.304 4.67 0 8.68 3.691 8.68 8.914v4.839zm10.75-17.75c-1.53-0.382-2.84-0.535-3.93-0.535-4.14 0-5.59 2.231-6.14 5.457-1.92-3.539-5.91-5.918-11.43-5.918-8.39 0-11.76 5.301-11.76 10.758 0 10.215 9.36 11.836 22.51 12.754v2.613c0 7.832-3.31 9.989-7.77 9.989-5.91 0-7.15-2.762-7.15-6.301 0-1.153 0.07-2.301 0.24-3.457l-6.07-0.543c-0.32 1.308-0.39 2.617-0.39 3.847 0 6.84 4.22 11.68 13.91 11.68 12.3 0 13.91-8.609 13.91-18.672v-14.527c0-2.074 0.55-2.996 2.15-2.996 0.47 0 1.08 0.078 1.76 0.234l0.16-4.383"/>
    <path d="m1377.6 520.11h4.69v3.614c0 8.832 2.92 14.211 11.84 14.211 2.53 0 4.99-0.532 6.23-0.926l-0.7-5.219c-1.46 0.379-3.15 0.766-4.92 0.766-4.22 0-5.61-2.84-5.61-8.145v-4.301h8.99v-5.3h-8.99v-34.192h-6.84v34.192h-4.69v5.3"/>
    <path d="m1401.2 520.11h4.68v8.223l6.84 2.309v-10.532h8.99v-5.3h-8.99v-21.829c0-5.449 1.15-7.91 5.38-7.91 1.77 0 3.31 0.309 4.77 0.766l0.61-5.07c-1.31-0.536-3.91-1.075-6.77-1.075-8.21 0-10.83 4.606-10.83 12.528v22.59h-4.68v5.3"/>
    <path d="m1451.8 503.82c0.23 7.153-1.92 12.071-8.22 12.071-6.6 0-9.15-5.766-9.3-12.071h17.52zm6.3-10.519c-1.15-11.07-8.45-13.602-14.52-13.602-12.44 0-16.44 8.684-16.44 20.285 0 12.833 5.84 21.055 17.13 21.055 9.38 0 14.14-6.383 14.14-17.519 0-1.461-0.07-2.926-0.23-4.536h-23.9c0-7.843 2.08-13.906 9.46-13.906 4.83 0 7.83 2.531 8.6 8.758l5.76-0.535"/>
    <path d="m1498.1 480.62h-6.85v24.199c0 7.383-2.22 10.602-7.52 10.602-7.61 0-9.46-6.223-9.46-12.285v-22.516h-6.83v39.492h6.3l0.3-5.761h0.08c1.38 2.765 4.54 6.683 11.3 6.683 8.29 0 12.68-4.918 12.68-15.449v-24.965"/></g></g></g></svg>
