<?xml version="1.0" encoding="UTF-8" standalone="no"?>
<svg
   xmlns:dc="http://purl.org/dc/elements/1.1/"
   xmlns:cc="http://creativecommons.org/ns#"
   xmlns:rdf="http://www.w3.org/1999/02/22-rdf-syntax-ns#"
   xmlns:svg="http://www.w3.org/2000/svg"
   xmlns="http://www.w3.org/2000/svg"
   xmlns:sodipodi="http://sodipodi.sourceforge.net/DTD/sodipodi-0.dtd"
   xmlns:inkscape="http://www.inkscape.org/namespaces/inkscape"
   version="1.1"
   id="svg10"
   xml:space="preserve"
   width="687.29333"
   height="260.18668"
   viewBox="0 0 687.29333 260.18668"
   sodipodi:docname="NFDI4Health_Logo_cmyk_RZ.svg"
   inkscape:version="1.0.2 (e86c8708, 2021-01-15)"><metadata
     id="metadata16"><rdf:RDF><cc:Work
         rdf:about=""><dc:format>image/svg+xml</dc:format><dc:type
           rdf:resource="http://purl.org/dc/dcmitype/StillImage" /><dc:title></dc:title></cc:Work></rdf:RDF></metadata><defs
     id="defs14" /><sodipodi:namedview
     pagecolor="#ffffff"
     bordercolor="#666666"
     borderopacity="1"
     objecttolerance="10"
     gridtolerance="10"
     guidetolerance="10"
     inkscape:pageopacity="0"
     inkscape:pageshadow="2"
     inkscape:window-width="2207"
     inkscape:window-height="937"
     id="namedview12"
     showgrid="false"
     inkscape:zoom="1.0504976"
     inkscape:cx="343.64667"
     inkscape:cy="130.09334"
     inkscape:window-x="0"
     inkscape:window-y="25"
     inkscape:window-maximized="0"
     inkscape:current-layer="g18" /><g
     id="g18"
     inkscape:groupmode="layer"
     inkscape:label="ink_ext_XXXXXX"
     transform="matrix(1.3333333,0,0,-1.3333333,0,260.18667)"><g
       id="g20"
       transform="scale(0.1)"><path
         d="M 1621.83,428.488 C 1398.33,428.488 1194.5,559.84 1099,777.879 891.508,1251.58 772.344,1903.8 767.371,1931.34 l 111.203,20.08 c 1.196,-6.62 121.856,-666.85 323.926,-1128.209 92.47,-211.082 310.53,-321.449 530.21,-268.359 14.75,3.558 28.76,7.007 42.29,10.339 121.71,29.989 209.66,51.661 423.55,51.661 v -113 c -200.17,0 -278.28,-19.243 -396.53,-48.372 -13.68,-3.371 -27.85,-6.871 -42.78,-10.468 -46.1,-11.141 -92.17,-16.524 -137.41,-16.524"
         style="fill:#a1bad7;fill-opacity:1;fill-rule:nonzero;stroke:none"
         id="path22" /><path
         d="m 2063.58,1109.39 c -163.93,0 -379.67,18.74 -675.62,183.24 -322.87,139.33 -587.495,167.42 -800.249,190.01 -21.535,2.28 -42.594,4.52 -63.191,6.81 l 12.484,112.3 c 20.414,-2.27 41.289,-4.48 62.637,-6.75 220.949,-23.45 495.929,-52.64 835.779,-199.78 l 5.07,-2.51 c 316.42,-176.47 525.38,-172.63 693.41,-169.46 22.25,0.41 43.75,0.81 64.65,0.81 v -113.01 c -20.22,0 -41.03,-0.39 -62.55,-0.79 -22.97,-0.42 -47.08,-0.87 -72.42,-0.87"
         style="fill:#7dc2e9;fill-opacity:1;fill-rule:nonzero;stroke:none"
         id="path24" /><path
         d="M 575.156,84.3516 524.723,185.469 c 31.183,15.551 62.812,30.383 96.289,46.062 150.902,70.719 321.941,150.879 490.318,323.168 129.62,132.61 218.29,288.641 304.05,439.528 154.88,272.543 301.18,529.953 649.39,529.953 l 133.77,0.01 0.02,-112.99 -133.79,-0.01 c -282.46,0 -401.03,-208.64 -551.15,-472.792 C 1428.48,788.578 1331.98,618.781 1192.15,475.711 1009.45,288.781 828.559,204 668.965,129.219 636.129,113.828 605.105,99.2891 575.156,84.3516"
         style="fill:#0b5389;fill-opacity:1;fill-rule:nonzero;stroke:none"
         id="path26" /><path
         d="M 2659.58,1212.1 V 959.004 h -108.69 v 237.136 c 0,31.91 -17.48,49.4 -43.32,49.4 h -18.24 c -34.96,0 -56.25,-25.84 -56.25,-62.32 V 959.004 H 2324.4 V 1329.9 h 95.01 l 5.31,-46.36 c 18.24,33.44 54.73,53.97 102.61,53.97 h 16.72 c 73.73,0 115.53,-50.17 115.53,-125.41"
         style="fill:#171717;fill-opacity:1;fill-rule:nonzero;stroke:none"
         id="path28" /><path
         d="m 2857.92,1360.31 v -30.41 h 67.64 v -82.08 h -67.64 V 959.004 h -108.69 v 288.816 h -46.35 v 82.08 h 46.35 v 40.29 c 0,94.24 47.13,128.45 123.89,128.45 h 60.81 v -85.13 h -25.85 c -41.03,0 -50.16,-19 -50.16,-53.2"
         style="fill:#171717;fill-opacity:1;fill-rule:nonzero;stroke:none"
         id="path30" /><path
         d="m 3193.09,1118.61 v 51.68 c 0,50.17 -22.79,76.01 -57.76,76.01 h -17.48 c -34.2,0 -51.68,-26.6 -51.68,-66.12 v -76.01 c 0,-40.28 20.51,-61.56 51.68,-61.56 h 17.48 c 38,0 57.76,30.4 57.76,76 z m 108.69,372.43 V 959.004 h -95.01 l -5.32,48.636 c -18.99,-34.956 -53.95,-56.23 -98.8,-56.23 h -19 c -76.77,0 -128.45,55.47 -128.45,138.32 v 102.6 c 0,87.42 52.44,145.18 131.48,145.18 h 15.97 c 39.52,0 70.68,-15.97 90.44,-43.33 v 196.86 h 108.69"
         style="fill:#171717;fill-opacity:1;fill-rule:nonzero;stroke:none"
         id="path32" /><path
         d="m 3389.16,1329.9 h 108.69 V 959.004 h -108.69 z m 0,152.78 h 108.69 v -91.21 h -108.69 v 91.21"
         style="fill:#171717;fill-opacity:1;fill-rule:nonzero;stroke:none"
         id="path34" /><path
         d="m 4100.53,1044.89 h -56.25 v -85.886 h -102.6 v 85.886 h -219.65 v 82.08 l 143.65,348.87 h 113.24 l -135.28,-338.22 h 98.04 v 109.44 h 102.6 v -109.44 h 56.25 v -92.73"
         style="fill:#171717;fill-opacity:1;fill-rule:nonzero;stroke:none"
         id="path36" /><path
         d="M 2659.58,607.102 V 354 h -108.69 v 237.141 c 0,31.918 -17.48,49.398 -43.32,49.398 h -18.24 c -34.96,0 -56.25,-28.117 -56.25,-69.93 V 354 H 2324.4 v 532.031 h 108.68 V 685.379 c 18.24,29.652 50.93,47.133 94.25,47.133 h 16.72 c 73.73,0 115.53,-50.172 115.53,-125.41"
         style="fill:#171717;fill-opacity:1;fill-rule:nonzero;stroke:none"
         id="path38" /><path
         d="m 2829.8,582.02 v -6.848 h 129.21 v 6.848 c 0,48.64 -22.04,69.16 -56.24,69.16 h -15.97 c -38.76,0 -57,-25.84 -57,-69.16 z m 0,-95.008 c 0,-40.282 15.96,-62.321 52.44,-62.321 h 32.69 c 28.11,0 42.56,15.2 42.56,37.239 h 101.84 c 0,-68.41 -57,-115.52 -142.13,-115.52 h -39.52 c -92.72,0 -154.29,55.469 -154.29,139.09 v 97.281 c 0,89.68 62.33,149.731 155.81,149.731 h 30.4 c 92.73,0 151.25,-57.762 151.25,-146.692 V 504.488 H 2829.8 v -17.476"
         style="fill:#171717;fill-opacity:1;fill-rule:nonzero;stroke:none"
         id="path40" /><path
         d="m 3341.27,483.969 v 23.57 h -89.67 c -25.09,0 -40.29,-16.73 -40.29,-41.809 0,-26.601 19.01,-41.039 47.12,-41.039 h 22.04 c 38.01,0 60.8,24.321 60.8,59.278 z m 104.9,122.371 V 354 h -91.21 l -5.32,43.32 c -19,-31.91 -53.2,-50.91 -95.01,-50.91 h -24.31 c -74.49,0 -123.89,41.039 -123.89,110.199 0,76.012 57.75,116.289 145.17,116.289 h 89.67 v 33.442 c 0,27.359 -18.23,41.039 -45.59,41.039 h -23.57 c -30.4,0 -45.6,-16.719 -45.6,-41.039 h -103.36 c 0,76 56.24,126.172 136.04,126.172 h 55.48 c 79.06,0 131.5,-50.172 131.5,-126.172"
         style="fill:#171717;fill-opacity:1;fill-rule:nonzero;stroke:none"
         id="path42" /><path
         d="m 3526.7,471.051 v 414.98 h 108.69 v -397.5 c 0,-32.679 9.88,-50.16 39.52,-50.16 h 14.44 V 346.41 h -54.73 c -72.2,0 -107.92,44.078 -107.92,124.641"
         style="fill:#171717;fill-opacity:1;fill-rule:nonzero;stroke:none"
         id="path44" /><path
         d="M 3939.39,442.172 V 346.41 h -63.84 c -98.05,0 -133.77,41.039 -133.77,114.762 V 642.82 h -44.84 v 82.078 h 44.84 v 117.051 h 108.68 V 724.898 h 77.53 V 642.82 h -77.53 V 490.809 c 0,-36.469 22.04,-48.637 57.02,-48.637 h 31.91"
         style="fill:#171717;fill-opacity:1;fill-rule:nonzero;stroke:none"
         id="path46" /><path
         d="M 4326.99,607.102 V 354 h -108.68 v 237.141 c 0,31.918 -17.48,49.398 -43.32,49.398 h -18.25 c -34.96,0 -56.25,-28.117 -56.25,-69.93 V 354 h -108.68 v 532.031 h 108.68 V 685.379 c 18.25,29.652 50.93,47.133 94.25,47.133 h 16.72 c 73.73,0 115.53,-50.172 115.53,-125.41"
         style="fill:#171717;fill-opacity:1;fill-rule:nonzero;stroke:none"
         id="path48" /><path
         d="m 5154.68,1411.86 h -700 v 113.33 h 700 v -113.33"
         style="fill:#0692d5;fill-opacity:1;fill-rule:nonzero;stroke:none"
         id="path50" /><path
         d="m 5154.68,1260.74 h -700 v 113.33 h 700 v -113.33"
         style="fill:#4daee1;fill-opacity:1;fill-rule:nonzero;stroke:none"
         id="path52" /><path
         d="m 5154.68,1109.63 h -700 v 113.34 h 700 v -113.34"
         style="fill:#7dc2e9;fill-opacity:1;fill-rule:nonzero;stroke:none"
         id="path54" /><path
         d="m 5154.68,958.523 h -700 v 113.337 h 700 V 958.523"
         style="fill:#bddff4;fill-opacity:1;fill-rule:nonzero;stroke:none"
         id="path56" /><path
         d="m 5154.68,807.41 h -700 v 113.328 h 700 V 807.41"
         style="fill:#a1bad7;fill-opacity:1;fill-rule:nonzero;stroke:none"
         id="path58" /><path
         d="m 5154.68,656.301 h -700 v 113.328 h 700 V 656.301"
         style="fill:#7a9dc4;fill-opacity:1;fill-rule:nonzero;stroke:none"
         id="path60" /><path
         d="m 5154.68,505.18 h -700 v 113.34 h 700 V 505.18"
         style="fill:#5685b3;fill-opacity:1;fill-rule:nonzero;stroke:none"
         id="path62" /><path
         d="m 5154.68,354.078 h -700 V 467.41 h 700 V 354.078"
         style="fill:#0b5389;fill-opacity:1;fill-rule:nonzero;stroke:none"
         id="path64" /><path
         d="m 609.391,462.301 -95.071,61.097 c 348.383,542.122 702.35,497.322 1150.53,440.633 157.31,-19.902 335.62,-42.461 533.7,-42.461 V 808.559 c -205.21,0 -387.27,23.043 -547.89,43.363 C 1210.18,907.66 919.219,944.469 609.391,462.301"
         style="fill:#bddff4;fill-opacity:1;fill-rule:nonzero;stroke:none"
         id="path66" /><path
         d="M 1265.15,617.648 C 1042.82,617.648 785.828,730.66 0,1325.13 l 68.1719,90.11 C 1025,691.422 1162.67,710.172 1390.79,741.27 c 289.24,39.41 413.06,35.82 584.48,30.851 63.07,-1.84 134.57,-3.91 223.28,-3.91 V 655.199 c -90.35,0 -162.72,2.11 -226.56,3.973 -166.01,4.816 -285.92,8.308 -565.95,-29.871 -48.52,-6.621 -93.94,-11.653 -140.89,-11.653"
         style="fill:#5685b3;fill-opacity:1;fill-rule:nonzero;stroke:none"
         id="path68" /><path
         d="m 1568.37,254.172 c -0.67,0 -1.34,0 -2.02,0 -143.28,0.25 -331.09,55.699 -558.22,164.808 C 773.879,531.52 565.316,668.84 461.848,740.66 l 64.441,92.84 C 1020.84,490.148 1387.92,367.48 1566.55,367.18 c 0.6,-0.008 1.22,-0.008 1.82,-0.008 125.6,0 206.87,22.957 292.91,47.25 92.3,26.066 187.73,53.019 337.27,53.019 V 354.43 c -133.89,0 -217.76,-23.68 -306.56,-48.758 -89.67,-25.32 -182.39,-51.5 -323.62,-51.5"
         style="fill:#4daee1;fill-opacity:1;fill-rule:nonzero;stroke:none"
         id="path70" /><path
         d="M 833.75,0 723.379,24.2188 C 893.563,799.762 1071.17,1305.04 1430.21,1427.55 c 164.67,56.19 249.58,32.6 357.06,2.76 89.78,-24.93 201.49,-55.96 411.28,-55.96 v -113 c -225.19,0 -350.22,34.72 -441.51,60.08 -102.35,28.41 -158.71,44.09 -290.35,-0.82 C 1158.85,1215.55 991.023,716.699 833.75,0"
         style="fill:#0692d5;fill-opacity:1;fill-rule:nonzero;stroke:none"
         id="path72" /><path
         d="m 2198.55,957.617 c -297.87,0 -433.1,28.613 -576.25,58.913 -52.72,11.15 -107.24,22.69 -171.57,32.99 -249.09,39.89 -453.242,35.81 -633.386,32.21 -51.031,-1.02 -99.239,-1.98 -147.035,-1.98 v 113 c 46.668,0 94.324,0.95 144.781,1.96 184.871,3.69 394.4,7.87 653.51,-33.61 67.11,-10.75 123.03,-22.58 177.09,-34.02 137.22,-29.03 266.81,-56.45 552.86,-56.45 V 957.617"
         style="fill:#7a9dc4;fill-opacity:1;fill-rule:nonzero;stroke:none"
         id="path74" /></g></g></svg>
