<?xml version="1.0" encoding="utf-8"?>
<!-- Generator: Adobe Illustrator 25.0.1, SVG Export Plug-In . SVG Version: 6.00 Build 0)  -->
<svg version="1.1" id="Ebene_1" xmlns="http://www.w3.org/2000/svg" xmlns:xlink="http://www.w3.org/1999/xlink" x="0px" y="0px"
	 viewBox="0 0 320 320" style="enable-background:new 0 0 320 320;" xml:space="preserve">
<style type="text/css">
	.st0{display:none;}
	.st1{display:inline;opacity:0.6;fill:#C12075;enable-background:new    ;}
	.st2{display:inline;opacity:0.4;fill:#C12075;enable-background:new    ;}
	.st3{fill:#70ACC0;}
	.st4{fill:#C12075;}
	.st5{display:inline;fill:none;stroke:#000000;stroke-width:0.15;stroke-miterlimit:10;}
</style>
<g id="Schutzraum" class="st0">
	<rect x="-138.4" y="122.2" class="st1" width="24.3" height="76.6"/>
	<rect x="-162.7" y="122.2" class="st1" width="24.3" height="76.6"/>
	<rect x="457.9" y="-7.4" class="st1" width="24.3" height="283.4"/>
	<rect x="433.6" y="-7.4" class="st1" width="24.3" height="283.4"/>
	<rect x="-70.1" y="-7.5" class="st1" width="24.3" height="76.6"/>
	<rect x="-70.1" y="198.9" class="st1" width="24.3" height="76.6"/>
	<rect x="-89.5" y="-7.4" class="st2" width="19.4" height="283"/>
	<rect x="12.4" y="-7.4" class="st2" width="19.4" height="283"/>
	<rect x="59.7" y="-7.4" class="st2" width="19.4" height="283"/>
	<rect x="170.9" y="-7.4" class="st2" width="19.4" height="283"/>
</g>
<g id="Marke">
	<g>
		<path class="st3" d="M185.4,181.2c0.6,0.3,1.1,0.6,1.6,1.1l-1.1,1.1c-0.4-0.4-0.8-0.6-1.2-0.8c-0.4-0.2-0.8-0.2-1.3-0.2
			c-1.1,0-2.1,0.4-2.8,1.3c-0.7,0.8-1.3,1.9-1.6,3.2c-0.3,1.3-0.5,2.5-0.5,3.8c0,1.4,0.3,2.3,0.8,3s1.2,1,2.1,1
			c0.6,0,1.1-0.1,1.5-0.3c0.4-0.2,0.9-0.5,1.5-0.9l0.8,1.3c-1.2,1.1-2.6,1.6-4.1,1.6c-1.4,0-2.6-0.5-3.4-1.5c-0.8-1-1.3-2.4-1.3-4.3
			c0-1.5,0.2-3.1,0.7-4.6c0.5-1.5,1.3-2.7,2.3-3.7c1-1,2.3-1.5,3.9-1.5C184.1,180.8,184.8,181,185.4,181.2z"/>
		<path class="st3" d="M195.1,185.1c0.4,0.5,0.7,1.2,0.7,2c0,0.3,0,0.6,0,0.7l-1.2,8.2h-1.9l1.1-8.2c0-0.3,0-0.5,0-0.6
			c0-0.9-0.4-1.3-1.1-1.3c-1,0-2.1,1-3.3,3.1l-1,7h-1.9L189,180l1.9-0.2l-1,6.9c1-1.6,2.1-2.3,3.4-2.3
			C194,184.3,194.6,184.6,195.1,185.1z"/>
		<path class="st3" d="M206.9,185.3l-1.2,8.2c0,0.3,0,0.5,0,0.6c0,0.2,0,0.4,0.1,0.6c0.1,0.2,0.2,0.3,0.5,0.4l-0.6,1.3
			c-0.5-0.1-1-0.3-1.3-0.6c-0.3-0.3-0.5-0.7-0.5-1.3c-0.4,0.6-0.9,1.1-1.4,1.4s-1.1,0.5-1.7,0.5c-1,0-1.8-0.4-2.4-1.1
			c-0.6-0.7-0.9-1.8-0.9-3c0-1.2,0.2-2.4,0.6-3.6c0.4-1.2,1.1-2.2,1.9-3c0.9-0.8,2-1.2,3.3-1.2C204.5,184.4,205.6,184.7,206.9,185.3
			z M201.1,186.8c-0.6,0.6-1,1.4-1.3,2.4c-0.3,1-0.4,2-0.4,3c0,1.7,0.6,2.6,1.7,2.6c0.5,0,1-0.2,1.4-0.5c0.4-0.4,0.9-0.9,1.4-1.5
			l0.9-6.6c-0.5-0.2-1-0.3-1.5-0.3C202.5,185.9,201.7,186.2,201.1,186.8z"/>
		<path class="st3" d="M215.5,184.5l-0.6,1.8c-0.3-0.1-0.6-0.1-0.8-0.1c-0.6,0-1.2,0.3-1.7,0.9c-0.5,0.6-0.9,1.6-1.3,2.8l-0.9,6.2
			h-1.9l1.6-11.5h1.6l-0.2,2.2c0.4-0.8,0.8-1.4,1.4-1.8s1.1-0.6,1.7-0.6C214.8,184.4,215.1,184.4,215.5,184.5z"/>
		<path class="st3" d="M218.9,184.6l-1.6,11.5h-1.9l1.6-11.5H218.9z M217.5,181.4c-0.2-0.2-0.3-0.5-0.3-0.8c0-0.4,0.1-0.8,0.4-1
			c0.3-0.3,0.6-0.4,1-0.4c0.4,0,0.7,0.1,0.9,0.3s0.3,0.5,0.3,0.8c0,0.4-0.1,0.8-0.4,1c-0.3,0.3-0.6,0.4-1,0.4
			C218,181.8,217.7,181.7,217.5,181.4z"/>
		<path class="st3" d="M222.8,193.4c0,0.1,0,0.2,0,0.4c0,0.3,0.1,0.6,0.2,0.8c0.2,0.2,0.4,0.3,0.7,0.3c0.2,0,0.5,0,0.7-0.1
			c0.2-0.1,0.5-0.2,0.8-0.4l0.6,1.3c-0.7,0.5-1.5,0.8-2.4,0.8c-0.8,0-1.4-0.2-1.9-0.7c-0.4-0.4-0.7-1.1-0.7-1.8c0-0.1,0-0.3,0-0.6
			l1-7.2h-1.7l0.2-1.5h1.8l0.7-2.7l1.5-0.2l-0.4,2.8h2.4l-0.4,1.5h-2.2L222.8,193.4z"/>
		<path class="st3" d="M233.8,190.4c-1.2,0.7-2.9,1.1-5.1,1.4v0.1c0,1.9,0.7,2.8,2.1,2.8c0.5,0,0.9-0.1,1.4-0.3
			c0.4-0.2,0.9-0.4,1.4-0.8l0.8,1.3c-1.2,0.9-2.5,1.4-3.8,1.4c-1.2,0-2.2-0.4-2.9-1.2c-0.7-0.8-1-1.9-1-3.2c0-1.2,0.2-2.4,0.6-3.6
			c0.4-1.2,1-2.1,1.8-2.9c0.8-0.8,1.9-1.1,3.2-1.1c1,0,1.9,0.3,2.4,0.8c0.6,0.5,0.9,1.2,0.9,2C235.6,188.7,235,189.8,233.8,190.4z
			 M229.9,187.2c-0.6,0.9-0.9,1.9-1.1,3.2c1.7-0.2,2.9-0.5,3.7-1c0.8-0.4,1.2-1.1,1.2-2.1c0-0.4-0.1-0.7-0.4-1
			c-0.2-0.3-0.6-0.4-1.1-0.4C231.3,185.9,230.5,186.3,229.9,187.2z M234.5,178.7l0.7,1.6l-4.4,1.9l-0.5-1L234.5,178.7z"/>
		<path class="st3" d="M249.1,181.7c0.6,0.6,0.9,1.3,0.9,2.1c0,0.7-0.1,1.3-0.4,1.8s-0.7,0.9-1.2,1.3c-0.5,0.4-1.1,0.8-1.9,1.2
			l2.9,3.7c0.7-1.2,1.2-2.4,1.6-3.4l1.6,0.6c-0.6,1.4-1.4,2.7-2.3,4l1.8,2.3l-1.5,1.1l-1.5-2c-0.7,0.7-1.4,1.2-2.1,1.5
			c-0.7,0.3-1.5,0.5-2.4,0.5c-0.8,0-1.5-0.2-2.1-0.5c-0.6-0.3-1-0.8-1.4-1.3c-0.3-0.6-0.5-1.2-0.5-1.9c0-0.9,0.2-1.8,0.7-2.5
			c0.5-0.7,1.3-1.5,2.5-2.3c-0.5-0.6-0.8-1.2-1-1.7s-0.3-1-0.3-1.6c0-0.7,0.2-1.3,0.5-1.9c0.3-0.6,0.8-1,1.4-1.4
			c0.6-0.3,1.3-0.5,2.1-0.5C247.6,180.8,248.5,181.1,249.1,181.7z M243.2,190.7c-0.3,0.6-0.5,1.2-0.5,1.9c0,0.7,0.2,1.2,0.5,1.6
			c0.4,0.4,0.9,0.6,1.5,0.6c1.2,0,2.3-0.6,3.3-1.7L245,189C244.1,189.5,243.5,190.1,243.2,190.7z M245.1,182.9
			c-0.4,0.4-0.5,1-0.5,1.7c0,0.8,0.3,1.6,1,2.5c0.9-0.5,1.6-1,2-1.5c0.4-0.5,0.6-1,0.6-1.7c0-0.5-0.1-0.9-0.4-1.2
			c-0.3-0.3-0.7-0.4-1.2-0.4C246,182.2,245.5,182.5,245.1,182.9z"/>
		<path class="st3" d="M270.5,196.1h-1.9l0.5-6.8c0.2-2.2,0.3-4.3,0.5-6.2l-4.3,11.3h-1.9l-1.4-11.3c-0.2,1.3-0.5,3.4-1.1,6.3
			l-1.3,6.6h-1.9l3.3-15h2.5l1.3,11l4.1-11h2.7L270.5,196.1z"/>
		<path class="st3" d="M282.5,182.3c1.1,0.8,1.6,2.2,1.6,4.1c0,1.8-0.3,3.4-0.8,4.8c-0.5,1.5-1.3,2.6-2.5,3.5
			c-1.1,0.9-2.6,1.3-4.4,1.3h-3.3l2.1-15h3.1C280.1,181.1,281.5,181.5,282.5,182.3z M277,182.7l-1.7,11.9h1.5c1.3,0,2.3-0.4,3.1-1.2
			c0.8-0.8,1.4-1.8,1.7-3c0.3-1.2,0.5-2.5,0.5-3.9c0-1.4-0.3-2.4-1-2.9c-0.6-0.5-1.5-0.8-2.7-0.8L277,182.7L277,182.7z"/>
		<path class="st3" d="M294.6,181.2c0.6,0.3,1.1,0.6,1.6,1.1l-1.1,1.1c-0.4-0.4-0.8-0.6-1.2-0.8s-0.8-0.2-1.3-0.2
			c-1.1,0-2.1,0.4-2.8,1.3c-0.7,0.8-1.3,1.9-1.6,3.2c-0.3,1.3-0.5,2.5-0.5,3.8c0,1.4,0.3,2.3,0.8,3c0.5,0.6,1.2,1,2.1,1
			c0.6,0,1.1-0.1,1.5-0.3c0.4-0.2,0.9-0.5,1.5-0.9l0.8,1.3c-1.2,1.1-2.6,1.6-4.1,1.6c-1.4,0-2.6-0.5-3.4-1.5c-0.8-1-1.3-2.4-1.3-4.3
			c0-1.5,0.2-3.1,0.7-4.6c0.5-1.5,1.3-2.7,2.3-3.7c1-1,2.3-1.5,3.9-1.5C293.3,180.8,294,181,294.6,181.2z"/>
	</g>
	<path class="st3" d="M187.1,136.7c0,1.5-0.5,2.6-1.5,3.4c-1,0.7-2.4,1.1-4.2,1.1h-4.1v-16h3.5c1.8,0,3.3,0.3,4.3,1s1.5,1.7,1.5,3
		c0,0.9-0.3,1.7-0.8,2.3c-0.5,0.6-1.2,1-2.1,1.2C185.9,133.1,187.1,134.4,187.1,136.7z M179.4,126.8v5.2h2c0.9,0,1.6-0.2,2.1-0.7
		c0.5-0.5,0.8-1.1,0.8-1.9c0-0.9-0.3-1.5-0.8-2c-0.6-0.4-1.4-0.6-2.5-0.6L179.4,126.8L179.4,126.8z M183.9,138.8
		c0.6-0.4,0.9-1.2,0.9-2.2c0-2-1.1-3-3.3-3h-2.2v5.9h2C182.5,139.5,183.3,139.2,183.9,138.8z"/>
	<path class="st3" d="M198,135.8h-7.1c0.1,1.4,0.4,2.5,0.9,3.1c0.5,0.6,1.2,0.9,2.1,0.9c0.6,0,1.1-0.1,1.5-0.3s0.9-0.4,1.4-0.8
		l0.9,1.2c-1.1,1-2.4,1.5-3.9,1.5c-1.6,0-2.8-0.6-3.7-1.7c-0.9-1.1-1.3-2.7-1.3-4.7s0.4-3.6,1.3-4.8c0.8-1.2,2-1.8,3.5-1.8
		c1.5,0,2.6,0.5,3.4,1.6c0.8,1,1.2,2.5,1.2,4.5C198,135,198,135.4,198,135.8z M196,134.1c0-2.6-0.8-3.8-2.5-3.8
		c-0.8,0-1.4,0.3-1.8,1c-0.4,0.6-0.7,1.7-0.8,3.1h5.1L196,134.1L196,134.1z"/>
	<path class="st3" d="M206.4,128.8l-0.4,2c-0.3-0.1-0.6-0.1-1-0.1c-0.7,0-1.2,0.3-1.7,0.8s-0.8,1.4-1,2.5v7.2h-2.1v-12.2h1.8
		l0.2,2.4c0.6-1.8,1.6-2.7,3-2.7C205.7,128.7,206.1,128.7,206.4,128.8z"/>
	<path class="st3" d="M208.6,140.8c-0.4-0.4-0.7-1.1-0.7-1.9V124l2.1-0.2v15.1c0,0.6,0.2,0.9,0.7,0.9c0.2,0,0.4,0,0.7-0.1l0.5,1.5
		c-0.5,0.3-1,0.4-1.6,0.4C209.6,141.5,209,141.2,208.6,140.8z"/>
	<path class="st3" d="M215.7,123.6c0.3,0.3,0.4,0.6,0.4,1c0,0.4-0.1,0.7-0.4,1c-0.2,0.3-0.6,0.4-1,0.4c-0.4,0-0.7-0.1-1-0.4
		s-0.4-0.6-0.4-1c0-0.4,0.1-0.7,0.4-1s0.6-0.4,1-0.4C215.1,123.2,215.5,123.3,215.7,123.6z M215.8,128.9v12.2h-2.1v-12.2H215.8z"/>
	<path class="st3" d="M226.5,129.6c0.6,0.6,0.8,1.5,0.8,2.7v8.9h-2.1v-8.6c0-0.8-0.1-1.4-0.4-1.7c-0.3-0.4-0.7-0.5-1.2-0.5
		c-1,0-2,0.7-2.8,2.2v8.7h-2.1v-12.2h1.8l0.2,1.8c0.9-1.4,2.1-2.1,3.5-2.1C225.2,128.6,226,129,226.5,129.6z"/>
	<path class="st3" d="M238.3,125.2v16h-2.2v-16H238.3z"/>
	<path class="st3" d="M249,129.6c0.6,0.6,0.8,1.5,0.8,2.7v8.9h-2.1v-8.6c0-0.8-0.1-1.4-0.4-1.7c-0.3-0.4-0.7-0.5-1.2-0.5
		c-1,0-2,0.7-2.8,2.2v8.7h-2.1v-12.2h1.8l0.2,1.8c0.9-1.4,2.1-2.1,3.5-2.1C247.7,128.6,248.4,129,249,129.6z"/>
	<path class="st3" d="M259.9,130l-0.9,1.2c-0.5-0.3-1-0.6-1.4-0.8c-0.4-0.2-0.9-0.3-1.4-0.3c-0.6,0-1.1,0.2-1.5,0.5
		s-0.5,0.7-0.5,1.2c0,0.5,0.2,0.9,0.5,1.2c0.4,0.3,1,0.6,2,0.9c1.2,0.4,2.1,0.9,2.7,1.4c0.6,0.6,0.8,1.3,0.8,2.3
		c0,1.1-0.4,2-1.3,2.7c-0.8,0.7-1.9,1-3.1,1c-1.7,0-3.1-0.6-4.2-1.7l1.1-1.2c1,0.8,2,1.2,3.1,1.2c0.7,0,1.2-0.2,1.7-0.5
		c0.4-0.3,0.6-0.8,0.6-1.4c0-0.4-0.1-0.8-0.2-1s-0.4-0.5-0.8-0.7c-0.4-0.2-0.9-0.4-1.7-0.7c-1.2-0.4-2-0.9-2.5-1.4
		c-0.5-0.5-0.8-1.2-0.8-2.1c0-0.7,0.2-1.2,0.5-1.7c0.3-0.5,0.8-0.9,1.4-1.2c0.6-0.3,1.3-0.4,2.1-0.4
		C257.5,128.6,258.8,129.1,259.9,130z"/>
	<path class="st3" d="M268.7,140.6c-0.8,0.6-1.6,0.8-2.6,0.8c-1,0-1.8-0.3-2.3-0.9c-0.5-0.6-0.8-1.4-0.8-2.4v-7.7h-1.7v-1.6h1.7
		v-2.8l2.1-0.3v3.1h2.7l-0.2,1.6h-2.5v7.6c0,1.1,0.4,1.6,1.3,1.6c0.3,0,0.5,0,0.7-0.1c0.2-0.1,0.5-0.2,0.8-0.4L268.7,140.6z"/>
	<path class="st3" d="M272.3,123.6c0.3,0.3,0.4,0.6,0.4,1c0,0.4-0.1,0.7-0.4,1c-0.2,0.3-0.6,0.4-1,0.4c-0.4,0-0.7-0.1-1-0.4
		c-0.3-0.3-0.4-0.6-0.4-1c0-0.4,0.1-0.7,0.4-1c0.3-0.3,0.6-0.4,1-0.4S272,123.3,272.3,123.6z M272.3,128.9v12.2h-2.1v-12.2H272.3z"
		/>
	<path class="st3" d="M281.5,140.6c-0.8,0.6-1.6,0.8-2.6,0.8c-1,0-1.8-0.3-2.3-0.9c-0.5-0.6-0.8-1.4-0.8-2.4v-7.7h-1.7v-1.6h1.7
		v-2.8l2.1-0.3v3.1h2.7l-0.2,1.6H278v7.6c0,1.1,0.4,1.6,1.3,1.6c0.3,0,0.5,0,0.7-0.1c0.2-0.1,0.5-0.2,0.8-0.4L281.5,140.6z"/>
	<path class="st3" d="M291.2,141.2h-1.8l-0.1-1.8c-0.9,1.4-2,2.1-3.4,2.1c-1,0-1.7-0.3-2.3-1c-0.6-0.6-0.8-1.5-0.8-2.6v-9h2.1v8.8
		c0,0.7,0.1,1.2,0.4,1.6c0.3,0.3,0.7,0.5,1.2,0.5c1,0,1.9-0.7,2.7-2v-8.8h2.1L291.2,141.2L291.2,141.2z"/>
	<path class="st3" d="M300.2,140.6c-0.8,0.6-1.6,0.8-2.6,0.8c-1,0-1.8-0.3-2.3-0.9c-0.5-0.6-0.8-1.4-0.8-2.4v-7.7h-1.7v-1.6h1.7
		v-2.8l2.1-0.3v3.1h2.7l-0.2,1.6h-2.5v7.6c0,1.1,0.4,1.6,1.3,1.6c0.3,0,0.5,0,0.7-0.1c0.2-0.1,0.5-0.2,0.8-0.4L300.2,140.6z"/>
	<path class="st3" d="M310,135.8h-7.1c0.1,1.4,0.4,2.5,0.9,3.1c0.5,0.6,1.2,0.9,2.1,0.9c0.6,0,1.1-0.1,1.5-0.3
		c0.4-0.2,0.9-0.4,1.4-0.8l0.9,1.2c-1.1,1-2.4,1.5-3.9,1.5c-1.6,0-2.8-0.6-3.7-1.7c-0.9-1.1-1.3-2.7-1.3-4.7s0.4-3.6,1.3-4.8
		c0.8-1.2,2-1.8,3.5-1.8c1.5,0,2.6,0.5,3.4,1.6c0.8,1,1.2,2.5,1.2,4.5C310,135,310,135.4,310,135.8z M308,134.1
		c0-2.6-0.8-3.8-2.5-3.8c-0.8,0-1.4,0.3-1.8,1c-0.4,0.6-0.7,1.7-0.8,3.1h5.1V134.1z"/>
	<path class="st3" d="M185,154.2c0.9,1.1,1.3,2.7,1.3,4.7c0,2-0.4,3.6-1.3,4.7c-0.9,1.2-2.1,1.7-3.6,1.7c-1.6,0-2.8-0.6-3.7-1.7
		c-0.9-1.1-1.3-2.7-1.3-4.7c0-2,0.4-3.6,1.3-4.7c0.9-1.1,2.1-1.7,3.7-1.7C182.9,152.5,184.2,153.1,185,154.2z M179.3,155.3
		c-0.5,0.8-0.7,2-0.7,3.6c0,3.2,0.9,4.8,2.8,4.8s2.8-1.6,2.8-4.8c0-1.6-0.2-2.8-0.7-3.6c-0.5-0.8-1.2-1.1-2.1-1.1
		S179.8,154.6,179.3,155.3z"/>
	<path class="st3" d="M191.5,149.7c-0.3,0.3-0.4,0.7-0.4,1.3v1.8h2.7l-0.2,1.6h-2.5V165H189v-10.6h-1.8v-1.6h1.8V151
		c0-1,0.3-1.8,0.9-2.5c0.6-0.6,1.5-0.9,2.6-0.9c0.9,0,1.8,0.2,2.7,0.7l-0.6,1.4c-0.6-0.3-1.3-0.5-1.9-0.5
		C192.2,149.3,191.8,149.4,191.5,149.7z"/>
	<path class="st3" d="M209,165v-7.5h-5.8v7.5h-2.2v-16h2.2v6.7h5.8V149h2.2v16H209z"/>
	<path class="st3" d="M222.7,159.6h-7.1c0.1,1.4,0.4,2.5,0.9,3.1c0.5,0.6,1.2,0.9,2.1,0.9c0.6,0,1.1-0.1,1.5-0.3s0.9-0.4,1.4-0.8
		l0.9,1.2c-1.1,1-2.4,1.5-3.9,1.5c-1.6,0-2.8-0.6-3.7-1.7c-0.9-1.1-1.3-2.7-1.3-4.7c0-2,0.4-3.6,1.3-4.8c0.8-1.2,2-1.8,3.5-1.8
		c1.5,0,2.6,0.5,3.4,1.6c0.8,1,1.2,2.5,1.2,4.5C222.7,158.9,222.7,159.2,222.7,159.6z M220.7,157.9c0-2.6-0.8-3.8-2.5-3.8
		c-0.8,0-1.4,0.3-1.8,1c-0.4,0.6-0.7,1.7-0.8,3.1h5.1L220.7,157.9L220.7,157.9z"/>
	<path class="st3" d="M232.8,163.3c0.1,0.2,0.4,0.4,0.7,0.5l-0.4,1.4c-0.6-0.1-1.1-0.3-1.4-0.6s-0.6-0.7-0.7-1.3
		c-0.8,1.2-1.9,1.9-3.3,1.9c-1.1,0-1.9-0.3-2.6-1c-0.6-0.7-1-1.6-1-2.7c0-1.3,0.4-2.3,1.3-3c0.9-0.7,2.1-1,3.6-1h1.6v-1
		c0-0.9-0.2-1.5-0.5-1.8c-0.4-0.4-0.9-0.6-1.7-0.6c-0.9,0-1.8,0.2-3,0.7l-0.5-1.5c1.4-0.6,2.6-0.8,3.8-0.8c2.6,0,4,1.3,4,4v5.8
		C232.6,162.7,232.7,163.1,232.8,163.3z M230.5,161.8V159h-1.3c-2,0-3,0.8-3,2.5c0,0.7,0.2,1.3,0.5,1.7s0.8,0.6,1.4,0.6
		C229.1,163.8,229.9,163.1,230.5,161.8z"/>
	<path class="st3" d="M236.1,164.7c-0.4-0.4-0.7-1.1-0.7-1.9v-14.9l2.1-0.2v15.1c0,0.6,0.2,0.9,0.7,0.9c0.2,0,0.4,0,0.7-0.1l0.5,1.5
		c-0.5,0.3-1,0.4-1.6,0.4C237.2,165.3,236.6,165.1,236.1,164.7z"/>
	<path class="st3" d="M247.1,164.5c-0.8,0.6-1.6,0.8-2.6,0.8c-1,0-1.8-0.3-2.3-0.9c-0.5-0.6-0.8-1.4-0.8-2.4v-7.7h-1.7v-1.6h1.7V150
		l2.1-0.3v3.1h2.7l-0.2,1.6h-2.5v7.6c0,1.1,0.4,1.6,1.3,1.6c0.3,0,0.5,0,0.7-0.1c0.2-0.1,0.5-0.2,0.8-0.4L247.1,164.5z"/>
	<path class="st3" d="M256.4,153.5c0.6,0.7,0.8,1.5,0.8,2.6v8.9h-2.1v-8.6c0-0.8-0.1-1.4-0.4-1.7c-0.3-0.4-0.7-0.5-1.2-0.5
		c-1,0-2,0.7-2.8,2.2v8.7h-2.1v-17.2l2.1-0.2v6.9c0.4-0.7,0.9-1.2,1.5-1.5c0.5-0.4,1.2-0.5,1.9-0.5
		C255.1,152.5,255.8,152.8,256.4,153.5z"/>
	<path class="st3" d="M78.1,163.9c2.8,2.6,4.2,6.5,4.2,11.7c0,7.2-2.5,12.4-7.4,15.6c-5,3.3-11.8,4.9-20.6,4.9H34v-71h17.6
		c9,0,15.8,1.5,20.7,4.5c4.8,3,7.2,7.5,7.2,13.7c0,4-1.2,7.3-3.5,9.9c-2.4,2.6-5.4,4.4-9.1,5.4C71.6,159.5,75.3,161.3,78.1,163.9z
		 M48.8,135.8v18.3h5.3c6.9,0,10.4-3.1,10.4-9.4c0-3.1-0.9-5.4-2.7-6.8c-1.8-1.4-4.7-2.1-8.7-2.1C53.1,135.8,48.8,135.8,48.8,135.8z
		 M63.8,182.9c2.2-1.5,3.2-4.2,3.2-8c0-7.2-4-10.8-11.9-10.8h-6.4v21h5.5C58.5,185.1,61.7,184.4,63.8,182.9z"/>
	<path class="st3" d="M104.6,125.2v71H89.8v-71H104.6z"/>
	<path class="st3" d="M150.6,196.1v-31.2h-19.7v31.2h-14.8v-71h14.8v28.1h19.7v-28.1h14.8v71H150.6z"/>
	<rect x="10" y="154.2" class="st4" width="13.3" height="41.9"/>
</g>
<g id="Hilfslinien" class="st0">
	<line class="st5" x1="-180.9" y1="69" x2="498.3" y2="69.2"/>
	<line class="st5" x1="-180.9" y1="98.3" x2="498.3" y2="98.5"/>
	<line class="st5" x1="-180.9" y1="120.2" x2="498.3" y2="120.4"/>
	<line class="st5" x1="-180.9" y1="121.9" x2="498.3" y2="122.1"/>
	<line class="st5" x1="-180.9" y1="140.1" x2="498.3" y2="140.3"/>
	<line class="st5" x1="-180.9" y1="169.3" x2="498.3" y2="169.5"/>
	<line class="st5" x1="-180.9" y1="198.6" x2="498.3" y2="198.8"/>
	<line class="st5" x1="-180.9" y1="141.8" x2="498.3" y2="141.9"/>
</g>
</svg>
