<?xml version="1.0" encoding="utf-8"?>
<!-- Generator: Adobe Illustrator 25.0.1, SVG Export Plug-In . SVG Version: 6.00 Build 0)  -->
<svg version="1.1" id="Ebene_1" xmlns="http://www.w3.org/2000/svg" xmlns:xlink="http://www.w3.org/1999/xlink" x="0px" y="0px"
	 viewBox="0 0 320 320" style="enable-background:new 0 0 320 320;" xml:space="preserve">
<style type="text/css">
	.st0{display:none;}
	.st1{display:inline;fill:#1488CA;}
	.st2{fill:#3776B6;}
	.st3{clip-path:url(#SVGID_2_);fill:#192F47;}
	.st4{clip-path:url(#SVGID_4_);fill:#192F47;}
	.st5{clip-path:url(#SVGID_6_);fill:#192F47;}
	.st6{clip-path:url(#SVGID_8_);fill:#192F47;}
	.st7{clip-path:url(#SVGID_10_);fill:#FFFFFF;}
	.st8{display:none;fill:#3776B6;}
</style>
<g id="Logo">
</g>
<g id="Englisch" class="st0">
	<path class="st1" d="M24.7,331.4c0,1.9,0.1,4.7,2,4.7c1.6,0,1.9-1.5,1.9-2.8h4.5c-0.1,1.7-0.6,3.2-1.7,4.1c-1,1-2.6,1.5-4.7,1.5
		c-5.8,0-6.5-3.5-6.5-8.5c0-4.4,0.6-8.1,6.5-8.1c6,0,6.7,3.9,6.5,9L24.7,331.4L24.7,331.4z M28.8,328.9c0-1.5,0.1-3.8-2.1-3.8
		c-2.1,0-2,2.4-2,3.8H28.8z"/>
	<path class="st1" d="M40.7,319.3h-4.5v-3.5h4.5V319.3z M40.7,338.7h-4.5v-16h4.5V338.7z"/>
	<path class="st1" d="M44.2,315.8h4.5v8.4h0.1c0.9-1.4,2-1.8,3.6-1.8c4.5,0,4.4,5,4.4,8.2c0,3.3,0.2,8.4-4.5,8.4
		c-1.7,0-2.9-0.5-3.8-2.1h-0.1v1.8h-4.2V315.8z M52.3,330.5c0-3.2,0-5.4-1.9-5.4c-1.8,0-1.8,2.2-1.8,5.4c0,4,0.3,5.7,1.8,5.7
		C52.1,336.2,52.3,334.6,52.3,330.5"/>
	<path class="st1" d="M63.9,324.3L63.9,324.3c0.5-0.7,1-1.2,1.6-1.5s1.4-0.4,2.2-0.4c2.1,0,4,1.3,4,3.5v12.8h-4.5v-11
		c0-1.4-0.3-2.5-1.7-2.5c-1.4,0-1.7,1.1-1.7,2.5v11h-4.5v-16h4.5v1.6H63.9z"/>
	<path class="st1" d="M79.6,319.3h-4.5v-3.5h4.5V319.3z M79.6,338.7h-4.5v-16h4.5V338.7z"/>
	<polygon class="st1" points="92.8,325.9 86.4,335.8 92.9,335.8 92.9,338.7 82,338.7 82,335.5 88.3,325.5 82.3,325.5 82.3,322.7 
		92.8,322.7 	"/>
	<rect x="101.6" y="315.8" class="st1" width="4.8" height="22.8"/>
	<path class="st1" d="M114.1,324.3L114.1,324.3c0.5-0.7,1-1.2,1.6-1.5s1.4-0.4,2.2-0.4c2.1,0,4,1.3,4,3.5v12.8h-4.5v-11
		c0-1.4-0.3-2.5-1.7-2.5c-1.4,0-1.7,1.1-1.7,2.5v11h-4.5v-16h4.5L114.1,324.3L114.1,324.3z"/>
	<path class="st1" d="M128.5,333.5c0,0.7,0,1.4,0.2,1.9c0.3,0.5,0.7,0.8,1.6,0.8c0.9,0,1.6-0.6,1.6-1.6c0-3.4-7.8-2.6-7.8-7.7
		c0-3.4,3.4-4.5,6.3-4.5c3,0,5.8,1.5,5.5,4.9h-4.4c0-1.1-0.1-1.8-0.4-2.1c-0.3-0.3-0.7-0.3-1.1-0.3c-1,0-1.5,0.6-1.5,1.7
		c0,2.5,7.8,2.4,7.8,7.5c0,2.8-2.3,4.9-6,4.9c-3.9,0-6.5-1-6.2-5.4L128.5,333.5L128.5,333.5z"/>
	<path class="st1" d="M136.7,322.7h1.8v-2.5l4.5-2v4.5h2.3v2.8H143v8.5c0,1.2,0,2,1.4,2c0.3,0,0.6,0,0.8-0.1v2.8
		c-0.6,0.1-1.2,0.2-2.3,0.2c-3.9,0-4.4-2.6-4.4-3.5v-9.8h-1.8V322.7z"/>
	<path class="st1" d="M151.7,319.3h-4.5v-3.5h4.5V319.3z M151.7,338.7h-4.5v-16h4.5V338.7z"/>
	<path class="st1" d="M153.3,322.7h1.8v-2.5l4.5-2v4.5h2.3v2.8h-2.3v8.5c0,1.2,0,2,1.4,2c0.3,0,0.6,0,0.8-0.1v2.8
		c-0.6,0.1-1.2,0.2-2.3,0.2c-3.9,0-4.4-2.6-4.4-3.5v-9.8h-1.8V322.7z"/>
	<path class="st1" d="M171.2,337.1L171.2,337.1c-0.5,0.7-1,1.2-1.6,1.5s-1.3,0.4-2.2,0.4c-2.1,0-4-1.3-4-3.5v-12.8h4.5v11.1
		c0,1.4,0.3,2.5,1.7,2.5s1.7-1,1.7-2.5v-11.1h4.5v12.8c0,1,0.1,2.1,0.2,3.2h-4.6v-1.6H171.2z"/>
	<path class="st1" d="M176.9,322.7h1.8v-2.5l4.5-2v4.5h2.3v2.8h-2.3v8.5c0,1.2,0,2,1.4,2c0.3,0,0.6,0,0.8-0.1v2.8
		c-0.6,0.1-1.2,0.2-2.3,0.2c-3.9,0-4.4-2.6-4.4-3.5v-9.8h-1.8V322.7z"/>
	<path class="st1" d="M191.1,331.4c0,1.9,0.1,4.7,2,4.7c1.6,0,1.9-1.5,1.9-2.8h4.5c-0.1,1.7-0.6,3.2-1.7,4.1c-1,1-2.6,1.5-4.7,1.5
		c-5.8,0-6.5-3.5-6.5-8.5c0-4.4,0.6-8.1,6.5-8.1c6,0,6.7,3.9,6.5,9L191.1,331.4L191.1,331.4z M195.2,328.9c0-1.5,0.1-3.8-2.1-3.8
		c-2.1,0-2,2.4-2,3.8H195.2z"/>
	<path class="st1" d="M8.4,359.9H5.9v-1.5h2.6v-2.7c0-1.5,0.2-4.3,4.1-4.3c0.3,0,0.6,0.1,1.1,0.1v1.6h-1.4c-1.8,0-1.8,1.6-1.8,2.6
		v2.7h3.2v1.5h-3.2v14.5H8.4V359.9z"/>
	<path class="st1" d="M15.4,368.1v-3.4c0-4.1,1.8-6.6,5.5-6.6s5.5,2.4,5.5,6.6v3.4c0,4.1-1.8,6.6-5.5,6.6S15.4,372.2,15.4,368.1
		 M17.3,366.3c0,4.2,0.5,6.8,3.6,6.8s3.6-2.6,3.6-6.8c0-4.1-0.5-6.8-3.6-6.8C17.8,359.6,17.3,362.2,17.3,366.3"/>
	<path class="st1" d="M31.7,360.5L31.7,360.5c0.9-1.5,2.5-2.5,4.5-2.5v1.9c-2.7-0.2-4.5,1.4-4.5,4.1v10.3h-1.9v-16h1.9V360.5z"/>
	<path class="st1" d="M45.3,351.5h6.3c1.9,0,5,0.3,5,5.5c0,4.6-1.5,6.7-5.4,6.7h-3.9v10.6h-2C45.3,374.3,45.3,351.5,45.3,351.5z
		 M47.3,362h3.8c2.1,0,3.5-1,3.5-4.6c0-3.9-1.7-4.2-3.5-4.2h-3.7L47.3,362L47.3,362z"/>
	<path class="st1" d="M61.1,360.5L61.1,360.5c0.9-1.5,2.5-2.5,4.5-2.5v1.9c-2.7-0.2-4.5,1.4-4.5,4.1v10.3h-1.9v-16h1.9V360.5z"/>
	<path class="st1" d="M69.2,366.8v1.2c0,2.2,0.6,5.2,3.6,5.2c2.4,0,3.5-1.5,3.5-3.7h2c-0.2,3.9-2.3,5.2-5.5,5.2
		c-2.8,0-5.5-1.1-5.5-5.9v-3.9c0-4.6,1.9-6.7,5.5-6.7c5.5,0,5.5,4,5.5,8.7h-9.1V366.8z M76.4,365.2c0-3.5-0.6-5.7-3.6-5.7
		s-3.6,2.1-3.6,5.7H76.4z"/>
	<polygon class="st1" points="85.9,371.9 86,371.9 89.9,358.4 91.7,358.4 86.9,374.3 84.8,374.3 80,358.4 82.1,358.4 	"/>
	<path class="st1" d="M95.3,366.8v1.2c0,2.2,0.6,5.2,3.6,5.2c2.4,0,3.5-1.5,3.5-3.7h2c-0.2,3.9-2.3,5.2-5.5,5.2
		c-2.8,0-5.5-1.1-5.5-5.9v-3.9c0-4.6,1.9-6.7,5.5-6.7c5.5,0,5.5,4,5.5,8.7h-9.1V366.8z M102.5,365.2c0-3.5-0.6-5.7-3.6-5.7
		s-3.6,2.1-3.6,5.7H102.5z"/>
	<path class="st1" d="M109.6,374.3h-1.9v-16h1.9v2h0.1c0.9-1.3,2.2-2.3,3.9-2.3c4,0,4.4,2.9,4.4,5v11.3h-1.9v-11.2
		c0-1.9-0.7-3.6-2.9-3.6c-1.7,0-3.4,1.2-3.4,4.7v10.1H109.6z"/>
	<path class="st1" d="M120.1,359.9v-1.5h2.6v-3.3l1.9-0.8v4.1h3.2v1.5h-3.2v10.2c0,2.1,0.2,2.6,1.7,2.6c0.6,0,1.1,0,1.5-0.1v1.6
		c-0.6,0.1-1.2,0.1-1.8,0.1c-2.6,0-3.3-1.1-3.3-3.1v-11.4L120.1,359.9L120.1,359.9z"/>
	<path class="st1" d="M130.6,351.5h2.3v2.4h-2.3V351.5z M130.8,358.4h1.9v16h-1.9V358.4z"/>
	<path class="st1" d="M136.6,368.1v-3.4c0-4.1,1.8-6.6,5.5-6.6s5.5,2.4,5.5,6.6v3.4c0,4.1-1.8,6.6-5.5,6.6
		C138.4,374.7,136.6,372.2,136.6,368.1 M138.5,366.3c0,4.2,0.5,6.8,3.6,6.8s3.6-2.6,3.6-6.8c0-4.1-0.5-6.8-3.6-6.8
		C139,359.6,138.5,362.2,138.5,366.3"/>
	<path class="st1" d="M152.8,374.3h-1.9v-16h1.9v2h0.1c0.9-1.3,2.2-2.3,3.9-2.3c4,0,4.4,2.9,4.4,5v11.3h-1.9v-11.2
		c0-1.9-0.7-3.6-2.9-3.6c-1.7,0-3.4,1.2-3.4,4.7v10.1H152.8z"/>
	<path class="st1" d="M173.9,363.3v11.1h-2v-22.8h6.3c4.4,0,5.5,1.5,5.5,5.5c0,2.8-0.5,4.7-3.5,5.4v0.1c3.2,0.7,3.4,1,3.4,9.2
		c0,0.9,0.2,1.8,0.2,2.7h-1.9c-0.2-0.7-0.3-4.5-0.3-5.7c0-1,0.6-5.4-3.8-5.4h-3.9V363.3z M173.9,361.6h3.3c3,0,4.5-0.8,4.5-4.6
		c0-3.1-1.2-3.7-3.6-3.7H174L173.9,361.6L173.9,361.6z"/>
	<path class="st1" d="M188.8,366.8v1.2c0,2.2,0.6,5.2,3.6,5.2c2.4,0,3.5-1.5,3.5-3.7h2c-0.2,3.9-2.3,5.2-5.5,5.2
		c-2.8,0-5.5-1.1-5.5-5.9v-3.9c0-4.6,1.9-6.7,5.5-6.7c5.5,0,5.5,4,5.5,8.7h-9.1V366.8z M196,365.2c0-3.5-0.6-5.7-3.6-5.7
		s-3.6,2.1-3.6,5.7H196z"/>
	<path class="st1" d="M205.4,374.7c-3.4,0-4.8-1.7-4.8-5.1h1.9c0,2.2,0.5,3.6,2.9,3.6c1.8,0,2.7-1,2.7-2.8c0-4.2-7.2-3.1-7.2-8.4
		c0-2.9,2-4,4.8-4c3.2,0,4.2,2.2,4.2,4.6H208c-0.1-2-0.6-3.1-2.8-3.1c-1.4,0-2.4,0.9-2.4,2.3c0,4,7.2,2.9,7.2,8.3
		C210.2,373.1,208.4,374.7,205.4,374.7"/>
	<path class="st1" d="M214.8,366.8v1.2c0,2.2,0.6,5.2,3.6,5.2c2.4,0,3.5-1.5,3.5-3.7h2c-0.2,3.9-2.3,5.2-5.5,5.2
		c-2.8,0-5.5-1.1-5.5-5.9v-3.9c0-4.6,1.9-6.7,5.5-6.7c5.5,0,5.5,4,5.5,8.7h-9.1V366.8z M222.1,365.2c0-3.5-0.6-5.7-3.6-5.7
		s-3.6,2.1-3.6,5.7H222.1z"/>
	<path class="st1" d="M235.5,372.4L235.5,372.4c-1.1,1.5-2.6,2.3-4.6,2.3c-2.8,0-4.4-1.9-4.4-4.7c0-5.6,5.6-5,8.9-5.3v-1.3
		c0-2.3-0.7-3.8-3.2-3.8c-1.7,0-3.1,0.9-3.1,2.8h-2c0.2-3.1,2.5-4.3,5.3-4.3c1.6,0,5,0.2,5,4.2v8c0,1.1,0,2.2,0.2,4h-2L235.5,372.4
		L235.5,372.4z M235.4,366.2c-2.7,0.1-6.8-0.2-6.8,3.7c0,1.8,0.9,3.3,2.9,3.3c2.2,0,4-2,4-4L235.4,366.2L235.4,366.2z"/>
	<path class="st1" d="M243.2,360.5L243.2,360.5c0.9-1.5,2.5-2.5,4.5-2.5v1.9c-2.7-0.2-4.5,1.4-4.5,4.1v10.3h-1.9v-16h1.9V360.5z"/>
	<path class="st1" d="M256.9,363c0.1-2-0.6-3.4-2.8-3.4c-1.2,0-2.2,0.7-2.6,1.8c-0.3,0.7-0.4,2.9-0.4,5c0,2.9,0,6.7,2.9,6.7
		c2.5,0,2.8-1.6,2.9-3.5h1.9c0.2,4.3-2.9,5-4.4,5c-5.4,0-5.4-4.3-5.4-8.2c0-1.6,0.1-4.1,0.5-5.3c0.8-2.3,2.6-3.1,4.8-3.1
		c2.8,0,4.6,1.5,4.5,4.9h-1.9V363z"/>
	<path class="st1" d="M261.9,374.3v-22.8h1.9v8.8h0.1c0.9-1.3,2.2-2.3,3.9-2.3c4,0,4.4,2.9,4.4,5v11.3h-1.9v-11.2
		c0-1.9-0.7-3.6-2.9-3.6c-1.7,0-3.4,1.2-3.4,4.7v10h-2.1V374.3z"/>
	<path class="st1" d="M290.9,372.4L290.9,372.4c-1.1,1.5-2.6,2.3-4.6,2.3c-2.8,0-4.4-1.9-4.4-4.7c0-5.6,5.6-5,8.9-5.3v-1.3
		c0-2.3-0.7-3.8-3.2-3.8c-1.7,0-3.1,0.9-3.1,2.8h-2c0.2-3.1,2.5-4.3,5.3-4.3c1.6,0,5,0.2,5,4.2v8c0,1.1,0,2.2,0.2,4h-2L290.9,372.4
		L290.9,372.4z M290.8,366.2c-2.7,0.1-6.8-0.2-6.8,3.7c0,1.8,0.9,3.3,2.9,3.3c2.2,0,4-2,4-4v-3H290.8z"/>
	<path class="st1" d="M298.4,374.3h-1.9v-16h1.9v2h0.1c0.9-1.3,2.2-2.3,3.9-2.3c4,0,4.4,2.9,4.4,5v11.3h-1.9v-11.2
		c0-1.9-0.7-3.6-2.9-3.6c-1.7,0-3.4,1.2-3.4,4.7v10.1H298.4z"/>
	<path class="st1" d="M318.8,372.3L318.8,372.3c-1,1.5-2.2,2.3-4.1,2.3c-4.6,0-4.9-4.6-4.9-8.3c0-3.1,0-8.3,4.9-8.3
		c1.5,0,2.9,0.7,3.9,1.9h0.1v-8.5h1.9v19.7c0,1.6,0.1,2.6,0.2,3.2H319L318.8,372.3z M318.7,367.8V365c0-0.9,0-5.4-3.6-5.4
		c-3.4,0-3.4,3.1-3.4,6.8c0,5.9,1.4,6.7,3.5,6.7C317,373.1,318.7,371.7,318.7,367.8"/>
	<polygon class="st1" points="18,387.2 18,388.9 9.7,388.9 9.7,397.4 17.6,397.4 17.6,399.1 9.7,399.1 9.7,408.3 18.2,408.3 
		18.2,410 7.6,410 7.6,387.2 	"/>
	<path class="st1" d="M22.8,396L22.8,396c1.1-1.6,2.7-2.2,3.9-2.2c5,0,5,4.4,5,6.5v3.6c0,4.1-1.4,6.6-5.5,6.6
		c-1.2,0-2.3-0.6-3.3-2.1h-0.1v7.8h-1.9v-22h1.8v1.8H22.8z M22.8,403.4c0,3.6,1.6,5.4,3.4,5.4c3.1,0,3.6-2.6,3.6-6.8
		c0-4.1-0.5-6.8-3.6-6.8c-1.2,0-3.4,1.4-3.4,5.3V403.4z"/>
	<path class="st1" d="M34.9,387.2h2.3v2.4h-2.3V387.2z M35.2,394h1.9v16h-1.9V394z"/>
	<path class="st1" d="M49.6,408L49.6,408c-1,1.6-2.2,2.3-4.1,2.3c-4.6,0-4.9-4.6-4.9-8.3c0-3.1,0-8.3,4.9-8.3c1.5,0,2.9,0.7,3.9,1.9
		h0.1v-8.5h1.9v19.7c0,1.6,0.1,2.6,0.2,3.2h-1.8L49.6,408z M49.5,403.5v-2.8c0-0.9,0-5.4-3.6-5.4c-3.4,0-3.4,3.1-3.4,6.8
		c0,5.9,1.4,6.7,3.5,6.7C47.8,408.8,49.5,407.4,49.5,403.5"/>
	<path class="st1" d="M56.3,402.4v1.2c0,2.2,0.6,5.2,3.6,5.2c2.4,0,3.5-1.5,3.5-3.7h2c-0.2,3.9-2.3,5.2-5.5,5.2
		c-2.8,0-5.5-1.1-5.5-5.9v-3.9c0-4.6,1.9-6.7,5.5-6.7c5.5,0,5.5,4,5.5,8.7h-9.1V402.4z M63.5,400.9c0-3.5-0.6-5.7-3.6-5.7
		s-3.6,2.1-3.6,5.7H63.5z"/>
	<path class="st1" d="M70.4,410h-1.9v-16h1.7v2h0.1c0.8-1.3,2-2.3,3.8-2.3c1.6,0,3.1,0.9,3.6,2.5c0.8-1.6,2.2-2.5,3.9-2.5
		c2.7,0,4,1.8,4.1,4.4V410h-1.9v-11.4c0-1.6-0.6-3.4-2.5-3.4c-2.4,0-3.3,2.4-3.3,4.5V410h-1.9v-11.4c0-1.6-0.6-3.4-2.5-3.4
		c-2.4,0-3.3,2.4-3.3,4.5V410H70.4z"/>
	<path class="st1" d="M89.6,387.2H92v2.4h-2.3L89.6,387.2L89.6,387.2z M89.9,394h1.9v16h-1.9V394z"/>
	<path class="st1" d="M95.4,403.8v-3.4c0-4.1,1.8-6.6,5.5-6.6s5.5,2.4,5.5,6.6v3.4c0,4.1-1.8,6.6-5.5,6.6
		C97.2,410.3,95.4,407.9,95.4,403.8 M97.3,402c0,4.2,0.5,6.8,3.6,6.8s3.6-2.6,3.6-6.8c0-4.1-0.5-6.8-3.6-6.8S97.3,397.9,97.3,402"/>
	<rect x="110.2" y="387.2" class="st1" width="1.9" height="22.8"/>
	<path class="st1" d="M115.8,403.8v-3.4c0-4.1,1.8-6.6,5.5-6.6s5.5,2.4,5.5,6.6v3.4c0,4.1-1.8,6.6-5.5,6.6
		C117.5,410.3,115.8,407.9,115.8,403.8 M117.6,402c0,4.2,0.5,6.8,3.6,6.8s3.6-2.6,3.6-6.8c0-4.1-0.5-6.8-3.6-6.8
		S117.6,397.9,117.6,402"/>
	<path class="st1" d="M138.2,394h1.9c-0.1,1.5-0.1,2.3-0.1,3.1v13.4c0,3.5-1.1,5.6-5.6,5.6c-4,0-4.8-2.8-4.6-4.4h1.9
		c-0.1,1.8,1.2,2.9,3,2.9c3.7,0,3.5-2,3.5-6.8H138c-0.8,1.4-2.3,1.9-3.9,1.9c-4.6,0-4.9-4-4.9-7.5c0-3.7,0-3.7,0.5-5.4
		c0.2-0.7,1.3-3.2,4.5-3.2c1.6,0,3.2,0.8,3.9,2.2l0.1,0.1L138.2,394L138.2,394z M131.1,401.7c0,3.3,0,6.6,3.4,6.6
		c1.6,0,2.6-1,2.9-1.8c0.5-1.2,0.6-2,0.6-6.6c0-3.4-1.8-4.6-3.6-4.6C131.2,395.2,131.1,399.3,131.1,401.7"/>
	<polygon class="st1" points="146.9,410.1 141.9,394 143.9,394 147.8,407.1 147.9,407.1 151.7,394 153.5,394 146.9,416.1 
		145.1,416.1 	"/>
	<rect x="160.1" y="400.3" class="st1" width="15.8" height="1.5"/>
	<path class="st1" d="M184.4,410v-22.8h6.4c3.6,0,5.4,1.5,5.4,5.5c0,2.8-0.4,4.6-3.3,5.4v0.1c3,0.6,3.8,2.6,3.8,5.5
		c0,4.1-2,6.4-5.8,6.4h-6.5V410z M190.3,397.3c2.9,0,3.8-2,3.8-4.6c0-3.8-2.1-3.9-3.7-3.9h-4v8.4h3.9V397.3z M186.4,408.3h3.2
		c3.4,0,5-1.1,5-4.5c0-2-0.6-4.8-4.1-4.8h-4.1L186.4,408.3L186.4,408.3z"/>
	<rect x="200.1" y="387.2" class="st1" width="2" height="22.8"/>
	<path class="st1" d="M206.3,387.2h6.3c1.9,0,5,0.3,5,5.5c0,4.6-1.5,6.7-5.4,6.7h-3.9V410h-2L206.3,387.2L206.3,387.2z M208.3,397.7
		h3.8c2.1,0,3.5-1,3.5-4.6c0-3.9-1.7-4.2-3.5-4.2h-3.7v8.8H208.3z"/>
	<path class="st1" d="M229.9,393c-0.1-2.8-0.8-4.5-3.9-4.5c-2.5,0-4,0.9-4,3.5c0,3.4,1.7,3.5,4.3,5.3c2.8,2,5.7,2.6,5.7,7.1
		c0,4.1-2.1,6.1-6.1,6.1c-4.5,0-6.5-2.4-6.3-6.9h2.1c0,2.5,0.2,5.2,4.3,5.2c2.7,0,4-1.4,4-4c0-3.1-2.1-4-5.3-6
		c-4.4-2.7-4.6-4.1-4.7-6.4c0-4,2.5-5.6,6.2-5.6c4.7,0,5.8,2.9,5.8,6.2L229.9,393L229.9,393z"/>
	<polygon class="st1" points="7.3,338.7 7.3,315.8 12.1,315.8 12.1,334.9 19.2,334.9 19.2,338.7 	"/>
</g>
<g id="Deutsch">
	<g>
		<rect id="Hintergrund" x="73.8" y="79.7" class="st2" width="173.3" height="173.3"/>
		<g id="Leibniz">
			<g>
				<defs>
					<rect id="SVGID_1_" x="73.8" y="96.7" width="173.3" height="156.2"/>
				</defs>
				<clipPath id="SVGID_2_">
					<use xlink:href="#SVGID_1_"  style="overflow:visible;"/>
				</clipPath>
				<path class="st3" d="M171.8,178.8c-0.7,1.1-2-1.5-4.5,1.8c-1,1.3-0.4,3-1.7,4.4c-1.4,1.6-2.7,2.9-1.5-1.6
					c1.1-4.5,0.7-2.6,1.5-4.3c0.7-1.6,3.8-9.9,4.1-10.6c0.1-0.4,2.9-5.8,5.7-9.8c0,0,7.6-6.6,4.5,5.3
					C177.8,172.1,175.6,173,171.8,178.8 M172,190.4c-1,3.6-2.4,9.5-4.1,11c-1.5,1.3-3.4,4.8-5.1-1.4c-1.7-6.2,2.7-11.4,2.7-11.4
					s1.9-2.5,3.1-2.4C170,186.4,172.9,186.9,172,190.4 M79.3,189.8c-0.7,0.3-2.3-1.2-2.2-2c0.1-1.5,1.7,0.1,3.5,0
					C82.4,187.7,80,189.5,79.3,189.8 M126.4,136.6c17.2-15.7,16.8-15.4,18.1-15.9c1.7-0.7,7.6-3.4,8.8-2.1c1.4,1.7,1.5,5.4-1.5,8.5
					c-3.1,3.1-13.1,13.3-19.4,15.9C126.5,145.5,106,155.2,126.4,136.6 M200.1,196.3c1.6,1.3,3.1,3.3,8.7-2c5.6-5.2,2.7-3,5.7,3.8
					c3,6.8,5,3.1,5.1,1.8c0.5-3.4-0.6-9.9-1.2-12.5c-0.6-2.2-4.4-3.4-6-2.2c-1.4,1-5.3,5.4-7.9,6.2c-2.5,0.8-0.6-1.7-1.2-5.7
					c-0.7-4.1-2.2-6-3.7-5.2c-1.1,0.5-3.5,2.9-4.6,2.2c-2.2-1.2-3.7-6.5-14.2-0.7c-12.4,6.7-1.3-8.6-1.3-8.6s8.2-11.2,3.3-19.4
					c-5-8.1-15.5,9.4-15.5,9.4s-5.5,11-8.1,22.7c-2.4,11.7-7.5,10.4-9.4,7.9c-2.1-2.7-1.5-13.4-8.8-8.9c-7.3,4.5-7.2,13.4-11.6,3.3
					c-4.4-10.1-9-3.7-9.5-2.5c-0.8,1.5-0.4,4.8-1.7,5.5c-1.4,0.8-3.2-2.1-4.2-2.4c-1.1-0.5-8.5,6.5-11.9,12.8
					c-4.9,9.2-12.5-12.9-11.8-14.3c0.7-1.2,19.6-27.3,21.3-31.2c1.9-3.9,4.6-5.1,5.9-5.3c1.4-0.2,18.8-3.1,31.5-16.5
					c12.6-13.3,10.7-16.7,4.7-20c-6-3.4-23.2,13.5-24.1,14c-0.6,0.5-14.8,16.5-15.8,18.4c-1,2-24.3,0.7-24.3,0.7
					c-2.7,1.3,0.3,2.4,0.3,2.4s10.5,1.5,17,1.3c6.6-0.2,2.2,3.7,1.4,4.6c-5.1,6-14.6,22.4-18.1,25.7c-3.4,3.4-9.9-0.4-10.3-0.5
					s-10.1-1.5-8.1,5.9c2,7.5,7.9,4.1,10.8,4.9c0.8,0.2,2.2,1.8,2.6,2.5c1.5,2.3,2.2,6,3.7,8.2c2.2,3.3,10.7,11.5,17.2-0.4
					c6.8-12.4,11.1-7.7,11.5-1c0.4,6.7,2.5,4.2,5,3.2c2.4-1,0.4-5.7,0.7-11.8c0.3-6.1,5.3,2.7,5,5.1c-0.4,2.4,3.4,2,6.7,0.7
					c3.3-1.3,0.7-3.4,5.2-7.6c4.6-4.2,4.8,5.7,6,8c0.9,1.9,5.7,5.7,8.1,0.6c2.4-5.2,6.2-4,5.4,1.2c-0.8,5.3,3.7,7.4,5.2,7.3
					c1.4-0.1,9.4-4.5,9.5-13.3c0.1-8.9,6.5-8.8,7.5-9c1-0.2,9.3-1.5,8.5,0.9c-0.7,2.3-4.4,9.3-0.2,9.2c4.2-0.1,2.4-3.7,6.4-7.9
					C200.4,183.9,198.5,195.1,200.1,196.3"/>
			</g>
			<g>
				<defs>
					<rect id="SVGID_3_" x="73.8" y="96.7" width="173.3" height="156.2"/>
				</defs>
				<clipPath id="SVGID_4_">
					<use xlink:href="#SVGID_3_"  style="overflow:visible;"/>
				</clipPath>
				<path class="st4" d="M149.5,158.9c-0.6,5.9,3.1,4,3.1,4c6.8-3.5,1.4-6.7,1.4-6.7S150.1,153,149.5,158.9"/>
			</g>
			<g>
				<defs>
					<rect id="SVGID_5_" x="73.8" y="96.7" width="173.3" height="156.2"/>
				</defs>
				<clipPath id="SVGID_6_">
					<use xlink:href="#SVGID_5_"  style="overflow:visible;"/>
				</clipPath>
				<path class="st5" d="M234.9,225.4c0,0-8.2,15.9-9.2,17.3c-1.1,1.7-6.8,10-15.3,11.1c-8.4,1.1-13-3.7-12.9-6.6
					c0.1-3,2.8-6.8,12.1-11.4c20.7-10.3,22.6-11,22.6-11C233.6,224,236.8,222.2,234.9,225.4 M235.8,186.6c0,0.1-0.1,0.2-0.1,0.3
					L235.8,186.6z M248.8,212c-0.4-0.9-1-2.2-3.9,1.2c-4.4,5.3-3.7,2-4.2-1.5c-0.1-0.6,0.4-2.2-2.6-4.7c-1.6-1.3-8.8-3.4-7.2-5
					c4.2-4.2,3.1-3.8,4.6-5.7c1.5-1.9,7.2-7.5,6.9-15.4c-0.3-7.9-11.6-7.2-11.6-7.2c-7.4,1.3-4.3,8.1,1,7.7c5.1-0.4,4.3,3.8,3.9,5.1
					c0,0-0.7,1.7-1.9,3.6c-1.7,2.6-3.7,6.4-5.7,8.3c-1,1-6.8,4.7-2.7,6.7c6.9,3.5,12.1,10.7,9.5,14.7c-2.7,4-23.9,12.1-28.3,13.9
					c-4.2,1.9-12.6,2.4-12.5,13.4c0.2,11,11.8,10.9,16.9,9.5c8.9-2.3,12.6-5.8,16-9.6c3.6-4.1,10.8-20.3,11-20.5
					c0.2-0.2,2.5-9.5,6.6-10.7C248.9,215,249.3,213.4,248.8,212"/>
			</g>
			<g>
				<defs>
					<rect id="SVGID_7_" x="73.8" y="96.7" width="173.3" height="156.2"/>
				</defs>
				<clipPath id="SVGID_8_">
					<use xlink:href="#SVGID_7_"  style="overflow:visible;"/>
				</clipPath>
				<path class="st6" d="M220.7,168.3c0-2.1,0.7-2.8,2.1-4.1c2.2-2.1,4.7-2.3,6.8-0.2c0.7,0.7,1.1,1,1,2.4c0,1.5-0.8,2.8-2.3,4
					c-2.8,2.2-5.5,2.5-7.2,0.5C220.6,170.3,220.7,169.2,220.7,168.3"/>
			</g>
		</g>
		<g id="BIPS">
			<g>
				<defs>
					<rect id="SVGID_9_" x="73.8" y="79.7" width="173.3" height="82.8"/>
				</defs>
				<clipPath id="SVGID_10_">
					<use xlink:href="#SVGID_9_"  style="overflow:visible;"/>
				</clipPath>
				<path class="st7" d="M209.8,120c-0.2,7.8-0.2,26,23.7,25.8c13.4,0,25.2-5.5,25.2-22.6c0-25.7-36.4-23.1-36.4-41
					c0-8.8,6.3-11.9,12.5-11.9c17.4,0,12.5,5.8,12.5,14.7h10.8c0.7-16.5-7.7-23.7-22.5-23.7c-13.6,0-23.8,7.7-23.8,22
					c0,24.3,36.4,22.4,36.4,40.3c0,9.6-6.3,13.1-14.5,13.1c-6.6,0-13.6-3.5-13.6-14.5V120C220,120,209.8,120,209.8,120z
					 M165.7,144.2v-35.8h13.6c8.3,0,22.7-3.8,22.7-22.3c0-19.1-11.7-23.1-22.6-23.1h-24.1v81.1L165.7,144.2L165.7,144.2z M165.7,72
					H180c2.2,0,11.4,1.2,11.4,13.6c0,12.7-10.1,13.9-14.4,13.9h-11.3L165.7,72L165.7,72z M136.8,63h-10.3v81.1h10.3V63z M85.8,144.2
					c9.2,0,24.3-2.1,24.3-22.8c0-11.1-5.1-18.1-16.7-19.5v-0.6c10.5-2.3,13.9-9.1,13.9-19.2c0-1.6-0.5-6.4-3.3-10.8
					c-3-4.5-6.8-8.3-18.1-8.3H59.8v81.1L85.8,144.2L85.8,144.2z M70.1,72h14.6c8.6,0,12.5,5.5,12.5,12.3c0,7.9-3.9,12.8-12,12.9
					H70.1V72z M70.1,106.2h11c10.6,0,18.5,2.2,18.5,15.2c0,6-3.9,13.9-15,13.9H70.1V106.2z"/>
			</g>
		</g>
		<path class="st8" d="M200.5,307.2c0-1.8-0.6-3.5-3.2-3.5c-2.1,0-3.5,0.9-3.5,3.1c0,1.2,0.1,2.1,2.6,3.6c1.8,1.1,3,1.6,3,3.4
			c0,1.5-0.7,2.2-2.2,2.2c-2.2,0-2.3-1.5-2.3-2.9h-1.1c-0.1,2.4,1,3.8,3.5,3.8c2.2,0,3.4-1.1,3.4-3.4c0-2.4-1.6-2.8-3.2-3.9
			c-1.4-1-2.3-1.1-2.3-3c0-1.5,0.8-2,2.2-2c1.7,0,2.1,0.9,2.2,2.5L200.5,307.2L200.5,307.2z M187.6,304.9h2.1c1,0,2,0.2,2,2.3
			c0,2-0.7,2.5-2,2.5h-2.1V304.9z M186.5,316.6h1.1v-5.9h2.2c2.2,0,3-1.1,3-3.7c0-2.9-1.8-3.1-2.8-3.1h-3.5V316.6z M183.2,316.6h1.1
			v-12.7h-1.1V316.6z M175.7,310.5h2.2c2,0,2.2,1.5,2.2,2.6c0,1.9-0.9,2.5-2.7,2.5h-1.8V310.5z M178.2,316.6c2.2,0,3.2-1.2,3.2-3.6
			c0-1.6-0.5-2.7-2.1-3.1l0,0c1.6-0.5,1.9-1.5,1.9-3c0-2.2-1-3-3-3h-3.6v12.6H178.2z M175.7,309.6v-4.7h2.2c0.9,0,2.1,0,2.1,2.2
			c0,1.4-0.5,2.5-2.2,2.5H175.7z M170.2,311.2h-8.8v0.8h8.8V311.2z M152.4,311.6c0-2,0.3-3.1,2-3.1c1.7,0,2,1.2,2,3.1H152.4z
			 M157.5,312.4c0-2.6,0-4.8-3.1-4.8c-2,0-3.1,1.2-3.1,3.7v2.2c0,2.7,1.5,3.3,3.1,3.3c1.8,0,2.9-0.7,3.1-2.9h-1.1
			c0,1.2-0.7,2.1-2,2.1c-1.7,0-2-1.6-2-2.8v-0.7L157.5,312.4L157.5,312.4z M149.6,303.9h-1.3v1.3h1.3V303.9z M149.4,307.7h-1v8.8h1
			V307.7z M145.2,308.9L145.2,308.9c-0.4-0.8-1.3-1.3-2.2-1.3c-1.8,0-2.4,1.4-2.5,1.8c-0.3,0.9-0.3,0.9-0.3,3c0,2,0.2,4.1,2.7,4.1
			c0.8,0,1.7-0.3,2.2-1l0,0c0,2.6,0.1,3.7-2,3.7c-0.9,0-1.8-0.6-1.7-1.6h-1c-0.1,0.9,0.4,2.4,2.6,2.4c2.5,0,3.1-1.1,3.1-3.1v-7.5
			c0-0.5,0-0.9,0.1-1.8h-1L145.2,308.9L145.2,308.9z M143.3,308.4c0.9,0,2,0.7,2,2.5c0,2.6-0.1,3-0.4,3.7c-0.2,0.4-0.7,1-1.6,1
			c-1.9,0-1.9-1.9-1.9-3.7C141.4,310.6,141.4,308.4,143.3,308.4 M136.1,308.4c1.8,0,2,1.5,2,3.7c0,2.3-0.3,3.7-2,3.7
			c-1.8,0-2-1.5-2-3.7C134,309.9,134.3,308.4,136.1,308.4 M136.1,316.7c2.1,0,3.1-1.3,3.1-3.7v-1.9c0-2.3-0.9-3.7-3.1-3.7
			c-2.1,0-3.1,1.3-3.1,3.7v1.9C133,315.4,134,316.7,136.1,316.7 M131.1,303.9h-1v12.6h1V303.9z M125.1,308.4c1.8,0,2,1.5,2,3.7
			c0,2.3-0.3,3.7-2,3.7c-1.8,0-2-1.5-2-3.7C123,309.9,123.3,308.4,125.1,308.4 M125.1,316.7c2.1,0,3.1-1.3,3.1-3.7v-1.9
			c0-2.3-0.9-3.7-3.1-3.7c-2.1,0-3.1,1.3-3.1,3.7v1.9C122,315.4,123,316.7,125.1,316.7 M120.2,303.9h-1.3v1.3h1.3V303.9z
			 M120.1,307.7h-1v8.8h1V307.7z M108.4,310.9c0-1.1,0.5-2.5,1.9-2.5c1,0,1.3,0.9,1.4,1.9v6.4h1v-5.7c0-1.1,0.5-2.5,1.9-2.5
			c1,0,1.3,0.9,1.4,1.9v6.4h1v-6.6c-0.1-1.4-0.8-2.4-2.3-2.4c-0.9,0-1.8,0.5-2.2,1.4c-0.3-0.8-1.1-1.4-2.1-1.4s-1.7,0.6-2.1,1.2l0,0
			v-1.1h-0.9v8.9h1L108.4,310.9L108.4,310.9z M100.8,311.6c0-2,0.3-3.1,2-3.1c1.7,0,2,1.2,2,3.1H100.8z M105.8,312.4
			c0-2.6,0-4.8-3.1-4.8c-2,0-3.1,1.2-3.1,3.7v2.2c0,2.7,1.5,3.3,3.1,3.3c1.8,0,2.9-0.7,3.1-2.9h-1.1c0,1.2-0.7,2.1-2,2.1
			c-1.7,0-2-1.6-2-2.8v-0.7L105.8,312.4L105.8,312.4z M97.2,316.6h1c-0.1-0.3-0.1-0.8-0.1-1.8v-11h-1v4.7l0,0c-0.6-0.7-1.3-1-2.2-1
			c-2.7,0-2.7,2.9-2.7,4.6c0,2.1,0.1,4.6,2.7,4.6c1,0,1.7-0.5,2.2-1.3l0,0V316.6z M95.1,315.9c-1.1,0-2-0.5-2-3.7
			c0-2.1,0-3.7,1.9-3.7c2,0,2,2.4,2,3v1.6C97.1,315.1,96.2,315.9,95.1,315.9 M90.5,303.9h-1.3v1.3h1.3V303.9z M90.4,307.7h-1v8.8h1
			V307.7z M82.6,307.7h-1v12.2h1v-4.3l0,0c0.6,0.8,1.2,1.1,1.9,1.1c2.2,0,3.1-1.3,3.1-3.7v-2c0-1.1,0-3.6-2.8-3.6
			c-0.7,0-1.6,0.4-2.2,1.2l0,0V307.7z M82.6,311.4c0-2.2,1.2-3,1.9-3c1.8,0,2,1.5,2,3.7c0,2.3-0.3,3.7-2,3.7c-0.9,0-1.9-0.9-1.9-3
			V311.4z M74.4,303.9v12.6h5.9v-0.9h-4.8v-5.1h4.4v-0.9h-4.4v-4.8h4.6v-0.9H74.4z"/>
		<path class="st8" d="M245,296.9h1c-0.1-0.3-0.1-0.8-0.1-1.8v-10.9h-1v4.7l0,0c-0.6-0.7-1.3-1-2.2-1c-2.7,0-2.7,2.9-2.7,4.6
			c0,2.1,0.1,4.6,2.7,4.6c1,0,1.7-0.5,2.2-1.3l0,0L245,296.9z M243,296.1c-1.1,0-2-0.5-2-3.7c0-2.1,0-3.7,1.9-3.7c2,0,2,2.4,2,3v1.6
			C244.9,295.4,244,296.1,243,296.1 M234,291.3c0-2,0.9-2.6,1.9-2.6c1.2,0,1.6,0.9,1.6,2v6.2h1v-6.3c0-1.1-0.2-2.8-2.4-2.8
			c-0.9,0-1.6,0.6-2.2,1.2l0,0V288h-1v8.9h1L234,291.3L234,291.3z M230,288v6.3c0,0.7-0.5,2-2,2s-1.5-1.9-1.5-2.1V288h-1v6.3
			c0,1.4,0.5,2.8,2.3,2.8c0.9,0,1.6-0.4,2.2-1.1l0,0v0.9h0.9V288H230z M219.6,289.1L219.6,289.1c-0.4-0.8-1.3-1.3-2.2-1.3
			c-1.8,0-2.4,1.4-2.5,1.8c-0.3,0.9-0.3,0.9-0.3,3c0,2,0.2,4.1,2.7,4.1c0.8,0,1.7-0.3,2.2-1l0,0c0,2.6,0.1,3.7-2,3.7
			c-0.9,0-1.8-0.6-1.7-1.6h-1c-0.1,0.9,0.4,2.4,2.6,2.4c2.5,0,3.1-1.1,3.1-3.1v-7.5c0-0.5,0-0.9,0.1-1.8h-1L219.6,289.1L219.6,289.1
			z M217.6,288.6c0.9,0,2,0.7,2,2.5c0,2.6-0.1,3-0.4,3.7c-0.2,0.4-0.7,1-1.6,1c-1.9,0-1.9-1.9-1.9-3.7
			C215.7,290.9,215.8,288.6,217.6,288.6 M208.7,291.3c0-2,0.9-2.6,1.9-2.6c1.2,0,1.6,0.9,1.6,2v6.2h1v-6.3c0-1.1-0.2-2.8-2.4-2.8
			c-0.9,0-1.6,0.6-2.2,1.2l0,0V288h-1v8.9h1L208.7,291.3L208.7,291.3z M204.7,288v6.3c0,0.7-0.5,2-2,2s-1.5-1.9-1.5-2.1V288h-0.9
			v6.3c0,1.4,0.5,2.8,2.3,2.8c0.9,0,1.6-0.4,2.2-1.1l0,0v0.9h0.9V288H204.7z M193.8,296.9v-5.5c0-2,0.9-2.6,1.9-2.6
			c1.2,0,1.6,0.9,1.6,2v6.2h1v-6.3c0-1.1-0.2-2.8-2.4-2.8c-0.9,0-1.6,0.6-2.2,1.2l0,0v-4.9h-0.9v12.6L193.8,296.9L193.8,296.9z
			 M191.4,290.5c0.1-1.9-0.9-2.7-2.4-2.7c-1.2,0-2.2,0.5-2.6,1.7c-0.2,0.7-0.3,2.1-0.3,2.9c0,2.2,0,4.6,3,4.6c0.8,0,2.5-0.4,2.4-2.8
			h-1c-0.1,1-0.2,2-1.6,2c-1.6,0-1.6-2.2-1.6-3.7c0-1.2,0.1-2.3,0.3-2.8c0.2-0.7,0.7-1,1.4-1c1.2,0,1.6,0.7,1.6,1.9L191.4,290.5
			L191.4,290.5z M184.8,294.5c0-3-3.9-2.3-3.9-4.6c0-0.7,0.6-1.3,1.3-1.3c1.2,0,1.5,0.6,1.5,1.7h1c0-1.3-0.6-2.5-2.3-2.5
			c-1.5,0-2.6,0.6-2.6,2.2c0,2.9,3.9,2.3,3.9,4.7c0,0.9-0.5,1.6-1.5,1.6c-1.3,0-1.6-0.8-1.6-2.1h-1c0,1.9,0.7,2.8,2.6,2.8
			C183.9,297,184.8,296.1,184.8,294.5 M176.5,288h-1v8.9h1v-5.7c0-1.5,0.9-2.3,2.4-2.2v-1c-1,0-2,0.6-2.4,1.4l0,0V288z M170.8,288.6
			c1.8,0,2,1.5,2,3.7c0,2.3-0.3,3.7-2,3.7c-1.8,0-2-1.5-2-3.7S169.1,288.6,170.8,288.6 M170.8,297c2.1,0,3.1-1.3,3.1-3.7v-1.9
			c0-2.3-0.9-3.7-3.1-3.7c-2.1,0-3.1,1.3-3.1,3.7v1.9C167.8,295.7,168.7,297,170.8,297 M164.1,296.9h1v-8.1h1.8V288h-1.8v-1.5
			c0-0.5,0-1.4,1-1.4h0.7v-0.8c-0.3,0-0.5-0.1-0.6-0.1c-2.2,0-2.2,1.5-2.2,2.3v1.5h-1.4v0.8h1.4L164.1,296.9L164.1,296.9z
			 M162,294.5c0-3-3.9-2.3-3.9-4.6c0-0.7,0.6-1.3,1.3-1.3c1.2,0,1.5,0.6,1.5,1.7h1c0-1.3-0.6-2.5-2.3-2.5c-1.5,0-2.6,0.6-2.6,2.2
			c0,2.9,3.9,2.3,3.9,4.7c0,0.9-0.5,1.6-1.5,1.6c-1.3,0-1.6-0.8-1.6-2.1h-1c0,1.9,0.7,2.8,2.6,2.8C161,297,162,296.1,162,294.5
			 M150.7,291.3c0-2,0.9-2.6,1.9-2.6c1.2,0,1.6,0.9,1.6,2v6.2h1v-6.3c0-1.1-0.2-2.8-2.4-2.8c-0.9,0-1.6,0.6-2.2,1.2l0,0V288h-1v8.9
			h1L150.7,291.3L150.7,291.3z M145,288.6c1.8,0,2,1.5,2,3.7c0,2.3-0.3,3.7-2,3.7c-1.7,0-2-1.5-2-3.7S143.3,288.6,145,288.6
			 M145,297c2.1,0,3.1-1.3,3.1-3.7v-1.9c0-2.3-0.9-3.7-3.1-3.7c-2.1,0-3.1,1.3-3.1,3.7v1.9C141.9,295.7,143,297,145,297
			 M140.2,284.1h-1.3v1.3h1.3V284.1z M140.1,288h-1v8.9h1V288z M134.8,288.8v6.4c0,1.1,0.4,1.7,1.9,1.7c0.4,0,0.7,0,1-0.1v-0.9
			c-0.2,0-0.5,0.1-0.8,0.1c-0.8,0-0.9-0.3-0.9-1.5v-5.7h1.8V288H136v-2.2l-1,0.5v1.8h-1.4v0.8H134.8z M127.8,291.3
			c0-2,0.9-2.6,1.9-2.6c1.2,0,1.6,0.9,1.6,2v6.2h1v-6.3c0-1.1-0.2-2.8-2.4-2.8c-0.9,0-1.6,0.6-2.2,1.2l0,0V288h-1v8.9h1L127.8,291.3
			L127.8,291.3z M120.2,291.8c0-2,0.3-3.2,2-3.2c1.7,0,2,1.2,2,3.2H120.2z M125.3,292.7c0-2.6,0-4.8-3.1-4.8c-2,0-3.1,1.2-3.1,3.7
			v2.2c0,2.7,1.5,3.3,3.1,3.3c1.8,0,2.9-0.7,3.1-2.9h-1.1c0,1.2-0.7,2.1-2,2.1c-1.7,0-2-1.6-2-2.9v-0.7H125.3z M113.2,288h-1.1
			l2.6,8.9h1.2l2.6-8.9h-1l-2.2,7.5l0,0L113.2,288z M109.2,286.9h1.1v-1.8h-1.1V286.9z M106.4,286.9h1.1v-1.8h-1.1V286.9z
			 M110.1,296.9h1.1c-0.1-1-0.1-1.6-0.1-2.2v-4.5c0-2.2-1.9-2.3-2.7-2.3c-1.5,0-2.9,0.7-2.9,2.3h1.1c0-1,0.7-1.5,1.8-1.5
			c1.4,0,1.8,0.7,1.8,2.1v0.7c-1.8,0.1-4.9-0.2-4.9,2.9c0,1.5,0.8,2.6,2.4,2.6c1.1,0,2-0.4,2.5-1.2l0,0v1.1H110.1z M110,293.9
			c0,1.1-0.9,2.2-2.2,2.2c-1.1,0-1.6-0.8-1.6-1.8c0-2.2,2.2-2,3.7-2.1V293.9z M102.2,288H101v8.9h1v-5.7c0-1.5,0.9-2.3,2.4-2.2v-1
			c-1,0-2,0.6-2.4,1.4l0,0L102.2,288L102.2,288z M94.8,285.2h2.1c1,0,2,0.2,2,2.3c0,2-0.7,2.5-2,2.5h-2.1V285.2z M93.6,296.9h1.1
			V291h2.2c2.2,0,3-1.1,3-3.7c0-2.9-1.8-3.1-2.8-3.1h-3.5V296.9z M87.2,288h-1.1v8.9h1v-5.7c0-1.5,0.9-2.3,2.4-2.2v-1
			c-1,0-2,0.6-2.4,1.4l0,0L87.2,288L87.2,288z M82.3,286.9h1.1v-1.8h-1.1V286.9z M79.5,286.9h1.1v-1.8h-1.1V286.9z M83.2,288v6.3
			c0,0.7-0.5,2-2,2c-1.5,0-1.5-1.9-1.5-2.1V288h-1v6.3c0,1.4,0.5,2.8,2.3,2.8c0.9,0,1.6-0.4,2.2-1.1l0,0v0.9h0.9V288H83.2z
			 M74.8,296.9h1v-8.1h1.8V288h-1.8v-1.5c0-0.5,0-1.4,1-1.4h0.7v-0.8c-0.3,0-0.5-0.1-0.6-0.1c-2.2,0-2.2,1.5-2.2,2.3v1.5h-1.4v0.8
			h1.4V296.9z"/>
		<path class="st8" d="M169,269.7h1v5.4c0,0.6,0.3,2,2.4,2c0.6,0,0.9-0.1,1.3-0.1v-1.5c-0.1,0-0.3,0-0.5,0c-0.8,0-0.7-0.5-0.7-1.1
			v-4.8h1.3v-1.5h-1.3v-2.5l-2.4,1.1v1.4h-1L169,269.7L169,269.7z M165.9,277h2.5c-0.1-0.6-0.1-1.2-0.1-1.8v-7.1h-2.4v6.1
			c0,0.7-0.1,1.4-0.9,1.4c-0.7,0-0.9-0.6-0.9-1.4v-6.1h-2.4v7.1c0,1.2,1,2,2.2,2c0.5,0,0.8-0.1,1.2-0.3c0.4-0.2,0.7-0.5,0.8-0.8l0,0
			L165.9,277L165.9,277z M156.1,269.7h1v5.4c0,0.6,0.3,2,2.4,2c0.6,0,0.9-0.1,1.3-0.1v-1.5c-0.1,0-0.3,0-0.5,0
			c-0.8,0-0.7-0.5-0.7-1.1v-4.8h1.3v-1.5h-1.3v-2.5l-2.4,1.1v1.4h-1L156.1,269.7L156.1,269.7z M152.8,266.4h2.4v-2h-2.4V266.4z
			 M155.2,268.2h-2.4v8.9h2.4V268.2z M147,269.7h1v5.4c0,0.6,0.3,2,2.4,2c0.6,0,0.9-0.1,1.3-0.1v-1.5c-0.1,0-0.3,0-0.5,0
			c-0.8,0-0.7-0.5-0.7-1.1v-4.8h1.3v-1.5h-1.3v-2.5l-2.4,1.1v1.4h-1L147,269.7L147,269.7z M140.2,274.2c-0.1,2.4,1.3,3,3.5,3
			c2.1,0,3.3-1.1,3.3-2.7c0-2.8-4.3-2.8-4.3-4.2c0-0.6,0.3-0.9,0.8-0.9c0.3,0,0.5,0,0.7,0.2c0.2,0.2,0.3,0.6,0.3,1.1h2.4
			c0.1-1.9-1.4-2.7-3.1-2.7c-1.6,0-3.5,0.6-3.5,2.5c0,2.8,4.3,2.4,4.3,4.3c0,0.6-0.4,0.9-0.9,0.9c-0.5,0-0.7-0.1-0.9-0.4
			c-0.1-0.3-0.1-0.7-0.1-1L140.2,274.2L140.2,274.2z M134.6,268.2h-2.4v8.9h2.4V271c0-0.7,0.1-1.4,0.9-1.4c0.7,0,0.9,0.7,0.9,1.4
			v6.1h2.4V270c0-1.2-1-2-2.2-2c-0.5,0-0.8,0.1-1.2,0.3s-0.7,0.4-0.8,0.8l0,0L134.6,268.2L134.6,268.2z M130.4,264.4h-2.6V277h2.6
			V264.4z M122,273.2h4.3v-1.8H122V273.2z M121.1,268.2h-5.8v1.6h3.4l-3.5,5.5v1.8h6v-1.6h-3.6l3.6-5.5L121.1,268.2L121.1,268.2z
			 M111.4,266.4h2.4v-2h-2.4V266.4z M113.9,268.2h-2.4v8.9h2.4V268.2z M105.3,268.2h-2.4v8.9h2.4V271c0-0.7,0.2-1.4,0.9-1.4
			s0.9,0.7,0.9,1.4v6.1h2.4V270c0-1.2-1-2-2.2-2c-0.5,0-0.8,0.1-1.2,0.3c-0.4,0.2-0.7,0.4-0.8,0.8l0,0
			C105.3,269.2,105.3,268.2,105.3,268.2z M94.4,277h2.3v-0.9l0,0c0.5,0.8,1.1,1.1,2.1,1.1c2.5,0,2.4-2.8,2.4-4.7
			c0-1.8,0.1-4.5-2.4-4.5c-0.9,0-1.5,0.3-2.1,1l0,0v-4.7h-2.4L94.4,277L94.4,277z M97.9,275.7c-0.8,0-1-0.9-1-3.2c0-1.8,0-3,1-3
			c1,0,1,1.2,1,3C98.9,274.8,98.8,275.7,97.9,275.7 M90.1,266.4h2.4v-2h-2.4V266.4z M92.5,268.2h-2.4v8.9h2.4V268.2z M88.5,273
			c0.1-2.8-0.3-5-3.7-5c-3.3,0-3.7,2.1-3.7,4.5c0,2.8,0.4,4.7,3.7,4.7c1.1,0,2.1-0.3,2.6-0.8c0.6-0.6,0.9-1.3,0.9-2.3h-2.5
			c0,0.7-0.2,1.6-1,1.6c-1.1,0-1.1-1.6-1.1-2.6L88.5,273L88.5,273z M83.7,271.7c0-0.7,0-2.1,1.1-2.1c1.2,0,1.1,1.2,1.1,2.1H83.7z
			 M80.8,277V275h-3.9v-10.6h-2.6V277H80.8z"/>
	</g>
</g>
</svg>
