<?xml version="1.0" encoding="utf-8"?>
<!-- Generator: Adobe Illustrator 25.0.1, SVG Export Plug-In . SVG Version: 6.00 Build 0)  -->
<svg version="1.1" id="Ebene_1" xmlns="http://www.w3.org/2000/svg" xmlns:xlink="http://www.w3.org/1999/xlink" x="0px" y="0px"
	 viewBox="0 0 320 320" style="enable-background:new 0 0 320 320;" xml:space="preserve">
<style type="text/css">
	.st0{fill:#32AC5C;}
</style>
<g>
	<g>
		<path class="st0" d="M145,147.3c-0.1-0.1-0.2-0.3-0.2-0.5v-8.9c0-0.2,0.1-0.4,0.2-0.5c0.1-0.1,0.3-0.2,0.6-0.2h2.9
			c1.7,0,3,0.5,3.9,1.4c0.9,0.9,1.4,2.2,1.4,3.8c0,1.6-0.5,2.9-1.4,3.8c-0.9,0.9-2.2,1.4-3.9,1.4h-2.9
			C145.3,147.5,145.1,147.5,145,147.3z M148.3,146.3c2.5,0,3.8-1.3,3.8-3.9c0-2.6-1.3-3.9-3.8-3.9h-2v7.8H148.3z"/>
		<path class="st0" d="M161.5,145.9c0.1,0.1,0.1,0.2,0.1,0.4c0,0.3-0.2,0.5-0.5,0.7c-0.3,0.2-0.7,0.3-1.1,0.5
			c-0.4,0.1-0.8,0.2-1.2,0.2c-1.1,0-2-0.3-2.7-1c-0.7-0.7-1-1.6-1-2.7c0-0.7,0.1-1.4,0.4-2c0.3-0.6,0.7-1,1.2-1.3
			c0.5-0.3,1.1-0.5,1.8-0.5c1,0,1.7,0.3,2.3,0.9c0.6,0.6,0.8,1.4,0.8,2.5c0,0.4-0.2,0.6-0.5,0.6h-4.5c0.1,1.5,0.8,2.3,2.2,2.3
			c0.4,0,0.7,0,0.9-0.1c0.3-0.1,0.5-0.2,0.8-0.4c0,0,0.1-0.1,0.2-0.1c0.1-0.1,0.2-0.1,0.3-0.1C161.3,145.7,161.4,145.8,161.5,145.9z
			 M157.2,141.8c-0.3,0.4-0.5,0.9-0.6,1.5h3.8c0-0.7-0.2-1.2-0.5-1.5c-0.3-0.4-0.7-0.5-1.3-0.5C158,141.3,157.6,141.5,157.2,141.8z"
			/>
		<path class="st0" d="M169.4,140.4c0.1,0.1,0.2,0.3,0.2,0.5v6c0,0.2-0.1,0.4-0.2,0.5c-0.1,0.1-0.3,0.2-0.5,0.2
			c-0.2,0-0.4-0.1-0.5-0.2c-0.1-0.1-0.2-0.3-0.2-0.5v-0.6c-0.2,0.4-0.5,0.7-0.9,0.9c-0.4,0.2-0.8,0.3-1.3,0.3c-1.7,0-2.6-1-2.6-2.9
			V141c0-0.2,0.1-0.4,0.2-0.5c0.1-0.1,0.3-0.2,0.6-0.2c0.2,0,0.4,0.1,0.5,0.2c0.1,0.1,0.2,0.3,0.2,0.5v3.8c0,0.6,0.1,1,0.4,1.3
			c0.2,0.3,0.6,0.4,1.1,0.4c0.6,0,1-0.2,1.4-0.6c0.3-0.4,0.5-0.9,0.5-1.5V141c0-0.2,0.1-0.4,0.2-0.5c0.1-0.1,0.3-0.2,0.5-0.2
			C169.1,140.2,169.3,140.3,169.4,140.4z"/>
		<path class="st0" d="M175.6,146.7c0.1,0.1,0.1,0.2,0.1,0.4c0,0.2-0.1,0.3-0.2,0.4s-0.4,0.1-0.7,0.1l-0.4,0
			c-0.8-0.1-1.4-0.3-1.8-0.7c-0.4-0.4-0.6-1.1-0.6-1.9v-3.5h-0.9c-0.4,0-0.6-0.2-0.6-0.6c0-0.2,0.1-0.3,0.2-0.4
			c0.1-0.1,0.3-0.2,0.5-0.2h0.9v-1.5c0-0.2,0.1-0.4,0.2-0.5c0.1-0.1,0.3-0.2,0.5-0.2c0.2,0,0.4,0.1,0.5,0.2c0.1,0.1,0.2,0.3,0.2,0.5
			v1.5h1.5c0.2,0,0.4,0.1,0.5,0.2c0.1,0.1,0.2,0.2,0.2,0.4c0,0.2-0.1,0.3-0.2,0.4c-0.1,0.1-0.3,0.1-0.5,0.1h-1.5v3.6
			c0,0.5,0.1,0.8,0.3,1c0.2,0.2,0.5,0.3,0.9,0.4l0.4,0C175.4,146.5,175.5,146.6,175.6,146.7z"/>
		<path class="st0" d="M176.9,147c-0.2-0.1-0.3-0.2-0.4-0.3c-0.1-0.1-0.1-0.2-0.1-0.4c0-0.2,0-0.3,0.1-0.4c0.1-0.1,0.2-0.2,0.3-0.2
			c0.1,0,0.3,0.1,0.6,0.2c0.3,0.2,0.6,0.3,0.9,0.4c0.3,0.1,0.6,0.1,1,0.1c0.5,0,0.8-0.1,1.1-0.2c0.3-0.2,0.4-0.4,0.4-0.7
			c0-0.2-0.1-0.4-0.2-0.5c-0.1-0.1-0.3-0.2-0.5-0.3c-0.3-0.1-0.6-0.2-1.1-0.3c-0.9-0.2-1.5-0.4-1.9-0.8c-0.4-0.3-0.6-0.8-0.6-1.3
			c0-0.4,0.1-0.8,0.4-1.1c0.2-0.3,0.6-0.6,1-0.8c0.4-0.2,0.9-0.3,1.5-0.3c0.4,0,0.8,0.1,1.1,0.2c0.4,0.1,0.7,0.3,1,0.4
			c0.3,0.2,0.5,0.5,0.5,0.7c0,0.2,0,0.3-0.1,0.4c-0.1,0.1-0.2,0.2-0.3,0.2c-0.1,0-0.2,0-0.3-0.1c-0.1,0-0.2-0.1-0.4-0.2
			c-0.3-0.2-0.5-0.3-0.7-0.4c-0.2-0.1-0.5-0.1-0.9-0.1c-0.4,0-0.7,0.1-1,0.3c-0.2,0.2-0.4,0.4-0.4,0.7c0,0.3,0.1,0.5,0.3,0.6
			c0.2,0.2,0.7,0.3,1.3,0.4c0.7,0.1,1.2,0.3,1.5,0.5c0.4,0.2,0.6,0.4,0.8,0.7c0.2,0.3,0.2,0.6,0.2,1c0,0.6-0.3,1.1-0.8,1.5
			c-0.5,0.4-1.2,0.6-2.1,0.6C178.3,147.6,177.5,147.4,176.9,147z"/>
		<path class="st0" d="M185.2,147.2c-0.5-0.3-0.9-0.7-1.2-1.3c-0.3-0.6-0.4-1.2-0.4-1.9c0-0.7,0.1-1.4,0.4-2c0.3-0.6,0.7-1,1.3-1.3
			c0.5-0.3,1.2-0.5,1.9-0.5c0.4,0,0.7,0.1,1.1,0.2c0.4,0.1,0.7,0.3,1,0.4c0.3,0.2,0.5,0.5,0.5,0.7c0,0.2,0,0.3-0.1,0.4
			c-0.1,0.1-0.2,0.2-0.3,0.2c-0.1,0-0.2,0-0.3-0.1c-0.1,0-0.2-0.1-0.3-0.2c-0.2-0.2-0.5-0.3-0.7-0.4c-0.2-0.1-0.5-0.1-0.8-0.1
			c-0.7,0-1.2,0.2-1.5,0.7c-0.4,0.5-0.6,1.1-0.6,1.9c0,0.8,0.2,1.4,0.5,1.9c0.4,0.4,0.9,0.7,1.5,0.7c0.3,0,0.6,0,0.8-0.1
			c0.2-0.1,0.5-0.2,0.7-0.4c0.1-0.1,0.2-0.1,0.3-0.2c0.1,0,0.2-0.1,0.3-0.1c0.1,0,0.2,0.1,0.3,0.2c0.1,0.1,0.1,0.3,0.1,0.4
			c0,0.1,0,0.3-0.1,0.4c-0.1,0.1-0.2,0.2-0.4,0.3c-0.3,0.2-0.6,0.3-1,0.5c-0.4,0.1-0.8,0.2-1.2,0.2
			C186.3,147.6,185.7,147.5,185.2,147.2z"/>
		<path class="st0" d="M197.5,143.1v3.8c0,0.2-0.1,0.4-0.2,0.5c-0.1,0.1-0.3,0.2-0.5,0.2c-0.2,0-0.4-0.1-0.5-0.2s-0.2-0.3-0.2-0.5
			v-3.8c0-0.6-0.1-1-0.4-1.3c-0.2-0.3-0.6-0.4-1.1-0.4c-0.6,0-1.1,0.2-1.4,0.6c-0.4,0.4-0.5,0.9-0.5,1.5v3.5c0,0.2-0.1,0.4-0.2,0.5
			s-0.3,0.2-0.5,0.2c-0.2,0-0.4-0.1-0.5-0.2c-0.1-0.1-0.2-0.3-0.2-0.5v-9.1c0-0.2,0.1-0.4,0.2-0.5c0.1-0.1,0.3-0.2,0.6-0.2
			c0.2,0,0.4,0.1,0.5,0.2c0.1,0.1,0.2,0.3,0.2,0.5v3.7c0.2-0.4,0.6-0.7,1-0.9c0.4-0.2,0.9-0.3,1.4-0.3
			C196.6,140.2,197.5,141.2,197.5,143.1z"/>
		<path class="st0" d="M205.4,145.9c0.1,0.1,0.1,0.2,0.1,0.4c0,0.3-0.2,0.5-0.5,0.7c-0.3,0.2-0.7,0.3-1.1,0.5
			c-0.4,0.1-0.8,0.2-1.2,0.2c-1.1,0-2-0.3-2.7-1c-0.7-0.7-1-1.6-1-2.7c0-0.7,0.1-1.4,0.4-2c0.3-0.6,0.7-1,1.2-1.3
			c0.5-0.3,1.1-0.5,1.8-0.5c1,0,1.7,0.3,2.3,0.9c0.6,0.6,0.8,1.4,0.8,2.5c0,0.4-0.2,0.6-0.5,0.6h-4.5c0.1,1.5,0.8,2.3,2.2,2.3
			c0.4,0,0.7,0,0.9-0.1c0.3-0.1,0.5-0.2,0.8-0.4c0,0,0.1-0.1,0.2-0.1c0.1-0.1,0.2-0.1,0.3-0.1C205.2,145.7,205.3,145.8,205.4,145.9z
			 M201.2,141.8c-0.3,0.4-0.5,0.9-0.6,1.5h3.8c0-0.7-0.2-1.2-0.5-1.5c-0.3-0.4-0.7-0.5-1.3-0.5C202,141.3,201.5,141.5,201.2,141.8z"
			/>
		<path class="st0" d="M207.3,147c-0.2-0.1-0.3-0.2-0.4-0.3c-0.1-0.1-0.1-0.2-0.1-0.4c0-0.2,0-0.3,0.1-0.4c0.1-0.1,0.2-0.2,0.3-0.2
			c0.1,0,0.3,0.1,0.6,0.2c0.3,0.2,0.6,0.3,0.9,0.4c0.3,0.1,0.6,0.1,1,0.1c0.5,0,0.8-0.1,1.1-0.2s0.4-0.4,0.4-0.7
			c0-0.2-0.1-0.4-0.2-0.5c-0.1-0.1-0.3-0.2-0.5-0.3c-0.3-0.1-0.6-0.2-1.1-0.3c-0.9-0.2-1.5-0.4-1.9-0.8c-0.4-0.3-0.6-0.8-0.6-1.3
			c0-0.4,0.1-0.8,0.4-1.1c0.2-0.3,0.6-0.6,1-0.8c0.4-0.2,0.9-0.3,1.5-0.3c0.4,0,0.8,0.1,1.1,0.2c0.4,0.1,0.7,0.3,1,0.4
			c0.3,0.2,0.5,0.5,0.5,0.7c0,0.2,0,0.3-0.1,0.4c-0.1,0.1-0.2,0.2-0.3,0.2c-0.1,0-0.2,0-0.3-0.1c-0.1,0-0.2-0.1-0.4-0.2
			c-0.3-0.2-0.5-0.3-0.7-0.4c-0.2-0.1-0.5-0.1-0.9-0.1c-0.4,0-0.7,0.1-1,0.3c-0.2,0.2-0.4,0.4-0.4,0.7c0,0.3,0.1,0.5,0.3,0.6
			c0.2,0.2,0.7,0.3,1.3,0.4c0.7,0.1,1.2,0.3,1.5,0.5c0.4,0.2,0.6,0.4,0.8,0.7c0.2,0.3,0.2,0.6,0.2,1c0,0.6-0.3,1.1-0.8,1.5
			c-0.5,0.4-1.2,0.6-2.1,0.6C208.8,147.6,207.9,147.4,207.3,147z"/>
		<path class="st0" d="M218.6,147.4c-0.1-0.1-0.2-0.3-0.2-0.6v-9c0-0.2,0.1-0.4,0.2-0.6c0.1-0.1,0.3-0.2,0.5-0.2
			c0.2,0,0.4,0.1,0.6,0.2c0.1,0.1,0.2,0.3,0.2,0.6v9c0,0.2-0.1,0.4-0.2,0.6c-0.1,0.1-0.3,0.2-0.6,0.2
			C218.9,147.6,218.7,147.6,218.6,147.4z"/>
		<path class="st0" d="M228.6,143.1v3.8c0,0.2-0.1,0.4-0.2,0.5c-0.1,0.1-0.3,0.2-0.6,0.2c-0.2,0-0.4-0.1-0.5-0.2s-0.2-0.3-0.2-0.5
			v-3.7c0-0.6-0.1-1.1-0.4-1.3c-0.2-0.3-0.6-0.4-1.1-0.4c-0.6,0-1.1,0.2-1.4,0.6c-0.4,0.4-0.5,0.9-0.5,1.5v3.5
			c0,0.2-0.1,0.4-0.2,0.5s-0.3,0.2-0.5,0.2c-0.2,0-0.4-0.1-0.5-0.2c-0.1-0.1-0.2-0.3-0.2-0.5v-6c0-0.2,0.1-0.4,0.2-0.5
			c0.1-0.1,0.3-0.2,0.5-0.2s0.4,0.1,0.5,0.2c0.1,0.1,0.2,0.3,0.2,0.5v0.6c0.2-0.4,0.6-0.8,1-1c0.4-0.2,0.9-0.3,1.4-0.3
			C227.7,140.2,228.6,141.2,228.6,143.1z"/>
		<path class="st0" d="M230.6,147c-0.2-0.1-0.3-0.2-0.4-0.3c-0.1-0.1-0.1-0.2-0.1-0.4c0-0.2,0-0.3,0.1-0.4c0.1-0.1,0.2-0.2,0.3-0.2
			c0.1,0,0.3,0.1,0.6,0.2c0.3,0.2,0.6,0.3,0.9,0.4c0.3,0.1,0.6,0.1,1,0.1c0.5,0,0.8-0.1,1.1-0.2c0.3-0.2,0.4-0.4,0.4-0.7
			c0-0.2-0.1-0.4-0.2-0.5c-0.1-0.1-0.3-0.2-0.5-0.3c-0.3-0.1-0.6-0.2-1.1-0.3c-0.9-0.2-1.5-0.4-1.9-0.8c-0.4-0.3-0.6-0.8-0.6-1.3
			c0-0.4,0.1-0.8,0.4-1.1c0.2-0.3,0.6-0.6,1-0.8c0.4-0.2,0.9-0.3,1.5-0.3c0.4,0,0.8,0.1,1.1,0.2c0.4,0.1,0.7,0.3,1,0.4
			c0.3,0.2,0.5,0.5,0.5,0.7c0,0.2,0,0.3-0.1,0.4c-0.1,0.1-0.2,0.2-0.3,0.2c-0.1,0-0.2,0-0.3-0.1c-0.1,0-0.2-0.1-0.4-0.2
			c-0.3-0.2-0.5-0.3-0.7-0.4c-0.2-0.1-0.5-0.1-0.9-0.1c-0.4,0-0.7,0.1-1,0.3c-0.2,0.2-0.4,0.4-0.4,0.7c0,0.3,0.1,0.5,0.3,0.6
			c0.2,0.2,0.7,0.3,1.3,0.4c0.7,0.1,1.2,0.3,1.5,0.5c0.4,0.2,0.6,0.4,0.8,0.7c0.2,0.3,0.2,0.6,0.2,1c0,0.6-0.3,1.1-0.8,1.5
			c-0.5,0.4-1.2,0.6-2.1,0.6C232.1,147.6,231.3,147.4,230.6,147z"/>
		<path class="st0" d="M241.6,146.7c0.1,0.1,0.1,0.2,0.1,0.4c0,0.2-0.1,0.3-0.2,0.4s-0.4,0.1-0.7,0.1l-0.4,0
			c-0.8-0.1-1.4-0.3-1.8-0.7c-0.4-0.4-0.6-1.1-0.6-1.9v-3.5h-0.9c-0.4,0-0.6-0.2-0.6-0.6c0-0.2,0.1-0.3,0.2-0.4
			c0.1-0.1,0.3-0.2,0.5-0.2h0.9v-1.5c0-0.2,0.1-0.4,0.2-0.5c0.1-0.1,0.3-0.2,0.5-0.2c0.2,0,0.4,0.1,0.5,0.2c0.1,0.1,0.2,0.3,0.2,0.5
			v1.5h1.5c0.2,0,0.4,0.1,0.5,0.2c0.1,0.1,0.2,0.2,0.2,0.4c0,0.2-0.1,0.3-0.2,0.4c-0.1,0.1-0.3,0.1-0.5,0.1h-1.5v3.6
			c0,0.5,0.1,0.8,0.3,1c0.2,0.2,0.5,0.3,0.9,0.4l0.4,0C241.3,146.5,241.5,146.6,241.6,146.7z"/>
		<path class="st0" d="M242.9,138.6c-0.2-0.2-0.2-0.4-0.2-0.6c0-0.3,0.1-0.5,0.2-0.6c0.2-0.2,0.4-0.2,0.7-0.2c0.3,0,0.5,0.1,0.7,0.2
			c0.2,0.2,0.3,0.4,0.3,0.6c0,0.3-0.1,0.5-0.2,0.6c-0.2,0.2-0.4,0.2-0.7,0.2S243,138.7,242.9,138.6z M243,147.4
			c-0.1-0.1-0.2-0.3-0.2-0.5v-6c0-0.2,0.1-0.4,0.2-0.5c0.1-0.1,0.3-0.2,0.5-0.2s0.4,0.1,0.5,0.2c0.1,0.1,0.2,0.3,0.2,0.5v6
			c0,0.2-0.1,0.4-0.2,0.5c-0.1,0.1-0.3,0.2-0.5,0.2S243.1,147.6,243,147.4z"/>
		<path class="st0" d="M250.3,146.7c0.1,0.1,0.1,0.2,0.1,0.4c0,0.2-0.1,0.3-0.2,0.4s-0.4,0.1-0.7,0.1l-0.4,0
			c-0.8-0.1-1.4-0.3-1.8-0.7c-0.4-0.4-0.6-1.1-0.6-1.9v-3.5h-0.9c-0.4,0-0.6-0.2-0.6-0.6c0-0.2,0.1-0.3,0.2-0.4
			c0.1-0.1,0.3-0.2,0.5-0.2h0.9v-1.5c0-0.2,0.1-0.4,0.2-0.5c0.1-0.1,0.3-0.2,0.5-0.2c0.2,0,0.4,0.1,0.5,0.2c0.1,0.1,0.2,0.3,0.2,0.5
			v1.5h1.5c0.2,0,0.4,0.1,0.5,0.2c0.1,0.1,0.2,0.2,0.2,0.4c0,0.2-0.1,0.3-0.2,0.4c-0.1,0.1-0.3,0.1-0.5,0.1h-1.5v3.6
			c0,0.5,0.1,0.8,0.3,1c0.2,0.2,0.5,0.3,0.9,0.4l0.4,0C250.1,146.5,250.2,146.6,250.3,146.7z"/>
		<path class="st0" d="M257.6,140.4c0.1,0.1,0.2,0.3,0.2,0.5v6c0,0.2-0.1,0.4-0.2,0.5c-0.1,0.1-0.3,0.2-0.5,0.2
			c-0.2,0-0.4-0.1-0.5-0.2c-0.1-0.1-0.2-0.3-0.2-0.5v-0.6c-0.2,0.4-0.5,0.7-0.9,0.9c-0.4,0.2-0.8,0.3-1.3,0.3c-1.7,0-2.6-1-2.6-2.9
			V141c0-0.2,0.1-0.4,0.2-0.5c0.1-0.1,0.3-0.2,0.6-0.2c0.2,0,0.4,0.1,0.5,0.2c0.1,0.1,0.2,0.3,0.2,0.5v3.8c0,0.6,0.1,1,0.4,1.3
			c0.2,0.3,0.6,0.4,1.1,0.4c0.6,0,1-0.2,1.4-0.6c0.3-0.4,0.5-0.9,0.5-1.5V141c0-0.2,0.1-0.4,0.2-0.5c0.1-0.1,0.3-0.2,0.5-0.2
			C257.3,140.2,257.5,140.3,257.6,140.4z"/>
		<path class="st0" d="M263.9,146.7c0.1,0.1,0.1,0.2,0.1,0.4c0,0.2-0.1,0.3-0.2,0.4c-0.2,0.1-0.4,0.1-0.7,0.1l-0.4,0
			c-0.8-0.1-1.4-0.3-1.8-0.7c-0.4-0.4-0.6-1.1-0.6-1.9v-3.5h-0.9c-0.4,0-0.6-0.2-0.6-0.6c0-0.2,0.1-0.3,0.2-0.4
			c0.1-0.1,0.3-0.2,0.5-0.2h0.9v-1.5c0-0.2,0.1-0.4,0.2-0.5c0.1-0.1,0.3-0.2,0.5-0.2c0.2,0,0.4,0.1,0.5,0.2c0.1,0.1,0.2,0.3,0.2,0.5
			v1.5h1.5c0.2,0,0.4,0.1,0.5,0.2c0.1,0.1,0.2,0.2,0.2,0.4c0,0.2-0.1,0.3-0.2,0.4c-0.1,0.1-0.3,0.1-0.5,0.1h-1.5v3.6
			c0,0.5,0.1,0.8,0.3,1c0.2,0.2,0.5,0.3,0.9,0.4l0.4,0C263.6,146.5,263.8,146.6,263.9,146.7z"/>
		<path class="st0" d="M146.9,156.4c-0.2,0.3-0.4,0.7-0.4,1.2v0.4h1.5c0.2,0,0.4,0.1,0.5,0.2c0.1,0.1,0.2,0.2,0.2,0.4
			c0,0.2-0.1,0.3-0.2,0.4c-0.1,0.1-0.3,0.2-0.5,0.2h-1.5v5.4c0,0.2-0.1,0.4-0.2,0.5c-0.1,0.1-0.3,0.2-0.5,0.2
			c-0.2,0-0.4-0.1-0.5-0.2c-0.1-0.1-0.2-0.3-0.2-0.5v-5.4h-0.9c-0.2,0-0.4-0.1-0.5-0.2s-0.2-0.2-0.2-0.4c0-0.2,0.1-0.3,0.2-0.4
			c0.1-0.1,0.3-0.2,0.5-0.2h0.9v-0.2c0-0.9,0.2-1.6,0.7-2.1c0.5-0.5,1.1-0.8,2-0.9l0.4,0c0.3,0,0.5,0,0.7,0.1
			c0.1,0.1,0.2,0.2,0.2,0.4c0,0.3-0.2,0.5-0.6,0.6l-0.4,0C147.5,156,147.1,156.1,146.9,156.4z"/>
		<path class="st0" d="M155.7,158c0.1,0.1,0.2,0.3,0.2,0.5v6c0,0.2-0.1,0.4-0.2,0.5c-0.1,0.1-0.3,0.2-0.5,0.2
			c-0.2,0-0.4-0.1-0.5-0.2c-0.1-0.1-0.2-0.3-0.2-0.5V164c-0.2,0.4-0.5,0.7-0.9,0.9c-0.4,0.2-0.8,0.3-1.3,0.3c-1.7,0-2.6-1-2.6-2.9
			v-3.8c0-0.2,0.1-0.4,0.2-0.5c0.1-0.1,0.3-0.2,0.6-0.2c0.2,0,0.4,0.1,0.5,0.2c0.1,0.1,0.2,0.3,0.2,0.5v3.8c0,0.6,0.1,1,0.4,1.3
			c0.2,0.3,0.6,0.4,1.1,0.4c0.6,0,1-0.2,1.4-0.6c0.3-0.4,0.5-0.9,0.5-1.5v-3.5c0-0.2,0.1-0.4,0.2-0.5c0.1-0.1,0.3-0.2,0.5-0.2
			C155.4,157.9,155.6,157.9,155.7,158z M150.9,156.2c-0.2-0.1-0.2-0.3-0.2-0.6c0-0.2,0.1-0.4,0.2-0.6c0.2-0.1,0.4-0.2,0.6-0.2
			c0.2,0,0.4,0.1,0.6,0.2c0.2,0.1,0.2,0.3,0.2,0.6c0,0.2-0.1,0.4-0.2,0.6c-0.2,0.1-0.4,0.2-0.6,0.2
			C151.2,156.4,151,156.3,150.9,156.2z M153.5,156.1c-0.2-0.2-0.2-0.3-0.2-0.6c0-0.2,0.1-0.4,0.2-0.6c0.2-0.1,0.4-0.2,0.6-0.2
			c0.2,0,0.4,0.1,0.6,0.2c0.2,0.1,0.2,0.3,0.2,0.6c0,0.2-0.1,0.4-0.2,0.6c-0.2,0.1-0.4,0.2-0.6,0.2
			C153.8,156.4,153.6,156.3,153.5,156.1z"/>
		<path class="st0" d="M162.4,158.5c0,0.2-0.1,0.4-0.2,0.5c-0.1,0.1-0.3,0.2-0.6,0.2l-0.4,0c-0.6,0.1-1.1,0.3-1.4,0.6
			c-0.3,0.4-0.4,0.8-0.4,1.4v3.4c0,0.2-0.1,0.4-0.2,0.5c-0.1,0.1-0.3,0.2-0.5,0.2s-0.4-0.1-0.5-0.2c-0.1-0.1-0.2-0.3-0.2-0.5v-6
			c0-0.2,0.1-0.4,0.2-0.5c0.1-0.1,0.3-0.2,0.5-0.2c0.2,0,0.4,0.1,0.5,0.2c0.1,0.1,0.2,0.3,0.2,0.5v0.7c0.2-0.4,0.5-0.8,0.9-1
			c0.4-0.2,0.8-0.4,1.3-0.4l0.2,0C162.2,157.8,162.4,158,162.4,158.5z"/>
		<path class="st0" d="M167.6,165c-0.1-0.1-0.2-0.3-0.2-0.5v-8.9c0-0.2,0.1-0.4,0.2-0.5c0.1-0.1,0.3-0.2,0.6-0.2h5.4
			c0.2,0,0.4,0.1,0.5,0.2c0.1,0.1,0.2,0.3,0.2,0.5c0,0.2-0.1,0.3-0.2,0.4c-0.1,0.1-0.3,0.2-0.5,0.2h-4.7v3.3h4.4
			c0.2,0,0.4,0.1,0.5,0.2c0.1,0.1,0.2,0.3,0.2,0.5s-0.1,0.3-0.2,0.5c-0.1,0.1-0.3,0.2-0.5,0.2h-4.4v3.4h4.7c0.5,0,0.7,0.2,0.7,0.6
			c0,0.2-0.1,0.3-0.2,0.5c-0.1,0.1-0.3,0.2-0.5,0.2h-5.4C167.9,165.2,167.7,165.1,167.6,165z"/>
		<path class="st0" d="M180.3,158.5c0,0.2-0.1,0.4-0.2,0.5c-0.1,0.1-0.3,0.2-0.6,0.2l-0.4,0c-0.6,0.1-1.1,0.3-1.4,0.6
			c-0.3,0.4-0.4,0.8-0.4,1.4v3.4c0,0.2-0.1,0.4-0.2,0.5c-0.1,0.1-0.3,0.2-0.5,0.2s-0.4-0.1-0.5-0.2c-0.1-0.1-0.2-0.3-0.2-0.5v-6
			c0-0.2,0.1-0.4,0.2-0.5c0.1-0.1,0.3-0.2,0.5-0.2c0.2,0,0.4,0.1,0.5,0.2c0.1,0.1,0.2,0.3,0.2,0.5v0.7c0.2-0.4,0.5-0.8,0.9-1
			c0.4-0.2,0.8-0.4,1.3-0.4l0.2,0C180,157.8,180.3,158,180.3,158.5z"/>
		<path class="st0" d="M187.6,160.7v3.8c0,0.2-0.1,0.4-0.2,0.5c-0.1,0.1-0.3,0.2-0.6,0.2c-0.2,0-0.4-0.1-0.5-0.2
			c-0.1-0.1-0.2-0.3-0.2-0.5v-3.7c0-0.6-0.1-1.1-0.4-1.3c-0.2-0.3-0.6-0.4-1.1-0.4c-0.6,0-1.1,0.2-1.4,0.6c-0.4,0.4-0.5,0.9-0.5,1.5
			v3.5c0,0.2-0.1,0.4-0.2,0.5c-0.1,0.1-0.3,0.2-0.5,0.2c-0.2,0-0.4-0.1-0.5-0.2c-0.1-0.1-0.2-0.3-0.2-0.5v-6c0-0.2,0.1-0.4,0.2-0.5
			c0.1-0.1,0.3-0.2,0.5-0.2s0.4,0.1,0.5,0.2c0.1,0.1,0.2,0.3,0.2,0.5v0.6c0.2-0.4,0.6-0.8,1-1c0.4-0.2,0.9-0.3,1.4-0.3
			C186.8,157.8,187.6,158.8,187.6,160.7z"/>
		<path class="st0" d="M194.8,158.5c0.5,0.5,0.7,1.2,0.7,2.2v3.8c0,0.2-0.1,0.4-0.2,0.5c-0.1,0.1-0.3,0.2-0.5,0.2
			c-0.2,0-0.4-0.1-0.5-0.2c-0.1-0.1-0.2-0.3-0.2-0.5V164c-0.2,0.4-0.5,0.7-0.8,0.9c-0.4,0.2-0.8,0.3-1.3,0.3c-0.5,0-0.9-0.1-1.3-0.3
			c-0.4-0.2-0.7-0.5-0.9-0.8c-0.2-0.3-0.3-0.7-0.3-1.1c0-0.5,0.1-0.9,0.4-1.2c0.3-0.3,0.7-0.5,1.3-0.6c0.6-0.1,1.5-0.2,2.6-0.2h0.3
			v-0.4c0-0.5-0.1-0.9-0.3-1.2c-0.2-0.2-0.6-0.4-1.1-0.4c-0.3,0-0.7,0-1,0.1c-0.3,0.1-0.6,0.2-1,0.4c-0.3,0.1-0.5,0.2-0.6,0.2
			c-0.1,0-0.3-0.1-0.4-0.2c-0.1-0.1-0.1-0.2-0.1-0.4c0-0.1,0-0.3,0.1-0.4c0.1-0.1,0.2-0.2,0.4-0.3c0.3-0.2,0.7-0.3,1.2-0.4
			c0.5-0.1,0.9-0.2,1.3-0.2C193.6,157.8,194.3,158.1,194.8,158.5z M190.8,156.2c-0.2-0.1-0.2-0.3-0.2-0.6c0-0.2,0.1-0.4,0.2-0.6
			c0.2-0.1,0.4-0.2,0.6-0.2c0.2,0,0.4,0.1,0.6,0.2c0.2,0.1,0.2,0.3,0.2,0.6c0,0.2-0.1,0.4-0.2,0.6c-0.2,0.1-0.4,0.2-0.6,0.2
			S190.9,156.3,190.8,156.2z M193.5,163.6c0.3-0.4,0.5-0.8,0.5-1.4v-0.4h-0.3c-0.8,0-1.4,0-1.8,0.1c-0.4,0.1-0.7,0.2-0.9,0.3
			c-0.2,0.2-0.3,0.4-0.3,0.7c0,0.4,0.1,0.6,0.4,0.9s0.6,0.3,1,0.3C192.7,164.2,193.2,164,193.5,163.6z M193.4,156.1
			c-0.2-0.2-0.2-0.3-0.2-0.6c0-0.2,0.1-0.4,0.2-0.6c0.2-0.1,0.4-0.2,0.6-0.2c0.2,0,0.4,0.1,0.6,0.2c0.2,0.1,0.2,0.3,0.2,0.6
			c0,0.2-0.1,0.4-0.2,0.6c-0.2,0.1-0.4,0.2-0.6,0.2C193.7,156.4,193.5,156.3,193.4,156.1z"/>
		<path class="st0" d="M203.9,160.7v3.8c0,0.2-0.1,0.4-0.2,0.5c-0.1,0.1-0.3,0.2-0.5,0.2c-0.2,0-0.4-0.1-0.5-0.2
			c-0.1-0.1-0.2-0.3-0.2-0.5v-3.8c0-0.6-0.1-1-0.4-1.3c-0.2-0.3-0.6-0.4-1.1-0.4c-0.6,0-1.1,0.2-1.4,0.6c-0.4,0.4-0.5,0.9-0.5,1.5
			v3.5c0,0.2-0.1,0.4-0.2,0.5c-0.1,0.1-0.3,0.2-0.5,0.2c-0.2,0-0.4-0.1-0.5-0.2c-0.1-0.1-0.2-0.3-0.2-0.5v-9.1
			c0-0.2,0.1-0.4,0.2-0.5c0.1-0.1,0.3-0.2,0.6-0.2c0.2,0,0.4,0.1,0.5,0.2s0.2,0.3,0.2,0.5v3.7c0.2-0.4,0.6-0.7,1-0.9
			c0.4-0.2,0.9-0.3,1.4-0.3C203.1,157.8,203.9,158.8,203.9,160.7z"/>
		<path class="st0" d="M210.4,158.5c0,0.2-0.1,0.4-0.2,0.5c-0.1,0.1-0.3,0.2-0.6,0.2l-0.4,0c-0.6,0.1-1.1,0.3-1.4,0.6
			c-0.3,0.4-0.4,0.8-0.4,1.4v3.4c0,0.2-0.1,0.4-0.2,0.5c-0.1,0.1-0.3,0.2-0.5,0.2s-0.4-0.1-0.5-0.2c-0.1-0.1-0.2-0.3-0.2-0.5v-6
			c0-0.2,0.1-0.4,0.2-0.5c0.1-0.1,0.3-0.2,0.5-0.2c0.2,0,0.4,0.1,0.5,0.2c0.1,0.1,0.2,0.3,0.2,0.5v0.7c0.2-0.4,0.5-0.8,0.9-1
			c0.4-0.2,0.8-0.4,1.3-0.4l0.2,0C210.2,157.8,210.4,158,210.4,158.5z"/>
		<path class="st0" d="M217.4,158c0.1,0.1,0.2,0.3,0.2,0.5v6c0,0.2-0.1,0.4-0.2,0.5c-0.1,0.1-0.3,0.2-0.5,0.2
			c-0.2,0-0.4-0.1-0.5-0.2c-0.1-0.1-0.2-0.3-0.2-0.5V164c-0.2,0.4-0.5,0.7-0.9,0.9c-0.4,0.2-0.8,0.3-1.3,0.3c-1.7,0-2.6-1-2.6-2.9
			v-3.8c0-0.2,0.1-0.4,0.2-0.5c0.1-0.1,0.3-0.2,0.6-0.2c0.2,0,0.4,0.1,0.5,0.2c0.1,0.1,0.2,0.3,0.2,0.5v3.8c0,0.6,0.1,1,0.4,1.3
			c0.2,0.3,0.6,0.4,1.1,0.4c0.6,0,1-0.2,1.4-0.6c0.3-0.4,0.5-0.9,0.5-1.5v-3.5c0-0.2,0.1-0.4,0.2-0.5c0.1-0.1,0.3-0.2,0.5-0.2
			C217.1,157.9,217.3,157.9,217.4,158z"/>
		<path class="st0" d="M226.1,160.7v3.8c0,0.2-0.1,0.4-0.2,0.5c-0.1,0.1-0.3,0.2-0.6,0.2c-0.2,0-0.4-0.1-0.5-0.2
			c-0.1-0.1-0.2-0.3-0.2-0.5v-3.7c0-0.6-0.1-1.1-0.4-1.3c-0.2-0.3-0.6-0.4-1.1-0.4c-0.6,0-1.1,0.2-1.4,0.6c-0.4,0.4-0.5,0.9-0.5,1.5
			v3.5c0,0.2-0.1,0.4-0.2,0.5c-0.1,0.1-0.3,0.2-0.5,0.2c-0.2,0-0.4-0.1-0.5-0.2c-0.1-0.1-0.2-0.3-0.2-0.5v-6c0-0.2,0.1-0.4,0.2-0.5
			c0.1-0.1,0.3-0.2,0.5-0.2s0.4,0.1,0.5,0.2c0.1,0.1,0.2,0.3,0.2,0.5v0.6c0.2-0.4,0.6-0.8,1-1c0.4-0.2,0.9-0.3,1.4-0.3
			C225.3,157.8,226.1,158.8,226.1,160.7z"/>
		<path class="st0" d="M234.6,158.1c0.1,0.1,0.2,0.3,0.2,0.5v6c0,1.1-0.3,1.9-0.9,2.5c-0.6,0.6-1.4,0.8-2.6,0.8
			c-1.1,0-1.9-0.2-2.6-0.6c-0.4-0.2-0.5-0.5-0.5-0.7c0-0.2,0-0.3,0.1-0.4c0.1-0.1,0.2-0.2,0.3-0.2c0.1,0,0.3,0.1,0.6,0.2
			c0.4,0.2,0.7,0.3,1,0.4c0.3,0.1,0.7,0.1,1.1,0.1c1.4,0,2-0.7,2-2v-1.1c-0.2,0.4-0.5,0.8-0.9,1c-0.4,0.2-0.9,0.4-1.5,0.4
			c-0.6,0-1.2-0.1-1.7-0.4c-0.5-0.3-0.9-0.7-1.1-1.2c-0.3-0.5-0.4-1.2-0.4-1.9s0.1-1.3,0.4-1.9c0.3-0.5,0.7-1,1.1-1.3
			c0.5-0.3,1-0.4,1.7-0.4c0.5,0,1,0.1,1.4,0.4c0.4,0.2,0.7,0.6,0.9,1v-0.6c0-0.2,0.1-0.4,0.2-0.5c0.1-0.1,0.3-0.2,0.5-0.2
			C234.3,157.9,234.5,157.9,234.6,158.1z M232.8,163.1c0.4-0.4,0.5-1,0.5-1.7c0-0.7-0.2-1.3-0.5-1.7c-0.4-0.4-0.9-0.6-1.5-0.6
			c-0.6,0-1.2,0.2-1.5,0.6c-0.4,0.4-0.6,1-0.6,1.7s0.2,1.3,0.6,1.7c0.4,0.4,0.9,0.6,1.5,0.6C231.9,163.8,232.4,163.6,232.8,163.1z"
			/>
		<path class="st0" d="M236.9,164.7c-0.2-0.1-0.3-0.2-0.4-0.3c-0.1-0.1-0.1-0.2-0.1-0.4c0-0.2,0-0.3,0.1-0.4
			c0.1-0.1,0.2-0.2,0.3-0.2c0.1,0,0.3,0.1,0.6,0.2c0.3,0.2,0.6,0.3,0.9,0.4c0.3,0.1,0.6,0.1,1,0.1c0.5,0,0.8-0.1,1.1-0.2
			c0.3-0.2,0.4-0.4,0.4-0.7c0-0.2-0.1-0.4-0.2-0.5c-0.1-0.1-0.3-0.2-0.5-0.3s-0.6-0.2-1.1-0.3c-0.9-0.2-1.5-0.4-1.9-0.8
			c-0.4-0.3-0.6-0.8-0.6-1.3c0-0.4,0.1-0.8,0.4-1.1c0.2-0.3,0.6-0.6,1-0.8c0.4-0.2,0.9-0.3,1.5-0.3c0.4,0,0.8,0.1,1.1,0.2
			c0.4,0.1,0.7,0.3,1,0.4c0.3,0.2,0.5,0.5,0.5,0.7c0,0.2,0,0.3-0.1,0.4c-0.1,0.1-0.2,0.2-0.3,0.2c-0.1,0-0.2,0-0.3-0.1
			c-0.1,0-0.2-0.1-0.4-0.2c-0.3-0.2-0.5-0.3-0.7-0.4c-0.2-0.1-0.5-0.1-0.9-0.1c-0.4,0-0.7,0.1-1,0.3c-0.2,0.2-0.4,0.4-0.4,0.7
			c0,0.3,0.1,0.5,0.3,0.6c0.2,0.2,0.7,0.3,1.3,0.4c0.7,0.1,1.2,0.3,1.5,0.5c0.4,0.2,0.6,0.4,0.8,0.7c0.2,0.3,0.2,0.6,0.2,1
			c0,0.6-0.3,1.1-0.8,1.5c-0.5,0.4-1.2,0.6-2.1,0.6C238.4,165.3,237.6,165.1,236.9,164.7z"/>
		<path class="st0" d="M246.3,156.4c-0.2,0.3-0.4,0.7-0.4,1.2v0.4h1.5c0.2,0,0.4,0.1,0.5,0.2c0.1,0.1,0.2,0.2,0.2,0.4
			c0,0.2-0.1,0.3-0.2,0.4c-0.1,0.1-0.3,0.2-0.5,0.2h-1.5v5.4c0,0.2-0.1,0.4-0.2,0.5c-0.1,0.1-0.3,0.2-0.5,0.2
			c-0.2,0-0.4-0.1-0.5-0.2c-0.1-0.1-0.2-0.3-0.2-0.5v-5.4h-0.9c-0.2,0-0.4-0.1-0.5-0.2s-0.2-0.2-0.2-0.4c0-0.2,0.1-0.3,0.2-0.4
			c0.1-0.1,0.3-0.2,0.5-0.2h0.9v-0.2c0-0.9,0.2-1.6,0.7-2.1c0.5-0.5,1.1-0.8,2-0.9l0.4,0c0.3,0,0.5,0,0.7,0.1
			c0.1,0.1,0.2,0.2,0.2,0.4c0,0.3-0.2,0.5-0.6,0.6l-0.4,0C246.9,156,246.5,156.1,246.3,156.4z"/>
		<path class="st0" d="M250.2,164.8c-0.5-0.3-0.9-0.7-1.2-1.3c-0.3-0.6-0.4-1.2-0.4-2c0-0.8,0.1-1.4,0.4-2c0.3-0.6,0.7-1,1.2-1.3
			c0.5-0.3,1.2-0.5,1.9-0.5c0.7,0,1.3,0.2,1.9,0.5c0.5,0.3,0.9,0.7,1.2,1.3c0.3,0.6,0.4,1.2,0.4,2c0,0.7-0.1,1.4-0.4,2
			c-0.3,0.6-0.7,1-1.2,1.3c-0.5,0.3-1.2,0.5-1.9,0.5C251.3,165.3,250.7,165.1,250.2,164.8z M253.5,163.5c0.3-0.4,0.5-1.1,0.5-1.9
			c0-0.8-0.2-1.5-0.5-1.9c-0.4-0.4-0.9-0.7-1.5-0.7s-1.1,0.2-1.5,0.7c-0.4,0.4-0.5,1.1-0.5,1.9c0,0.8,0.2,1.5,0.5,1.9
			c0.3,0.4,0.9,0.6,1.5,0.6C252.7,164.1,253.2,163.9,253.5,163.5z"/>
		<path class="st0" d="M261.7,158.5c0,0.2-0.1,0.4-0.2,0.5c-0.1,0.1-0.3,0.2-0.6,0.2l-0.4,0c-0.6,0.1-1.1,0.3-1.4,0.6
			c-0.3,0.4-0.4,0.8-0.4,1.4v3.4c0,0.2-0.1,0.4-0.2,0.5c-0.1,0.1-0.3,0.2-0.5,0.2c-0.2,0-0.4-0.1-0.5-0.2c-0.1-0.1-0.2-0.3-0.2-0.5
			v-6c0-0.2,0.1-0.4,0.2-0.5c0.1-0.1,0.3-0.2,0.5-0.2c0.2,0,0.4,0.1,0.5,0.2c0.1,0.1,0.2,0.3,0.2,0.5v0.7c0.2-0.4,0.5-0.8,0.9-1
			c0.4-0.2,0.8-0.4,1.3-0.4l0.2,0C261.4,157.8,261.7,158,261.7,158.5z"/>
		<path class="st0" d="M262.6,164.7c-0.2-0.1-0.3-0.2-0.4-0.3c-0.1-0.1-0.1-0.2-0.1-0.4c0-0.2,0-0.3,0.1-0.4
			c0.1-0.1,0.2-0.2,0.3-0.2c0.1,0,0.3,0.1,0.6,0.2c0.3,0.2,0.6,0.3,0.9,0.4c0.3,0.1,0.6,0.1,1,0.1c0.5,0,0.8-0.1,1.1-0.2
			c0.3-0.2,0.4-0.4,0.4-0.7c0-0.2-0.1-0.4-0.2-0.5c-0.1-0.1-0.3-0.2-0.5-0.3c-0.3-0.1-0.6-0.2-1.1-0.3c-0.9-0.2-1.5-0.4-1.9-0.8
			c-0.4-0.3-0.6-0.8-0.6-1.3c0-0.4,0.1-0.8,0.4-1.1c0.2-0.3,0.6-0.6,1-0.8c0.4-0.2,0.9-0.3,1.5-0.3c0.4,0,0.8,0.1,1.1,0.2
			c0.4,0.1,0.7,0.3,1,0.4c0.3,0.2,0.5,0.5,0.5,0.7c0,0.2,0,0.3-0.1,0.4c-0.1,0.1-0.2,0.2-0.3,0.2c-0.1,0-0.2,0-0.3-0.1
			c-0.1,0-0.2-0.1-0.4-0.2c-0.3-0.2-0.5-0.3-0.7-0.4c-0.2-0.1-0.5-0.1-0.9-0.1c-0.4,0-0.7,0.1-1,0.3c-0.2,0.2-0.4,0.4-0.4,0.7
			c0,0.3,0.1,0.5,0.3,0.6c0.2,0.2,0.7,0.3,1.3,0.4c0.7,0.1,1.2,0.3,1.5,0.5c0.4,0.2,0.6,0.4,0.8,0.7c0.2,0.3,0.2,0.6,0.2,1
			c0,0.6-0.3,1.1-0.8,1.5c-0.5,0.4-1.2,0.6-2.1,0.6C264,165.3,263.2,165.1,262.6,164.7z"/>
		<path class="st0" d="M270.8,164.8c-0.5-0.3-0.9-0.7-1.2-1.3c-0.3-0.6-0.4-1.2-0.4-1.9c0-0.7,0.1-1.4,0.4-2c0.3-0.6,0.7-1,1.3-1.3
			c0.5-0.3,1.2-0.5,1.9-0.5c0.4,0,0.7,0.1,1.1,0.2c0.4,0.1,0.7,0.3,1,0.4c0.3,0.2,0.5,0.5,0.5,0.7c0,0.2,0,0.3-0.1,0.4
			c-0.1,0.1-0.2,0.2-0.3,0.2c-0.1,0-0.2,0-0.3-0.1c-0.1,0-0.2-0.1-0.3-0.2c-0.2-0.2-0.5-0.3-0.7-0.4c-0.2-0.1-0.5-0.1-0.8-0.1
			c-0.7,0-1.2,0.2-1.5,0.7c-0.4,0.5-0.6,1.1-0.6,1.9c0,0.8,0.2,1.4,0.5,1.9c0.4,0.4,0.9,0.7,1.5,0.7c0.3,0,0.6,0,0.8-0.1
			c0.2-0.1,0.5-0.2,0.7-0.4c0.1-0.1,0.2-0.1,0.3-0.2s0.2-0.1,0.3-0.1c0.1,0,0.2,0.1,0.3,0.2c0.1,0.1,0.1,0.3,0.1,0.4
			c0,0.1,0,0.3-0.1,0.4c-0.1,0.1-0.2,0.2-0.4,0.3c-0.3,0.2-0.6,0.3-1,0.5c-0.4,0.1-0.8,0.2-1.2,0.2
			C272,165.3,271.4,165.1,270.8,164.8z"/>
		<path class="st0" d="M283.1,160.7v3.8c0,0.2-0.1,0.4-0.2,0.5c-0.1,0.1-0.3,0.2-0.5,0.2c-0.2,0-0.4-0.1-0.5-0.2
			c-0.1-0.1-0.2-0.3-0.2-0.5v-3.8c0-0.6-0.1-1-0.4-1.3c-0.2-0.3-0.6-0.4-1.1-0.4c-0.6,0-1.1,0.2-1.4,0.6c-0.4,0.4-0.5,0.9-0.5,1.5
			v3.5c0,0.2-0.1,0.4-0.2,0.5c-0.1,0.1-0.3,0.2-0.5,0.2c-0.2,0-0.4-0.1-0.5-0.2c-0.1-0.1-0.2-0.3-0.2-0.5v-9.1
			c0-0.2,0.1-0.4,0.2-0.5c0.1-0.1,0.3-0.2,0.6-0.2c0.2,0,0.4,0.1,0.5,0.2s0.2,0.3,0.2,0.5v3.7c0.2-0.4,0.6-0.7,1-0.9
			c0.4-0.2,0.9-0.3,1.4-0.3C282.3,157.8,283.1,158.8,283.1,160.7z"/>
		<path class="st0" d="M291.2,158c0.1,0.1,0.2,0.3,0.2,0.5v6c0,0.2-0.1,0.4-0.2,0.5c-0.1,0.1-0.3,0.2-0.5,0.2
			c-0.2,0-0.4-0.1-0.5-0.2c-0.1-0.1-0.2-0.3-0.2-0.5V164c-0.2,0.4-0.5,0.7-0.9,0.9c-0.4,0.2-0.8,0.3-1.3,0.3c-1.7,0-2.6-1-2.6-2.9
			v-3.8c0-0.2,0.1-0.4,0.2-0.5c0.1-0.1,0.3-0.2,0.6-0.2c0.2,0,0.4,0.1,0.5,0.2c0.1,0.1,0.2,0.3,0.2,0.5v3.8c0,0.6,0.1,1,0.4,1.3
			c0.2,0.3,0.6,0.4,1.1,0.4c0.6,0,1-0.2,1.4-0.6c0.3-0.4,0.5-0.9,0.5-1.5v-3.5c0-0.2,0.1-0.4,0.2-0.5c0.1-0.1,0.3-0.2,0.5-0.2
			C290.9,157.9,291.1,157.9,291.2,158z"/>
		<path class="st0" d="M299.9,160.7v3.8c0,0.2-0.1,0.4-0.2,0.5c-0.1,0.1-0.3,0.2-0.6,0.2c-0.2,0-0.4-0.1-0.5-0.2
			c-0.1-0.1-0.2-0.3-0.2-0.5v-3.7c0-0.6-0.1-1.1-0.4-1.3c-0.2-0.3-0.6-0.4-1.1-0.4c-0.6,0-1.1,0.2-1.4,0.6c-0.4,0.4-0.5,0.9-0.5,1.5
			v3.5c0,0.2-0.1,0.4-0.2,0.5c-0.1,0.1-0.3,0.2-0.5,0.2c-0.2,0-0.4-0.1-0.5-0.2c-0.1-0.1-0.2-0.3-0.2-0.5v-6c0-0.2,0.1-0.4,0.2-0.5
			c0.1-0.1,0.3-0.2,0.5-0.2c0.2,0,0.4,0.1,0.5,0.2c0.1,0.1,0.2,0.3,0.2,0.5v0.6c0.2-0.4,0.6-0.8,1-1c0.4-0.2,0.9-0.3,1.4-0.3
			C299.1,157.8,299.9,158.8,299.9,160.7z"/>
		<path class="st0" d="M308.4,158.1c0.1,0.1,0.2,0.3,0.2,0.5v6c0,1.1-0.3,1.9-0.9,2.5c-0.6,0.6-1.4,0.8-2.6,0.8
			c-1.1,0-1.9-0.2-2.6-0.6c-0.4-0.2-0.5-0.5-0.5-0.7c0-0.2,0-0.3,0.1-0.4c0.1-0.1,0.2-0.2,0.3-0.2c0.1,0,0.3,0.1,0.6,0.2
			c0.4,0.2,0.7,0.3,1,0.4c0.3,0.1,0.7,0.1,1.1,0.1c1.4,0,2-0.7,2-2v-1.1c-0.2,0.4-0.5,0.8-0.9,1c-0.4,0.2-0.9,0.4-1.5,0.4
			c-0.6,0-1.2-0.1-1.7-0.4c-0.5-0.3-0.9-0.7-1.1-1.2c-0.3-0.5-0.4-1.2-0.4-1.9s0.1-1.3,0.4-1.9c0.3-0.5,0.7-1,1.1-1.3
			c0.5-0.3,1-0.4,1.7-0.4c0.5,0,1,0.1,1.4,0.4c0.4,0.2,0.7,0.6,0.9,1v-0.6c0-0.2,0.1-0.4,0.2-0.5c0.1-0.1,0.3-0.2,0.5-0.2
			C308.1,157.9,308.3,157.9,308.4,158.1z M306.6,163.1c0.4-0.4,0.5-1,0.5-1.7c0-0.7-0.2-1.3-0.5-1.7c-0.4-0.4-0.9-0.6-1.5-0.6
			c-0.6,0-1.2,0.2-1.5,0.6c-0.4,0.4-0.6,1-0.6,1.7s0.2,1.3,0.6,1.7c0.4,0.4,0.9,0.6,1.5,0.6C305.8,163.8,306.3,163.6,306.6,163.1z"
			/>
		<path class="st0" d="M145,182.7c-0.1-0.1-0.2-0.3-0.2-0.6v-8.9c0-0.2,0.1-0.4,0.2-0.5c0.1-0.1,0.3-0.2,0.6-0.2h3.5
			c1.1,0,1.9,0.3,2.6,0.8c0.6,0.5,0.9,1.3,0.9,2.3c0,1-0.3,1.7-0.9,2.3s-1.5,0.8-2.6,0.8h-2.8v3.5c0,0.2-0.1,0.4-0.2,0.6
			c-0.1,0.1-0.3,0.2-0.6,0.2C145.3,182.9,145.1,182.8,145,182.7z M148.9,177.4c1.4,0,2.2-0.6,2.2-1.9c0-1.3-0.7-1.9-2.2-1.9h-2.6
			v3.8H148.9z"/>
		<path class="st0" d="M155.2,182.4c-0.5-0.3-0.9-0.7-1.2-1.3c-0.3-0.6-0.4-1.2-0.4-2c0-0.8,0.1-1.4,0.4-2c0.3-0.6,0.7-1,1.2-1.3
			c0.5-0.3,1.2-0.5,1.9-0.5c0.7,0,1.3,0.2,1.9,0.5c0.5,0.3,0.9,0.7,1.2,1.3c0.3,0.6,0.4,1.2,0.4,2c0,0.7-0.1,1.4-0.4,2
			c-0.3,0.6-0.7,1-1.2,1.3c-0.5,0.3-1.2,0.5-1.9,0.5C156.3,182.9,155.7,182.7,155.2,182.4z M158.5,181.1c0.3-0.4,0.5-1.1,0.5-1.9
			c0-0.8-0.2-1.5-0.5-1.9c-0.4-0.4-0.9-0.7-1.5-0.7s-1.1,0.2-1.5,0.7c-0.4,0.4-0.5,1.1-0.5,1.9c0,0.8,0.2,1.5,0.5,1.9
			c0.3,0.4,0.9,0.6,1.5,0.6C157.7,181.7,158.2,181.5,158.5,181.1z"/>
		<path class="st0" d="M166.1,181.9c0.1,0.1,0.1,0.2,0.1,0.4c0,0.2-0.1,0.3-0.2,0.4c-0.2,0.1-0.4,0.1-0.7,0.1l-0.4,0
			c-0.8-0.1-1.4-0.3-1.8-0.7c-0.4-0.4-0.6-1.1-0.6-1.9v-3.5h-0.9c-0.4,0-0.6-0.2-0.6-0.6c0-0.2,0.1-0.3,0.2-0.4
			c0.1-0.1,0.3-0.2,0.5-0.2h0.9v-1.5c0-0.2,0.1-0.4,0.2-0.5c0.1-0.1,0.3-0.2,0.5-0.2c0.2,0,0.4,0.1,0.5,0.2c0.1,0.1,0.2,0.3,0.2,0.5
			v1.5h1.5c0.2,0,0.4,0.1,0.5,0.2c0.1,0.1,0.2,0.2,0.2,0.4c0,0.2-0.1,0.3-0.2,0.4c-0.1,0.1-0.3,0.1-0.5,0.1h-1.5v3.6
			c0,0.5,0.1,0.8,0.3,1c0.2,0.2,0.5,0.3,0.9,0.4l0.4,0C165.9,181.8,166,181.8,166.1,181.9z"/>
		<path class="st0" d="M167.4,182.3c-0.2-0.1-0.3-0.2-0.4-0.3c-0.1-0.1-0.1-0.2-0.1-0.4c0-0.2,0-0.3,0.1-0.4
			c0.1-0.1,0.2-0.2,0.3-0.2c0.1,0,0.3,0.1,0.6,0.2c0.3,0.2,0.6,0.3,0.9,0.4c0.3,0.1,0.6,0.1,1,0.1c0.5,0,0.8-0.1,1.1-0.2
			c0.3-0.2,0.4-0.4,0.4-0.7c0-0.2-0.1-0.4-0.2-0.5c-0.1-0.1-0.3-0.2-0.5-0.3c-0.3-0.1-0.6-0.2-1.1-0.3c-0.9-0.2-1.5-0.4-1.9-0.8
			c-0.4-0.3-0.6-0.8-0.6-1.3c0-0.4,0.1-0.8,0.4-1.1c0.2-0.3,0.6-0.6,1-0.8c0.4-0.2,0.9-0.3,1.5-0.3c0.4,0,0.8,0.1,1.1,0.2
			c0.4,0.1,0.7,0.3,1,0.4c0.3,0.2,0.5,0.5,0.5,0.7c0,0.2,0,0.3-0.1,0.4c-0.1,0.1-0.2,0.2-0.3,0.2c-0.1,0-0.2,0-0.3-0.1
			c-0.1,0-0.2-0.1-0.4-0.2c-0.3-0.2-0.5-0.3-0.7-0.4c-0.2-0.1-0.5-0.1-0.9-0.1c-0.4,0-0.7,0.1-1,0.3c-0.2,0.2-0.4,0.4-0.4,0.7
			c0,0.3,0.1,0.5,0.3,0.6c0.2,0.2,0.7,0.3,1.3,0.4c0.7,0.1,1.2,0.3,1.5,0.5c0.4,0.2,0.6,0.4,0.8,0.7c0.2,0.3,0.2,0.6,0.2,1
			c0,0.6-0.3,1.1-0.8,1.5c-0.5,0.4-1.2,0.6-2.1,0.6C168.8,182.9,168,182.7,167.4,182.3z"/>
		<path class="st0" d="M180.8,172.6c0.1,0.1,0.2,0.3,0.2,0.5v9.1c0,0.2-0.1,0.4-0.2,0.5c-0.1,0.1-0.3,0.2-0.5,0.2
			c-0.2,0-0.4-0.1-0.5-0.2c-0.1-0.1-0.2-0.3-0.2-0.5v-0.6c-0.2,0.4-0.5,0.8-0.9,1c-0.4,0.2-0.9,0.3-1.4,0.3c-0.6,0-1.2-0.2-1.7-0.5
			c-0.5-0.3-0.9-0.8-1.1-1.3c-0.3-0.6-0.4-1.2-0.4-2c0-0.7,0.1-1.4,0.4-2c0.3-0.6,0.6-1,1.1-1.3c0.5-0.3,1-0.5,1.7-0.5
			c0.5,0,1,0.1,1.4,0.3c0.4,0.2,0.7,0.6,0.9,1V173c0-0.2,0.1-0.4,0.2-0.5c0.1-0.1,0.3-0.2,0.5-0.2
			C180.5,172.4,180.7,172.4,180.8,172.6z M179,181.1c0.4-0.4,0.5-1.1,0.5-1.9c0-0.8-0.2-1.4-0.5-1.9c-0.3-0.4-0.8-0.7-1.5-0.7
			c-0.6,0-1.1,0.2-1.5,0.7c-0.4,0.4-0.5,1.1-0.5,1.9c0,0.8,0.2,1.4,0.5,1.9c0.4,0.5,0.9,0.7,1.5,0.7
			C178.2,181.7,178.7,181.5,179,181.1z"/>
		<path class="st0" d="M188.2,176.2c0.5,0.5,0.7,1.2,0.7,2.2v3.8c0,0.2-0.1,0.4-0.2,0.5c-0.1,0.1-0.3,0.2-0.5,0.2
			c-0.2,0-0.4-0.1-0.5-0.2c-0.1-0.1-0.2-0.3-0.2-0.5v-0.5c-0.2,0.4-0.5,0.7-0.8,0.9c-0.4,0.2-0.8,0.3-1.3,0.3
			c-0.5,0-0.9-0.1-1.3-0.3c-0.4-0.2-0.7-0.5-0.9-0.8c-0.2-0.3-0.3-0.7-0.3-1.1c0-0.5,0.1-0.9,0.4-1.2c0.3-0.3,0.7-0.5,1.3-0.6
			c0.6-0.1,1.5-0.2,2.6-0.2h0.3v-0.4c0-0.5-0.1-0.9-0.3-1.2c-0.2-0.2-0.6-0.4-1.1-0.4c-0.3,0-0.7,0-1,0.1c-0.3,0.1-0.6,0.2-1,0.4
			c-0.3,0.1-0.5,0.2-0.6,0.2c-0.1,0-0.3-0.1-0.4-0.2c-0.1-0.1-0.1-0.2-0.1-0.4c0-0.1,0-0.3,0.1-0.4c0.1-0.1,0.2-0.2,0.4-0.3
			c0.3-0.2,0.7-0.3,1.2-0.4c0.5-0.1,0.9-0.2,1.3-0.2C187.1,175.5,187.8,175.7,188.2,176.2z M187,181.2c0.3-0.4,0.5-0.8,0.5-1.4v-0.4
			h-0.3c-0.8,0-1.4,0-1.8,0.1c-0.4,0.1-0.7,0.2-0.9,0.3c-0.2,0.2-0.3,0.4-0.3,0.7c0,0.4,0.1,0.6,0.4,0.9c0.3,0.2,0.6,0.3,1,0.3
			C186.2,181.8,186.6,181.6,187,181.2z"/>
		<path class="st0" d="M201.6,178.3v3.8c0,0.2-0.1,0.4-0.2,0.5c-0.1,0.1-0.3,0.2-0.5,0.2c-0.2,0-0.4-0.1-0.5-0.2
			c-0.1-0.1-0.2-0.3-0.2-0.5v-3.8c0-0.6-0.1-1-0.3-1.3c-0.2-0.3-0.6-0.4-1-0.4c-0.5,0-1,0.2-1.3,0.6c-0.3,0.4-0.5,0.9-0.5,1.5v3.5
			c0,0.2-0.1,0.4-0.2,0.5c-0.1,0.1-0.3,0.2-0.5,0.2c-0.2,0-0.4-0.1-0.5-0.2c-0.1-0.1-0.2-0.3-0.2-0.5v-3.8c0-0.6-0.1-1-0.3-1.3
			c-0.2-0.3-0.6-0.4-1-0.4c-0.5,0-1,0.2-1.3,0.6c-0.3,0.4-0.5,0.9-0.5,1.5v3.5c0,0.2-0.1,0.4-0.2,0.5c-0.1,0.1-0.3,0.2-0.5,0.2
			s-0.4-0.1-0.5-0.2c-0.1-0.1-0.2-0.3-0.2-0.5v-6c0-0.2,0.1-0.4,0.2-0.5c0.1-0.1,0.3-0.2,0.5-0.2s0.4,0.1,0.5,0.2
			c0.1,0.1,0.2,0.3,0.2,0.5v0.5c0.2-0.4,0.5-0.7,0.9-0.9c0.4-0.2,0.8-0.3,1.3-0.3c0.5,0,1,0.1,1.4,0.3c0.4,0.2,0.6,0.6,0.8,1
			c0.2-0.4,0.5-0.8,1-1c0.4-0.2,0.9-0.4,1.4-0.4C200.8,175.5,201.6,176.4,201.6,178.3z"/>
		<path class="st0" d="M203.7,179.3c-0.1-0.1-0.2-0.2-0.2-0.4s0.1-0.3,0.2-0.4c0.1-0.1,0.3-0.2,0.5-0.2h3.1c0.2,0,0.4,0.1,0.5,0.2
			c0.1,0.1,0.2,0.3,0.2,0.4s-0.1,0.3-0.2,0.4c-0.1,0.1-0.3,0.2-0.5,0.2h-3.1C204,179.5,203.8,179.4,203.7,179.3z"/>
		<path class="st0" d="M218.3,182.3c0,0.2-0.1,0.3-0.2,0.4c-0.1,0.1-0.3,0.2-0.5,0.2c-0.3,0-0.5-0.1-0.7-0.4l-2-3.1
			c-0.2-0.4-0.5-0.6-0.7-0.7c-0.3-0.1-0.6-0.2-1-0.2h-1.7v3.6c0,0.2-0.1,0.4-0.2,0.6c-0.1,0.1-0.3,0.2-0.6,0.2
			c-0.2,0-0.4-0.1-0.5-0.2c-0.1-0.1-0.2-0.3-0.2-0.6v-8.9c0-0.2,0.1-0.4,0.2-0.5c0.1-0.1,0.3-0.2,0.6-0.2h3.7c1.1,0,2,0.3,2.6,0.8
			c0.6,0.5,0.9,1.3,0.9,2.2c0,0.8-0.2,1.5-0.7,2c-0.5,0.5-1.1,0.8-2,1c0.3,0.1,0.5,0.2,0.7,0.4c0.2,0.2,0.4,0.4,0.6,0.7l1.5,2.4
			C218.3,182,218.3,182.1,218.3,182.3z M214.3,177.3c0.8,0,1.3-0.2,1.7-0.4c0.4-0.3,0.6-0.8,0.6-1.4c0-0.6-0.2-1.1-0.5-1.4
			c-0.4-0.3-0.9-0.4-1.7-0.4h-2.7v3.6H214.3z"/>
		<path class="st0" d="M226,181.1c0.1,0.1,0.1,0.2,0.1,0.4c0,0.3-0.2,0.5-0.5,0.7c-0.3,0.2-0.7,0.3-1.1,0.5
			c-0.4,0.1-0.8,0.2-1.2,0.2c-1.1,0-2-0.3-2.7-1c-0.7-0.7-1-1.6-1-2.7c0-0.7,0.1-1.4,0.4-2c0.3-0.6,0.7-1,1.2-1.3
			c0.5-0.3,1.1-0.5,1.8-0.5c1,0,1.7,0.3,2.3,0.9c0.6,0.6,0.8,1.4,0.8,2.5c0,0.4-0.2,0.6-0.5,0.6h-4.5c0.1,1.5,0.8,2.3,2.2,2.3
			c0.4,0,0.7,0,0.9-0.1c0.3-0.1,0.5-0.2,0.8-0.4c0,0,0.1-0.1,0.2-0.1c0.1-0.1,0.2-0.1,0.3-0.1C225.8,181,225.9,181,226,181.1z
			 M221.8,177.1c-0.3,0.4-0.5,0.9-0.6,1.5h3.8c0-0.7-0.2-1.2-0.5-1.5c-0.3-0.4-0.7-0.5-1.3-0.5C222.5,176.5,222.1,176.7,221.8,177.1
			z"/>
		<path class="st0" d="M234.3,178.3v3.8c0,0.2-0.1,0.4-0.2,0.5c-0.1,0.1-0.3,0.2-0.5,0.2c-0.2,0-0.4-0.1-0.5-0.2
			c-0.1-0.1-0.2-0.3-0.2-0.5v-3.8c0-0.6-0.1-1-0.4-1.3c-0.2-0.3-0.6-0.4-1.1-0.4c-0.6,0-1.1,0.2-1.4,0.6c-0.4,0.4-0.5,0.9-0.5,1.5
			v3.5c0,0.2-0.1,0.4-0.2,0.5c-0.1,0.1-0.3,0.2-0.5,0.2c-0.2,0-0.4-0.1-0.5-0.2c-0.1-0.1-0.2-0.3-0.2-0.5v-9.1
			c0-0.2,0.1-0.4,0.2-0.5c0.1-0.1,0.3-0.2,0.6-0.2c0.2,0,0.4,0.1,0.5,0.2c0.1,0.1,0.2,0.3,0.2,0.5v3.7c0.2-0.4,0.6-0.7,1-0.9
			c0.4-0.2,0.9-0.3,1.4-0.3C233.4,175.5,234.3,176.4,234.3,178.3z"/>
		<path class="st0" d="M241.8,175.9c0.5,0.3,0.9,0.7,1.1,1.3c0.3,0.6,0.4,1.2,0.4,2c0,0.7-0.1,1.4-0.4,2c-0.3,0.6-0.6,1-1.1,1.3
			c-0.5,0.3-1,0.5-1.7,0.5c-0.5,0-1-0.1-1.4-0.3c-0.4-0.2-0.7-0.6-0.9-1v0.6c0,0.2-0.1,0.4-0.2,0.5s-0.3,0.2-0.5,0.2
			c-0.2,0-0.4-0.1-0.5-0.2c-0.1-0.1-0.2-0.3-0.2-0.5v-9.1c0-0.2,0.1-0.4,0.2-0.5c0.1-0.1,0.3-0.2,0.6-0.2c0.2,0,0.4,0.1,0.5,0.2
			s0.2,0.3,0.2,0.5v3.8c0.2-0.4,0.5-0.8,0.9-1c0.4-0.2,0.9-0.4,1.4-0.4C240.8,175.5,241.3,175.6,241.8,175.9z M241.3,181
			c0.4-0.5,0.5-1.1,0.5-1.9c0-0.8-0.2-1.4-0.5-1.9c-0.4-0.4-0.9-0.7-1.5-0.7s-1.1,0.2-1.5,0.7c-0.3,0.4-0.5,1.1-0.5,1.9
			c0,0.8,0.2,1.4,0.5,1.9c0.3,0.4,0.8,0.7,1.5,0.7C240.4,181.7,240.9,181.5,241.3,181z"/>
		<path class="st0" d="M249.4,176.1c0,0.2-0.1,0.4-0.2,0.5c-0.1,0.1-0.3,0.2-0.6,0.2l-0.4,0c-0.6,0.1-1.1,0.3-1.4,0.6
			c-0.3,0.4-0.4,0.8-0.4,1.4v3.4c0,0.2-0.1,0.4-0.2,0.5c-0.1,0.1-0.3,0.2-0.5,0.2s-0.4-0.1-0.5-0.2c-0.1-0.1-0.2-0.3-0.2-0.5v-6
			c0-0.2,0.1-0.4,0.2-0.5c0.1-0.1,0.3-0.2,0.5-0.2c0.2,0,0.4,0.1,0.5,0.2c0.1,0.1,0.2,0.3,0.2,0.5v0.7c0.2-0.4,0.5-0.8,0.9-1
			c0.4-0.2,0.8-0.4,1.3-0.4l0.2,0C249.2,175.5,249.4,175.7,249.4,176.1z"/>
		<path class="st0" d="M256.4,175.7c0.1,0.1,0.2,0.3,0.2,0.5v6c0,0.2-0.1,0.4-0.2,0.5c-0.1,0.1-0.3,0.2-0.5,0.2
			c-0.2,0-0.4-0.1-0.5-0.2c-0.1-0.1-0.2-0.3-0.2-0.5v-0.6c-0.2,0.4-0.5,0.7-0.9,0.9c-0.4,0.2-0.8,0.3-1.3,0.3c-1.7,0-2.6-1-2.6-2.9
			v-3.8c0-0.2,0.1-0.4,0.2-0.5c0.1-0.1,0.3-0.2,0.6-0.2c0.2,0,0.4,0.1,0.5,0.2c0.1,0.1,0.2,0.3,0.2,0.5v3.8c0,0.6,0.1,1,0.4,1.3
			c0.2,0.3,0.6,0.4,1.1,0.4c0.6,0,1-0.2,1.4-0.6c0.3-0.4,0.5-0.9,0.5-1.5v-3.5c0-0.2,0.1-0.4,0.2-0.5c0.1-0.1,0.3-0.2,0.5-0.2
			C256.1,175.5,256.3,175.5,256.4,175.7z M251.6,173.8c-0.2-0.1-0.2-0.3-0.2-0.6c0-0.2,0.1-0.4,0.2-0.6c0.2-0.1,0.4-0.2,0.6-0.2
			c0.2,0,0.4,0.1,0.6,0.2c0.2,0.1,0.2,0.3,0.2,0.6c0,0.2-0.1,0.4-0.2,0.6c-0.2,0.1-0.4,0.2-0.6,0.2C252,174,251.8,173.9,251.6,173.8
			z M254.2,173.8c-0.2-0.2-0.2-0.3-0.2-0.6c0-0.2,0.1-0.4,0.2-0.6c0.2-0.1,0.4-0.2,0.6-0.2c0.2,0,0.4,0.1,0.6,0.2
			c0.2,0.1,0.2,0.3,0.2,0.6c0,0.2-0.1,0.4-0.2,0.6c-0.2,0.1-0.4,0.2-0.6,0.2C254.5,174,254.4,173.9,254.2,173.8z"/>
		<path class="st0" d="M259.9,182.4c-0.5-0.3-0.9-0.7-1.2-1.3c-0.3-0.6-0.4-1.2-0.4-1.9c0-0.7,0.1-1.4,0.4-2c0.3-0.6,0.7-1,1.3-1.3
			c0.5-0.3,1.2-0.5,1.9-0.5c0.4,0,0.7,0.1,1.1,0.2c0.4,0.1,0.7,0.3,1,0.4c0.3,0.2,0.5,0.5,0.5,0.7c0,0.2,0,0.3-0.1,0.4
			c-0.1,0.1-0.2,0.2-0.3,0.2c-0.1,0-0.2,0-0.3-0.1c-0.1,0-0.2-0.1-0.3-0.2c-0.2-0.2-0.5-0.3-0.7-0.4c-0.2-0.1-0.5-0.1-0.8-0.1
			c-0.7,0-1.2,0.2-1.5,0.7c-0.4,0.5-0.6,1.1-0.6,1.9c0,0.8,0.2,1.4,0.5,1.9c0.4,0.4,0.9,0.7,1.5,0.7c0.3,0,0.6,0,0.8-0.1
			c0.2-0.1,0.5-0.2,0.7-0.4c0.1-0.1,0.2-0.1,0.3-0.2c0.1,0,0.2-0.1,0.3-0.1c0.1,0,0.2,0.1,0.3,0.2c0.1,0.1,0.1,0.3,0.1,0.4
			c0,0.1,0,0.3-0.1,0.4c-0.1,0.1-0.2,0.2-0.4,0.3c-0.3,0.2-0.6,0.3-1,0.5c-0.4,0.1-0.8,0.2-1.2,0.2
			C261.1,182.9,260.5,182.7,259.9,182.4z"/>
		<path class="st0" d="M272.1,182.2c0,0.2-0.1,0.3-0.2,0.5c-0.1,0.1-0.3,0.2-0.5,0.2c-0.2,0-0.4-0.1-0.5-0.2l-3.7-3.2v2.7
			c0,0.2-0.1,0.4-0.2,0.5c-0.1,0.1-0.3,0.2-0.5,0.2c-0.2,0-0.4-0.1-0.5-0.2c-0.1-0.1-0.2-0.3-0.2-0.5v-9.1c0-0.2,0.1-0.4,0.2-0.5
			c0.1-0.1,0.3-0.2,0.5-0.2c0.2,0,0.4,0.1,0.5,0.2c0.1,0.1,0.2,0.3,0.2,0.5v5.8l3.3-3.1c0.2-0.1,0.3-0.2,0.5-0.2
			c0.2,0,0.3,0.1,0.5,0.2c0.1,0.1,0.2,0.3,0.2,0.5s-0.1,0.4-0.2,0.5l-2.6,2.4l2.9,2.5C272,181.8,272.1,182,272.1,182.2z"/>
		<path class="st0" d="M279.2,181.1c0.1,0.1,0.1,0.2,0.1,0.4c0,0.3-0.2,0.5-0.5,0.7c-0.3,0.2-0.7,0.3-1.1,0.5
			c-0.4,0.1-0.8,0.2-1.2,0.2c-1.1,0-2-0.3-2.7-1c-0.7-0.7-1-1.6-1-2.7c0-0.7,0.1-1.4,0.4-2c0.3-0.6,0.7-1,1.2-1.3
			c0.5-0.3,1.1-0.5,1.8-0.5c1,0,1.7,0.3,2.3,0.9c0.6,0.6,0.8,1.4,0.8,2.5c0,0.4-0.2,0.6-0.5,0.6h-4.5c0.1,1.5,0.8,2.3,2.2,2.3
			c0.4,0,0.7,0,0.9-0.1c0.3-0.1,0.5-0.2,0.8-0.4c0,0,0.1-0.1,0.2-0.1c0.1-0.1,0.2-0.1,0.3-0.1C279,181,279.1,181,279.2,181.1z
			 M275,177.1c-0.3,0.4-0.5,0.9-0.6,1.5h3.8c0-0.7-0.2-1.2-0.5-1.5c-0.3-0.4-0.7-0.5-1.3-0.5C275.8,176.5,275.3,176.7,275,177.1z"/>
	</g>
	<g>
		<path class="st0" d="M85,144.2c-1,1.2-1.6,2.9-1.6,5.2v1.8h6.4c0.9,0,1.6,0.2,2.1,0.7c0.5,0.5,0.7,1.1,0.7,1.8
			c0,0.8-0.2,1.4-0.7,1.8c-0.5,0.5-1.2,0.7-2.1,0.7h-6.4v23.3c0,1-0.3,1.8-0.9,2.4c-0.6,0.5-1.4,0.8-2.4,0.8c-0.9,0-1.7-0.3-2.3-0.8
			c-0.6-0.5-0.9-1.3-0.9-2.4v-23.3H73c-0.9,0-1.6-0.2-2.1-0.7c-0.5-0.5-0.7-1.1-0.7-1.8c0-0.8,0.2-1.4,0.7-1.8
			c0.5-0.5,1.2-0.7,2.1-0.7h3.9v-0.8c0-4,1-7.1,3-9.3c2-2.3,4.9-3.5,8.6-3.8l1.7-0.1c1.4-0.1,2.4,0.1,3,0.5c0.6,0.4,0.9,1,0.9,1.9
			c0,1.5-0.9,2.4-2.7,2.6l-1.7,0.1C87.6,142.4,86,143,85,144.2z"/>
		<path class="st0" d="M62.5,182.7h-3.2c-1,0-1.7-0.8-1.7-1.7v-42c0-1,0.8-1.7,1.7-1.7h3.2c1,0,1.7,0.8,1.7,1.7v42
			C64.3,181.9,63.5,182.7,62.5,182.7z"/>
		<path class="st0" d="M44.5,143.1c-4.1-4-9.8-5.9-17.1-5.9h-6.6h-2.5h-4.1c-1.5,0-2.8,1.2-2.8,2.8c0,1.5,1.2,2.8,2.8,2.8h4.1h2.5
			h1.7h4.5c11.2,0,16.8,5.7,16.8,17.2c0,11.5-5.6,17.3-16.8,17.3H18v-24.3c0-1.8-1.5-3.3-3.3-3.3s-3.3,1.5-3.3,3.3v26.6
			c0,1,0.3,1.8,0.9,2.4c0.6,0.6,1.4,0.9,2.4,0.9h12.7c7.4,0,13.1-2,17.1-6c4-4,6.1-9.6,6.1-16.8C50.5,152.7,48.5,147.1,44.5,143.1z"
			/>
		<g>
			<path class="st0" d="M127.7,137.1h-27.3c-0.8,0-1.5,0.7-1.5,1.5v2.6c0,0.8,0.7,1.5,1.5,1.5h27.3c0.8,0,1.5-0.7,1.5-1.5v-2.6
				C129.1,137.8,128.5,137.1,127.7,137.1z"/>
			<path class="st0" d="M126.3,177.1h-20.9v-14.8h19.6c1.5,0,2.8-1.2,2.8-2.8c0-1.5-1.2-2.8-2.8-2.8h-19.6v-4c0-1.8-1.5-3.3-3.3-3.3
				s-3.3,1.5-3.3,3.3v27.1c0,1.5,1.2,2.8,2.8,2.8h24.6c1.5,0,2.8-1.2,2.8-2.8C129.1,178.4,127.9,177.1,126.3,177.1z"/>
		</g>
	</g>
</g>
</svg>
