<?xml version="1.0" encoding="utf-8"?>
<!-- Generator: Adobe Illustrator 25.0.1, SVG Export Plug-In . SVG Version: 6.00 Build 0)  -->
<svg version="1.1" id="Ebene_1" xmlns="http://www.w3.org/2000/svg" xmlns:xlink="http://www.w3.org/1999/xlink" x="0px" y="0px"
	 viewBox="0 0 320 320" style="enable-background:new 0 0 320 320;" xml:space="preserve">
<style type="text/css">
	.st0{fill:#CEE6F5;}
	.st1{fill:#003063;}
</style>
<g>
	<rect x="34" y="114.8" class="st0" width="45.4" height="45.4"/>
	<path class="st1" d="M111.8,160.2v-20h18.1v20h9.3v-45.8h-9.3v18h-18.1v-18h-9.3v45.8H111.8z M157.7,114.3h-9.3v45.8h9.3V114.3z
		 M186.1,160.2v-38.1h13.6v-7.8h-36.4v7.8h13.6v38.1H186.1z M207.5,157c3.1,2.7,7.6,4,13.4,4c4,0,7.3-0.6,10-1.7
		c2.7-1.1,4.7-2.8,6.2-5.1c1.5-2.3,2.2-4.7,2.2-7.4c0-2.9-0.6-5.3-1.8-7.3c-1.2-2-2.9-3.5-5.1-4.7c-2.2-1.1-5.5-2.2-10-3.3
		c-4.5-1.1-7.3-2.1-8.5-3.1c-0.9-0.8-1.4-1.7-1.4-2.8c0-1.2,0.5-2.1,1.5-2.8c1.5-1.1,3.6-1.7,6.3-1.7c2.6,0,4.6,0.5,5.9,1.5
		c1.3,1,2.2,2.7,2.5,5.1l9.3-0.4c-0.1-4.2-1.7-7.6-4.6-10.1c-2.9-2.5-7.2-3.8-13-3.8c-3.5,0-6.5,0.5-9,1.6c-2.5,1.1-4.4,2.6-5.7,4.6
		c-1.3,2-2,4.2-2,6.6c0,3.6,1.4,6.7,4.2,9.2c2,1.8,5.5,3.3,10.4,4.5c3.9,1,6.3,1.6,7.4,2c1.6,0.6,2.7,1.2,3.3,2c0.6,0.8,1,1.7,1,2.8
		c0,1.7-0.8,3.2-2.3,4.4c-1.5,1.3-3.8,1.9-6.7,1.9c-2.8,0-5.1-0.7-6.7-2.1c-1.7-1.4-2.8-3.6-3.3-6.7l-9,0.9
		C202.6,150.4,204.4,154.3,207.5,157"/>
	<path class="st1" d="M82,137.5c0-1.3-0.9-2.3-2.1-2.6v-17.6c1.2-0.2,2.1-1.3,2.1-2.6c0-1.4-1.2-2.6-2.6-2.6c-1.3,0-2.3,0.9-2.6,2.1
		H59.2c-0.2-1.2-1.3-2.1-2.6-2.1s-2.3,0.9-2.6,2.1H36.5c-0.2-1.2-1.3-2.1-2.6-2.1c-1.3,0-2.3,0.9-2.6,2.1H10.1l21.7,21.7
		c-0.3,0.4-0.4,0.9-0.4,1.5c0,1.4,1.2,2.6,2.6,2.6c0.5,0,1-0.2,1.5-0.4l9.2,9.2l-9.2,9.2c-0.4-0.3-0.9-0.4-1.5-0.4
		c-1.4,0-2.6,1.2-2.6,2.6c0,0.5,0.2,1,0.4,1.5l-21.7,21.7h1.4l21-21c0.4,0.3,0.9,0.4,1.5,0.4c1.4,0,2.6-1.2,2.6-2.6
		c0-0.5-0.2-1-0.4-1.5l9.2-9.2l9.2,9.2c-0.3,0.4-0.4,0.9-0.4,1.5c0,1.4,1.2,2.6,2.6,2.6c0.5,0,1-0.2,1.5-0.4l21.7,21.7v-21.3
		c1.2-0.2,2.1-1.3,2.1-2.6c0-1.3-0.9-2.3-2.1-2.6v-17.6C81.1,139.8,82,138.8,82,137.5z M45.3,148.2l-9.2-9.2
		c0.3-0.4,0.4-0.9,0.4-1.5c0-1.4-1.2-2.6-2.6-2.6c-0.5,0-1,0.2-1.5,0.4l-20-20h18.9c0.2,1.2,1.3,2.1,2.6,2.1c1.3,0,2.3-0.9,2.6-2.1
		h17.6c0.2,1.2,1.3,2.1,2.6,2.1s2.3-0.9,2.6-2.1h17.6c0.1,0.3,0.2,0.7,0.4,1l-19.1,19.1c-0.4-0.3-0.9-0.4-1.5-0.4
		c-1.4,0-2.6,1.2-2.6,2.6c0,0.5,0.2,1,0.4,1.5L45.3,148.2z M78.9,135c-1.2,0.2-2.1,1.3-2.1,2.6c0,1.3,0.9,2.3,2.1,2.6v17.6
		c-1.2,0.2-2.1,1.3-2.1,2.6c0,1.3,0.9,2.3,2.1,2.6v18.9l-20-20c0.3-0.4,0.4-0.9,0.4-1.5c0-1.4-1.2-2.6-2.6-2.6c-0.5,0-1,0.2-1.5,0.4
		l-9.2-9.2l9.2-9.2c0.4,0.3,0.9,0.4,1.5,0.4c1.4,0,2.6-1.2,2.6-2.6c0-0.5-0.2-1-0.4-1.5L77.9,117c0.3,0.2,0.6,0.3,1,0.4V135z"/>
	<g>
		<g>
			<path class="st1" d="M102.5,184.1v-13.2h2.7v5.2h5.2v-5.2h2.7v13.2h-2.7v-5.8h-5.2v5.8H102.5z"/>
			<path class="st1" d="M121.4,181.1l2.5,0.4c-0.3,0.9-0.8,1.6-1.5,2.1c-0.7,0.5-1.6,0.7-2.6,0.7c-1.7,0-2.9-0.5-3.7-1.6
				c-0.6-0.9-0.9-2-0.9-3.3c0-1.6,0.4-2.8,1.2-3.7c0.8-0.9,1.9-1.3,3.1-1.3c1.4,0,2.6,0.5,3.4,1.4c0.8,0.9,1.2,2.4,1.2,4.3h-6.4
				c0,0.8,0.2,1.3,0.6,1.8c0.4,0.4,0.9,0.6,1.5,0.6c0.4,0,0.7-0.1,1-0.3C121,181.9,121.2,181.5,121.4,181.1z M121.5,178.5
				c0-0.7-0.2-1.3-0.6-1.7c-0.4-0.4-0.8-0.6-1.3-0.6c-0.6,0-1,0.2-1.4,0.6c-0.4,0.4-0.5,1-0.5,1.6H121.5z"/>
			<path class="st1" d="M126.1,173.2v-2.3h2.5v2.3H126.1z M126.1,184.1v-9.6h2.5v9.6H126.1z"/>
			<path class="st1" d="M140,184.1h-2.4v-1.4c-0.4,0.5-0.9,1-1.4,1.2c-0.5,0.3-1.1,0.4-1.6,0.4c-1.1,0-2-0.4-2.8-1.3
				c-0.8-0.9-1.2-2.1-1.2-3.7c0-1.6,0.4-2.9,1.1-3.7c0.8-0.8,1.7-1.3,2.9-1.3c1.1,0,2,0.4,2.8,1.3v-4.8h2.5V184.1z M133.2,179.1
				c0,1,0.1,1.8,0.4,2.2c0.4,0.7,1,1,1.7,1c0.6,0,1.1-0.2,1.5-0.7c0.4-0.5,0.6-1.2,0.6-2.2c0-1.1-0.2-1.9-0.6-2.4
				c-0.4-0.5-0.9-0.7-1.5-0.7c-0.6,0-1.1,0.2-1.5,0.7C133.4,177.5,133.2,178.2,133.2,179.1z"/>
			<path class="st1" d="M148,181.1l2.5,0.4c-0.3,0.9-0.8,1.6-1.5,2.1c-0.7,0.5-1.6,0.7-2.6,0.7c-1.7,0-2.9-0.5-3.7-1.6
				c-0.6-0.9-0.9-2-0.9-3.3c0-1.6,0.4-2.8,1.2-3.7c0.8-0.9,1.9-1.3,3.1-1.3c1.4,0,2.6,0.5,3.4,1.4c0.8,0.9,1.2,2.4,1.2,4.3h-6.4
				c0,0.8,0.2,1.3,0.6,1.8s0.9,0.6,1.5,0.6c0.4,0,0.7-0.1,1-0.3C147.6,181.9,147.8,181.5,148,181.1z M148.1,178.5
				c0-0.7-0.2-1.3-0.6-1.7c-0.4-0.4-0.8-0.6-1.3-0.6c-0.6,0-1,0.2-1.4,0.6c-0.4,0.4-0.5,1-0.5,1.6H148.1z"/>
			<path class="st1" d="M152.7,184.1v-13.2h2.5v13.2H152.7z"/>
			<path class="st1" d="M157.6,184.1v-13.2h2.5v4.8c0.8-0.9,1.7-1.3,2.8-1.3c1.2,0,2.1,0.4,2.9,1.3c0.8,0.8,1.1,2.1,1.1,3.6
				c0,1.6-0.4,2.9-1.2,3.8c-0.8,0.9-1.7,1.3-2.8,1.3c-0.5,0-1.1-0.1-1.6-0.4c-0.5-0.3-1-0.7-1.4-1.2v1.4H157.6z M160.2,179.1
				c0,1,0.2,1.7,0.5,2.2c0.4,0.7,1,1,1.7,1c0.6,0,1-0.2,1.4-0.7c0.4-0.5,0.6-1.2,0.6-2.3c0-1.1-0.2-1.9-0.6-2.4
				c-0.4-0.5-0.9-0.7-1.5-0.7c-0.6,0-1.1,0.2-1.5,0.7C160.4,177.4,160.2,178.2,160.2,179.1z"/>
			<path class="st1" d="M174.6,181.1l2.5,0.4c-0.3,0.9-0.8,1.6-1.5,2.1c-0.7,0.5-1.6,0.7-2.6,0.7c-1.7,0-2.9-0.5-3.7-1.6
				c-0.6-0.9-0.9-2-0.9-3.3c0-1.6,0.4-2.8,1.2-3.7c0.8-0.9,1.9-1.3,3.1-1.3c1.4,0,2.6,0.5,3.4,1.4c0.8,0.9,1.2,2.4,1.2,4.3h-6.4
				c0,0.8,0.2,1.3,0.6,1.8s0.9,0.6,1.5,0.6c0.4,0,0.7-0.1,1-0.3C174.2,181.9,174.4,181.5,174.6,181.1z M174.7,178.5
				c0-0.7-0.2-1.3-0.6-1.7c-0.4-0.4-0.8-0.6-1.3-0.6c-0.6,0-1,0.2-1.4,0.6c-0.4,0.4-0.5,1-0.5,1.6H174.7z"/>
			<path class="st1" d="M181.7,184.1h-2.5v-9.6h2.4v1.4c0.4-0.6,0.8-1.1,1.1-1.3c0.3-0.2,0.7-0.3,1.1-0.3c0.6,0,1.1,0.2,1.7,0.5
				l-0.8,2.2c-0.4-0.3-0.8-0.4-1.2-0.4c-0.4,0-0.7,0.1-0.9,0.3c-0.2,0.2-0.4,0.5-0.6,1.1c-0.1,0.5-0.2,1.6-0.2,3.2V184.1z"/>
			<path class="st1" d="M186.2,184.7l2.9,0.4c0,0.3,0.2,0.6,0.3,0.7c0.2,0.2,0.6,0.3,1.1,0.3c0.7,0,1.2-0.1,1.5-0.3
				c0.2-0.1,0.4-0.3,0.5-0.6c0.1-0.2,0.1-0.6,0.1-1.2v-1.4c-0.8,1-1.7,1.6-2.9,1.6c-1.3,0-2.3-0.5-3.1-1.6c-0.6-0.9-0.9-1.9-0.9-3.2
				c0-1.6,0.4-2.8,1.2-3.7c0.8-0.8,1.7-1.3,2.9-1.3c1.2,0,2.2,0.5,2.9,1.6v-1.3h2.4v8.6c0,1.1-0.1,2-0.3,2.5c-0.2,0.6-0.4,1-0.8,1.3
				c-0.3,0.3-0.8,0.6-1.3,0.7c-0.6,0.2-1.3,0.3-2.1,0.3c-1.6,0-2.8-0.3-3.5-0.8c-0.7-0.6-1-1.3-1-2.1
				C186.2,185,186.2,184.9,186.2,184.7z M188.4,179.1c0,1,0.2,1.8,0.6,2.2c0.4,0.5,0.9,0.7,1.5,0.7c0.6,0,1.1-0.2,1.6-0.7
				c0.4-0.5,0.6-1.2,0.6-2.2c0-1-0.2-1.7-0.6-2.2c-0.4-0.5-0.9-0.7-1.6-0.7c-0.6,0-1.1,0.2-1.5,0.7
				C188.6,177.4,188.4,178.2,188.4,179.1z"/>
			<path class="st1" d="M203.2,181.1l2.5,0.4c-0.3,0.9-0.8,1.6-1.5,2.1c-0.7,0.5-1.6,0.7-2.6,0.7c-1.7,0-2.9-0.5-3.7-1.6
				c-0.6-0.9-0.9-2-0.9-3.3c0-1.6,0.4-2.8,1.2-3.7c0.8-0.9,1.9-1.3,3.1-1.3c1.4,0,2.6,0.5,3.4,1.4c0.8,0.9,1.2,2.4,1.2,4.3h-6.4
				c0,0.8,0.2,1.3,0.6,1.8s0.9,0.6,1.5,0.6c0.4,0,0.7-0.1,1-0.3C202.9,181.9,203.1,181.5,203.2,181.1z M203.3,178.5
				c0-0.7-0.2-1.3-0.6-1.7c-0.4-0.4-0.8-0.6-1.3-0.6c-0.6,0-1,0.2-1.4,0.6c-0.4,0.4-0.5,1-0.5,1.6H203.3z"/>
			<path class="st1" d="M210.3,184.1h-2.5v-9.6h2.4v1.4c0.4-0.6,0.8-1.1,1.1-1.3c0.3-0.2,0.7-0.3,1.1-0.3c0.6,0,1.1,0.2,1.7,0.5
				l-0.8,2.2c-0.4-0.3-0.8-0.4-1.2-0.4c-0.4,0-0.7,0.1-0.9,0.3c-0.2,0.2-0.4,0.5-0.6,1.1c-0.1,0.5-0.2,1.6-0.2,3.2V184.1z"/>
			<path class="st1" d="M220.1,184.1v-13.2h2.7v13.2H220.1z"/>
			<path class="st1" d="M234,184.1h-2.5v-4.9c0-1-0.1-1.7-0.2-2s-0.3-0.5-0.5-0.7c-0.2-0.2-0.5-0.3-0.9-0.3c-0.4,0-0.8,0.1-1.2,0.4
				c-0.3,0.2-0.6,0.6-0.7,1c-0.1,0.4-0.2,1.1-0.2,2.2v4.3h-2.5v-9.6h2.4v1.4c0.8-1.1,1.9-1.6,3.2-1.6c0.6,0,1.1,0.1,1.5,0.3
				c0.5,0.2,0.8,0.5,1.1,0.8c0.2,0.3,0.4,0.7,0.5,1.1c0.1,0.4,0.1,1,0.1,1.7V184.1z"/>
			<path class="st1" d="M235.6,181.4l2.5-0.4c0.1,0.5,0.3,0.9,0.7,1.1c0.3,0.3,0.8,0.4,1.4,0.4c0.7,0,1.1-0.1,1.5-0.4
				c0.2-0.2,0.3-0.4,0.3-0.7c0-0.2-0.1-0.4-0.2-0.5c-0.1-0.1-0.4-0.2-0.8-0.3c-2-0.5-3.3-0.9-3.9-1.2c-0.8-0.5-1.1-1.2-1.1-2.2
				c0-0.8,0.3-1.5,1-2.1c0.7-0.6,1.7-0.8,3.1-0.8c1.3,0,2.3,0.2,2.9,0.6c0.6,0.4,1.1,1.1,1.3,1.9l-2.4,0.4c-0.1-0.4-0.3-0.7-0.6-0.9
				c-0.3-0.2-0.7-0.3-1.2-0.3c-0.7,0-1.1,0.1-1.4,0.3c-0.2,0.1-0.3,0.3-0.3,0.5c0,0.2,0.1,0.3,0.3,0.5c0.2,0.2,1,0.4,2.4,0.7
				c1.3,0.3,2.3,0.7,2.8,1.1c0.5,0.5,0.8,1.1,0.8,1.9c0,0.9-0.4,1.6-1.1,2.3s-1.8,0.9-3.3,0.9c-1.3,0-2.3-0.3-3.1-0.8
				C236.3,183,235.8,182.3,235.6,181.4z"/>
			<path class="st1" d="M251.1,174.5v2h-1.7v3.9c0,0.8,0,1.2,0,1.4s0.1,0.2,0.2,0.3c0.1,0.1,0.3,0.1,0.4,0.1c0.2,0,0.6-0.1,1-0.2
				l0.2,2c-0.6,0.3-1.3,0.4-2,0.4c-0.5,0-0.9-0.1-1.2-0.2c-0.4-0.2-0.6-0.4-0.8-0.6c-0.2-0.2-0.3-0.6-0.4-1
				c-0.1-0.3-0.1-0.9-0.1-1.8v-4.2h-1.2v-2h1.2v-1.9l2.5-1.5v3.4H251.1z"/>
			<path class="st1" d="M252.9,173.2v-2.3h2.5v2.3H252.9z M252.9,184.1v-9.6h2.5v9.6H252.9z"/>
			<path class="st1" d="M262.3,174.5v2h-1.7v3.9c0,0.8,0,1.2,0,1.4c0,0.1,0.1,0.2,0.2,0.3c0.1,0.1,0.3,0.1,0.4,0.1
				c0.2,0,0.6-0.1,1-0.2l0.2,2c-0.6,0.3-1.3,0.4-2,0.4c-0.5,0-0.9-0.1-1.2-0.2c-0.4-0.2-0.6-0.4-0.8-0.6c-0.2-0.2-0.3-0.6-0.4-1
				c-0.1-0.3-0.1-0.9-0.1-1.8v-4.2h-1.2v-2h1.2v-1.9l2.5-1.5v3.4H262.3z"/>
			<path class="st1" d="M270.4,184.1v-1.4c-0.3,0.5-0.8,0.9-1.4,1.2c-0.6,0.3-1.2,0.4-1.8,0.4c-0.6,0-1.2-0.1-1.7-0.4
				c-0.5-0.3-0.9-0.7-1.1-1.2c-0.2-0.5-0.3-1.2-0.3-2.1v-6.1h2.5v4.4c0,1.3,0,2.2,0.1,2.5c0.1,0.3,0.3,0.5,0.5,0.7s0.6,0.3,0.9,0.3
				c0.4,0,0.8-0.1,1.2-0.4c0.3-0.2,0.6-0.5,0.7-0.9s0.2-1.2,0.2-2.6v-4h2.5v9.6H270.4z"/>
			<path class="st1" d="M279.7,174.5v2H278v3.9c0,0.8,0,1.2,0,1.4c0,0.1,0.1,0.2,0.2,0.3c0.1,0.1,0.3,0.1,0.4,0.1
				c0.2,0,0.6-0.1,1-0.2l0.2,2c-0.6,0.3-1.3,0.4-2,0.4c-0.5,0-0.9-0.1-1.2-0.2c-0.4-0.2-0.6-0.4-0.8-0.6c-0.2-0.2-0.3-0.6-0.4-1
				c-0.1-0.3-0.1-0.9-0.1-1.8v-4.2h-1.2v-2h1.2v-1.9l2.5-1.5v3.4H279.7z"/>
			<path class="st1" d="M285.4,174.5h1.4v-0.7c0-0.8,0.1-1.4,0.3-1.8c0.2-0.4,0.5-0.7,0.9-1c0.5-0.2,1-0.4,1.7-0.4
				c0.7,0,1.4,0.1,2.1,0.3l-0.3,1.8c-0.4-0.1-0.8-0.1-1.2-0.1c-0.4,0-0.6,0.1-0.8,0.3c-0.2,0.2-0.2,0.5-0.2,1v0.7h1.9v2h-1.9v7.6
				h-2.5v-7.6h-1.4V174.5z"/>
			<path class="st1" d="M299,184.1v-1.4c-0.3,0.5-0.8,0.9-1.4,1.2c-0.6,0.3-1.2,0.4-1.8,0.4c-0.6,0-1.2-0.1-1.7-0.4
				c-0.5-0.3-0.9-0.7-1.1-1.2c-0.2-0.5-0.3-1.2-0.3-2.1v-6.1h2.5v4.4c0,1.3,0,2.2,0.1,2.5c0.1,0.3,0.3,0.5,0.5,0.7s0.6,0.3,0.9,0.3
				c0.4,0,0.8-0.1,1.2-0.4c0.3-0.2,0.6-0.5,0.7-0.9c0.1-0.4,0.2-1.2,0.2-2.6v-4h2.5v9.6H299z M293.9,172.8v-2.2h2.2v2.2H293.9z
				 M297.8,172.8v-2.2h2.2v2.2H297.8z"/>
			<path class="st1" d="M306.3,184.1h-2.5v-9.6h2.4v1.4c0.4-0.6,0.8-1.1,1.1-1.3c0.3-0.2,0.7-0.3,1.1-0.3c0.6,0,1.1,0.2,1.7,0.5
				l-0.8,2.2c-0.4-0.3-0.8-0.4-1.2-0.4c-0.4,0-0.7,0.1-0.9,0.3c-0.2,0.2-0.4,0.5-0.6,1.1c-0.1,0.5-0.2,1.6-0.2,3.2V184.1z"/>
		</g>
		<g>
			<path class="st1" d="M106.4,207.6v-11h-3.9v-2.2H113v2.2h-3.9v11H106.4z"/>
			<path class="st1" d="M117.2,194.4v4.9c0.8-1,1.8-1.4,2.9-1.4c0.6,0,1.1,0.1,1.6,0.3c0.5,0.2,0.8,0.5,1.1,0.8
				c0.2,0.3,0.4,0.7,0.5,1.1c0.1,0.4,0.1,1,0.1,1.9v5.6h-2.5v-5.1c0-1,0-1.6-0.1-1.9c-0.1-0.3-0.3-0.5-0.5-0.6
				c-0.2-0.2-0.5-0.2-0.9-0.2c-0.4,0-0.8,0.1-1.1,0.3s-0.6,0.5-0.7,0.9c-0.2,0.4-0.2,1-0.2,1.8v4.8h-2.5v-13.2H117.2z"/>
			<path class="st1" d="M131.5,204.6l2.5,0.4c-0.3,0.9-0.8,1.6-1.5,2.1c-0.7,0.5-1.6,0.7-2.6,0.7c-1.7,0-2.9-0.5-3.7-1.6
				c-0.6-0.9-0.9-2-0.9-3.3c0-1.6,0.4-2.8,1.2-3.7c0.8-0.9,1.9-1.3,3.1-1.3c1.4,0,2.6,0.5,3.4,1.4c0.8,0.9,1.2,2.4,1.2,4.3h-6.4
				c0,0.8,0.2,1.3,0.6,1.8c0.4,0.4,0.9,0.6,1.5,0.6c0.4,0,0.7-0.1,1-0.3C131.2,205.4,131.4,205,131.5,204.6z M131.6,202
				c0-0.7-0.2-1.3-0.6-1.7s-0.8-0.6-1.3-0.6c-0.6,0-1,0.2-1.4,0.6c-0.4,0.4-0.5,1-0.5,1.6H131.6z"/>
			<path class="st1" d="M135.6,202.7c0-0.8,0.2-1.7,0.6-2.4c0.4-0.8,1-1.4,1.8-1.8c0.8-0.4,1.6-0.6,2.5-0.6c1.4,0,2.6,0.5,3.6,1.4
				c0.9,0.9,1.4,2.1,1.4,3.6c0,1.5-0.5,2.7-1.4,3.6c-0.9,1-2.1,1.4-3.5,1.4c-0.9,0-1.7-0.2-2.5-0.6c-0.8-0.4-1.4-1-1.8-1.7
				C135.8,204.7,135.6,203.8,135.6,202.7z M138.2,202.8c0,0.9,0.2,1.7,0.7,2.2c0.5,0.5,1,0.8,1.7,0.8s1.2-0.3,1.7-0.8
				c0.4-0.5,0.7-1.2,0.7-2.2c0-0.9-0.2-1.7-0.7-2.2c-0.4-0.5-1-0.8-1.7-0.8s-1.2,0.3-1.7,0.8C138.4,201.1,138.2,201.9,138.2,202.8z"
				/>
			<path class="st1" d="M149.9,207.6h-2.5V198h2.4v1.4c0.4-0.6,0.8-1.1,1.1-1.3s0.7-0.3,1.1-0.3c0.6,0,1.1,0.2,1.7,0.5l-0.8,2.2
				c-0.4-0.3-0.8-0.4-1.2-0.4c-0.4,0-0.7,0.1-0.9,0.3c-0.2,0.2-0.4,0.5-0.6,1.1c-0.1,0.5-0.2,1.6-0.2,3.2V207.6z"/>
			<path class="st1" d="M160.1,204.6l2.5,0.4c-0.3,0.9-0.8,1.6-1.5,2.1c-0.7,0.5-1.6,0.7-2.6,0.7c-1.7,0-2.9-0.5-3.7-1.6
				c-0.6-0.9-0.9-2-0.9-3.3c0-1.6,0.4-2.8,1.2-3.7c0.8-0.9,1.9-1.3,3.1-1.3c1.4,0,2.6,0.5,3.4,1.4c0.8,0.9,1.2,2.4,1.2,4.3h-6.4
				c0,0.8,0.2,1.3,0.6,1.8c0.4,0.4,0.9,0.6,1.5,0.6c0.4,0,0.7-0.1,1-0.3C159.8,205.4,160,205,160.1,204.6z M160.3,202
				c0-0.7-0.2-1.3-0.6-1.7s-0.8-0.6-1.3-0.6c-0.6,0-1,0.2-1.4,0.6c-0.4,0.4-0.5,1-0.5,1.6H160.3z"/>
			<path class="st1" d="M169.2,198v2h-1.7v3.9c0,0.8,0,1.2,0,1.4s0.1,0.2,0.2,0.3c0.1,0.1,0.3,0.1,0.4,0.1c0.2,0,0.6-0.1,1-0.2
				l0.2,2c-0.6,0.3-1.3,0.4-2,0.4c-0.5,0-0.9-0.1-1.2-0.2c-0.4-0.2-0.6-0.4-0.8-0.6c-0.2-0.2-0.3-0.6-0.4-1
				c-0.1-0.3-0.1-0.9-0.1-1.8V200h-1.2v-2h1.2v-1.9l2.5-1.5v3.4H169.2z"/>
			<path class="st1" d="M170.9,196.7v-2.3h2.5v2.3H170.9z M170.9,207.6V198h2.5v9.6H170.9z"/>
			<path class="st1" d="M175.2,204.9l2.5-0.4c0.1,0.5,0.3,0.9,0.7,1.1c0.3,0.3,0.8,0.4,1.4,0.4c0.7,0,1.1-0.1,1.5-0.4
				c0.2-0.2,0.3-0.4,0.3-0.7c0-0.2-0.1-0.4-0.2-0.5c-0.1-0.1-0.4-0.2-0.8-0.3c-2-0.5-3.3-0.9-3.9-1.2c-0.8-0.5-1.1-1.2-1.1-2.2
				c0-0.8,0.3-1.5,1-2.1c0.7-0.6,1.7-0.8,3.1-0.8c1.3,0,2.3,0.2,2.9,0.6c0.6,0.4,1.1,1.1,1.3,1.9l-2.4,0.4c-0.1-0.4-0.3-0.7-0.6-0.9
				c-0.3-0.2-0.7-0.3-1.2-0.3c-0.7,0-1.1,0.1-1.4,0.3c-0.2,0.1-0.3,0.3-0.3,0.5c0,0.2,0.1,0.3,0.3,0.5c0.2,0.2,1,0.4,2.4,0.7
				c1.3,0.3,2.3,0.7,2.8,1.1c0.5,0.5,0.8,1.1,0.8,1.9c0,0.9-0.4,1.6-1.1,2.3s-1.8,0.9-3.3,0.9c-1.3,0-2.3-0.3-3.1-0.8
				C175.9,206.5,175.4,205.8,175.2,204.9z"/>
			<path class="st1" d="M194.6,200.9l-2.5,0.5c-0.1-0.5-0.3-0.9-0.6-1.1c-0.3-0.3-0.7-0.4-1.2-0.4c-0.6,0-1.1,0.2-1.5,0.7
				c-0.4,0.4-0.6,1.2-0.6,2.2c0,1.1,0.2,1.9,0.6,2.4c0.4,0.5,0.9,0.7,1.5,0.7c0.5,0,0.9-0.1,1.2-0.4c0.3-0.3,0.5-0.7,0.6-1.4
				l2.5,0.4c-0.3,1.1-0.8,2-1.5,2.6c-0.7,0.6-1.7,0.9-3,0.9c-1.4,0-2.5-0.4-3.4-1.3c-0.8-0.9-1.2-2.1-1.2-3.7c0-1.6,0.4-2.8,1.3-3.7
				c0.8-0.9,2-1.3,3.4-1.3c1.2,0,2.1,0.3,2.8,0.8C193.8,199.1,194.3,199.8,194.6,200.9z"/>
			<path class="st1" d="M199.1,194.4v4.9c0.8-1,1.8-1.4,2.9-1.4c0.6,0,1.1,0.1,1.6,0.3c0.5,0.2,0.8,0.5,1.1,0.8
				c0.2,0.3,0.4,0.7,0.5,1.1c0.1,0.4,0.1,1,0.1,1.9v5.6h-2.5v-5.1c0-1,0-1.6-0.1-1.9c-0.1-0.3-0.3-0.5-0.5-0.6
				c-0.2-0.2-0.5-0.2-0.9-0.2c-0.4,0-0.8,0.1-1.1,0.3c-0.3,0.2-0.6,0.5-0.7,0.9c-0.2,0.4-0.2,1-0.2,1.8v4.8h-2.5v-13.2H199.1z"/>
			<path class="st1" d="M213.3,204.6l2.5,0.4c-0.3,0.9-0.8,1.6-1.5,2.1c-0.7,0.5-1.6,0.7-2.6,0.7c-1.7,0-2.9-0.5-3.7-1.6
				c-0.6-0.9-0.9-2-0.9-3.3c0-1.6,0.4-2.8,1.2-3.7c0.8-0.9,1.9-1.3,3.1-1.3c1.4,0,2.6,0.5,3.4,1.4c0.8,0.9,1.2,2.4,1.2,4.3h-6.4
				c0,0.8,0.2,1.3,0.6,1.8c0.4,0.4,0.9,0.6,1.5,0.6c0.4,0,0.7-0.1,1-0.3C213,205.4,213.2,205,213.3,204.6z M213.5,202
				c0-0.7-0.2-1.3-0.6-1.7s-0.8-0.6-1.3-0.6c-0.6,0-1,0.2-1.4,0.6c-0.4,0.4-0.5,1-0.5,1.6H213.5z"/>
			<path class="st1" d="M222.5,203.3l2.6-0.3c0.2,0.9,0.5,1.5,1,1.9s1.1,0.6,1.9,0.6c0.9,0,1.5-0.2,1.9-0.5c0.4-0.4,0.7-0.8,0.7-1.3
				c0-0.3-0.1-0.6-0.3-0.8c-0.2-0.2-0.5-0.4-1-0.6c-0.3-0.1-1-0.3-2.1-0.6c-1.4-0.4-2.4-0.8-3-1.3c-0.8-0.7-1.2-1.6-1.2-2.7
				c0-0.7,0.2-1.3,0.6-1.9s0.9-1,1.7-1.3c0.7-0.3,1.6-0.5,2.6-0.5c1.7,0,2.9,0.4,3.8,1.1c0.8,0.7,1.3,1.7,1.3,2.9l-2.7,0.1
				c-0.1-0.7-0.4-1.2-0.7-1.5c-0.4-0.3-0.9-0.4-1.7-0.4c-0.8,0-1.4,0.2-1.8,0.5c-0.3,0.2-0.4,0.5-0.4,0.8c0,0.3,0.1,0.6,0.4,0.8
				c0.3,0.3,1.2,0.6,2.5,0.9c1.3,0.3,2.3,0.6,2.9,1c0.6,0.3,1.1,0.8,1.5,1.3s0.5,1.3,0.5,2.1c0,0.8-0.2,1.5-0.6,2.1
				c-0.4,0.7-1,1.2-1.8,1.5c-0.8,0.3-1.7,0.5-2.9,0.5c-1.7,0-3-0.4-3.9-1.2C223.2,205.9,222.6,204.8,222.5,203.3z"/>
			<path class="st1" d="M239.8,198v2h-1.7v3.9c0,0.8,0,1.2,0,1.4s0.1,0.2,0.2,0.3c0.1,0.1,0.3,0.1,0.4,0.1c0.2,0,0.6-0.1,1-0.2
				l0.2,2c-0.6,0.3-1.3,0.4-2,0.4c-0.5,0-0.9-0.1-1.2-0.2c-0.4-0.2-0.6-0.4-0.8-0.6c-0.2-0.2-0.3-0.6-0.4-1
				c-0.1-0.3-0.1-0.9-0.1-1.8V200h-1.2v-2h1.2v-1.9l2.5-1.5v3.4H239.8z"/>
			<path class="st1" d="M247.8,207.6v-1.4c-0.3,0.5-0.8,0.9-1.4,1.2c-0.6,0.3-1.2,0.4-1.8,0.4c-0.6,0-1.2-0.1-1.7-0.4
				c-0.5-0.3-0.9-0.7-1.1-1.2c-0.2-0.5-0.3-1.2-0.3-2.1V198h2.5v4.4c0,1.3,0,2.2,0.1,2.5c0.1,0.3,0.3,0.5,0.5,0.7s0.6,0.3,0.9,0.3
				c0.4,0,0.8-0.1,1.2-0.4c0.3-0.2,0.6-0.5,0.7-0.9c0.1-0.4,0.2-1.2,0.2-2.6v-4h2.5v9.6H247.8z"/>
			<path class="st1" d="M261.6,207.6h-2.4v-1.4c-0.4,0.5-0.9,1-1.4,1.2c-0.5,0.3-1.1,0.4-1.6,0.4c-1.1,0-2-0.4-2.8-1.3
				c-0.8-0.9-1.2-2.1-1.2-3.7c0-1.6,0.4-2.9,1.1-3.7c0.8-0.8,1.7-1.3,2.9-1.3c1.1,0,2,0.4,2.8,1.3v-4.8h2.5V207.6z M254.8,202.6
				c0,1,0.1,1.8,0.4,2.2c0.4,0.7,1,1,1.7,1c0.6,0,1.1-0.2,1.5-0.7c0.4-0.5,0.6-1.2,0.6-2.2c0-1.1-0.2-1.9-0.6-2.4
				c-0.4-0.5-0.9-0.7-1.5-0.7c-0.6,0-1.1,0.2-1.5,0.7C255,200.9,254.8,201.7,254.8,202.6z"/>
			<path class="st1" d="M264,196.7v-2.3h2.5v2.3H264z M264,207.6V198h2.5v9.6H264z"/>
			<path class="st1" d="M274.7,204.6l2.5,0.4c-0.3,0.9-0.8,1.6-1.5,2.1c-0.7,0.5-1.6,0.7-2.6,0.7c-1.7,0-2.9-0.5-3.7-1.6
				c-0.6-0.9-0.9-2-0.9-3.3c0-1.6,0.4-2.8,1.2-3.7c0.8-0.9,1.9-1.3,3.1-1.3c1.4,0,2.6,0.5,3.4,1.4c0.8,0.9,1.2,2.4,1.2,4.3H271
				c0,0.8,0.2,1.3,0.6,1.8c0.4,0.4,0.9,0.6,1.5,0.6c0.4,0,0.7-0.1,1-0.3C274.3,205.4,274.5,205,274.7,204.6z M274.8,202
				c0-0.7-0.2-1.3-0.6-1.7c-0.4-0.4-0.8-0.6-1.3-0.6c-0.6,0-1,0.2-1.4,0.6c-0.4,0.4-0.5,1-0.5,1.6H274.8z"/>
			<path class="st1" d="M288.1,207.6h-2.5v-4.9c0-1-0.1-1.7-0.2-2s-0.3-0.5-0.5-0.7c-0.2-0.2-0.5-0.3-0.9-0.3
				c-0.4,0-0.8,0.1-1.2,0.4c-0.3,0.2-0.6,0.6-0.7,1c-0.1,0.4-0.2,1.1-0.2,2.2v4.3h-2.5V198h2.4v1.4c0.8-1.1,1.9-1.6,3.2-1.6
				c0.6,0,1.1,0.1,1.5,0.3c0.5,0.2,0.8,0.5,1.1,0.8c0.2,0.3,0.4,0.7,0.5,1.1c0.1,0.4,0.1,1,0.1,1.7V207.6z"/>
		</g>
	</g>
</g>
</svg>
