<?xml version="1.0" encoding="utf-8"?>
<!-- Generator: Adobe Illustrator 25.0.1, SVG Export Plug-In . SVG Version: 6.00 Build 0)  -->
<svg version="1.1" id="Ebene_1" xmlns="http://www.w3.org/2000/svg" xmlns:xlink="http://www.w3.org/1999/xlink" x="0px" y="0px"
	 viewBox="0 0 320 320" style="enable-background:new 0 0 320 320;" xml:space="preserve">
<style type="text/css">
	.st0{fill:#0069B4;}
</style>
<g>
	<path class="st0" d="M36.3,166.5c-3,1.1-7,2.1-11.5,2.1c-4.5,0-8.5-1-11.5-2.1c-0.4-0.1-0.8,0.2-0.8,0.6V194c0,0.3,0.1,0.5,0.3,0.6
		c2.4,1.1,6.8,2.8,12,2.8c5.1,0,9.5-1.7,12-2.8c0.2-0.1,0.3-0.3,0.3-0.6v-26.8C37.1,166.7,36.7,166.4,36.3,166.5"/>
	<path class="st0" d="M72.3,197.3c3-1.1,7-2.1,11.5-2.1c4.5,0,8.5,1,11.5,2.1c0.4,0.1,0.8-0.2,0.8-0.6v-26.8c0-0.3-0.1-0.5-0.3-0.6
		c-2.4-1.1-6.8-2.8-12-2.8c-5.1,0-9.5,1.7-12,2.8c-0.2,0.1-0.3,0.3-0.3,0.6v26.8C71.5,197.1,71.9,197.4,72.3,197.3"/>
	<path class="st0" d="M42.8,197.3c3-1.1,7-2.1,11.5-2.1c4.5,0,8.5,1,11.5,2.1c0.4,0.1,0.8-0.2,0.8-0.6v-26.8c0-0.3-0.1-0.5-0.3-0.6
		c-2.4-1.1-6.8-2.8-12-2.8c-5.1,0-9.5,1.7-12,2.8c-0.2,0.1-0.3,0.3-0.3,0.6v26.8C42,197.1,42.4,197.4,42.8,197.3"/>
	<path class="st0" d="M36.3,132.5c-3,1.1-7,2.1-11.5,2.1c-4.5,0-8.5-1-11.5-2.1c-0.4-0.1-0.8,0.2-0.8,0.6v26.8
		c0,0.3,0.1,0.5,0.3,0.6c2.4,1.1,6.8,2.8,12,2.8c5.1,0,9.5-1.7,12-2.8c0.2-0.1,0.3-0.3,0.3-0.6v-26.8
		C37.1,132.6,36.7,132.3,36.3,132.5"/>
	<path class="st0" d="M72.3,163.2c3-1.1,7-2.1,11.5-2.1c4.5,0,8.5,1,11.5,2.1c0.4,0.1,0.8-0.2,0.8-0.6v-26.8c0-0.3-0.1-0.5-0.3-0.6
		c-2.4-1.1-6.8-2.8-12-2.8c-5.1,0-9.5,1.7-12,2.8c-0.2,0.1-0.3,0.3-0.3,0.6v26.8C71.5,163,71.9,163.3,72.3,163.2"/>
	<path class="st0" d="M42.8,163.2c3-1.1,7-2.1,11.5-2.1c4.5,0,8.5,1,11.5,2.1c0.4,0.1,0.8-0.2,0.8-0.6v-53c0-0.3-0.1-0.5-0.3-0.6
		c-2.4-1.1-6.8-2.8-12-2.8c-5.1,0-9.5,1.7-12,2.8c-0.2,0.1-0.3,0.3-0.3,0.6v53C42,163,42.4,163.3,42.8,163.2"/>
	<path class="st0" d="M307.5,150.5h-6.1V147h5.6v-4.1h-5.6v-3h6.1v-4.1h-11.2v18.8h11.2V150.5z M293.1,154.7v-4.1h-7.2v-14.7h-5.1
		v18.8H293.1z M271.1,135.8v11c0,1.4-0.2,2.3-0.7,2.9c-0.5,0.6-1.2,0.9-2.3,0.9c-1,0-1.7-0.3-2.2-0.9c-0.5-0.6-0.8-1.6-0.8-2.9v-11
		h-5.1v11.4c0,2.5,0.7,4.4,2.1,5.7c1.4,1.3,3.4,2,5.9,2c2.6,0,4.6-0.7,6-2c1.4-1.4,2.1-3.3,2.1-5.7v-11.3H271.1z M255.6,135.8h-5.1
		v7h-5.9v-7h-5.1v18.8h5.1V147h5.9v7.7h5.1V135.8z M232.6,140.1c0.7,0.2,1.4,0.5,2.1,0.8l1.6-4c-1.9-0.9-3.8-1.3-5.8-1.3
		c-1.9,0-3.5,0.4-4.9,1.2c-1.4,0.8-2.4,1.9-3.2,3.4c-0.7,1.5-1.1,3.2-1.1,5.1c0,3.1,0.8,5.5,2.3,7.1c1.5,1.6,3.7,2.5,6.5,2.5
		c2,0,3.8-0.3,5.3-1v-4.3c-0.8,0.3-1.6,0.6-2.4,0.8c-0.8,0.2-1.6,0.3-2.4,0.3c-2.8,0-4.1-1.8-4.1-5.4c0-1.7,0.3-3.1,1-4.1
		c0.7-1,1.6-1.5,2.8-1.5C231.1,139.7,231.9,139.8,232.6,140.1 M217.5,145.8c-0.6-0.8-1.8-1.6-3.4-2.3c-1.7-0.8-2.7-1.3-3.1-1.6
		c-0.4-0.3-0.6-0.6-0.6-1c0-0.3,0.2-0.6,0.5-0.9c0.3-0.2,0.8-0.3,1.4-0.3c1.3,0,2.8,0.4,4.6,1.2l1.6-3.9c-2-0.9-4-1.4-6-1.4
		c-2.2,0-3.9,0.5-5.2,1.5c-1.3,1-1.9,2.3-1.9,4.1c0,0.9,0.1,1.7,0.4,2.4c0.3,0.7,0.7,1.3,1.4,1.8c0.6,0.5,1.5,1.1,2.8,1.6
		c1.4,0.6,2.2,1,2.5,1.2c0.3,0.2,0.5,0.4,0.7,0.6c0.1,0.2,0.2,0.4,0.2,0.7c0,0.4-0.2,0.7-0.5,1c-0.4,0.3-0.9,0.4-1.7,0.4
		c-0.9,0-1.8-0.1-2.9-0.4c-1-0.3-2.1-0.7-3-1.2v4.5c0.9,0.4,1.8,0.7,2.7,0.9c0.8,0.2,1.9,0.3,3.2,0.3c1.5,0,2.8-0.3,3.9-0.8
		c1.1-0.5,2-1.2,2.6-2.1c0.6-0.9,0.9-1.9,0.9-3.1C218.5,147.7,218.2,146.6,217.5,145.8 M201.3,135.8h-5.1v7h-5.9v-7h-5.1v18.8h5.1
		V147h5.9v7.7h5.1V135.8z M178.3,140.1c0.7,0.2,1.4,0.5,2.1,0.8l1.6-4c-1.9-0.9-3.8-1.3-5.8-1.3c-1.9,0-3.5,0.4-4.9,1.2
		c-1.4,0.8-2.4,1.9-3.2,3.4c-0.7,1.5-1.1,3.2-1.1,5.1c0,3.1,0.8,5.5,2.3,7.1c1.5,1.6,3.7,2.5,6.5,2.5c2,0,3.8-0.3,5.3-1v-4.3
		c-0.8,0.3-1.6,0.6-2.4,0.8c-0.8,0.2-1.6,0.3-2.4,0.3c-2.8,0-4.1-1.8-4.1-5.4c0-1.7,0.3-3.1,1-4.1c0.7-1,1.6-1.5,2.8-1.5
		C176.9,139.7,177.6,139.8,178.3,140.1 M154.7,139.7c1.3,0,2.2,0.4,2.8,1.3c0.6,0.9,0.9,2.3,0.9,4.2c0,1.9-0.3,3.2-0.9,4.1
		c-0.6,0.9-1.6,1.3-2.9,1.3c-2.5,0-3.8-1.8-3.8-5.5C150.9,141.5,152.2,139.7,154.7,139.7 M161.5,138c-1.5-1.6-3.8-2.5-6.8-2.5
		c-3,0-5.3,0.8-6.8,2.5c-1.6,1.7-2.4,4-2.4,7.2c0,3.2,0.8,5.6,2.4,7.2c1.6,1.7,3.8,2.5,6.8,2.5c3,0,5.3-0.8,6.8-2.5
		c1.6-1.6,2.3-4.1,2.3-7.2C163.9,142,163.1,139.6,161.5,138 M141.7,135.8h-5.1v7h-5.9v-7h-5.1v18.8h5.1V147h5.9v7.7h5.1V135.8z"/>
	<path class="st0" d="M271.8,171.3c0.8-3,1.3-4.9,1.5-5.9c0.2-1,0.4-1.7,0.5-2.2c0.1,0.5,0.3,1.3,0.5,2.3c0.3,1.1,0.5,2,0.7,2.7
		l0.8,3.1H271.8z M283.3,179l-6.2-18.9h-6.8l-6.1,18.9h5.6l1-3.5h6.1l0.9,3.5H283.3z M257.3,173.5c-0.7,0.9-1.9,1.3-3.4,1.3h-1.1
		v-10.5h1.5c1.4,0,2.4,0.4,3.1,1.2c0.7,0.8,1,2.1,1,3.8C258.4,171.2,258.1,172.6,257.3,173.5 M261.2,162.5c-1.6-1.5-4-2.3-7-2.3
		h-6.5V179h6.1c3.1,0,5.6-0.8,7.3-2.5c1.7-1.7,2.6-4.1,2.6-7.3C263.7,166.2,262.9,164,261.2,162.5 M243.1,160.2H238V179h5.1V160.2z
		 M233.9,174.8h-6.1v-3.6h5.6v-4.1h-5.6v-3h6.1v-4.1h-11.2V179h11.2V174.8z M219.7,160.2h-4.9l-2.1,9.5c-0.5,2.4-0.8,4-0.9,5
		c-0.1-0.7-0.3-1.9-0.6-3.3c-0.3-1.5-0.6-2.8-0.8-4l-1.6-7.1h-4.7l-1.7,7.1c-0.2,1-0.5,2.2-0.8,3.7c-0.3,1.5-0.5,2.7-0.6,3.6
		c-0.2-1.2-0.5-2.9-1-5l-2-9.4h-4.9l4.7,18.8h6c1.1-4.9,1.7-7.7,1.9-8.4c0.1-0.7,0.3-1.5,0.5-2.3c0.2-0.8,0.3-1.5,0.3-2.1
		c0.1,0.7,0.2,1.5,0.4,2.6c0.2,1,0.3,1.7,0.4,2l1.8,8.2h6L219.7,160.2z M186.2,164.3h4.6v-4.2h-14.3v4.2h4.6V179h5.1V164.3z
		 M169.5,164.3h4.6v-4.2h-14.3v4.2h4.6V179h5.1V164.3z M156.7,160.2h-5.1V179h5.1V160.2z M138.6,179l3.8-13.5h0.1
		c-0.1,2-0.2,3.3-0.2,3.8c0,0.5,0,1,0,1.4v8.3h4.7v-18.8h-6.8l-3.8,13.4h-0.1l-3.9-13.4h-6.8V179h4.5v-8.2c0-1.3-0.1-3.1-0.3-5.4
		h0.1l3.8,13.6H138.6z"/>
	<path class="st0" d="M307.3,193.7c-0.1-0.2-0.3-0.4-0.6-0.6c-0.3-0.2-0.7-0.4-1.2-0.6c-0.7-0.3-1.1-0.5-1.3-0.6
		c-0.2-0.2-0.3-0.3-0.3-0.5c0-0.4,0.4-0.7,1.2-0.7c0.5,0,1.1,0.2,1.9,0.5l0.5-1.1c-0.7-0.3-1.5-0.5-2.3-0.5c-0.8,0-1.5,0.2-1.9,0.5
		c-0.5,0.3-0.7,0.8-0.7,1.4c0,0.5,0.1,0.9,0.4,1.2c0.3,0.3,0.8,0.6,1.6,0.9c0.4,0.2,0.7,0.3,0.9,0.4c0.2,0.1,0.4,0.2,0.5,0.4
		c0.1,0.1,0.2,0.3,0.2,0.4c0,0.5-0.5,0.8-1.4,0.8c-0.7,0-1.5-0.2-2.3-0.6v1.3c0.6,0.3,1.3,0.4,2.2,0.4c0.9,0,1.6-0.2,2.1-0.5
		c0.5-0.4,0.7-0.9,0.7-1.6C307.5,194.3,307.4,194,307.3,193.7 M299.3,191.1c0.3,0.3,0.4,0.7,0.4,1.3h-3.1c0.1-0.6,0.2-1,0.5-1.3
		c0.3-0.3,0.6-0.4,1.1-0.4C298.6,190.6,299,190.8,299.3,191.1 M299.7,196.6c0.4-0.1,0.7-0.2,1.1-0.4V195c-0.4,0.2-0.8,0.3-1.1,0.4
		c-0.4,0.1-0.7,0.1-1.1,0.1c-0.6,0-1.1-0.2-1.4-0.5c-0.3-0.4-0.5-0.9-0.5-1.5h4.6v-0.8c0-1-0.3-1.7-0.8-2.3
		c-0.5-0.6-1.2-0.8-2.2-0.8c-1,0-1.7,0.3-2.3,1c-0.6,0.6-0.8,1.5-0.8,2.7c0,1.1,0.3,2,0.9,2.6c0.6,0.6,1.4,0.9,2.5,0.9
		C298.9,196.7,299.3,196.6,299.7,196.6 M293.1,196.6c0.3-0.1,0.6-0.2,0.8-0.3V195c-0.6,0.3-1.2,0.5-1.9,0.5c-0.6,0-1-0.2-1.3-0.6
		c-0.3-0.4-0.5-1-0.5-1.7c0-1.6,0.6-2.4,1.8-2.4c0.4,0,0.9,0.1,1.5,0.4l0.5-1.2c-0.6-0.3-1.2-0.4-2-0.4c-1.1,0-1.9,0.3-2.5,0.9
		c-0.6,0.6-0.8,1.5-0.8,2.7c0,1.1,0.3,2,0.8,2.6c0.5,0.6,1.3,0.9,2.4,0.9C292.4,196.7,292.8,196.6,293.1,196.6 M287.2,192.1
		c0-1.7-0.8-2.5-2.5-2.5c-0.5,0-0.9,0.1-1.3,0.3c-0.4,0.2-0.7,0.4-0.9,0.8h-0.1l-0.2-0.9h-1.1v6.9h1.5v-3.4c0-0.9,0.2-1.5,0.4-1.8
		c0.3-0.4,0.7-0.5,1.4-0.5c0.5,0,0.8,0.1,1,0.4c0.2,0.3,0.3,0.7,0.3,1.2v4.2h1.5V192.1z M277.6,191.1c0.3,0.3,0.4,0.7,0.4,1.3h-3.1
		c0.1-0.6,0.2-1,0.5-1.3c0.3-0.3,0.6-0.4,1.1-0.4C276.9,190.6,277.3,190.8,277.6,191.1 M278,196.6c0.4-0.1,0.7-0.2,1.1-0.4V195
		c-0.4,0.2-0.8,0.3-1.1,0.4c-0.3,0.1-0.7,0.1-1.1,0.1c-0.6,0-1.1-0.2-1.4-0.5c-0.3-0.4-0.5-0.9-0.5-1.5h4.6v-0.8
		c0-1-0.3-1.7-0.8-2.3c-0.5-0.6-1.2-0.8-2.2-0.8c-1,0-1.7,0.3-2.3,1c-0.6,0.6-0.8,1.5-0.8,2.7c0,1.1,0.3,2,0.9,2.6
		c0.6,0.6,1.4,0.9,2.5,0.9C277.2,196.7,277.6,196.6,278,196.6 M270.3,188.4c0.2,0.1,0.3,0.2,0.6,0.2c0.3,0,0.5-0.1,0.6-0.2
		c0.2-0.1,0.2-0.3,0.2-0.6c0-0.3-0.1-0.5-0.2-0.6c-0.1-0.1-0.3-0.2-0.6-0.2c-0.3,0-0.5,0.1-0.6,0.2c-0.1,0.1-0.2,0.3-0.2,0.6
		C270.1,188.1,270.2,188.3,270.3,188.4 M271.7,189.7h-1.5v6.9h1.5V189.7z M267.8,196.6c0.3-0.1,0.6-0.2,0.8-0.3V195
		c-0.6,0.3-1.2,0.5-1.8,0.5c-0.6,0-1-0.2-1.3-0.6c-0.3-0.4-0.5-1-0.5-1.7c0-1.6,0.6-2.4,1.8-2.4c0.4,0,0.9,0.1,1.5,0.4l0.4-1.2
		c-0.6-0.3-1.2-0.4-2-0.4c-1.1,0-1.9,0.3-2.5,0.9c-0.6,0.6-0.9,1.5-0.9,2.7c0,1.1,0.3,2,0.8,2.6c0.5,0.6,1.3,0.9,2.4,0.9
		C267.2,196.7,267.5,196.6,267.8,196.6 M262,193c-0.1-0.3-0.4-0.6-0.7-0.8c-0.3-0.2-0.8-0.5-1.5-0.8c-0.6-0.2-1-0.4-1.2-0.6
		c-0.2-0.1-0.4-0.3-0.5-0.5s-0.1-0.4-0.1-0.6c0-0.3,0.1-0.6,0.4-0.8c0.3-0.2,0.6-0.3,1.1-0.3c0.6,0,1.4,0.2,2.2,0.5l0.5-1.2
		c-0.9-0.4-1.7-0.6-2.6-0.6c-0.9,0-1.6,0.2-2.2,0.7c-0.5,0.4-0.8,1-0.8,1.8c0,0.6,0.2,1.1,0.5,1.6c0.3,0.4,0.9,0.8,1.8,1.2
		c0.8,0.3,1.3,0.6,1.6,0.8c0.3,0.2,0.4,0.5,0.4,0.9c0,0.4-0.1,0.7-0.4,0.9c-0.3,0.2-0.7,0.3-1.3,0.3c-0.4,0-0.8-0.1-1.3-0.2
		c-0.5-0.1-0.9-0.3-1.3-0.5v1.4c0.7,0.3,1.5,0.5,2.5,0.5c1,0,1.8-0.2,2.4-0.7c0.6-0.5,0.9-1.1,0.9-1.9
		C262.2,193.7,262.2,193.3,262,193 M247.4,194.9c-0.3-0.4-0.4-1-0.4-1.8c0-0.8,0.1-1.4,0.4-1.8c0.3-0.4,0.7-0.6,1.2-0.6
		c0.6,0,1.1,0.2,1.3,0.5c0.3,0.4,0.4,1,0.4,1.9v0.2c0,0.8-0.2,1.3-0.4,1.6c-0.3,0.3-0.7,0.5-1.3,0.5
		C248.1,195.5,247.7,195.3,247.4,194.9 M250.3,195.6L250.3,195.6l0.3,0.9h1.1v-9.7h-1.5v2.5c0,0.3,0,0.7,0.1,1.2h-0.1
		c-0.5-0.7-1.2-1-2.1-1c-0.9,0-1.6,0.3-2,0.9c-0.5,0.6-0.7,1.5-0.7,2.6c0,1.1,0.2,2,0.7,2.6c0.5,0.6,1.2,0.9,2,0.9
		C249.1,196.7,249.8,196.3,250.3,195.6 M242.3,191.1c0.3,0.3,0.4,0.7,0.4,1.3h-3.1c0.1-0.6,0.2-1,0.5-1.3c0.3-0.3,0.6-0.4,1.1-0.4
		C241.7,190.6,242,190.8,242.3,191.1 M242.7,196.6c0.4-0.1,0.7-0.2,1.1-0.4V195c-0.4,0.2-0.8,0.3-1.1,0.4c-0.3,0.1-0.7,0.1-1.1,0.1
		c-0.6,0-1.1-0.2-1.4-0.5c-0.3-0.4-0.5-0.9-0.5-1.5h4.6v-0.8c0-1-0.3-1.7-0.8-2.3c-0.5-0.6-1.2-0.8-2.2-0.8c-1,0-1.8,0.3-2.3,1
		c-0.6,0.6-0.8,1.5-0.8,2.7c0,1.1,0.3,2,0.9,2.6c0.6,0.6,1.4,0.9,2.5,0.9C241.9,196.7,242.3,196.6,242.7,196.6 M235,188.4
		c0.2,0.1,0.3,0.2,0.6,0.2c0.3,0,0.5-0.1,0.6-0.2c0.2-0.1,0.2-0.3,0.2-0.6c0-0.3-0.1-0.5-0.2-0.6c-0.1-0.1-0.3-0.2-0.6-0.2
		c-0.3,0-0.5,0.1-0.6,0.2c-0.1,0.1-0.2,0.3-0.2,0.6C234.8,188.1,234.9,188.3,235,188.4 M236.4,189.7h-1.5v6.9h1.5V189.7z
		 M232.9,186.9h-1.5v9.7h1.5V186.9z M227.8,191.3c0.3,0.4,0.4,1,0.4,1.8c0,0.8-0.1,1.4-0.4,1.8c-0.3,0.4-0.7,0.6-1.2,0.6
		c-0.6,0-1-0.2-1.3-0.6c-0.3-0.4-0.4-1-0.4-1.8v-0.2c0-0.7,0.1-1.3,0.4-1.6c0.3-0.3,0.7-0.5,1.3-0.5
		C227.1,190.7,227.5,190.9,227.8,191.3 M229,195.7c0.5-0.6,0.7-1.5,0.7-2.6c0-1.1-0.2-2-0.7-2.6c-0.5-0.6-1.1-0.9-2-0.9
		c-0.9,0-1.6,0.3-2.1,1h-0.1c-0.1-0.5-0.2-0.8-0.2-0.9h-1.2v10h1.5v-2.8c0-0.1,0-0.5-0.1-1.1h0.1c0.5,0.6,1.2,0.9,2,0.9
		S228.5,196.4,229,195.7 M219.8,191.3c0.3,0.4,0.4,1,0.4,1.8c0,0.8-0.1,1.4-0.4,1.8c-0.3,0.4-0.7,0.6-1.2,0.6c-0.6,0-1-0.2-1.3-0.6
		c-0.3-0.4-0.4-1-0.4-1.8v-0.2c0-0.7,0.1-1.3,0.4-1.6c0.3-0.3,0.7-0.5,1.3-0.5C219.1,190.7,219.5,190.9,219.8,191.3 M221,195.7
		c0.5-0.6,0.7-1.5,0.7-2.6c0-1.1-0.2-2-0.7-2.6c-0.5-0.6-1.2-0.9-2-0.9c-0.9,0-1.6,0.3-2.1,1h-0.1c-0.1-0.5-0.2-0.8-0.2-0.9h-1.2v10
		h1.5v-2.8c0-0.1,0-0.5-0.1-1.1h0.1c0.5,0.6,1.2,0.9,2,0.9C219.8,196.7,220.5,196.4,221,195.7 M208.7,192.7l0.8-2.4
		c0.2-0.6,0.4-1.2,0.5-1.7c0,0.2,0.1,0.4,0.2,0.8c0.1,0.4,0.2,0.6,0.3,0.8l0.9,2.5H208.7z M214.2,196.6l-3.4-9.2h-1.6l-3.4,9.2h1.6
		l0.9-2.5h3.5l0.9,2.5H214.2z M202.7,189.7H201v-0.4c0-0.4,0.1-0.7,0.2-0.9c0.2-0.2,0.4-0.3,0.7-0.3c0.3,0,0.7,0.1,1,0.2l0.4-1.1
		c-0.5-0.2-1-0.3-1.5-0.3c-0.8,0-1.4,0.2-1.8,0.6c-0.4,0.4-0.6,1-0.6,1.8v0.4l-1.1,0.4v0.7h1.1v5.8h1.5v-5.8h1.7V189.7z M193,191.3
		c0.3-0.4,0.7-0.6,1.3-0.6c1.2,0,1.8,0.8,1.8,2.4c0,1.6-0.6,2.4-1.7,2.4c-1.2,0-1.8-0.8-1.8-2.4C192.6,192.3,192.7,191.7,193,191.3
		 M196.7,190.5c-0.6-0.6-1.4-1-2.4-1c-1,0-1.9,0.3-2.4,0.9c-0.6,0.6-0.9,1.5-0.9,2.6c0,0.7,0.1,1.4,0.4,1.9c0.3,0.5,0.6,1,1.1,1.3
		c0.5,0.3,1.1,0.4,1.7,0.4c1,0,1.8-0.3,2.4-0.9c0.6-0.6,0.9-1.5,0.9-2.6C197.6,192,197.3,191.1,196.7,190.5 M183.4,196.6l-0.3,0.6
		c-0.3,0.8-0.8,1.2-1.5,1.2c-0.3,0-0.5,0-0.8-0.1v1.2c0.3,0.1,0.6,0.1,0.9,0.1c1.3,0,2.1-0.7,2.7-2.2l3-7.8h-1.6
		c-1,2.8-1.5,4.3-1.6,4.6c-0.1,0.3-0.2,0.6-0.2,0.8H184c-0.1-0.5-0.2-1-0.4-1.6l-1.4-3.9h-1.6L183.4,196.6z M178.1,195.2
		c-0.2-0.2-0.3-0.4-0.3-0.8v-3.7h2v-1.1h-2v-1.5h-0.9l-0.5,1.5l-1,0.5v0.6h0.9v3.7c0,1.5,0.7,2.2,2.1,2.2c0.3,0,0.5,0,0.8-0.1
		c0.3,0,0.5-0.1,0.6-0.2v-1.1c-0.4,0.1-0.7,0.2-1.1,0.2C178.5,195.5,178.2,195.4,178.1,195.2 M172.8,188.4c0.1,0.1,0.3,0.2,0.6,0.2
		c0.3,0,0.5-0.1,0.6-0.2c0.1-0.1,0.2-0.3,0.2-0.6c0-0.3-0.1-0.5-0.2-0.6c-0.1-0.1-0.3-0.2-0.6-0.2c-0.3,0-0.5,0.1-0.6,0.2
		c-0.1,0.1-0.2,0.3-0.2,0.6C172.5,188.1,172.6,188.3,172.8,188.4 M174.1,189.7h-1.5v6.9h1.5V189.7z M170.9,193.7
		c-0.1-0.2-0.3-0.4-0.6-0.6c-0.3-0.2-0.7-0.4-1.2-0.6c-0.7-0.3-1.1-0.5-1.3-0.6c-0.2-0.2-0.3-0.3-0.3-0.5c0-0.4,0.4-0.7,1.2-0.7
		c0.5,0,1.1,0.2,1.9,0.5l0.5-1.1c-0.7-0.3-1.5-0.5-2.3-0.5c-0.8,0-1.5,0.2-1.9,0.5c-0.5,0.3-0.7,0.8-0.7,1.4c0,0.5,0.1,0.9,0.4,1.2
		c0.3,0.3,0.8,0.6,1.6,0.9c0.4,0.2,0.7,0.3,1,0.4c0.2,0.1,0.4,0.2,0.5,0.4c0.1,0.1,0.1,0.3,0.1,0.4c0,0.5-0.5,0.8-1.4,0.8
		c-0.7,0-1.5-0.2-2.3-0.6v1.3c0.6,0.3,1.3,0.4,2.2,0.4c0.9,0,1.6-0.2,2.1-0.5c0.5-0.4,0.7-0.9,0.7-1.6
		C171.1,194.3,171,194,170.9,193.7 M163.1,189.9c-0.4,0.2-0.7,0.6-0.9,1h-0.1l-0.2-1.2h-1.1v6.9h1.5v-3.6c0-0.6,0.2-1.1,0.5-1.5
		c0.4-0.4,0.8-0.6,1.4-0.6c0.2,0,0.4,0,0.6,0.1l0.1-1.4c-0.2,0-0.4-0.1-0.7-0.1C163.8,189.5,163.4,189.7,163.1,189.9 M157.2,191.1
		c0.3,0.3,0.4,0.7,0.4,1.3h-3.1c0.1-0.6,0.2-1,0.5-1.3c0.3-0.3,0.7-0.4,1.1-0.4C156.6,190.6,157,190.8,157.2,191.1 M157.7,196.6
		c0.4-0.1,0.7-0.2,1.1-0.4V195c-0.4,0.2-0.8,0.3-1.1,0.4c-0.4,0.1-0.7,0.1-1.1,0.1c-0.6,0-1.1-0.2-1.4-0.5c-0.3-0.4-0.5-0.9-0.5-1.5
		h4.6v-0.8c0-1-0.3-1.7-0.8-2.3s-1.2-0.8-2.2-0.8c-1,0-1.8,0.3-2.3,1c-0.6,0.6-0.8,1.5-0.8,2.7c0,1.1,0.3,2,0.9,2.6
		c0.6,0.6,1.4,0.9,2.5,0.9C156.9,196.7,157.3,196.6,157.7,196.6 M149.8,196.6l2.6-6.9h-1.6l-1.4,4c-0.3,0.8-0.4,1.3-0.4,1.6H149
		c0-0.4-0.2-1-0.4-1.6l-1.4-4h-1.5l2.6,6.9H149.8z M143.1,188.4c0.1,0.1,0.3,0.2,0.6,0.2c0.3,0,0.5-0.1,0.6-0.2
		c0.1-0.1,0.2-0.3,0.2-0.6c0-0.3-0.1-0.5-0.2-0.6c-0.1-0.1-0.3-0.2-0.6-0.2c-0.3,0-0.5,0.1-0.6,0.2c-0.1,0.1-0.2,0.3-0.2,0.6
		C142.9,188.1,143,188.3,143.1,188.4 M144.4,189.7H143v6.9h1.5V189.7z M141,192.1c0-1.7-0.8-2.5-2.5-2.5c-0.5,0-0.9,0.1-1.3,0.3
		c-0.4,0.2-0.7,0.4-0.9,0.8h-0.1l-0.2-0.9h-1.1v6.9h1.5v-3.4c0-0.9,0.1-1.5,0.4-1.8c0.3-0.4,0.7-0.5,1.4-0.5c0.5,0,0.8,0.1,1,0.4
		c0.2,0.3,0.3,0.7,0.3,1.2v4.2h1.5V192.1z M131.3,187.4v5.8c0,1.5-0.7,2.2-2.1,2.2c-0.7,0-1.3-0.2-1.6-0.5c-0.3-0.4-0.5-0.9-0.5-1.7
		v-5.8h-1.5v5.9c0,1,0.3,1.9,0.9,2.5c0.6,0.6,1.5,0.9,2.6,0.9c0.8,0,1.4-0.1,2-0.4c0.5-0.3,1-0.7,1.3-1.2c0.3-0.5,0.4-1.1,0.4-1.8
		v-5.9H131.3z"/>
</g>
</svg>
