<?xml version="1.0" encoding="utf-8"?>
<!-- Generator: Adobe Illustrator 25.0.1, SVG Export Plug-In . SVG Version: 6.00 Build 0)  -->
<svg version="1.1" xmlns="http://www.w3.org/2000/svg" xmlns:xlink="http://www.w3.org/1999/xlink" x="0px" y="0px"
	 viewBox="0 0 320 320" style="enable-background:new 0 0 320 320;" xml:space="preserve">
<style type="text/css">
	.st0{display:none;}
	.st1{display:inline;fill:#1488CA;}
	.st2{fill:#023B59;}
	.st3{fill:#7FBA27;}
	.st4{fill-rule:evenodd;clip-rule:evenodd;fill:#7FBA27;}
	.st5{fill-rule:evenodd;clip-rule:evenodd;fill:#023B59;}
</style>
<g id="Logo">
</g>
<g id="Englisch" class="st0">
	<path class="st1" d="M24.7,331.4c0,1.9,0.1,4.7,2,4.7c1.6,0,1.9-1.5,1.9-2.8h4.5c-0.1,1.7-0.6,3.2-1.7,4.1c-1,1-2.6,1.5-4.7,1.5
		c-5.8,0-6.5-3.5-6.5-8.5c0-4.4,0.6-8.1,6.5-8.1c6,0,6.7,3.9,6.5,9H24.7z M28.8,328.9c0-1.5,0.1-3.8-2.1-3.8c-2.1,0-2,2.4-2,3.8
		H28.8z"/>
	<path class="st1" d="M40.7,319.3h-4.5v-3.5h4.5V319.3z M40.7,338.7h-4.5v-16h4.5V338.7z"/>
	<path class="st1" d="M44.2,315.8h4.5v8.4h0.1c0.9-1.4,2-1.8,3.6-1.8c4.5,0,4.4,5,4.4,8.2c0,3.3,0.2,8.4-4.5,8.4
		c-1.7,0-2.9-0.5-3.8-2.1h-0.1v1.8h-4.2V315.8z M52.3,330.5c0-3.2,0-5.4-1.9-5.4c-1.8,0-1.8,2.2-1.8,5.4c0,4,0.3,5.7,1.8,5.7
		C52.1,336.2,52.3,334.6,52.3,330.5"/>
	<path class="st1" d="M63.9,324.3L63.9,324.3c0.5-0.7,1-1.2,1.6-1.5c0.6-0.3,1.4-0.4,2.2-0.4c2.1,0,4,1.3,4,3.5v12.8h-4.5v-11
		c0-1.4-0.3-2.5-1.7-2.5c-1.4,0-1.7,1.1-1.7,2.5v11h-4.5v-16h4.5V324.3z"/>
	<path class="st1" d="M79.6,319.3h-4.5v-3.5h4.5V319.3z M79.6,338.7h-4.5v-16h4.5V338.7z"/>
	<polygon class="st1" points="92.8,325.9 86.4,335.8 92.9,335.8 92.9,338.7 82,338.7 82,335.5 88.3,325.5 82.3,325.5 82.3,322.7 
		92.8,322.7 	"/>
	<rect x="101.6" y="315.8" class="st1" width="4.8" height="22.8"/>
	<path class="st1" d="M114.1,324.3L114.1,324.3c0.5-0.7,1-1.2,1.6-1.5c0.6-0.3,1.4-0.4,2.2-0.4c2.1,0,4,1.3,4,3.5v12.8h-4.5v-11
		c0-1.4-0.3-2.5-1.7-2.5c-1.4,0-1.7,1.1-1.7,2.5v11h-4.5v-16h4.5V324.3z"/>
	<path class="st1" d="M128.5,333.5c0,0.7,0,1.4,0.2,1.9c0.3,0.5,0.7,0.8,1.6,0.8c0.9,0,1.6-0.6,1.6-1.6c0-3.4-7.8-2.6-7.8-7.7
		c0-3.4,3.4-4.5,6.3-4.5c3,0,5.8,1.5,5.5,4.9h-4.4c0-1.1-0.1-1.8-0.4-2.1c-0.3-0.3-0.7-0.3-1.1-0.3c-1,0-1.5,0.6-1.5,1.7
		c0,2.5,7.8,2.4,7.8,7.5c0,2.8-2.3,4.9-6,4.9c-3.9,0-6.5-1-6.2-5.4H128.5z"/>
	<path class="st1" d="M136.7,322.7h1.8v-2.5l4.5-2v4.5h2.3v2.8H143v8.5c0,1.2,0,2,1.4,2c0.3,0,0.6,0,0.8-0.1v2.8
		c-0.6,0.1-1.2,0.2-2.3,0.2c-3.9,0-4.4-2.6-4.4-3.5v-9.8h-1.8V322.7z"/>
	<path class="st1" d="M151.7,319.3h-4.5v-3.5h4.5V319.3z M151.7,338.7h-4.5v-16h4.5V338.7z"/>
	<path class="st1" d="M153.3,322.7h1.8v-2.5l4.5-2v4.5h2.3v2.8h-2.3v8.5c0,1.2,0,2,1.4,2c0.3,0,0.6,0,0.8-0.1v2.8
		c-0.6,0.1-1.2,0.2-2.3,0.2c-3.9,0-4.4-2.6-4.4-3.5v-9.8h-1.8V322.7z"/>
	<path class="st1" d="M171.2,337.1L171.2,337.1c-0.5,0.7-1,1.2-1.6,1.5c-0.6,0.3-1.3,0.4-2.2,0.4c-2.1,0-4-1.3-4-3.5v-12.8h4.5v11.1
		c0,1.4,0.3,2.5,1.7,2.5c1.4,0,1.7-1,1.7-2.5v-11.1h4.5v12.8c0,1,0.1,2.1,0.2,3.2h-4.6V337.1z"/>
	<path class="st1" d="M176.9,322.7h1.8v-2.5l4.5-2v4.5h2.3v2.8h-2.3v8.5c0,1.2,0,2,1.4,2c0.3,0,0.6,0,0.8-0.1v2.8
		c-0.6,0.1-1.2,0.2-2.3,0.2c-3.9,0-4.4-2.6-4.4-3.5v-9.8h-1.8V322.7z"/>
	<path class="st1" d="M191.1,331.4c0,1.9,0.1,4.7,2,4.7c1.6,0,1.9-1.5,1.9-2.8h4.5c-0.1,1.7-0.6,3.2-1.7,4.1c-1,1-2.6,1.5-4.7,1.5
		c-5.8,0-6.5-3.5-6.5-8.5c0-4.4,0.6-8.1,6.5-8.1c6,0,6.7,3.9,6.5,9H191.1z M195.2,328.9c0-1.5,0.1-3.8-2.1-3.8c-2.1,0-2,2.4-2,3.8
		H195.2z"/>
	<path class="st1" d="M8.4,359.9H5.9v-1.5h2.6v-2.7c0-1.5,0.2-4.3,4.1-4.3c0.3,0,0.6,0.1,1.1,0.1v1.6h-1.4c-1.8,0-1.8,1.6-1.8,2.6
		v2.7h3.2v1.5h-3.2v14.5H8.4V359.9z"/>
	<path class="st1" d="M15.4,368.1v-3.4c0-4.1,1.8-6.6,5.5-6.6c3.7,0,5.5,2.4,5.5,6.6v3.4c0,4.1-1.8,6.6-5.5,6.6
		C17.2,374.7,15.4,372.2,15.4,368.1 M17.3,366.3c0,4.2,0.5,6.8,3.6,6.8c3.1,0,3.6-2.6,3.6-6.8c0-4.1-0.5-6.8-3.6-6.8
		C17.8,359.6,17.3,362.2,17.3,366.3"/>
	<path class="st1" d="M31.7,360.5L31.7,360.5c0.9-1.5,2.5-2.5,4.5-2.5v1.9c-2.7-0.2-4.5,1.4-4.5,4.1v10.3h-1.9v-16h1.9V360.5z"/>
	<path class="st1" d="M45.3,351.5h6.3c1.9,0,5,0.3,5,5.5c0,4.6-1.5,6.7-5.4,6.7h-3.9v10.6h-2V351.5z M47.3,362h3.8
		c2.1,0,3.5-1,3.5-4.6c0-3.9-1.7-4.2-3.5-4.2h-3.7V362z"/>
	<path class="st1" d="M61.1,360.5L61.1,360.5c0.9-1.5,2.5-2.5,4.5-2.5v1.9c-2.7-0.2-4.5,1.4-4.5,4.1v10.3h-1.9v-16h1.9V360.5z"/>
	<path class="st1" d="M69.2,366.8v1.2c0,2.2,0.6,5.2,3.6,5.2c2.4,0,3.5-1.5,3.5-3.7h2c-0.2,3.9-2.3,5.2-5.5,5.2
		c-2.8,0-5.5-1.1-5.5-5.9v-3.9c0-4.6,1.9-6.7,5.5-6.7c5.5,0,5.5,4,5.5,8.7H69.2z M76.4,365.2c0-3.5-0.6-5.7-3.6-5.7
		c-3,0-3.6,2.1-3.6,5.7H76.4z"/>
	<polygon class="st1" points="85.9,371.9 86,371.9 89.9,358.4 91.7,358.4 86.9,374.3 84.8,374.3 80,358.4 82.1,358.4 	"/>
	<path class="st1" d="M95.3,366.8v1.2c0,2.2,0.6,5.2,3.6,5.2c2.4,0,3.5-1.5,3.5-3.7h2c-0.2,3.9-2.3,5.2-5.5,5.2
		c-2.8,0-5.5-1.1-5.5-5.9v-3.9c0-4.6,1.9-6.7,5.5-6.7c5.5,0,5.5,4,5.5,8.7H95.3z M102.5,365.2c0-3.5-0.6-5.7-3.6-5.7
		c-3,0-3.6,2.1-3.6,5.7H102.5z"/>
	<path class="st1" d="M109.6,374.3h-1.9v-16h1.9v2h0.1c0.9-1.3,2.2-2.3,3.9-2.3c4,0,4.4,2.9,4.4,5v11.3h-1.9v-11.2
		c0-1.9-0.7-3.6-2.9-3.6c-1.7,0-3.4,1.2-3.4,4.7V374.3z"/>
	<path class="st1" d="M120.1,359.9v-1.5h2.6v-3.3l1.9-0.8v4.1h3.2v1.5h-3.2v10.2c0,2.1,0.2,2.6,1.7,2.6c0.6,0,1.1,0,1.5-0.1v1.6
		c-0.6,0.1-1.2,0.1-1.8,0.1c-2.6,0-3.3-1.1-3.3-3.1v-11.4H120.1z"/>
	<path class="st1" d="M130.6,351.5h2.3v2.4h-2.3V351.5z M130.8,374.3 M130.8,358.4h1.9v16h-1.9V358.4z"/>
	<path class="st1" d="M136.6,368.1v-3.4c0-4.1,1.8-6.6,5.5-6.6c3.7,0,5.5,2.4,5.5,6.6v3.4c0,4.1-1.8,6.6-5.5,6.6
		C138.4,374.7,136.6,372.2,136.6,368.1 M138.5,366.3c0,4.2,0.5,6.8,3.6,6.8c3.1,0,3.6-2.6,3.6-6.8c0-4.1-0.5-6.8-3.6-6.8
		C139,359.6,138.5,362.2,138.5,366.3"/>
	<path class="st1" d="M152.8,374.3h-1.9v-16h1.9v2h0.1c0.9-1.3,2.2-2.3,3.9-2.3c4,0,4.4,2.9,4.4,5v11.3h-1.9v-11.2
		c0-1.9-0.7-3.6-2.9-3.6c-1.7,0-3.4,1.2-3.4,4.7V374.3z"/>
	<path class="st1" d="M173.9,363.3v11.1h-2v-22.8h6.3c4.4,0,5.5,1.5,5.5,5.5c0,2.8-0.5,4.7-3.5,5.4v0.1c3.2,0.7,3.4,1,3.4,9.2
		c0,0.9,0.2,1.8,0.2,2.7h-1.9c-0.2-0.7-0.3-4.5-0.3-5.7c0-1,0.6-5.4-3.8-5.4H173.9z M173.9,361.6h3.3c3,0,4.5-0.8,4.5-4.6
		c0-3.1-1.2-3.7-3.6-3.7h-4.1V361.6z"/>
	<path class="st1" d="M188.8,366.8v1.2c0,2.2,0.6,5.2,3.6,5.2c2.4,0,3.5-1.5,3.5-3.7h2c-0.2,3.9-2.3,5.2-5.5,5.2
		c-2.8,0-5.5-1.1-5.5-5.9v-3.9c0-4.6,1.9-6.7,5.5-6.7c5.5,0,5.5,4,5.5,8.7H188.8z M196,365.2c0-3.5-0.6-5.7-3.6-5.7
		c-3,0-3.6,2.1-3.6,5.7H196z"/>
	<path class="st1" d="M205.4,374.7c-3.4,0-4.8-1.7-4.8-5.1h1.9c0,2.2,0.5,3.6,2.9,3.6c1.8,0,2.7-1,2.7-2.8c0-4.2-7.2-3.1-7.2-8.4
		c0-2.9,2-4,4.8-4c3.2,0,4.2,2.2,4.2,4.6h-1.9c-0.1-2-0.6-3.1-2.8-3.1c-1.4,0-2.4,0.9-2.4,2.3c0,4,7.2,2.9,7.2,8.3
		C210.2,373.1,208.4,374.7,205.4,374.7"/>
	<path class="st1" d="M214.8,366.8v1.2c0,2.2,0.6,5.2,3.6,5.2c2.4,0,3.5-1.5,3.5-3.7h2c-0.2,3.9-2.3,5.2-5.5,5.2
		c-2.8,0-5.5-1.1-5.5-5.9v-3.9c0-4.6,1.9-6.7,5.5-6.7c5.5,0,5.5,4,5.5,8.7H214.8z M222.1,365.2c0-3.5-0.6-5.7-3.6-5.7
		c-3,0-3.6,2.1-3.6,5.7H222.1z"/>
	<path class="st1" d="M235.5,372.4L235.5,372.4c-1.1,1.5-2.6,2.3-4.6,2.3c-2.8,0-4.4-1.9-4.4-4.7c0-5.6,5.6-5,8.9-5.3v-1.3
		c0-2.3-0.7-3.8-3.2-3.8c-1.7,0-3.1,0.9-3.1,2.8h-2c0.2-3.1,2.5-4.3,5.3-4.3c1.6,0,5,0.2,5,4.2v8c0,1.1,0,2.2,0.2,4h-2V372.4z
		 M235.4,366.2c-2.7,0.1-6.8-0.2-6.8,3.7c0,1.8,0.9,3.3,2.9,3.3c2.2,0,4-2,4-4V366.2z"/>
	<path class="st1" d="M243.2,360.5L243.2,360.5c0.9-1.5,2.5-2.5,4.5-2.5v1.9c-2.7-0.2-4.5,1.4-4.5,4.1v10.3h-1.9v-16h1.9V360.5z"/>
	<path class="st1" d="M256.9,363c0.1-2-0.6-3.4-2.8-3.4c-1.2,0-2.2,0.7-2.6,1.8c-0.3,0.7-0.4,2.9-0.4,5c0,2.9,0,6.7,2.9,6.7
		c2.5,0,2.8-1.6,2.9-3.5h1.9c0.2,4.3-2.9,5-4.4,5c-5.4,0-5.4-4.3-5.4-8.2c0-1.6,0.1-4.1,0.5-5.3c0.8-2.3,2.6-3.1,4.8-3.1
		c2.8,0,4.6,1.5,4.5,4.9H256.9z"/>
	<path class="st1" d="M261.9,374.3v-22.8h1.9v8.8h0.1c0.9-1.3,2.2-2.3,3.9-2.3c4,0,4.4,2.9,4.4,5v11.3h-1.9v-11.2
		c0-1.9-0.7-3.6-2.9-3.6c-1.7,0-3.4,1.2-3.4,4.7v10H261.9z"/>
	<path class="st1" d="M290.9,372.4L290.9,372.4c-1.1,1.5-2.6,2.3-4.6,2.3c-2.8,0-4.4-1.9-4.4-4.7c0-5.6,5.6-5,8.9-5.3v-1.3
		c0-2.3-0.7-3.8-3.2-3.8c-1.7,0-3.1,0.9-3.1,2.8h-2c0.2-3.1,2.5-4.3,5.3-4.3c1.6,0,5,0.2,5,4.2v8c0,1.1,0,2.2,0.2,4h-2V372.4z
		 M290.8,366.2c-2.7,0.1-6.8-0.2-6.8,3.7c0,1.8,0.9,3.3,2.9,3.3c2.2,0,4-2,4-4V366.2z"/>
	<path class="st1" d="M298.4,374.3h-1.9v-16h1.9v2h0.1c0.9-1.3,2.2-2.3,3.9-2.3c4,0,4.4,2.9,4.4,5v11.3h-1.9v-11.2
		c0-1.9-0.7-3.6-2.9-3.6c-1.7,0-3.4,1.2-3.4,4.7V374.3z"/>
	<path class="st1" d="M318.8,372.3L318.8,372.3c-1,1.5-2.2,2.3-4.1,2.3c-4.6,0-4.9-4.6-4.9-8.3c0-3.1,0-8.3,4.9-8.3
		c1.5,0,2.9,0.7,3.9,1.9l0.1,0v-8.5h1.9v19.7c0,1.6,0.1,2.6,0.2,3.2h-1.8L318.8,372.3z M318.7,367.8v-2.8c0-0.9,0-5.4-3.6-5.4
		c-3.4,0-3.4,3.1-3.4,6.8c0,5.9,1.4,6.7,3.5,6.7C317,373.1,318.7,371.7,318.7,367.8"/>
	<polygon class="st1" points="18,387.2 18,388.9 9.7,388.9 9.7,397.4 17.6,397.4 17.6,399.1 9.7,399.1 9.7,408.3 18.2,408.3 
		18.2,410 7.6,410 7.6,387.2 	"/>
	<path class="st1" d="M22.8,396L22.8,396c1.1-1.6,2.7-2.2,3.9-2.2c5,0,5,4.4,5,6.5v3.6c0,4.1-1.4,6.6-5.5,6.6
		c-1.2,0-2.3-0.6-3.3-2.1l-0.1,0v7.8h-1.9v-22h1.8V396z M22.8,403.4c0,3.6,1.6,5.4,3.4,5.4c3.1,0,3.6-2.6,3.6-6.8
		c0-4.1-0.5-6.8-3.6-6.8c-1.2,0-3.4,1.4-3.4,5.3V403.4z"/>
	<path class="st1" d="M34.9,387.2h2.3v2.4h-2.3V387.2z M35.2,410 M35.2,394h1.9v16h-1.9V394z"/>
	<path class="st1" d="M49.6,408L49.6,408c-1,1.6-2.2,2.3-4.1,2.3c-4.6,0-4.9-4.6-4.9-8.3c0-3.1,0-8.3,4.9-8.3c1.5,0,2.9,0.7,3.9,1.9
		l0.1,0v-8.5h1.9v19.7c0,1.6,0.1,2.6,0.2,3.2h-1.8L49.6,408z M49.5,403.5v-2.8c0-0.9,0-5.4-3.6-5.4c-3.4,0-3.4,3.1-3.4,6.8
		c0,5.9,1.4,6.7,3.5,6.7C47.8,408.8,49.5,407.4,49.5,403.5"/>
	<path class="st1" d="M56.3,402.4v1.2c0,2.2,0.6,5.2,3.6,5.2c2.4,0,3.5-1.5,3.5-3.7h2c-0.2,3.9-2.3,5.2-5.5,5.2
		c-2.8,0-5.5-1.1-5.5-5.9v-3.9c0-4.6,1.9-6.7,5.5-6.7c5.5,0,5.5,4,5.5,8.7H56.3z M63.5,400.9c0-3.5-0.6-5.7-3.6-5.7
		c-3,0-3.6,2.1-3.6,5.7H63.5z"/>
	<path class="st1" d="M70.4,410h-1.9v-16h1.7v2h0.1c0.8-1.3,2-2.3,3.8-2.3c1.6,0,3.1,0.9,3.6,2.5c0.8-1.6,2.2-2.5,3.9-2.5
		c2.7,0,4,1.8,4.1,4.4V410h-1.9v-11.4c0-1.6-0.6-3.4-2.5-3.4c-2.4,0-3.3,2.4-3.3,4.5V410h-1.9v-11.4c0-1.6-0.6-3.4-2.5-3.4
		c-2.4,0-3.3,2.4-3.3,4.5V410z"/>
	<path class="st1" d="M89.6,387.2H92v2.4h-2.3V387.2z M89.9,410 M89.9,394h1.9v16h-1.9V394z"/>
	<path class="st1" d="M95.4,403.8v-3.4c0-4.1,1.8-6.6,5.5-6.6c3.7,0,5.5,2.4,5.5,6.6v3.4c0,4.1-1.8,6.6-5.5,6.6
		C97.2,410.3,95.4,407.9,95.4,403.8 M97.3,402c0,4.2,0.5,6.8,3.6,6.8c3.1,0,3.6-2.6,3.6-6.8c0-4.1-0.5-6.8-3.6-6.8
		C97.8,395.2,97.3,397.9,97.3,402"/>
	<rect x="110.2" y="387.2" class="st1" width="1.9" height="22.8"/>
	<path class="st1" d="M115.8,403.8v-3.4c0-4.1,1.8-6.6,5.5-6.6c3.7,0,5.5,2.4,5.5,6.6v3.4c0,4.1-1.8,6.6-5.5,6.6
		C117.5,410.3,115.8,407.9,115.8,403.8 M117.6,402c0,4.2,0.5,6.8,3.6,6.8c3.1,0,3.6-2.6,3.6-6.8c0-4.1-0.5-6.8-3.6-6.8
		C118.1,395.2,117.6,397.9,117.6,402"/>
	<path class="st1" d="M138.2,394h1.9c-0.1,1.5-0.1,2.3-0.1,3.1v13.4c0,3.5-1.1,5.6-5.6,5.6c-4,0-4.8-2.8-4.6-4.4h1.9
		c-0.1,1.8,1.2,2.9,3,2.9c3.7,0,3.5-2,3.5-6.8H138c-0.8,1.4-2.3,1.9-3.9,1.9c-4.6,0-4.9-4-4.9-7.5c0-3.7,0-3.7,0.5-5.4
		c0.2-0.7,1.3-3.2,4.5-3.2c1.6,0,3.2,0.8,3.9,2.2l0.1,0.1V394z M131.1,401.7c0,3.3,0,6.6,3.4,6.6c1.6,0,2.6-1,2.9-1.8
		c0.5-1.2,0.6-2,0.6-6.6c0-3.4-1.8-4.6-3.6-4.6C131.2,395.2,131.1,399.3,131.1,401.7"/>
	<polygon class="st1" points="146.9,410.1 141.9,394 143.9,394 147.8,407.1 147.9,407.1 151.7,394 153.5,394 146.9,416.1 
		145.1,416.1 	"/>
	<rect x="160.1" y="400.3" class="st1" width="15.8" height="1.5"/>
	<path class="st1" d="M184.4,410v-22.8h6.4c3.6,0,5.4,1.5,5.4,5.5c0,2.8-0.4,4.6-3.3,5.4v0.1c3,0.6,3.8,2.6,3.8,5.5
		c0,4.1-2,6.4-5.8,6.4H184.4z M190.3,397.3c2.9,0,3.8-2,3.8-4.6c0-3.8-2.1-3.9-3.7-3.9h-4v8.4H190.3z M186.4,408.3h3.2
		c3.4,0,5-1.1,5-4.5c0-2-0.6-4.8-4.1-4.8h-4.1V408.3z"/>
	<rect x="200.1" y="387.2" class="st1" width="2" height="22.8"/>
	<path class="st1" d="M206.3,387.2h6.3c1.9,0,5,0.3,5,5.5c0,4.6-1.5,6.7-5.4,6.7h-3.9V410h-2V387.2z M208.3,397.7h3.8
		c2.1,0,3.5-1,3.5-4.6c0-3.9-1.7-4.2-3.5-4.2h-3.7V397.7z"/>
	<path class="st1" d="M229.9,393c-0.1-2.8-0.8-4.5-3.9-4.5c-2.5,0-4,0.9-4,3.5c0,3.4,1.7,3.5,4.3,5.3c2.8,2,5.7,2.6,5.7,7.1
		c0,4.1-2.1,6.1-6.1,6.1c-4.5,0-6.5-2.4-6.3-6.9h2.1c0,2.5,0.2,5.2,4.3,5.2c2.7,0,4-1.4,4-4c0-3.1-2.1-4-5.3-6
		c-4.4-2.7-4.6-4.1-4.7-6.4c0-4,2.5-5.6,6.2-5.6c4.7,0,5.8,2.9,5.8,6.2H229.9z"/>
	<polygon class="st1" points="7.3,338.7 7.3,315.8 12.1,315.8 12.1,334.9 19.2,334.9 19.2,338.7 	"/>
</g>
<g id="Deutsch">
	<g>
		<polygon class="st2" points="75.5,140.4 69.6,140.4 69.6,167.8 75.5,167.8 75.5,153.8 75.5,153.8 85.1,167.8 92.4,167.8 
			81.5,152.6 91.5,140.4 84.7,140.4 75.5,152.2 75.5,152.2 75.5,140.4 		"/>
		<polygon class="st2" points="100.4,140.4 94.5,140.4 94.5,167.8 100.4,167.8 100.4,153.8 100.5,153.8 110.1,167.8 117.4,167.8 
			106.4,152.6 116.5,140.4 109.6,140.4 100.5,152.2 100.4,152.2 100.4,140.4 		"/>
		<path class="st2" d="M138.8,148.2c0-5.5-4.1-8.4-9.5-8.4c-5.6,0-11.4,2.8-11.4,9.1c0,4.9,5.2,6.6,9.1,7.6c2.4,0.6,6.3,0.8,6.3,4.1
			c0,2.9-3.1,3.7-5.5,3.7c-3.1,0-4.8-2.1-4.6-5.1h-6c-0.2,6.9,4.3,9.4,10.5,9.4c5.9,0,11.8-2.4,11.8-9.2c0-5.5-6.2-6.7-10.3-7.8
			c-2.4-0.6-5-0.9-5-3.9c0-2.4,2.2-3.5,4.4-3.5c2.9,0,4.3,1.4,4.6,4.1H138.8L138.8,148.2z"/>
		<polygon class="st3" points="169.6,140.4 169.6,163.1 169.6,163.1 156.2,140.4 151,140.4 151,167.8 154.3,167.8 154.3,144.5 
			154.4,144.5 168.3,167.8 173,167.8 173,140.4 169.6,140.4 		"/>
		<path class="st4" d="M193.7,159v-1.8c0-5.3-2.7-8.9-8.4-9c-6,0-8.9,4.7-8.9,10.3c0,5.6,2.4,10,8.6,10c4.6,0,7.9-2.2,8.5-6.5h-3.8
			c-0.4,2.8-1.8,3.9-4.6,3.9c-3.7,0-5.1-3.5-4.8-6.8H193.7L193.7,159z M180.2,156.4c0-3.1,1.8-5.7,4.8-5.7c3.5,0,4.9,2.5,4.9,5.7
			H180.2L180.2,156.4z"/>
		<path class="st3" d="M195.6,148.6v2.7l3.3,0v12.1c0,2.5,0.2,2.6,0.8,3.5c0.6,0.8,1.6,1.1,2.1,1.3c0.9,0.2,1.6,0.2,2.4,0.2
			c0.8,0,1.6-0.2,2.5-0.2v-2.8c-0.6,0.2-1.3,0.2-1.9,0.2c-1.3,0-2.4-0.6-2.4-2v-12.3l4.4,0v-2.7l-4.4,0.1v-5.2l-3.6,1.1v4.1
			L195.6,148.6L195.6,148.6z"/>
		<polygon class="st3" points="223.7,165.3 213.7,165.3 223.3,151.2 223.3,148.7 209.9,148.7 209.9,151.2 219.4,151.2 209.8,165.3 
			209.8,167.8 223.7,167.8 223.7,165.3 		"/>
		<polygon class="st3" points="252.7,148.7 248,163.8 247.9,163.8 243.6,148.7 238.9,148.7 234.2,164.1 234.1,164.1 229.5,148.7 
			225.6,148.7 231.9,167.8 236.1,167.8 241,152.1 241.1,152.1 245.6,167.8 249.7,167.8 256.4,148.7 252.7,148.7 		"/>
		<path class="st4" d="M274.9,159v-1.8c0-5.3-2.7-8.9-8.4-9c-6,0-8.9,4.7-8.9,10.3c0,5.6,2.4,10,8.6,10c4.6,0,7.9-2.2,8.5-6.5h-3.8
			c-0.4,2.8-1.8,3.9-4.6,3.9c-3.7,0-5.1-3.5-4.8-6.8H274.9L274.9,159z M261.4,156.4c0-3.1,1.8-5.7,4.8-5.7c3.5,0,4.9,2.5,4.9,5.7
			H261.4L261.4,156.4z"/>
		<path class="st3" d="M282.4,158.4c0-4,0.8-6.5,5.4-6.6c0.5,0,1.1,0,1.6,0.2v-3.4c-0.4,0-0.8,0-1.3,0c-2.6,0-5.1,1.3-5.6,4h-0.1
			v-3.7h-3.6v19.1h3.6V158.4L282.4,158.4z"/>
		<polygon class="st3" points="296.3,167.8 296.3,157.5 296.4,157.5 304,167.8 308.6,167.8 300.1,156.8 308.1,148.7 303.5,148.7 
			296.3,156.5 296.3,140.4 292.7,140.4 292.7,167.8 296.3,167.8 		"/>
		<path class="st5" d="M34.7,130.8c12.9,0,23.3,10.4,23.3,23.3c0,12.9-10.4,23.3-23.3,23.3c-12.9,0-23.3-10.4-23.3-23.3
			C11.4,141.2,21.8,130.8,34.7,130.8L34.7,130.8z M34.7,135.2c-10.4,0-18.9,8.5-18.9,18.9c0,10.4,8.5,18.9,18.9,18.9
			c10.4,0,18.9-8.5,18.9-18.9C53.6,143.7,45.1,135.2,34.7,135.2L34.7,135.2z"/>
		<path class="st4" d="M26.3,158.1c0,0.6-0.4,1.2-1,1.1c-1.9-0.1-3.8-0.3-5.7-0.7c-0.5-0.1-0.7-0.7-0.8-1.1c-0.6-3.1-0.3-5.4,0-6.7
			c0.1-0.4,0.3-1,0.8-1.1c1.9-0.3,3.8-0.5,5.7-0.7c0.6,0,1,0.5,1,1.1C26.2,152.8,26.2,155.5,26.3,158.1L26.3,158.1z M30.7,145.7
			c-0.6,0-1.2-0.4-1.1-1c0.1-1.9,0.3-3.8,0.7-5.7c0.1-0.5,0.7-0.7,1.1-0.8c3.1-0.6,5.4-0.3,6.7,0c0.4,0.1,1,0.3,1.1,0.8
			c0.3,1.9,0.5,3.8,0.7,5.7c0,0.6-0.5,1-1.1,1C36,145.6,33.3,145.6,30.7,145.7L30.7,145.7z M29.3,150c0-0.7,0.6-1.2,1.3-1.3
			c2.8-0.1,5.5-0.1,8.3,0c0.7,0,1.2,0.6,1.3,1.3c0.1,2.8,0.1,5.5,0,8.3c0,0.7-0.6,1.2-1.3,1.3c-2.8,0.1-5.5,0.1-8.3,0
			c-0.7,0-1.2-0.6-1.3-1.3C29.2,155.5,29.2,152.7,29.3,150L29.3,150z M43.1,150.1c0-0.6,0.4-1.2,1-1.1c1.9,0.1,3.8,0.3,5.7,0.7
			c0.5,0.1,0.7,0.7,0.8,1.1c0.6,3.1,0.3,5.4,0,6.7c-0.1,0.4-0.3,1-0.8,1.1c-1.9,0.3-3.8,0.5-5.7,0.7c-0.6,0-1-0.5-1-1.1
			C43.2,155.5,43.2,152.8,43.1,150.1L43.1,150.1z M38.7,162.5c0.6,0,1.2,0.4,1.1,1c-0.1,1.9-0.3,3.8-0.7,5.7
			c-0.1,0.5-0.7,0.7-1.1,0.8c-3.1,0.6-5.4,0.3-6.7,0c-0.4-0.1-1-0.3-1.1-0.8c-0.3-1.9-0.5-3.8-0.7-5.7c0-0.6,0.5-1,1.1-1
			C33.3,162.6,36,162.6,38.7,162.5L38.7,162.5z"/>
		<polygon class="st2" points="70.9,186.5 70.9,181.1 71,181.1 74.6,186.5 76.3,186.5 72.3,180.8 76.1,176.1 74.6,176.1 71,180.7 
			70.9,180.7 70.9,176.1 69.6,176.1 69.6,186.5 70.9,186.5 		"/>
		<path class="st5" d="M79.4,185.7c-1.2,0-1.5-0.8-1.5-3.2c0-2,0.6-2.4,1.5-2.4c0.9,0,1.5,0.4,1.5,2.4
			C80.9,184.8,80.6,185.7,79.4,185.7L79.4,185.7z M79.4,186.6c1.5,0,2.7-0.5,2.7-3.7c0-2.1-0.2-3.9-2.7-3.9c-2.5,0-2.7,1.7-2.7,3.9
			C76.7,186.2,77.9,186.6,79.4,186.6L79.4,186.6z"/>
		<path class="st5" d="M86,185.7c-1.2,0-1.5-0.8-1.5-3.2c0-2,0.6-2.4,1.5-2.4c0.9,0,1.5,0.4,1.5,2.4C87.5,184.8,87.2,185.7,86,185.7
			L86,185.7z M86,186.6c1.5,0,2.8-0.5,2.8-3.7c0-2.1-0.2-3.9-2.8-3.9c-2.5,0-2.7,1.7-2.7,3.9C83.2,186.2,84.5,186.6,86,186.6
			L86,186.6z"/>
		<path class="st2" d="M91.2,179.2h-1.2v7.2h1.2v-4.3c0-1,0.3-2,1.6-2c0.2,0,0.4,0,0.6,0.1v-1.2c-1.1,0-1.7,0.1-2.2,1.2h0V179.2
			L91.2,179.2z"/>
		<path class="st5" d="M98.3,182.6c0,1.5,0,3.1-1.3,3.1c-1.5,0-1.5-1.6-1.5-2.7c0-1.9,0.2-2.9,1.4-2.9
			C98.3,180.1,98.3,181.6,98.3,182.6L98.3,182.6z M98.3,180L98.3,180c-0.4-0.6-0.9-0.9-1.6-0.9c-2.3,0-2.4,2.1-2.4,3.9
			c0,3.2,1.2,3.6,2.3,3.6c0.8,0,1.3-0.3,1.7-1h0v0.9h1.2v-10.3h-1.2V180L98.3,180z"/>
		<path class="st5" d="M102.8,179.2h-1.2v7.2h1.2V179.2L102.8,179.2z M101.6,177.4h1.3v-1.3h-1.3V177.4L101.6,177.4z"/>
		<path class="st2" d="M109.9,186.5v-5c0-1.4-0.4-2.4-1.9-2.4c-0.9,0-1.5,0.3-1.9,1.1H106v-0.9h-1.2c0,0.5,0.1,1,0.1,1.5v5.7h1.2
			v-4.3c0-1,0.2-2.1,1.5-2.1c1,0,1.3,0.6,1.3,1.4v5H109.9L109.9,186.5z"/>
		<path class="st5" d="M113,179.2h-1.2v7.2h1.2V179.2L113,179.2z M111.8,177.4h1.3v-1.3h-1.3V177.4L111.8,177.4z"/>
		<path class="st5" d="M115.9,182.4c0-2,0.6-2.4,1.4-2.4c0.9,0,1.4,0.3,1.4,2.4H115.9L115.9,182.4z M120,183.2v-0.6
			c0-2.4-0.5-3.5-2.6-3.5c-2.5,0-2.7,1.7-2.7,3.9c0,3.2,1.2,3.7,2.7,3.7c1.5,0,2.5-0.7,2.5-2.3h-1.3c0,0.7-0.5,1.4-1.3,1.4
			c-0.9,0-1.5-0.4-1.5-2.4H120L120,183.2z"/>
		<path class="st2" d="M122.7,179.2h-1.2v7.2h1.2v-4.3c0-1,0.3-2,1.6-2c0.2,0,0.4,0,0.6,0.1v-1.2c-1.1,0-1.7,0.1-2.2,1.2h0V179.2
			L122.7,179.2z"/>
		<path class="st2" d="M129.8,184c0,1.2-0.8,1.7-1.4,1.7c-0.8,0-1.2-0.6-1.2-1.5v-5H126v5.5c0,1.2,0.7,1.9,1.9,1.9
			c0.8,0,1.4-0.4,1.8-1h0v0.9h1.2c0-0.5-0.1-1-0.1-1.5v-5.7h-1.2V184L129.8,184z"/>
		<path class="st2" d="M137.9,186.5v-5c0-1.4-0.4-2.4-1.9-2.4c-0.9,0-1.5,0.3-1.9,1.1H134v-0.9h-1.2c0,0.5,0.1,1,0.1,1.5v5.7h1.2
			v-4.3c0-1,0.2-2.1,1.5-2.1c1,0,1.3,0.6,1.3,1.4v5H137.9L137.9,186.5z"/>
		<path class="st5" d="M143.3,182.8c0,1,0,2.7-1.4,2.7c-0.9,0-1.4-0.5-1.4-2.9c0-1,0-2.6,1.4-2.6
			C143.3,180.1,143.3,181.8,143.3,182.8L143.3,182.8z M143.2,180.1L143.2,180.1c-0.4-0.7-1-1-1.7-1c-0.6,0-2.3,0.2-2.3,3.5
			c0,2.1,0.4,3.8,2.3,3.8c0.6,0,1.3-0.3,1.6-0.9h0v1.5c0,0.7-0.4,1.2-1.3,1.2c-0.6,0-1.1-0.4-1.1-1h-1.3c-0.1,1.3,1,1.9,2.2,1.9
			c1.6,0,2.7-0.4,2.7-2v-8h-1.2V180.1L143.2,180.1z"/>
		<path class="st2" d="M150.7,184.4c0-2.2-3.6-2.2-3.6-3.5c0-0.6,0.5-1,1.1-1c0.7,0,1.1,0.4,1.1,1.2h1.3c0.1-1.4-1-2-2.3-2
			c-2,0-2.5,1.2-2.5,2c0,2.2,3.6,2.2,3.6,3.5c0,0.7-0.5,1.1-1.2,1.1c-1.2,0-1.2-1-1.2-1.4h-1.3c0,1.7,0.9,2.3,2.5,2.3
			C149.6,186.6,150.7,186,150.7,184.4L150.7,184.4z"/>
		<polygon class="st2" points="156.1,179.2 151.8,179.2 151.8,180.2 154.8,180.2 154.8,180.2 151.7,185.4 151.7,186.5 156.2,186.5 
			156.2,185.5 153,185.5 156.1,180.3 156.1,179.2 		"/>
		<path class="st5" d="M158.5,182.4c0-2,0.6-2.4,1.4-2.4c0.9,0,1.4,0.3,1.4,2.4H158.5L158.5,182.4z M162.6,183.2v-0.6
			c0-2.4-0.5-3.5-2.6-3.5c-2.5,0-2.8,1.7-2.8,3.9c0,3.2,1.2,3.7,2.8,3.7c1.5,0,2.5-0.7,2.5-2.3h-1.3c0,0.7-0.5,1.4-1.3,1.4
			c-0.9,0-1.5-0.4-1.5-2.4H162.6L162.6,183.2z"/>
		<path class="st2" d="M169.2,186.5v-5c0-1.4-0.4-2.4-1.9-2.4c-0.9,0-1.5,0.3-1.9,1.1h-0.1v-0.9H164c0,0.5,0.1,1,0.1,1.5v5.7h1.2
			v-4.3c0-1,0.2-2.1,1.5-2.1c1,0,1.3,0.6,1.3,1.4v5H169.2L169.2,186.5z"/>
		<path class="st2" d="M170.2,179.2v0.9h1.2v5.1c0,0.8,0.5,1.3,1.6,1.3c0.4,0,0.8-0.1,1.2-0.1v-0.9c-0.3,0-0.4,0.1-0.5,0.1
			c-1.1,0-1.1-0.6-1.1-1v-4.4h1.6v-0.9h-1.6v-1.9l-1.2,0.5v1.4H170.2L170.2,179.2z"/>
		<path class="st2" d="M176.7,179.2h-1.2v7.2h1.2v-4.3c0-1,0.3-2,1.6-2c0.2,0,0.4,0,0.6,0.1v-1.2c-1.1,0-1.7,0.1-2.2,1.2h0V179.2
			L176.7,179.2z"/>
		<path class="st5" d="M181,182.4c0-2,0.6-2.4,1.4-2.4c0.9,0,1.4,0.3,1.4,2.4H181L181,182.4z M185,183.2v-0.6c0-2.4-0.5-3.5-2.6-3.5
			c-2.5,0-2.7,1.7-2.7,3.9c0,3.2,1.2,3.7,2.7,3.7c1.5,0,2.5-0.7,2.5-2.3h-1.3c0,0.7-0.5,1.4-1.3,1.4c-0.9,0-1.5-0.4-1.5-2.4H185
			L185,183.2z"/>
		<path class="st2" d="M191.7,186.5v-5c0-1.4-0.4-2.4-1.9-2.4c-0.9,0-1.5,0.3-1.9,1.1h-0.1v-0.9h-1.2c0,0.5,0.1,1,0.1,1.5v5.7h1.2
			v-4.3c0-1,0.2-2.1,1.5-2.1c1,0,1.3,0.6,1.3,1.4v5H191.7L191.7,186.5z"/>
		<path class="st2" d="M196,179.2v0.9h1.1v6.3h1.2v-6.3h1.5v-0.9h-1.5V178c0-0.6,0.2-1.1,1.5-1v-0.8c-0.2,0-0.3,0-0.6,0
			c-1,0-2.1,0.3-2.1,1.7v1.4H196L196,179.2z"/>
		<path class="st5" d="M202.8,176.5h-1.3v1.5h1.3V176.5L202.8,176.5z M205.4,176.5H204v1.5h1.3V176.5L205.4,176.5z M204.7,184
			c0,1.2-0.8,1.7-1.4,1.7c-0.8,0-1.2-0.6-1.2-1.5v-5h-1.2v5.5c0,1.2,0.7,1.9,1.9,1.9c0.8,0,1.4-0.4,1.8-1h0v0.9h1.2
			c0-0.5-0.1-1-0.1-1.5v-5.7h-1.2V184L204.7,184z"/>
		<path class="st2" d="M209.1,179.2h-1.2v7.2h1.2v-4.3c0-1,0.3-2,1.6-2c0.2,0,0.4,0,0.6,0.1v-1.2c-1.1,0-1.7,0.1-2.2,1.2h0V179.2
			L209.1,179.2z"/>
		<polygon class="st2" points="217.3,186.5 217.3,181.1 217.3,181.1 220.9,186.5 222.6,186.5 218.7,180.8 222.4,176.1 220.9,176.1 
			217.3,180.7 217.3,180.7 217.3,176.1 216,176.1 216,186.5 217.3,186.5 		"/>
		<polygon class="st2" points="224.8,176.1 223.6,176.1 223.6,186.5 224.8,186.5 224.8,176.1 		"/>
		<path class="st5" d="M228,179.2h-1.2v7.2h1.2V179.2L228,179.2z M226.7,177.4h1.3v-1.3h-1.3V177.4L226.7,177.4z"/>
		<path class="st2" d="M235.1,186.5v-5c0-1.4-0.4-2.4-1.9-2.4c-0.9,0-1.5,0.3-1.9,1.1h-0.1v-0.9h-1.2c0,0.5,0.1,1,0.1,1.5v5.7h1.2
			v-4.3c0-1,0.2-2.1,1.5-2.1c1,0,1.3,0.6,1.3,1.4v5H235.1L235.1,186.5z"/>
		<path class="st5" d="M238,179.2h-1.2v7.2h1.2V179.2L238,179.2z M236.8,177.4h1.3v-1.3h-1.3V177.4L236.8,177.4z"/>
		<path class="st2" d="M244.6,184.4c0-2.2-3.6-2.2-3.6-3.5c0-0.6,0.5-1,1.1-1c0.7,0,1.1,0.4,1.1,1.2h1.3c0.1-1.4-1-2-2.3-2
			c-2,0-2.5,1.2-2.5,2c0,2.2,3.6,2.2,3.6,3.5c0,0.7-0.5,1.1-1.2,1.1c-1.2,0-1.2-1-1.2-1.4h-1.3c0,1.7,0.9,2.3,2.5,2.3
			C243.5,186.6,244.6,186,244.6,184.4L244.6,184.4z"/>
		<path class="st2" d="M250.4,181.6c0.1-1.6-0.8-2.5-2.2-2.5c-2.5,0-2.7,1.7-2.7,3.9c0,3.2,1.2,3.7,2.7,3.7c0.8,0,2.3-0.5,2.3-2.5
			h-1.2c0,1.3-0.8,1.6-1,1.6c-1.2,0-1.5-0.8-1.5-3.2c0-2,0.6-2.4,1.5-2.4c0.4,0,1,0.3,1,1.5H250.4L250.4,181.6z"/>
		<path class="st2" d="M256.9,186.5v-5.1c0-1.6-0.7-2.2-1.9-2.2c-0.9,0-1.5,0.2-2,1.1H253v-4h-1.2v10.3h1.2v-4.3
			c0-1.2,0.3-2.2,1.5-2.2c1,0,1.3,0.6,1.3,1.5v4.9H256.9L256.9,186.5z"/>
		<path class="st5" d="M259.3,182.4c0-2,0.6-2.4,1.4-2.4c0.9,0,1.4,0.3,1.4,2.4H259.3L259.3,182.4z M263.3,183.2v-0.6
			c0-2.4-0.5-3.5-2.6-3.5c-2.5,0-2.7,1.7-2.7,3.9c0,3.2,1.2,3.7,2.7,3.7c1.5,0,2.5-0.7,2.5-2.3H262c0,0.7-0.5,1.4-1.3,1.4
			c-0.9,0-1.5-0.4-1.5-2.4H263.3L263.3,183.2z"/>
		<path class="st2" d="M268.3,183.4c0,1,0,3.3,3,3.3c1.7,0,3.2-0.7,3.2-2.9c0-3.3-4.6-3-4.6-5.2c0-1.1,0.8-1.5,1.6-1.5
			c1.2,0,1.6,0.7,1.6,1.9h1.4c0.1-2.1-1-3-2.9-3c-1.7,0-3,1-3,2.8c0,3.1,4.6,2.8,4.6,5.1c0,1.2-0.8,1.7-1.8,1.7
			c-0.8,0-1.7-0.4-1.7-1.8v-0.3H268.3L268.3,183.4z"/>
		<path class="st2" d="M275.2,179.2v0.9h1.2v5.1c0,0.8,0.5,1.3,1.6,1.3c0.4,0,0.8-0.1,1.2-0.1v-0.9c-0.3,0-0.4,0.1-0.5,0.1
			c-1.1,0-1.1-0.6-1.1-1v-4.4h1.6v-0.9h-1.6v-1.9l-1.2,0.5v1.4H275.2L275.2,179.2z"/>
		<path class="st2" d="M284.1,184c0,1.2-0.8,1.7-1.4,1.7c-0.8,0-1.2-0.6-1.2-1.5v-5h-1.2v5.5c0,1.2,0.7,1.9,1.9,1.9
			c0.8,0,1.4-0.4,1.8-1h0v0.9h1.2c0-0.5-0.1-1-0.1-1.5v-5.7h-1.2V184L284.1,184z"/>
		<path class="st5" d="M290.7,182.6c0,1.5,0,3.1-1.3,3.1c-1.5,0-1.5-1.6-1.5-2.7c0-1.9,0.2-2.9,1.4-2.9
			C290.6,180.1,290.7,181.6,290.7,182.6L290.7,182.6z M290.7,180L290.7,180c-0.4-0.6-0.9-0.9-1.6-0.9c-2.3,0-2.4,2.1-2.4,3.9
			c0,3.2,1.2,3.6,2.3,3.6c0.8,0,1.3-0.3,1.7-1h0v0.9h1.2v-10.3h-1.2V180L290.7,180z"/>
		<path class="st5" d="M294.9,179.2h-1.2v7.2h1.2V179.2L294.9,179.2z M293.6,177.4h1.3v-1.3h-1.3V177.4L293.6,177.4z"/>
		<path class="st5" d="M297.6,182.4c0-2,0.6-2.4,1.4-2.4c0.9,0,1.4,0.3,1.4,2.4H297.6L297.6,182.4z M301.7,183.2v-0.6
			c0-2.4-0.5-3.5-2.6-3.5c-2.5,0-2.7,1.7-2.7,3.9c0,3.2,1.2,3.7,2.7,3.7c1.5,0,2.5-0.7,2.5-2.3h-1.3c0,0.7-0.5,1.4-1.3,1.4
			c-0.9,0-1.5-0.4-1.5-2.4H301.7L301.7,183.2z"/>
		<path class="st2" d="M308.2,186.5v-5c0-1.4-0.4-2.4-1.9-2.4c-0.9,0-1.5,0.3-1.9,1.1h-0.1v-0.9H303c0,0.5,0.1,1,0.1,1.5v5.7h1.2
			v-4.3c0-1,0.2-2.1,1.5-2.1c1,0,1.3,0.6,1.3,1.4v5H308.2L308.2,186.5z"/>
	</g>
</g>
</svg>
