<?xml version="1.0" encoding="utf-8"?>
<!-- Generator: Adobe Illustrator 25.0.1, SVG Export Plug-In . SVG Version: 6.00 Build 0)  -->
<svg version="1.1" id="Ebene_1" xmlns="http://www.w3.org/2000/svg" xmlns:xlink="http://www.w3.org/1999/xlink" x="0px" y="0px"
	 viewBox="0 0 320 320" style="enable-background:new 0 0 320 320;" xml:space="preserve">
<style type="text/css">
	.st0{fill:#005B9D;}
</style>
<g>
	<g>
		<path class="st0" d="M109.9,138.9c-5.8,0-10.4,2-13.7,6c-3.1,3.7-4.6,8.5-4.6,14.2c0,7.6,2,13.3,6.1,16.9
			c3.1,2.8,6.9,4.1,11.5,4.1c5.3,0,9.5-1.7,12.6-5c2.6-2.8,4.1-6.3,4.6-10.4h-5.2c-0.5,2.6-1.3,4.7-2.4,6.2c-2,3-5,4.5-8.9,4.5
			c-4.2,0-7.4-1.4-9.5-4.3c-2.1-2.9-3.2-6.6-3.2-11.2c0-5.6,1.2-9.8,3.5-12.5c2.4-2.7,5.5-4.1,9.3-4.1c3.1,0,5.6,0.7,7.3,2.2
			c1.7,1.5,2.9,3.5,3.5,6h5.2c-0.3-3.3-1.8-6.3-4.6-8.9C118.8,140.2,114.9,138.9,109.9,138.9"/>
		<path class="st0" d="M83.4,145c-3-4-7.1-6-12.5-6H55v41.3h15.8c6.7,0,11.4-3.1,14.2-9.4c1.6-3.5,2.3-7.5,2.3-11.9
			C87.4,153.3,86.1,148.6,83.4,145z M81.5,164.2c-0.5,2.6-1.2,4.7-2.2,6.4c-1.3,2.1-3,3.5-5,4.2c-1.1,0.4-2.6,0.6-4.4,0.6h-9.4
			v-31.7h9.3c4.2,0,7.3,1.4,9.2,4.2c1.9,2.8,2.9,6.8,2.9,11.9C81.9,161.2,81.8,162.7,81.5,164.2z"/>
		<path class="st0" d="M10.3,180.2h5.1v-34.9l11.3,34.9H32l11.2-34.9c0,2.2,0,34.9,0,34.9h5.1v-41.3h-7.6l-11.3,34.9L18,138.9h-7.7
			V180.2z"/>
		<path class="st0" d="M302.1,164.2h1.2v-7.6l4.6,7.6h1.4v-9.4h-1.2v7.6l-4.5-7.6h-1.4V164.2z M298.8,164.2h1.2v-9.4h-1.2V164.2z
			 M290.1,164.2h7.1v-1.1h-5.6l5.6-7.2v-1.1h-6.7v1.1h5.2l-5.6,7.2V164.2z M287.5,164.2h1.2v-9.4h-1.2V164.2z M278.1,164.2h3.6
			c1.5,0,2.6-0.7,3.2-2.1c0.4-0.8,0.5-1.7,0.5-2.7c0-1.3-0.3-2.4-0.9-3.2c-0.7-0.9-1.6-1.4-2.9-1.4h-3.6V164.2z M279.4,163.1v-7.2
			h2.1c1,0,1.7,0.3,2.1,1c0.4,0.6,0.7,1.6,0.7,2.7c0,0.3,0,0.6-0.1,1c-0.1,0.6-0.3,1.1-0.5,1.5c-0.3,0.5-0.7,0.8-1.1,1
			c-0.3,0.1-0.6,0.1-1,0.1H279.4z M269.7,164.2h6.7v-1.1h-5.5v-3.2h5v-1.1h-5V156h5.4v-1.2h-6.6V164.2z M259,164.2h1.2v-8l2.6,8h1.2
			l2.6-8c0,0.5,0,8,0,8h1.2v-9.4H266l-2.6,8l-2.6-8H259V164.2z M247.1,164.2h6.7v-1.1h-5.5v-3.2h5v-1.1h-5V156h5.4v-1.2h-6.6V164.2z
			 M238,164.2h1.2v-4h2.7c0.5,0,0.8,0.1,1.1,0.2c0.4,0.2,0.6,0.6,0.6,1.2l0.1,1.6c0,0.4,0,0.6,0.1,0.7c0,0.1,0.1,0.2,0.1,0.3h1.5
			V164c-0.2-0.1-0.3-0.3-0.4-0.6c0-0.2-0.1-0.4-0.1-0.8l0-1.3c0-0.5-0.1-0.9-0.3-1.2c-0.2-0.2-0.4-0.4-0.8-0.6
			c0.4-0.2,0.7-0.5,0.9-0.9c0.2-0.4,0.3-0.8,0.3-1.4c0-1.1-0.4-1.8-1.3-2.2c-0.4-0.2-1-0.3-1.7-0.3H238V164.2z M239.2,159.1v-3.2
			h2.9c0.4,0,0.7,0.1,1,0.2c0.5,0.2,0.7,0.7,0.7,1.4c0,0.6-0.2,1.1-0.5,1.3c-0.3,0.2-0.8,0.4-1.3,0.4H239.2z M228.6,164.2h1.3l1-2.8
			h3.6l0.9,2.8h1.3l-3.3-9.4H232L228.6,164.2z M231.2,160.4l1.4-4.2l1.4,4.2H231.2z M222.3,164.2h5.8v-1.1h-4.5v-8.3h-1.2V164.2z
			 M213.3,154.8v5.3c0,1.2,0.2,2.1,0.5,2.7c0.5,1.1,1.6,1.7,3.1,1.7c1.5,0,2.6-0.6,3.1-1.7c0.3-0.6,0.5-1.5,0.5-2.7v-5.3h-1.2v5.8
			c0,0.7-0.1,1.2-0.3,1.6c-0.4,0.7-1.1,1.1-2.1,1.1c-0.9,0-1.5-0.3-1.9-1c-0.2-0.5-0.4-1-0.4-1.7v-5.8H213.3z M204.7,164.2h1.2v-3.3
			l1.5-1.5l3.2,4.7h1.6l-3.9-5.6l3.9-3.8h-1.7l-4.5,4.6v-4.6h-1.2V164.2z M196.4,164.2h6.7v-1.1h-5.5v-3.2h5v-1.1h-5V156h5.4v-1.2
			h-6.6V164.2z M189.2,164.2h5.8v-1.1h-4.5v-8.3h-1.2V164.2z M183.3,163.4c-1.1,0-2-0.4-2.5-1.1c-0.5-0.7-0.8-1.6-0.8-2.6
			c0-1.3,0.3-2.3,0.9-3c0.6-0.7,1.4-1,2.3-1c1,0,1.7,0.3,2.3,1c0.6,0.7,0.8,1.6,0.8,2.7c0,1-0.2,2-0.7,2.8
			C185.2,163,184.4,163.4,183.3,163.4 M183.2,154.5c-1.5,0-2.7,0.6-3.5,1.7c-0.6,0.9-0.9,2-0.9,3.3c0,1.4,0.4,2.6,1.1,3.5
			c0.8,1,1.9,1.4,3.3,1.4c1.5,0,2.6-0.5,3.4-1.6c0.7-0.9,1-2.1,1-3.5c0-1.3-0.3-2.4-0.9-3.2C186,155.1,184.8,154.5,183.2,154.5
			 M168.7,164.2h1.2v-8l2.6,8h1.2l2.6-8c0,0.5,0,8,0,8h1.2v-9.4h-1.7l-2.6,8l-2.6-8h-1.8V164.2z M156.2,164.2h1.2v-4h2.7
			c0.5,0,0.8,0.1,1.1,0.2c0.4,0.2,0.6,0.6,0.6,1.2l0.1,1.6c0,0.4,0,0.6,0.1,0.7c0,0.1,0.1,0.2,0.1,0.3h1.5V164
			c-0.2-0.1-0.3-0.3-0.4-0.6c0-0.2-0.1-0.4-0.1-0.8l0-1.3c0-0.5-0.1-0.9-0.3-1.2c-0.2-0.2-0.4-0.4-0.8-0.6c0.4-0.2,0.7-0.5,0.9-0.9
			c0.2-0.4,0.3-0.8,0.3-1.4c0-1.1-0.4-1.8-1.3-2.2c-0.4-0.2-1-0.3-1.7-0.3h-4.1V164.2z M157.4,159.1v-3.2h2.9c0.4,0,0.7,0.1,1,0.2
			c0.5,0.2,0.7,0.7,0.7,1.4c0,0.6-0.2,1.1-0.5,1.3c-0.3,0.2-0.8,0.4-1.3,0.4H157.4z M148.9,156.1h1.2v-1.3h-1.2V156.1z M151,156.1
			h1.2v-1.3H151V156.1z M147,154.8v5.3c0,1.2,0.2,2.1,0.5,2.7c0.5,1.1,1.6,1.7,3.1,1.7c1.5,0,2.6-0.6,3.1-1.7
			c0.3-0.6,0.5-1.5,0.5-2.7v-5.3h-1.2v5.8c0,0.7-0.1,1.2-0.3,1.6c-0.4,0.7-1.1,1.1-2.1,1.1c-0.9,0-1.5-0.3-1.9-1
			c-0.2-0.5-0.4-1-0.4-1.7v-5.8H147z M139.2,164.2h1.2v-4.3h4.4v-1.1h-4.4V156h5.1v-1.2h-6.3V164.2z"/>
		<path class="st0" d="M300.6,148.3h1.2v-7.9l2.6,7.9h1.2l2.6-7.9c0,0.5,0,7.9,0,7.9h1.2v-9.4h-1.7l-2.6,7.9l-2.6-7.9h-1.8V148.3z
			 M291.3,138.9v5.3c0,1.2,0.2,2,0.5,2.7c0.5,1.1,1.6,1.7,3.1,1.7c1.5,0,2.6-0.6,3.1-1.7c0.3-0.6,0.5-1.5,0.5-2.7v-5.3h-1.2v5.8
			c0,0.7-0.1,1.2-0.3,1.6c-0.4,0.7-1.1,1.1-2.1,1.1c-0.9,0-1.5-0.3-1.9-1c-0.2-0.5-0.4-1-0.4-1.7v-5.8H291.3z M282.1,148.3h1.2v-4
			h2.7c0.5,0,0.8,0.1,1.1,0.2c0.4,0.2,0.6,0.6,0.6,1.2l0.1,1.6c0,0.4,0,0.6,0.1,0.7c0,0.1,0.1,0.2,0.1,0.3h1.5v-0.2
			c-0.2-0.1-0.3-0.3-0.4-0.6c0-0.2-0.1-0.4-0.1-0.8l0-1.3c0-0.5-0.1-0.9-0.3-1.2c-0.2-0.2-0.4-0.4-0.8-0.6c0.4-0.2,0.7-0.5,0.9-0.9
			c0.2-0.4,0.3-0.8,0.3-1.4c0-1.1-0.4-1.8-1.2-2.2c-0.4-0.2-1-0.3-1.7-0.3h-4.1V148.3z M283.3,143.2V140h2.9c0.4,0,0.7,0.1,1,0.2
			c0.5,0.2,0.7,0.7,0.7,1.4c0,0.6-0.2,1.1-0.5,1.3c-0.3,0.2-0.8,0.4-1.3,0.4H283.3z M273.2,138.9v1.1h3v8.3h1.2V140h3v-1.1H273.2z
			 M264.7,148.3h1.2v-7.6l4.6,7.6h1.4v-9.4h-1.2v7.6l-4.5-7.6h-1.4V148.3z M256.1,148.3h6.6v-1.1h-5.4V144h4.9v-1.1h-4.9v-2.9h5.4
			v-1.2h-6.5V148.3z M250.4,138.7c-1.3,0-2.4,0.5-3.1,1.4c-0.7,0.9-1,2-1,3.4c0,1.8,0.5,3.2,1.4,4.1c0.7,0.7,1.6,1,2.6,1
			c1.2,0,2.2-0.4,2.9-1.2c0.6-0.7,0.9-1.5,1-2.5H253c-0.1,0.6-0.3,1.1-0.5,1.5c-0.5,0.7-1.1,1.1-2,1.1c-1,0-1.7-0.3-2.2-1
			c-0.5-0.7-0.7-1.6-0.7-2.7c0-1.3,0.3-2.3,0.8-3c0.5-0.7,1.2-1,2.1-1c0.7,0,1.3,0.2,1.7,0.5c0.4,0.4,0.7,0.8,0.8,1.4h1.2
			c-0.1-0.8-0.4-1.5-1-2.1C252.4,139,251.6,138.7,250.4,138.7 M241.8,145.2h3.1v-1.2h-3.1V145.2z M233.6,148.3h1.2V145l1.5-1.4
			l3.2,4.7h1.6l-3.9-5.6l3.9-3.8h-1.7l-4.5,4.6v-4.6h-1.2V148.3z M228,138.7c-1.3,0-2.4,0.5-3.1,1.4c-0.7,0.9-1,2-1,3.4
			c0,1.8,0.5,3.2,1.4,4.1c0.7,0.7,1.6,1,2.6,1c1.2,0,2.2-0.4,2.9-1.2c0.6-0.7,0.9-1.5,1-2.5h-1.2c-0.1,0.6-0.3,1.1-0.5,1.5
			c-0.5,0.7-1.1,1.1-2,1.1c-1,0-1.7-0.3-2.2-1c-0.5-0.7-0.7-1.6-0.7-2.7c0-1.3,0.3-2.3,0.8-3c0.5-0.7,1.2-1,2.1-1
			c0.7,0,1.3,0.2,1.7,0.5c0.4,0.4,0.7,0.8,0.8,1.4h1.2c-0.1-0.8-0.4-1.5-1-2.1C230,139,229.1,138.7,228,138.7 M217,140.2h1.1v-1.3
			H217V140.2z M219,140.2h1.1v-1.3H219V140.2z M215,138.9v5.3c0,1.2,0.1,2,0.5,2.7c0.5,1.1,1.6,1.7,3.1,1.7c1.5,0,2.6-0.6,3.1-1.7
			c0.3-0.6,0.5-1.5,0.5-2.7v-5.3h-1.2v5.8c0,0.7-0.1,1.2-0.3,1.6c-0.4,0.7-1.1,1.1-2.1,1.1c-0.9,0-1.5-0.3-1.9-1
			c-0.2-0.5-0.4-1-0.4-1.7v-5.8H215z M205.7,148.3h1.2v-4h2.7c0.5,0,0.8,0.1,1.1,0.2c0.4,0.2,0.6,0.6,0.6,1.2l0.1,1.6
			c0,0.4,0,0.6,0.1,0.7c0,0.1,0.1,0.2,0.1,0.3h1.5v-0.2c-0.2-0.1-0.3-0.3-0.4-0.6c0-0.2-0.1-0.4-0.1-0.8l0-1.3
			c0-0.5-0.1-0.9-0.3-1.2c-0.2-0.2-0.4-0.4-0.8-0.6c0.4-0.2,0.7-0.5,0.9-0.9c0.2-0.4,0.3-0.8,0.3-1.4c0-1.1-0.4-1.8-1.2-2.2
			c-0.4-0.2-1-0.3-1.7-0.3h-4.1V148.3z M207,143.2V140h2.9c0.4,0,0.7,0.1,1,0.2c0.5,0.2,0.7,0.7,0.7,1.4c0,0.6-0.2,1.1-0.5,1.3
			c-0.3,0.2-0.8,0.4-1.3,0.4H207z M196.9,148.3h3.8c1.2,0,2.1-0.4,2.6-1.1c0.4-0.5,0.6-1,0.6-1.6c0-0.7-0.2-1.3-0.6-1.7
			c-0.2-0.2-0.6-0.4-1-0.6c0.3-0.2,0.6-0.3,0.7-0.6c0.3-0.4,0.5-0.9,0.5-1.5c0-0.5-0.1-1-0.4-1.3c-0.4-0.7-1.2-1-2.3-1h-3.9V148.3z
			 M198.1,147.2v-3.3h2.4c0.5,0,0.9,0.1,1.2,0.2c0.6,0.2,0.9,0.7,0.9,1.4c0,0.4-0.1,0.8-0.3,1c-0.3,0.5-0.9,0.7-1.6,0.7H198.1z
			 M198.1,142.9V140h2.2c0.5,0,0.9,0.1,1.2,0.2c0.5,0.2,0.7,0.6,0.7,1.2c0,0.6-0.2,1-0.7,1.3c-0.3,0.1-0.7,0.2-1.2,0.2H198.1z
			 M189.7,148.3h5.8v-1.1h-4.5v-8.3h-1.2V148.3z M181.2,148.3h6.6v-1.1h-5.4V144h5v-1.1h-5v-2.9h5.4v-1.2h-6.5V148.3z M171.8,148.3
			h3.6c1.5,0,2.6-0.7,3.2-2.1c0.4-0.8,0.5-1.7,0.5-2.7c0-1.3-0.3-2.4-0.9-3.2c-0.7-0.9-1.6-1.4-2.8-1.4h-3.6V148.3z M173,147.2V140
			h2.1c1,0,1.7,0.3,2.1,1c0.4,0.6,0.7,1.5,0.7,2.7c0,0.3,0,0.6-0.1,1c-0.1,0.6-0.3,1.1-0.5,1.5c-0.3,0.5-0.7,0.8-1.1,1
			c-0.3,0.1-0.6,0.1-1,0.1H173z M166.8,145.2h3.1v-1.2h-3.1V145.2z M161.9,144.4l2.4,3.9h1.5l-3.1-4.8l3-4.6h-1.5l-2.3,3.6l-2.3-3.6
			h-1.5l3,4.6l-3.2,4.8h1.5L161.9,144.4z M149.2,148.3h1.3l1-2.8h3.5l0.9,2.8h1.3l-3.3-9.4h-1.4L149.2,148.3z M151.8,144.5l1.4-4.2
			l1.4,4.2H151.8z M139.2,148.3h1.2v-7.9l2.6,7.9h1.2l2.6-7.9c0,0.5,0,7.9,0,7.9h1.2v-9.4h-1.7l-2.6,7.9l-2.6-7.9h-1.8V148.3z"/>
		<g>
			<path class="st0" d="M139.2,173.4h0.9v6.8h-0.9V173.4z"/>
			<path class="st0" d="M141.7,173.4h1.1l3.4,5.5v-5.5h0.9v6.8h-1l-3.5-5.5v5.5h-0.9V173.4z"/>
			<path class="st0" d="M151.3,173.4h2.7c0.9,0,1.6,0.3,2.2,1c0.5,0.6,0.7,1.4,0.7,2.3c0,0.7-0.1,1.4-0.4,2c-0.5,1-1.3,1.6-2.5,1.6
				h-2.7V173.4z M153.8,179.4c0.3,0,0.6,0,0.8-0.1c0.4-0.1,0.6-0.4,0.9-0.7c0.2-0.3,0.3-0.6,0.4-1.1c0-0.3,0.1-0.5,0.1-0.7
				c0-0.8-0.2-1.5-0.5-2c-0.3-0.5-0.9-0.7-1.6-0.7h-1.6v5.3H153.8z"/>
			<path class="st0" d="M158.2,173.4h5v0.8h-4.1v2.1h3.8v0.8h-3.8v2.3h4.1v0.8h-5V173.4z"/>
			<path class="st0" d="M164.6,173.4h3.1c0.5,0,0.9,0.1,1.3,0.2c0.6,0.3,0.9,0.8,0.9,1.6c0,0.4-0.1,0.7-0.3,1
				c-0.2,0.3-0.4,0.5-0.7,0.6c0.3,0.1,0.5,0.3,0.6,0.4c0.1,0.2,0.2,0.5,0.2,0.9l0,0.9c0,0.3,0,0.5,0.1,0.6c0.1,0.2,0.2,0.4,0.3,0.4
				v0.2H169c0-0.1-0.1-0.1-0.1-0.2c0-0.1,0-0.3,0-0.5l-0.1-1.1c0-0.4-0.2-0.7-0.5-0.9c-0.2-0.1-0.4-0.1-0.8-0.1h-2.1v2.9h-0.9V173.4
				z M167.6,176.5c0.4,0,0.8-0.1,1-0.3c0.2-0.2,0.4-0.5,0.4-0.9c0-0.5-0.2-0.8-0.5-1c-0.2-0.1-0.4-0.1-0.7-0.1h-2.2v2.3H167.6z"/>
			<path class="st0" d="M174,173.4h0.9v2.8h3.5v-2.8h0.9v6.8h-0.9V177H175v3.2H174V173.4z"/>
			<path class="st0" d="M181,173.4h5v0.8h-4.1v2.1h3.8v0.8h-3.8v2.3h4.1v0.8h-5V173.4z"/>
			<path class="st0" d="M187.3,173.4h0.9v6h3.4v0.8h-4.4V173.4z"/>
			<path class="st0" d="M192.6,173.4h1.3l2,5.8l2-5.8h1.3v6.8h-0.9c0,0,0-5.4,0-5.8l-1.9,5.8h-0.9l-1.9-5.8l0,5.8h-0.9V173.4z"/>
			<path class="st0" d="M200.5,173.4h0.9v2.8h3.5v-2.8h0.9v6.8H205V177h-3.5v3.2h-0.9V173.4z"/>
			<path class="st0" d="M213.1,174.4c0.5,0.6,0.7,1.4,0.7,2.3c0,1-0.3,1.9-0.8,2.5c-0.6,0.8-1.5,1.2-2.6,1.2c-1.1,0-1.9-0.3-2.5-1
				c-0.5-0.7-0.8-1.5-0.8-2.5c0-0.9,0.2-1.7,0.7-2.4c0.6-0.8,1.5-1.3,2.6-1.3C211.6,173.2,212.5,173.6,213.1,174.4z M212.2,178.7
				c0.4-0.6,0.5-1.3,0.5-2c0-0.8-0.2-1.5-0.6-1.9c-0.4-0.5-1-0.7-1.7-0.7c-0.7,0-1.3,0.2-1.7,0.7c-0.4,0.5-0.7,1.2-0.7,2.2
				c0,0.8,0.2,1.4,0.6,1.9c0.4,0.5,1,0.8,1.9,0.8C211.3,179.6,211.9,179.3,212.2,178.7z"/>
			<path class="st0" d="M214.8,173.4h0.9v6h3.4v0.8h-4.4V173.4z"/>
			<path class="st0" d="M224.4,173.4v0.8h-2.3v6h-0.9v-6h-2.3v-0.8H224.4z"/>
			<path class="st0" d="M224.8,179.5l4.2-5.3h-3.9v-0.8h5.1v0.8l-4.2,5.2h4.2v0.8h-5.4V179.5z"/>
			<path class="st0" d="M230.8,177.2h2.3v0.9h-2.3V177.2z"/>
			<path class="st0" d="M238.8,173.6c0.7,0.4,1.1,1,1.2,1.9h-0.9c-0.1-0.5-0.3-0.9-0.7-1.1c-0.3-0.2-0.8-0.3-1.3-0.3
				c-0.6,0-1.1,0.2-1.6,0.7c-0.4,0.5-0.6,1.2-0.6,2.1c0,0.8,0.2,1.5,0.5,2c0.4,0.5,0.9,0.8,1.7,0.8c0.6,0,1.1-0.2,1.5-0.5
				c0.4-0.4,0.6-0.9,0.6-1.7h-2.1v-0.8h3v3.7h-0.6l-0.2-0.9c-0.3,0.3-0.6,0.6-0.8,0.7c-0.4,0.2-0.9,0.3-1.5,0.3
				c-0.8,0-1.5-0.3-2.1-0.8c-0.6-0.7-0.9-1.6-0.9-2.7c0-1.1,0.3-2.1,0.9-2.7c0.6-0.6,1.3-1,2.3-1
				C237.8,173.2,238.4,173.3,238.8,173.6z"/>
			<path class="st0" d="M241.8,173.4h5v0.8h-4.1v2.1h3.8v0.8h-3.8v2.3h4.1v0.8h-5V173.4z"/>
			<path class="st0" d="M248,173.4h1.3l2,5.8l2-5.8h1.3v6.8h-0.9c0,0,0-5.4,0-5.8l-1.9,5.8h-0.9l-1.9-5.8l0,5.8H248V173.4z"/>
			<path class="st0" d="M256.1,173.4h5v0.8H257v2.1h3.8v0.8H257v2.3h4.1v0.8h-5V173.4z"/>
			<path class="st0" d="M262.6,173.4h0.9v6.8h-0.9V173.4z"/>
			<path class="st0" d="M265,173.4h1.1l3.4,5.5v-5.5h0.9v6.8h-1l-3.5-5.5v5.5H265V173.4z"/>
			<path class="st0" d="M272.5,178c0,0.4,0.1,0.7,0.3,0.9c0.3,0.5,0.8,0.7,1.6,0.7c0.3,0,0.6,0,0.9-0.1c0.5-0.2,0.8-0.5,0.8-1
				c0-0.4-0.1-0.6-0.3-0.8c-0.2-0.2-0.6-0.3-1.1-0.4l-0.9-0.2c-0.6-0.1-1-0.3-1.2-0.5c-0.4-0.3-0.6-0.7-0.6-1.3
				c0-0.6,0.2-1.1,0.6-1.5c0.4-0.4,1-0.6,1.8-0.6c0.7,0,1.3,0.2,1.8,0.5c0.5,0.3,0.7,0.9,0.7,1.7h-0.9c0-0.4-0.1-0.6-0.3-0.8
				c-0.3-0.4-0.7-0.5-1.4-0.5c-0.5,0-0.9,0.1-1.1,0.3c-0.2,0.2-0.3,0.5-0.3,0.8c0,0.3,0.1,0.6,0.4,0.7c0.2,0.1,0.6,0.2,1.2,0.4
				l0.9,0.2c0.4,0.1,0.8,0.2,1,0.4c0.4,0.3,0.6,0.8,0.6,1.4c0,0.8-0.3,1.3-0.8,1.6c-0.5,0.3-1.2,0.5-1.9,0.5c-0.8,0-1.5-0.2-1.9-0.7
				c-0.5-0.4-0.7-1-0.7-1.8H272.5z"/>
			<path class="st0" d="M283.1,173.9c0.5,0.5,0.7,1,0.8,1.6H283c-0.1-0.4-0.3-0.8-0.6-1c-0.3-0.3-0.7-0.4-1.3-0.4
				c-0.7,0-1.2,0.2-1.6,0.7c-0.4,0.5-0.6,1.2-0.6,2.2c0,0.8,0.2,1.5,0.6,2c0.4,0.5,0.9,0.7,1.6,0.7c0.7,0,1.2-0.3,1.5-0.8
				c0.2-0.3,0.3-0.6,0.4-1.1h0.9c-0.1,0.7-0.3,1.3-0.8,1.8c-0.5,0.6-1.3,0.9-2.2,0.9c-0.8,0-1.4-0.2-2-0.7c-0.7-0.6-1.1-1.6-1.1-3
				c0-1,0.3-1.8,0.8-2.5c0.6-0.7,1.4-1.1,2.4-1.1C282,173.2,282.6,173.4,283.1,173.9z"/>
			<path class="st0" d="M285.2,173.4h0.9v2.8h3.5v-2.8h0.9v6.8h-0.9V177h-3.5v3.2h-0.9V173.4z"/>
			<path class="st0" d="M294.1,173.4h1l2.5,6.8h-1l-0.7-2.1h-2.7l-0.7,2.1h-0.9L294.1,173.4z M295.6,177.4l-1.1-3l-1.1,3H295.6z"/>
			<path class="st0" d="M298.5,173.4h4.7v0.8h-3.8v2.1h3.4v0.8h-3.4v3.1h-0.9V173.4z"/>
			<path class="st0" d="M309.2,173.4v0.8h-2.3v6H306v-6h-2.3v-0.8H309.2z"/>
		</g>
	</g>
</g>
</svg>
