<?xml version="1.0" encoding="utf-8"?>
<!-- Generator: Adobe Illustrator 25.0.1, SVG Export Plug-In . SVG Version: 6.00 Build 0)  -->
<svg version="1.1" id="Ebene_1" xmlns="http://www.w3.org/2000/svg" xmlns:xlink="http://www.w3.org/1999/xlink" x="0px" y="0px"
	 viewBox="0 0 320 320" style="enable-background:new 0 0 320 320;" xml:space="preserve">
<style type="text/css">
	.st0{fill:#004469;}
	.st1{fill:#9BC1DA;}
	.st2{fill:#FFFFFF;}
</style>
<g id="layer1" transform="translate(-68.707299,-230.05542)">
	<path id="path136" class="st0" d="M186.1,353.5c-20.2,0-36.5,16.3-36.5,36.5c0,20.2,16.3,36.5,36.5,36.5c8.2,0,15.8-2.7,21.9-7.3
		c-6.1-8.1-9.7-18.3-9.7-29.2s3.6-21.1,9.7-29.2C201.9,356.2,194.4,353.5,186.1,353.5L186.1,353.5z M218.5,373.3l-5.9,36.5l5.9,0.7
		l3.5-28.8h0.1l7.7,28.1h6.4l8.5-28.1h0.1l2.5,28.8l6.2-0.7l-4.9-36.5h-6.3l-9.2,29.2h-0.1l-8.1-29.2H218.5L218.5,373.3z
		 M265.1,373.3l-0.3,36.5h6.3l0.1-15.5h12.1l0.1-5.8h-12.1l0.1-9.4h12.2l0.1-5.8H265.1L265.1,373.3z"/>
	<path id="path140" class="st1" d="M205.5,345.4c10.9-10.1,25.4-16.2,41.4-16.2c33.6,0,61,27.3,61,61c0,33.6-27.3,61-61,61
		c-16,0-30.5-6.2-41.4-16.2c4.1-1.8,7.8-4.1,11.2-6.8c8.3,6.6,18.8,10.5,30.2,10.5c26.7,0,48.4-21.7,48.4-48.4
		c0-26.7-21.7-48.4-48.4-48.4c-11.4,0-21.9,3.9-30.2,10.5C213.4,349.4,209.6,347.2,205.5,345.4"/>
	<path id="path152" class="st2" d="M177.6,409.8h6.2v-30.7h9.2l0.1-5.8h-24.6l-0.1,5.8h9.3L177.6,409.8L177.6,409.8z"/>
</g>
</svg>
