<?xml version="1.0" encoding="utf-8"?>
<!-- Generator: Adobe Illustrator 25.0.1, SVG Export Plug-In . SVG Version: 6.00 Build 0)  -->
<svg version="1.1" id="Ebene_1" xmlns="http://www.w3.org/2000/svg" xmlns:xlink="http://www.w3.org/1999/xlink" x="0px" y="0px"
	 viewBox="0 0 320 320" style="enable-background:new 0 0 320 320;" xml:space="preserve">
<style type="text/css">
	.st0{fill-rule:evenodd;clip-rule:evenodd;fill:#7FA5BD;}
	.st1{fill:none;stroke:#7FA5BD;stroke-miterlimit:3.8637;}
	.st2{fill-rule:evenodd;clip-rule:evenodd;fill:#2F5B71;}
	.st3{fill:#2F5B71;}
	.st4{fill:#7FA5BD;stroke:#7FA5BD;stroke-width:1.0001;stroke-miterlimit:3.8637;}
	.st5{clip-path:url(#SVGID_2_);fill:none;stroke:#FFFFFF;stroke-width:11.6566;stroke-miterlimit:3.8637;}
	.st6{clip-path:url(#SVGID_4_);fill:none;stroke:#ACC4D4;stroke-width:9.0521;stroke-miterlimit:3.8637;}
	.st7{clip-path:url(#SVGID_6_);fill:none;stroke:#FFFFFF;stroke-width:2.3329;stroke-miterlimit:3.8637;}
	.st8{clip-path:url(#SVGID_8_);fill:none;stroke:#7FA5BD;stroke-width:2.3329;stroke-miterlimit:3.8637;}
	.st9{fill:#7FA5BD;}
</style>
<g>
	<path class="st0" d="M120.7,178.6h2c2,0,3.4,1.1,3.4,3.1c0,1.9-1.2,3.4-3.3,3.4h-2.1V178.6L120.7,178.6z M120.7,188.2h2.2
		c2.6,0,3.6,1.5,3.6,3.5c0,2.1-1.2,3.5-3.5,3.5h-2.3V188.2L120.7,188.2z M116.7,198.5h7c4.1,0,7.1-2.3,7.1-6.4
		c0-3.9-2.5-5.1-4.3-5.5v-0.1c1.5-0.6,3.8-1.6,3.8-5.2c0-3.9-2.1-5.7-6.9-5.7h-6.7L116.7,198.5L116.7,198.5z"/>
	<path class="st1" d="M120.7,178.6h2c2,0,3.4,1.1,3.4,3.1c0,1.9-1.2,3.4-3.3,3.4h-2.1V178.6L120.7,178.6z M120.7,188.2h2.2
		c2.6,0,3.6,1.5,3.6,3.5c0,2.1-1.2,3.5-3.5,3.5h-2.3V188.2L120.7,188.2z M116.7,198.5h7c4.1,0,7.1-2.3,7.1-6.4
		c0-3.9-2.5-5.1-4.3-5.5v-0.1c1.5-0.6,3.8-1.6,3.8-5.2c0-3.9-2.1-5.7-6.9-5.7h-6.7L116.7,198.5L116.7,198.5z"/>
	<path class="st2" d="M134.3,198.5h3.4v-14h-3.4V198.5L134.3,198.5z M134.2,181.8h3.4v-3.3h-3.4V181.8L134.2,181.8z"/>
	<path class="st2" d="M141.1,178v18c0,1,0,1.9-0.1,2.4h3.1c0.1-0.4,0.1-1.2,0.1-2.2h0.1c0.6,1.2,1.6,2.4,3.7,2.4
		c3.4,0,4.9-3.3,4.9-7.2c0-4.6-1.8-7.2-4.8-7.2c-2,0-3.1,1.1-3.6,2.2h0V178H141.1L141.1,178z M144.5,191.4c0-2.7,0.7-4.7,2.6-4.7
		c1.9,0,2.5,1.8,2.5,4.6c0,3.2-0.5,4.8-2.5,4.8C145.2,196.2,144.5,194,144.5,191.4L144.5,191.4z"/>
	<polygon class="st3" points="156,198.5 159.3,198.5 159.3,178 156,178 	"/>
	<path class="st2" d="M163,198.5h3.4v-14H163V198.5L163,198.5z M163,181.8h3.4v-3.3H163V181.8L163,181.8z"/>
	<path class="st2" d="M172.9,191.4c0-2.3,0.5-4.8,2.7-4.8c2.2,0,2.6,2.5,2.6,4.8c0,2.3-0.5,4.8-2.6,4.8S172.9,193.8,172.9,191.4
		L172.9,191.4z M169.4,191.4c0,5.9,3.3,7.2,6.1,7.2c2.9,0,6.1-1.4,6.1-7.2c0-5.7-3.3-7.2-6.1-7.2
		C172.7,184.3,169.4,185.7,169.4,191.4L169.4,191.4z"/>
	<path class="st3" d="M185.7,184.4h-2.2v2.5h2.2v7.6c0,3,1.4,4.1,3.9,4.1c1,0,1.7-0.2,2.3-0.5v-2.4c-0.2,0.2-0.7,0.3-1.3,0.3
		c-1,0-1.6-0.4-1.6-2v-7.2h2.8v-2.5H189v-3.9l-3.4,1.1V184.4L185.7,184.4z"/>
	<path class="st3" d="M193.9,198.5h3.4v-8.1c0-1.8,0.7-3.3,2.4-3.3c1.4,0,2,0.9,2,3v8.4h3.4v-9c0-2.8-1-5.2-4.1-5.2
		c-2.1,0-2.9,1.1-3.4,2h-0.1v-8.2H194L193.9,198.5L193.9,198.5z"/>
	<path class="st2" d="M218.2,195.1c-0.7,0.5-1.6,1.1-3.7,1.1c-2.6,0-3.5-1.5-3.5-3.9h8.1v-0.7c0-5.7-2.5-7.5-5.6-7.5
		c-3.5,0-5.7,3.2-5.7,7.4c0,3.8,2,7,6.5,7c2,0,3.4-0.6,4.2-0.9L218.2,195.1L218.2,195.1z M210.9,190.3c0-1.9,0.7-3.7,2.5-3.7
		c1.6,0,2.3,1.2,2.3,3.7H210.9L210.9,190.3z"/>
	<polygon class="st3" points="221.7,198.5 225,198.5 225,191.7 225.1,191.7 229.4,198.5 233.3,198.5 227.9,190.7 232.8,184.4 
		229.2,184.4 225.1,190 225,190 225,178 221.7,178 	"/>
	<polygon class="st3" points="242.8,198.5 246.3,198.5 246.3,189.5 246.3,189.5 252.1,198.5 256.3,198.5 249.3,188.5 255.8,179.5 
		251.7,179.5 246.3,187.6 246.3,187.6 246.3,179.5 242.8,179.5 	"/>
	<path class="st2" d="M261,191.4c0-2.3,0.5-4.8,2.7-4.8c2.2,0,2.6,2.5,2.6,4.8c0,2.3-0.5,4.8-2.6,4.8
		C261.5,196.2,261,193.8,261,191.4L261,191.4z M257.5,191.4c0,5.9,3.3,7.2,6.1,7.2s6.1-1.4,6.1-7.2c0-5.7-3.3-7.2-6.1-7.2
		S257.5,185.7,257.5,191.4L257.5,191.4z M260.1,182.1h2.6v-3h-2.6V182.1L260.1,182.1z M264.7,182.1h2.6v-3h-2.6V182.1L264.7,182.1z"
		/>
	<polygon class="st3" points="272.8,198.5 276.2,198.5 276.2,178 272.8,178 	"/>
	<path class="st2" d="M279.5,198.5h3.4v-8.1c0-1.8,0.7-3.3,2.4-3.3c1.4,0,2,0.9,2,3v8.4h3.4v-9c0-2.8-1-5.2-4.1-5.2
		c-2.3,0-3.2,1.6-3.7,2.4l0,0h-0.1c0-0.7-0.1-1.5-0.1-2.1h-3.1c0.1,0.7,0.1,1.5,0.1,2.3L279.5,198.5L279.5,198.5z"/>
	<path class="st4" d="M116.1,169c1.1,0.7,3,1,5.2,1c4.3,0,7.7-2.2,7.7-6.9c0-3.2-1.3-4.7-3.9-6.1l-2.5-1.4c-1.3-0.7-2.5-1.4-2.5-3.1
		c0-1.6,1.1-2.7,3.2-2.7c2,0,3.3,0.6,4.3,1l0.2-3.5c-0.7-0.2-2.4-0.8-4.8-0.8c-3.9,0-7.2,2.1-7.2,6.2c0,3,1.5,4.8,3.8,6l2.1,1.1
		c2,1.1,3,1.8,3,3.4c0,2.3-1.6,3.3-3.4,3.3c-2.2,0-4-0.9-4.8-1.4L116.1,169L116.1,169z"/>
	<path class="st3" d="M133.4,155.7h-2.2v2.5h2.2v7.6c0,3,1.4,4.1,3.9,4.1c1,0,1.7-0.2,2.3-0.5v-2.4c-0.2,0.2-0.7,0.3-1.3,0.3
		c-1,0-1.6-0.4-1.6-2v-7.2h2.8v-2.5h-2.8v-3.9l-3.4,1.1V155.7L133.4,155.7z"/>
	<path class="st2" d="M142.6,159.3c0.7-0.6,2.1-1.4,3.9-1.4c2,0,2.6,1.3,2.6,2.6v0.7h-0.7c-4.3,0-7.4,1-7.4,4.8c0,2.6,2,4.1,4.2,4.1
		c2,0,3-1,3.9-2.1h0.1c0,0.7,0,1.4,0.2,1.9h3c-0.1-0.6-0.2-1.5-0.2-2.5v-6.1c0-3.5-1-5.7-5.3-5.7c-2.1,0-3.4,0.6-4.4,1.1
		L142.6,159.3L142.6,159.3z M149.1,163.7c0,2.5-0.7,4-2.7,4c-1.3,0-2.1-0.9-2.1-2.1c0-2,1.7-2.6,4.6-2.6h0.3L149.1,163.7
		L149.1,163.7z"/>
	<path class="st2" d="M163.4,149.3v8.4h-0.1c-0.5-1.1-1.6-2.2-3.6-2.2c-3,0-4.8,2.6-4.8,7.2c0,3.9,1.5,7.2,4.9,7.2
		c2.2,0,3.2-1.2,3.7-2.4h0.1c0,1,0.1,1.8,0.1,2.2h3.1c-0.1-0.5-0.1-1.4-0.1-2.4v-18H163.4L163.4,149.3z M158.4,162.6
		c0-2.8,0.7-4.6,2.5-4.6c1.9,0,2.6,2,2.6,4.7c0,2.6-0.7,4.8-2.6,4.8C158.8,167.5,158.4,165.8,158.4,162.6L158.4,162.6z"/>
	<path class="st3" d="M171.1,155.7h-2.2v2.5h2.2v7.6c0,3,1.4,4.1,3.9,4.1c1,0,1.7-0.2,2.3-0.5v-2.4c-0.2,0.2-0.7,0.3-1.3,0.3
		c-1,0-1.6-0.4-1.6-2v-7.2h2.8v-2.5h-2.8v-3.9l-3.4,1.1V155.7L171.1,155.7z"/>
	<path class="st4" d="M116.5,118.2V133c0,6.1,3.4,8.4,7.8,8.4c4.3,0,7.8-2.4,7.8-8.4v-14.8h-4.2V133c0,3.8-1.1,5.1-3.6,5.1
		c-2.5,0-3.6-1.2-3.6-5.1v-14.8H116.5L116.5,118.2z"/>
	<path class="st2" d="M135.8,141.1h3.4v-8.1c0-1.8,0.7-3.3,2.4-3.3c1.4,0,2,0.9,2,3v8.4h3.4v-9c0-2.8-1-5.2-4.1-5.2
		c-2.3,0-3.2,1.6-3.7,2.4l0,0H139c0-0.7-0.1-1.5-0.1-2.1h-3.1c0.1,0.7,0.1,1.5,0.1,2.3L135.8,141.1L135.8,141.1z"/>
	<path class="st2" d="M150.2,141.1h3.4v-14h-3.4V141.1L150.2,141.1z M150.2,124.4h3.4v-3.3h-3.4V124.4L150.2,124.4z"/>
	<polygon class="st3" points="160,141.1 164,141.1 168.3,127 165,127 162.1,137.9 162,137.9 159.3,127 155.7,127 	"/>
	<path class="st2" d="M180.2,137.7c-0.7,0.5-1.6,1.1-3.7,1.1c-2.6,0-3.5-1.5-3.5-3.9h8.1v-0.7c0-5.7-2.5-7.5-5.6-7.5
		c-3.5,0-5.7,3.2-5.7,7.4c0,3.8,2,7,6.5,7c2,0,3.4-0.6,4.2-0.9L180.2,137.7L180.2,137.7z M172.9,132.9c0-1.9,0.7-3.7,2.5-3.7
		c1.6,0,2.3,1.2,2.3,3.7H172.9L172.9,132.9z"/>
	<path class="st3" d="M183.8,141.1h3.4v-7.6c0-2.6,1.6-3.4,2.9-3.4c0.3,0,0.7,0.1,1,0.2V127c-0.2,0-0.3-0.1-0.6-0.1
		c-2.1,0-3.1,1.7-3.5,2.8h-0.1c0-0.8-0.1-1.7-0.1-2.5h-3c0.1,0.7,0.1,1.5,0.1,2.3V141.1L183.8,141.1z"/>
	<path class="st3" d="M192.4,140.6c0.7,0.2,2.1,0.7,3.9,0.7c3,0,5.2-1.6,5.2-4.1c0-1.6-0.9-2.4-2.6-3.5l-1.6-1.1
		c-1-0.7-1.6-1.1-1.6-1.8c0-0.8,0.6-1.4,2-1.4c1.2,0,2.1,0.3,3,0.7l0.2-2.6c-0.3-0.1-1.7-0.6-3.5-0.6c-3,0-4.8,2-4.8,3.9
		c0,2.2,1.6,3.1,3,3.9l1.4,0.8c1.2,0.7,1.5,1.2,1.5,1.8c0,1.1-1,1.4-2.2,1.4c-1.6,0-3-0.7-3.5-0.9L192.4,140.6L192.4,140.6z"/>
	<path class="st2" d="M204.4,141.1h3.4v-14h-3.4V141.1L204.4,141.1z M204.3,124.4h3.4v-3.3h-3.4V124.4L204.3,124.4z"/>
	<path class="st3" d="M212.3,127h-2.2v2.5h2.2v7.6c0,3,1.4,4.1,3.9,4.1c1,0,1.7-0.2,2.3-0.5v-2.4c-0.2,0.2-0.7,0.3-1.3,0.3
		c-1,0-1.6-0.4-1.6-2v-7.2h2.8V127h-2.8v-3.9l-3.4,1.1V127L212.3,127z"/>
	<path class="st2" d="M221.5,130.6c0.7-0.6,2.1-1.4,3.9-1.4c2,0,2.6,1.3,2.6,2.6v0.7h-0.7c-4.3,0-7.4,1-7.4,4.8c0,2.6,2,4.1,4.2,4.1
		c2,0,3-1,3.9-2.1h0.1c0,0.7,0,1.4,0.2,1.9h3c-0.1-0.6-0.2-1.5-0.2-2.5v-6.1c0-3.5-1-5.7-5.3-5.7c-2.1,0-3.4,0.6-4.4,1.1
		L221.5,130.6L221.5,130.6z M228,135c0,2.5-0.7,4-2.7,4c-1.3,0-2.1-0.9-2.1-2.1c0-2,1.7-2.6,4.6-2.6h0.3L228,135L228,135z
		 M222.3,124.7h2.6v-3h-2.6V124.7L222.3,124.7z M226.9,124.7h2.6v-3h-2.6V124.7L226.9,124.7z"/>
	<path class="st3" d="M235.4,127h-2.2v2.5h2.2v7.6c0,3,1.4,4.1,3.9,4.1c1,0,1.7-0.2,2.3-0.5v-2.4c-0.2,0.2-0.7,0.3-1.3,0.3
		c-1,0-1.6-0.4-1.6-2v-7.2h2.8V127h-2.8v-3.9l-3.4,1.1L235.4,127L235.4,127z"/>
	<path class="st3" d="M243.2,140.6c0.7,0.2,2.1,0.7,3.9,0.7c3,0,5.2-1.6,5.2-4.1c0-1.6-0.9-2.4-2.6-3.5l-1.6-1.1
		c-1-0.7-1.6-1.1-1.6-1.8c0-0.8,0.6-1.4,2-1.4c1.2,0,2.1,0.3,3,0.7l0.2-2.6c-0.3-0.1-1.7-0.6-3.5-0.6c-3,0-4.8,2-4.8,3.9
		c0,2.2,1.6,3.1,3,3.9l1.4,0.8c1.2,0.7,1.5,1.2,1.5,1.8c0,1.1-1,1.4-2.2,1.4c-1.6,0-3-0.7-3.5-0.9L243.2,140.6L243.2,140.6z"/>
	<polygon class="st3" points="254.5,134.7 260.8,134.7 260.8,132 254.5,132 	"/>
	<path class="st2" d="M281.5,127h-3.4v8c0,1.8-0.5,3.4-2.3,3.4c-1.4,0-2-0.9-2-3V127h-3.4v9c0,2.8,1,5.2,4.1,5.2
		c2.2,0,3-1.3,3.7-2.4l0,0h0.1c0,0.7,0.1,1.5,0.1,2.1h3.1c-0.1-0.7-0.1-1.5-0.1-2.3L281.5,127L281.5,127z"/>
	<path class="st2" d="M284.5,141.1h3.4v-8.1c0-1.8,0.7-3.3,2.4-3.3c1.4,0,2,0.9,2,3v8.4h3.4v-9c0-2.8-1-5.2-4.1-5.2
		c-2.3,0-3.2,1.6-3.7,2.4l0,0h-0.1c0-0.7-0.1-1.5-0.1-2.1h-3.1c0.1,0.7,0.1,1.5,0.1,2.3L284.5,141.1L284.5,141.1z"/>
	<path class="st2" d="M306.8,120.6v8.4h-0.1c-0.5-1.1-1.6-2.2-3.6-2.2c-3,0-4.8,2.6-4.8,7.2c0,3.9,1.5,7.2,4.9,7.2
		c2.2,0,3.2-1.2,3.7-2.4h0.1c0,1,0.1,1.8,0.1,2.2h3.1c-0.1-0.5-0.1-1.4-0.1-2.4v-18H306.8L306.8,120.6z M301.7,133.9
		c0-2.8,0.7-4.6,2.5-4.6s2.6,2,2.6,4.7c0,2.6-0.7,4.8-2.6,4.8C302.2,138.8,301.7,137.1,301.7,133.9L301.7,133.9z"/>
	<polygon class="st3" points="10.6,98.1 110.5,98.1 110.5,198 10.6,198 	"/>
	<g>
		<g>
			<defs>
				<rect id="SVGID_1_" x="10.6" y="98.1" width="100" height="100"/>
			</defs>
			<clipPath id="SVGID_2_">
				<use xlink:href="#SVGID_1_"  style="overflow:visible;"/>
			</clipPath>
			<path class="st5" d="M-41.4,90c0-33.3,27-60.4,60.4-60.4c33.3,0,60.4,27,60.4,60.4c0,33.3-27,60.4-60.4,60.4S-41.4,123.3-41.4,90
				L-41.4,90z"/>
		</g>
		<g>
			<defs>
				<rect id="SVGID_3_" x="10.6" y="98.1" width="100" height="100"/>
			</defs>
			<clipPath id="SVGID_4_">
				<use xlink:href="#SVGID_3_"  style="overflow:visible;"/>
			</clipPath>
			<path class="st6" d="M69.1,163.1c0-31.4,25.5-56.9,56.9-56.9s56.9,25.5,56.9,56.9S157.4,220,126,220S69.1,194.5,69.1,163.1
				L69.1,163.1z"/>
		</g>
		<g>
			<defs>
				<rect id="SVGID_5_" x="10.6" y="98.1" width="100" height="100"/>
			</defs>
			<clipPath id="SVGID_6_">
				<use xlink:href="#SVGID_5_"  style="overflow:visible;"/>
			</clipPath>
			<path class="st7" d="M-15.2,169.2c0-18.9,15.3-34.2,34.2-34.2s34.2,15.3,34.2,34.2S37.8,203.4,19,203.4
				C0,203.4-15.2,188-15.2,169.2L-15.2,169.2z"/>
		</g>
		<g>
			<defs>
				<rect id="SVGID_7_" x="10.6" y="98.1" width="100" height="100"/>
			</defs>
			<clipPath id="SVGID_8_">
				<use xlink:href="#SVGID_7_"  style="overflow:visible;"/>
			</clipPath>
			<path class="st8" d="M-41.4,90c0-33.3,27-60.4,60.4-60.4c33.3,0,60.4,27,60.4,60.4c0,33.3-27,60.4-60.4,60.4S-41.4,123.3-41.4,90
				L-41.4,90z"/>
		</g>
	</g>
	<path class="st9" d="M126,109.9c-29.4,0-53.2,23.8-53.2,53.2c0,23.9,15.8,44.2,37.6,50.8v7.7c-25.9-6.9-45-30.5-45-58.5
		c0-33.5,27.1-60.6,60.6-60.6c13.1,0,25.2,4.2,35.1,11.2h-15.4C139.6,111.3,132.9,109.9,126,109.9L126,109.9z"/>
</g>
</svg>
