<?xml version="1.0" encoding="utf-8"?>
<!-- Generator: Adobe Illustrator 25.0.1, SVG Export Plug-In . SVG Version: 6.00 Build 0)  -->
<svg version="1.1" id="Ebene_1" xmlns="http://www.w3.org/2000/svg" xmlns:xlink="http://www.w3.org/1999/xlink" x="0px" y="0px"
	 viewBox="0 0 320 320" style="enable-background:new 0 0 320 320;" xml:space="preserve">
<style type="text/css">
	.st0{fill:#003867;}
	.st1{fill:#919DBC;}
</style>
<g>
	<path class="st0" d="M309.3,164.9v-3.8h-13.9v4.8h8.4v0.1c0,3.9-2.3,7.6-8.2,7.6c-6.3,0-10-4.8-10-12.2c0-7.4,3.7-12.2,10-12.2
		c3.7,0,5.8,1.2,7.6,3.9l4.6-2.5c-2.5-4-6.4-6.3-12.2-6.3c-9.3,0-15.2,7.2-15.2,17.2s5.9,17.2,15.2,17.2
		C303.6,178.5,309.3,173.4,309.3,164.9L309.3,164.9z"/>
	<path class="st0" d="M240,164.1v-19.2h-5.2v19.3c0,6-2.6,9.2-8,9.2c-5.2,0-7.9-3.3-7.9-9.6v-19h-5.2V164c0,9.1,4.5,14.4,13,14.4
		C235.3,178.3,240,173.3,240,164.1L240,164.1z"/>
	<path class="st0" d="M276,177.8v-33h-5.5l-7.6,17.6c-0.8,1.9-1.8,4.3-2.3,5.7c-0.4-1.4-1.5-3.8-2.4-5.7l-7.8-17.6H245v33h4.9v-17.4
		c0-2,0-4.9-0.1-5.8c0.4,0.9,1.4,3.3,2.2,5.2l8.3,18.6l8.4-18.6c0.8-1.9,1.8-4.2,2.2-5.2c0,0.9-0.1,3.8-0.1,5.8v17.4H276L276,177.8z
		"/>
	<path d="M12.8,151c0,2.8,0.8,4.3,3.6,4.3c2.6,0,3.5-1.9,3.5-4.5v-6c0.1,0,0.3,0,0.5,0c0.1,0,0.3,0,0.5,0v6.4c0,3.2-1.9,4.8-4.7,4.8
		c-1.6,0-2.7-0.4-3.5-1.1c-1-0.9-1.1-2.4-1.2-3.6v-6.5c0.2,0,0.5,0,0.7,0c0.2,0,0.5,0,0.7,0V151L12.8,151z"/>
	<path d="M33.6,155.9h-0.5c-0.2-0.2-0.5-0.6-0.8-1l-7-7.7h-0.2v8.7c-0.2,0-0.3,0-0.5,0c-0.2,0-0.3,0-0.5,0v-11h0.6l7.7,8.3h0.2
		l0-8.3c0.1,0,0.3,0,0.5,0c0.1,0,0.3,0,0.5,0V155.9L33.6,155.9z"/>
	<path d="M36.9,144.9c0.2,0,0.5,0,0.7,0c0.2,0,0.5,0,0.7,0v11c-0.3,0-0.5,0-0.7,0c-0.2,0-0.5,0-0.7,0V144.9L36.9,144.9z"/>
	<path d="M48.3,147.8l1-2.7l0.1-0.3c0.2,0,0.4,0,0.6,0c0.2,0,0.4,0,0.6,0c-0.5,1-4.1,9.2-4.7,11c-0.1,0-0.2,0-0.3,0
		c-0.1,0-0.2,0-0.3,0c-1.8-3.8-4.2-9.7-4.9-11c0.2,0,0.5,0,0.8,0c0.3,0,0.5,0,0.8,0c0.2,0.5,0.4,1,0.6,1.6l1.1,2.8l2,4.9h0.1
		c0.3-0.7,0.6-1.3,0.9-2L48.3,147.8L48.3,147.8z"/>
	<path d="M53.8,149.7h2.5c0.5,0,1-0.1,1.4-0.1c0,0.1,0,0.3,0,0.4c0,0.1,0,0.3,0,0.5c-0.5,0-1-0.1-1.4-0.1h-2.5v4.7c1,0,2,0,2.9-0.1
		c0.5,0,1-0.1,1.5-0.1c0,0.2,0,0.3,0,0.5c0,0.2,0,0.3,0,0.5h-5.8v-11h5.7c0,0.2,0,0.3,0,0.5c0,0.2,0,0.3,0,0.5
		c-0.5-0.1-1-0.1-1.5-0.2l-1.6,0h-1.2V149.7L53.8,149.7z"/>
	<path d="M60.6,144.9H64c2.5,0,3.6,0.8,3.6,2.5c0,1.9-1.7,2.8-3.3,3.1l3.3,4.2l0.8,0.9l0.3,0.4c-0.3,0-0.6,0-0.9,0
		c-0.3,0-0.6,0-0.9,0c-0.4-0.5-0.7-1-1-1.4l-1.9-2.5l-1.3-1.5H62v5.4c-0.3,0-0.5,0-0.7,0c-0.2,0-0.5,0-0.7,0V144.9L60.6,144.9z
		 M62,149.9c0.2,0,1.3,0.1,2.1-0.1c1.2-0.2,2.1-1,2.1-2.3c0-1.1-0.6-1.8-1.8-2c-0.6-0.1-1.7,0-2.4,0V149.9L62,149.9z"/>
	<path d="M70.3,153.7c0.6,1,1.4,1.7,2.6,1.7c1.3,0,2.2-1.1,2.2-2.4c0-3-5.1-1.7-5.1-5.3c0-2.1,1.6-3.1,3.6-3.1
		c0.8,0,1.7,0.2,2.3,0.8c-0.2,0.4-0.3,0.9-0.4,1.3h-0.2c-0.3-0.9-1-1.4-2-1.4c-1.1,0-2,0.7-2,1.9c0,3,5.1,1.8,5.1,5.2
		c0,2.3-1.8,3.7-4,3.7c-0.8,0-2.1-0.3-2.6-0.9c0.2-0.5,0.2-1,0.3-1.4H70.3L70.3,153.7z"/>
	<path d="M78.9,144.9c0.2,0,0.5,0,0.7,0c0.2,0,0.5,0,0.7,0v11c-0.3,0-0.5,0-0.7,0c-0.2,0-0.5,0-0.7,0V144.9L78.9,144.9z"/>
	<path d="M87.3,155.9c-0.3,0-0.5,0-0.7,0c-0.2,0-0.5,0-0.7,0v-10.3c-1.6,0-2.6,0.1-3.5,0.2c0-0.2,0-0.3,0-0.5c0-0.2,0-0.3,0-0.5h8.3
		c0,0.2,0,0.3,0,0.5c0,0.2,0,0.3,0,0.5c-0.8-0.1-1.9-0.2-3.4-0.2V155.9L87.3,155.9z"/>
	<path d="M101.7,155.9c-0.3,0-0.6,0-0.8,0c-0.3,0-0.6,0-0.9,0c-0.5-1.3-1-2.9-1.7-4.4h-4.1c-0.6,1.4-1.1,2.8-1.6,4.4
		c-0.2,0-0.4,0-0.6,0c-0.2,0-0.4,0-0.6,0l5-11.3h0.4L101.7,155.9L101.7,155.9z M94.2,142.9c0-0.4,0.3-0.7,0.7-0.7
		c0.4,0,0.7,0.3,0.7,0.7c0,0.4-0.4,0.7-0.7,0.7C94.6,143.6,94.2,143.3,94.2,142.9L94.2,142.9z M96.3,146.7l-1.8,4.1H98L96.3,146.7
		L96.3,146.7z M97.4,142.9c0-0.4,0.3-0.7,0.7-0.7c0.4,0,0.7,0.4,0.7,0.7c0,0.4-0.4,0.7-0.7,0.7C97.7,143.6,97.4,143.3,97.4,142.9
		L97.4,142.9z"/>
	<path d="M107.4,155.9c-0.3,0-0.5,0-0.7,0c-0.2,0-0.5,0-0.7,0v-10.3c-1.6,0-2.6,0.1-3.5,0.2c0-0.2,0-0.3,0-0.5c0-0.2,0-0.3,0-0.5
		h8.3c0,0.2,0,0.3,0,0.5c0,0.2,0,0.3,0,0.5c-0.8-0.1-1.9-0.2-3.4-0.2V155.9L107.4,155.9z"/>
	<path d="M112.4,153.7c0.6,1,1.4,1.7,2.6,1.7c1.3,0,2.2-1.1,2.2-2.4c0-3-5.1-1.7-5.1-5.3c0-2.1,1.6-3.1,3.6-3.1
		c0.8,0,1.7,0.2,2.3,0.8c-0.2,0.4-0.3,0.9-0.4,1.3h-0.2c-0.3-0.9-1-1.4-2-1.4c-1.1,0-2,0.7-2,1.9c0,3,5.1,1.8,5.1,5.2
		c0,2.3-1.8,3.7-4,3.7c-0.8,0-2.1-0.3-2.6-0.9c0.2-0.5,0.2-1,0.3-1.4H112.4L112.4,153.7z"/>
	<path d="M131.7,144.9c0.4,4,0.9,8,1.3,11c-0.3,0-0.5,0-0.8,0c-0.3,0-0.5,0-0.8,0c-0.3-3.2-0.6-6.7-0.8-8.3
		c-1.9,3.3-3.3,5.9-4.2,8.2h-0.2l-0.9-1.8c-1-2.1-2.2-4.2-3.3-6.3c-0.4,3.1-0.8,6.3-0.8,8.3c-0.2,0-0.4,0-0.6,0c-0.2,0-0.4,0-0.6,0
		c0.4-2.6,1.4-9.3,1.5-11h0.4c1.3,2.6,2.8,5.6,4.6,8.5c1.5-2.8,3-5.6,4.6-8.5H131.7L131.7,144.9z"/>
	<path d="M136.8,149.7h2.5c0.5,0,1-0.1,1.4-0.1c0,0.1,0,0.3,0,0.4c0,0.1,0,0.3,0,0.5c-0.5,0-1-0.1-1.4-0.1h-2.5v4.7c1,0,2,0,2.9-0.1
		c0.5,0,1-0.1,1.5-0.1c0,0.2,0,0.3,0,0.5c0,0.2,0,0.3,0,0.5h-5.8v-11h5.7c0,0.2,0,0.3,0,0.5c0,0.2,0,0.3,0,0.5
		c-0.5-0.1-1-0.1-1.5-0.2l-1.6,0h-1.2V149.7L136.8,149.7z"/>
	<path d="M143.8,144.9h3.7c1.7,0,3.3-0.2,4.7,1c1.2,1,1.7,2.5,1.7,4c0,2.2-0.8,3.7-2,4.8c-1.4,1.2-3.2,1.2-4.9,1.2h-3.1V144.9
		L143.8,144.9z M145.2,155.1c1.4,0.1,3.4,0.3,4.7-0.4c1.7-0.9,2.3-2.7,2.3-4.6c0-3.4-1.4-4.7-5-4.7c-0.7,0-1.3,0-2,0.1V155.1
		L145.2,155.1z"/>
	<path d="M156.5,144.9c0.2,0,0.5,0,0.7,0c0.2,0,0.5,0,0.7,0v11c-0.3,0-0.5,0-0.7,0c-0.2,0-0.5,0-0.7,0V144.9L156.5,144.9z"/>
	<path d="M164.5,148.9c0.8-1.1,1.6-2.2,2.3-3.4v0l-1.8,0c-1.5,0-3.3,0.2-4.5,0.3c0-0.2,0-0.3,0-0.5c0-0.2,0-0.3,0-0.5h8.5v0.3
		c-2.1,2.7-4.6,6.2-7,9.9v0h2.5c1.5,0,3.3-0.2,4.5-0.3c0,0.2,0,0.3,0,0.5c0,0.2,0,0.3,0,0.5h-9.1v-0.4L164.5,148.9L164.5,148.9z"/>
	<path d="M171.1,144.9c0.2,0,0.5,0,0.7,0c0.2,0,0.5,0,0.7,0v11c-0.3,0-0.5,0-0.7,0c-0.2,0-0.5,0-0.7,0V144.9L171.1,144.9z"/>
	<path d="M185.2,155.9h-0.5c-0.2-0.2-0.5-0.6-0.8-1l-7-7.7h-0.2v8.7c-0.2,0-0.3,0-0.5,0c-0.2,0-0.3,0-0.5,0v-11h0.6l7.7,8.3h0.2
		v-8.3c0.1,0,0.3,0,0.5,0c0.1,0,0.3,0,0.5,0V155.9L185.2,155.9z"/>
	<path d="M100.9,168.8c-0.9-1-2.3-1.6-3.6-1.6c-2.7,0-4.6,1.8-4.6,5.1c0,3.2,1.6,5.2,4.8,5.2c0.9,0,1.8-0.2,2.5-0.5v-4.1
		c0.2,0,0.5,0,0.7,0c0.2,0,0.5,0,0.7,0v4.6c-1.4,0.5-2.9,0.7-4.4,0.7c-4.1,0-6-2.4-6-5.7c0-3.8,2.7-5.8,6.3-5.8
		c2.4,0,3.8,0.7,4.1,0.9c-0.1,0.4-0.3,0.8-0.4,1.2H100.9L100.9,168.8z"/>
	<path d="M103.6,172.3c0-3.5,2.6-5.8,6-5.8c3,0,6.1,1.6,6.1,5.5c0,3.6-2.6,6-6.1,6C106,178.1,103.6,175.8,103.6,172.3L103.6,172.3z
		 M113.1,168.7c-0.8-1-2.1-1.6-3.4-1.6c-2.8,0-4.6,2.1-4.6,5.4c0,3.3,2,5,4.4,5c3.4,0,4.6-3.5,4.5-5.3
		C114.1,170.9,113.9,169.8,113.1,168.7L113.1,168.7z M107.3,164.8c0-0.4,0.3-0.7,0.7-0.7c0.4,0,0.7,0.3,0.7,0.7
		c0,0.4-0.4,0.7-0.7,0.7C107.7,165.6,107.3,165.2,107.3,164.8L107.3,164.8z M110.5,164.8c0-0.4,0.3-0.7,0.7-0.7
		c0.4,0,0.7,0.4,0.7,0.7c0,0.4-0.4,0.7-0.7,0.7S110.5,165.2,110.5,164.8L110.5,164.8z"/>
	<path d="M122,177.9c-0.3,0-0.5,0-0.7,0c-0.2,0-0.5,0-0.7,0v-10.3c-1.6,0-2.6,0.1-3.5,0.2c0-0.2,0-0.3,0-0.5c0-0.2,0-0.3,0-0.5h8.3
		c0,0.2,0,0.3,0,0.5c0,0.2,0,0.3,0,0.5c-0.8-0.1-1.9-0.2-3.4-0.2V177.9L122,177.9z"/>
	<path d="M131.3,177.9c-0.3,0-0.5,0-0.7,0c-0.2,0-0.5,0-0.7,0v-10.3c-1.6,0-2.6,0.1-3.5,0.2c0-0.2,0-0.3,0-0.5c0-0.2,0-0.3,0-0.5
		h8.3c0,0.2,0,0.3,0,0.5c0,0.2,0,0.3,0,0.5c-0.8-0.1-1.9-0.2-3.4-0.2V177.9L131.3,177.9z"/>
	<path d="M136.8,166.8c0.2,0,0.5,0,0.7,0c0.2,0,0.5,0,0.7,0v11c-0.3,0-0.5,0-0.7,0c-0.2,0-0.5,0-0.7,0V166.8L136.8,166.8z"/>
	<path d="M151.1,177.9h-0.5c-0.2-0.2-0.5-0.6-0.8-1l-7-7.7h-0.2v8.7c-0.2,0-0.3,0-0.5,0c-0.2,0-0.3,0-0.5,0v-11h0.6l7.7,8.3h0.2
		v-8.3c0.1,0,0.3,0,0.5,0c0.1,0,0.3,0,0.5,0V177.9L151.1,177.9z"/>
	<path d="M163.9,168.8c-0.9-1-2.3-1.6-3.6-1.6c-2.7,0-4.6,1.8-4.6,5.1c0,3.2,1.6,5.2,4.8,5.2c0.9,0,1.8-0.2,2.5-0.5v-4.1
		c0.2,0,0.5,0,0.7,0c0.2,0,0.5,0,0.7,0v4.6c-1.4,0.5-2.9,0.7-4.4,0.7c-4.1,0-6-2.4-6-5.7c0-3.8,2.7-5.8,6.3-5.8
		c2.4,0,3.8,0.7,4.1,0.9c-0.1,0.4-0.3,0.8-0.4,1.2H163.9L163.9,168.8z"/>
	<path d="M168.7,171.6h2.5c0.5,0,1-0.1,1.4-0.1c0,0.1,0,0.3,0,0.4c0,0.1,0,0.3,0,0.5c-0.5,0-1-0.1-1.4-0.1h-2.5v4.7c1,0,2,0,2.9-0.1
		c0.5,0,1-0.1,1.5-0.1c0,0.2,0,0.3,0,0.5c0,0.2,0,0.3,0,0.5h-5.8v-11h5.7c0,0.2,0,0.3,0,0.5c0,0.2,0,0.3,0,0.5
		c-0.5-0.1-1-0.1-1.5-0.2l-1.6,0h-1.2V171.6L168.7,171.6z"/>
	<path d="M185.2,177.9h-0.5c-0.2-0.2-0.5-0.6-0.8-1l-7-7.7h-0.2v8.7c-0.2,0-0.3,0-0.5,0c-0.2,0-0.3,0-0.5,0v-11h0.6l7.7,8.3h0.2
		v-8.3c0.1,0,0.3,0,0.5,0c0.1,0,0.3,0,0.5,0V177.9L185.2,177.9z"/>
	<polygon class="st1" points="196.2,144.8 202.7,144.8 202.7,151.4 196.2,151.4 196.2,144.8 	"/>
	<polygon class="st1" points="196.2,158 202.7,158 202.7,164.6 196.2,164.6 196.2,158 	"/>
	<polygon class="st1" points="196.2,171.2 202.7,171.2 202.7,177.8 196.2,177.8 196.2,171.2 	"/>
</g>
</svg>
