<?xml version="1.0" encoding="utf-8"?>
<!-- Generator: Adobe Illustrator 25.0.1, SVG Export Plug-In . SVG Version: 6.00 Build 0)  -->
<svg version="1.1" id="Ebene_1" xmlns="http://www.w3.org/2000/svg" xmlns:xlink="http://www.w3.org/1999/xlink" x="0px" y="0px"
	 viewBox="0 0 320 320" style="enable-background:new 0 0 320 320;" xml:space="preserve">
<style type="text/css">
	.st0{fill:#004F9F;}
	.st1{fill:#FBBA00;}
	.st2{fill:#929084;}
	.st3{fill:#FFFFFF;}
</style>
<path class="st0" d="M247.2,134.5c9.4-11.1,14.7-20.2,19-31.4h-72.7v62.8C207.9,164,228.1,157.1,247.2,134.5z"/>
<rect x="193.5" y="184.9" class="st1" width="113.8" height="32"/>
<path class="st2" d="M307.3,103.1H271c-4.4,11.8-11,23.8-21,35.7c-19.8,23.3-41.7,30.3-56.5,32.3v8.8h113.8V103.1z"/>
<g>
	<path class="st3" d="M209.9,201c3.1,0.3,4.2,2.2,4.2,5.5c0,4.2-1.9,5.4-6.8,5.4c-3.8,0-5.7,0-8.2-0.2V191c2.2-0.2,4-0.2,7.3-0.2
		c5.2,0,7.1,1.1,7.1,5.4c0,3-1,4.5-3.5,4.7V201z M202.7,193.8v5.8h3.7c2.5,0,3.4-0.6,3.4-3c0-2.3-0.9-2.8-3.7-2.8H202.7z
		 M206.6,208.9c2.8,0,3.7-0.6,3.7-3.1c0-2.8-0.9-3.5-3.8-3.5h-3.8v6.5L206.6,208.9z"/>
	<path class="st3" d="M234.1,201.3c0,8.2-2.2,10.7-8.5,10.7c-6.3,0-8.5-2.5-8.5-10.7c0-8.2,2.2-10.7,8.5-10.7
		C231.9,190.6,234.1,193.1,234.1,201.3z M221.1,201.3c0,5.7,1.1,7.5,4.5,7.5c3.5,0,4.6-1.8,4.6-7.5c0-5.7-1.1-7.5-4.6-7.5
		C222.1,193.8,221.1,195.6,221.1,201.3z"/>
	<path class="st3" d="M254.8,210.3c0,0.9-0.5,1.4-1.4,1.4h-3c-0.8,0-1.2-0.4-1.6-1.1l-5.8-12.7c-0.4-0.8-1-2.1-1.2-3.1h-0.4
		c0.1,1,0.2,2.1,0.2,3.1v13.8H238v-19.3c0-0.9,0.5-1.4,1.4-1.4h2.9c0.8,0,1.2,0.4,1.6,1.1l5.6,12.3c0.4,0.9,1,2.2,1.4,3.3h0.4
		c-0.1-1.1-0.1-2.2-0.1-3.4V191h3.7V210.3z"/>
	<path class="st3" d="M276.2,210.3c0,0.9-0.5,1.4-1.4,1.4h-3c-0.8,0-1.2-0.4-1.6-1.1l-5.8-12.7c-0.4-0.8-1-2.1-1.2-3.1h-0.4
		c0.1,1,0.2,2.1,0.2,3.1v13.8h-3.7v-19.3c0-0.9,0.5-1.4,1.4-1.4h2.9c0.8,0,1.2,0.4,1.6,1.1l5.6,12.3c0.4,0.9,1,2.2,1.4,3.3h0.4
		c-0.1-1.1-0.1-2.2-0.1-3.4V191h3.7V210.3z"/>
</g>
<g>
	<path class="st2" d="M27.9,203.7c0,6-2,8.4-7.5,8.4c-5.7,0-7.7-2.3-7.7-8.4V191h3v12.7c0,4.3,1.2,5.7,4.6,5.7
		c3.4,0,4.6-1.4,4.6-5.7V191h3V203.7z"/>
	<path class="st2" d="M48.9,210.5c0,0.8-0.4,1.2-1.1,1.2H45c-0.7,0-1-0.3-1.3-0.9l-6.4-14.1c-0.4-0.8-1-2-1.2-2.9h-0.4
		c0.1,1,0.1,1.9,0.1,2.9v15h-3v-19.5c0-0.8,0.4-1.2,1.1-1.2h2.8c0.7,0,1,0.3,1.3,0.9l6.3,13.7c0.4,0.8,1,2,1.4,3.1h0.4
		c-0.1-1.1-0.2-2.1-0.2-3.2V191h3V210.5z"/>
	<path class="st2" d="M54,211.6V191h3v20.7H54z"/>
	<path class="st2" d="M71.2,210.8c-0.2,0.5-0.6,0.8-1.1,0.8h-2.9c-0.5,0-1-0.4-1.1-0.8L59.9,191H63l4.7,16.1
		c0.2,0.7,0.4,1.5,0.6,2.3H69c0.1-0.7,0.4-1.5,0.6-2.3l4.6-16.1h3.1L71.2,210.8z"/>
	<path class="st2" d="M93.2,211.5c-2.7,0.2-5.9,0.2-8.9,0.2c-2.6,0-4.1-1.4-4.2-3.7v-13.4c0-2.3,1.6-3.7,4.2-3.7c3,0,6.1,0,8.9,0.2
		l-0.2,2.3h-8.2c-1.2,0-1.6,0.5-1.6,1.9v4.1h8.7v2.4h-8.7v5.3c0,1.4,0.4,1.9,1.6,1.9H93L93.2,211.5z"/>
	<path class="st2" d="M108.7,211.6l-1.8-6.4c-0.5-1.5-1.3-2.1-2.6-2.1l-4.3,0v8.5h-3V191c2.3-0.2,3.8-0.3,7.2-0.3
		c4.8,0,6.8,1.3,6.8,6c0,3.3-1,4.9-3.8,5.3v0.1c1,0.3,2.2,1.2,2.6,3l1.9,6.5H108.7z M104.3,200.6c2.9,0,3.9-0.8,3.9-3.7
		c0-2.8-1-3.6-3.9-3.6c-1.6,0-3.1,0-4.2,0v7.2H104.3z"/>
	<path class="st2" d="M127.8,191.3l-0.2,2.2c-1.7-0.1-4-0.2-5.9-0.2c-2.8,0-3.9,0.1-3.9,2.9c0,2.1,0.7,2.7,2.5,3.1l4.1,1.1
		c3.2,0.9,4.2,2.8,4.2,5.9c0,4.8-2.1,5.7-7,5.7c-1.3,0-3.6-0.1-6.5-0.6l0.2-2.2c3.7,0.1,4.8,0.2,6.3,0.2c3,0,3.9-0.5,3.9-3.1
		c0-2.2-0.8-2.7-2.5-3.2l-4.2-1.2c-3-0.8-4.1-2.7-4.1-5.9c0-4.8,2.1-5.4,6.8-5.4C123.5,190.6,125.7,190.8,127.8,191.3z"/>
	<path class="st2" d="M132.6,211.6V191h3v20.7H132.6z"/>
	<path class="st2" d="M148.3,193.7v18h-3v-18h-6.5V191h16.1v2.7H148.3z"/>
	<path class="st2" d="M159.1,205.4l-1.9,6.2h-3.1l6.5-19.8c0.1-0.5,0.6-0.8,1.1-0.8h3.1c0.5,0,1,0.3,1.1,0.8l6.5,19.8h-3.1l-1.9-6.2
		H159.1z M160.1,188.7c-0.5,0-0.8-0.2-0.8-0.8v-1.6c0-0.5,0.2-0.8,0.8-0.8h1c0.5,0,0.8,0.3,0.8,0.8v1.6c0,0.6-0.2,0.8-0.8,0.8H160.1
		z M164.1,195c-0.2-0.5-0.4-1.1-0.5-1.7h-0.8c-0.2,0.5-0.4,1.1-0.5,1.7l-2.4,7.8h6.6L164.1,195z M165.4,188.7
		c-0.5,0-0.8-0.2-0.8-0.8v-1.6c0-0.5,0.2-0.8,0.8-0.8h1c0.5,0,0.8,0.3,0.8,0.8v1.6c0,0.6-0.3,0.8-0.8,0.8H165.4z"/>
	<path class="st2" d="M181.1,193.7v18h-3v-18h-6.5V191h16.1v2.7H181.1z"/>
</g>
</svg>
