<?xml version="1.0" encoding="utf-8"?>
<!-- Generator: Adobe Illustrator 25.0.1, SVG Export Plug-In . SVG Version: 6.00 Build 0)  -->
<svg version="1.1" id="Wort-_Bildmarke" xmlns="http://www.w3.org/2000/svg" xmlns:xlink="http://www.w3.org/1999/xlink" x="0px"
	 y="0px" viewBox="0 0 320 320" style="enable-background:new 0 0 320 320;" xml:space="preserve">
<style type="text/css">
	.st0{fill:#1E1E1C;}
</style>
<g>
	<g>
		<polygon class="st0" points="296.5,135.3 296.5,137.6 301.4,137.6 301.4,155.6 303.9,155.6 303.9,137.6 308.7,137.6 308.7,135.3 
					"/>
		<polygon class="st0" points="279.6,135.3 267.4,135.3 267.4,137.6 272.2,137.6 272.2,155.6 274.7,155.6 274.7,137.6 279.6,137.6 
					"/>
		<rect x="261.3" y="135.3" class="st0" width="2.5" height="20.4"/>
		<path class="st0" d="M251.6,143.6l-1.5-0.6c-1.3-0.5-2.8-1.3-2.8-2.9c0-1.8,1.8-2.9,3.4-2.9c1.5,0,2.5,0.6,3.3,1.9l2-1.2
			c-1.1-2-3-3.1-5.2-3.1c-3.1,0-6,2-6,5.3c0,2.8,2.1,4.2,4.4,5.2l1.4,0.6c1.7,0.7,3.5,1.7,3.5,3.9c0,2.1-1.6,4-3.7,4
			c-2.2,0-4-1.6-3.9-3.9l-2.6,0.5c0.4,3.3,3,5.7,6.3,5.7c3.6,0,6.5-2.6,6.5-6.3C256.7,146.3,254.5,144.7,251.6,143.6z"/>
		<polygon class="st0" points="223.9,153.3 215.5,153.3 215.5,145.6 223.6,145.6 223.6,143.3 215.5,143.3 215.5,137.6 223.9,137.6 
			223.9,135.3 212.9,135.3 212.9,155.6 223.9,155.6 		"/>
		<polygon class="st0" points="210.3,135.3 207.5,135.3 201.5,150.3 195.5,135.3 192.7,135.3 201.5,156.7 		"/>
		<rect x="187.5" y="135.3" class="st0" width="2.5" height="20.4"/>
		<polygon class="st0" points="166.7,140.5 182,156.5 182,135.3 179.4,135.3 179.4,150.3 164.2,134.3 164.2,155.6 166.7,155.6 		"/>
		<path class="st0" d="M152.2,156.1c4.7,0,7.4-3.4,7.4-7.9v-12.9h-2.5v12c0,3.3-1,6.4-4.9,6.4c-3.9,0-4.9-3.1-4.9-6.4v-12h-2.5v12.9
			C144.8,152.6,147.5,156.1,152.2,156.1z"/>
		<path class="st0" d="M240.3,141.1c0-1.9-1-3.9-2.7-4.9c-1.6-0.9-3.6-0.9-5.4-0.9h-3.1v20.4h2.5V147h1.1l6,8.6h3.1l-6.4-8.9
			C238.4,146.4,240.3,144,240.3,141.1z M232.5,144.9h-0.8v-7.4h0.7c2.5,0,5.5,0.5,5.5,3.6C237.9,144.4,235.1,144.9,232.5,144.9z"/>
		<path class="st0" d="M292,138.4c0.9,0,1.6-0.7,1.6-1.6c0-0.9-0.7-1.6-1.6-1.6c-0.9,0-1.6,0.7-1.6,1.6
			C290.4,137.6,291.1,138.4,292,138.4z"/>
		<path class="st0" d="M278.3,155.6h2.7l2.3-5.1h9.3l2.3,5.1h2.7l-9.7-21.2L278.3,155.6z M284.4,148.2l3.6-8.2l3.6,8.2H284.4z"/>
		<path class="st0" d="M284,138.4c0.9,0,1.6-0.7,1.6-1.6c0-0.9-0.7-1.6-1.6-1.6c-0.9,0-1.6,0.7-1.6,1.6
			C282.4,137.6,283.1,138.4,284,138.4z"/>
		<polygon class="st0" points="147.3,165.4 144.8,165.4 144.8,185.7 153.5,185.7 153.5,183.4 147.3,183.4 		"/>
		<path class="st0" d="M227.4,177.8h5.3c-0.1,3.3-3.5,6-6.7,6c-4.4,0-7.9-4-7.9-8.3c0-4.6,3.6-8.3,8.1-8.3c2.5,0,4.9,1.3,6.4,3.3
			l1.8-1.7c-2-2.5-5.1-3.9-8.3-3.9c-5.8,0-10.5,4.8-10.5,10.7c0,5.6,4.6,10.6,10.3,10.6c5.7,0,9.6-4.3,9.6-9.9v-0.8h-8.1V177.8z"/>
		<rect x="209.4" y="165.4" class="st0" width="2.5" height="20.4"/>
		<polygon class="st0" points="193,165.6 193,167.9 201.8,167.9 191.6,186 206,186 206,183.6 195.7,183.6 206,165.6 		"/>
		<rect x="171.8" y="165.4" class="st0" width="2.5" height="20.4"/>
		<polygon class="st0" points="156,185.7 166.9,185.7 166.9,183.4 158.5,183.4 158.5,175.7 166.6,175.7 166.6,173.4 158.5,173.4 
			158.5,167.7 166.9,167.7 166.9,165.4 156,165.4 		"/>
		<path class="st0" d="M182.9,165.4H180v20.4h2.5v-8.5h1.5c3.9,0,7.1-1.6,7.1-5.9C191,167.5,189.1,165.4,182.9,165.4z M183.3,174.9
			h-0.8v-7.3h0.7c2.5,0,5.5,0.4,5.5,3.6C188.7,174.5,185.9,174.9,183.3,174.9z"/>
		<rect x="129.6" y="108.1" class="st0" width="0.6" height="104.3"/>
		<path class="st0" d="M62.8,108.1c-28.8,0-52.2,23.4-52.2,52.2c0,28.8,23.4,52.2,52.2,52.2c28.8,0,52.2-23.4,52.2-52.2
			C114.9,131.5,91.5,108.1,62.8,108.1z M62.8,211.8c-28.4,0-51.6-23.1-51.6-51.6s23.1-51.6,51.6-51.6s51.6,23.1,51.6,51.6
			S91.2,211.8,62.8,211.8z"/>
		<path class="st0" d="M50,144.8c0,0,0.2,0.1,0.2,0.1c0,0,0.1,0.1,0.1,0.1c0.1,0,0.1-0.1,0.2-0.2c0,0,0.3-0.5,0.5-0.8
			c0.1-0.2,0.3-0.4,0.6-0.3c0.1,0,0.3,0.1,0.5,0.2c0,0,0,0,0-0.1c0,0,0-0.1,0.1-0.1c0,0,0,0,0-0.1c0-0.1,0-0.1,0.1-0.2
			c0,0,0-0.1,0-0.1c0,0-0.1-0.1-0.1-0.1c-0.1,0-0.1,0-0.2-0.1c-0.6-0.2-1.1,0-1.4,0.5c-0.2,0.3-0.5,0.7-0.6,0.9
			C49.9,144.6,49.9,144.7,50,144.8z"/>
		<path class="st0" d="M49.7,143.6c0.2,0,0.3-0.1,0.3-0.2c0-0.1,0-0.2-0.1-0.3c0-0.1-0.1-0.1-0.2-0.2c-0.1,0-0.2,0-0.2,0
			s-0.2,0.1-0.2,0.1c0,0.1,0,0.2,0.1,0.3C49.4,143.5,49.5,143.5,49.7,143.6z"/>
		<path class="st0" d="M49.6,145.3c-0.1-0.1-0.3,0-0.3,0s-0.1,0.1-0.1,0.2c0,0.1,0,0.4,0.6,0.5c0.2,0.1,0.3,0,0.4-0.2
			C50.4,145.5,49.9,145.5,49.6,145.3z"/>
		<path class="st0" d="M76,143.9c0.2,0,0.4-0.2,0.4-0.3c0-0.1-0.1-0.3-0.1-0.3c0-0.1-0.1-0.1-0.3-0.2c-0.2,0-0.3,0-0.3,0
			s-0.2,0.1-0.3,0.2c0,0.1,0,0.3,0.1,0.4C75.6,143.9,75.8,143.9,76,143.9z"/>
		<path class="st0" d="M81.4,157.3c0.1,0,0.3-0.1,0.3-0.2c0-0.1-0.1-0.2-0.1-0.2c0-0.1-0.1-0.1-0.2-0.1c-0.1,0-0.2,0-0.2,0
			s-0.2,0.1-0.2,0.2c0,0.1,0,0.2,0.1,0.3C81.2,157.2,81.3,157.2,81.4,157.3z"/>
		<path class="st0" d="M73.1,143.2c-0.1,0-0.2-0.1-0.3,0c-0.2,0-0.3,0.1-0.3,0.1s-0.2,0.2-0.2,0.3c0,0.1,0.1,0.2,0.3,0.3
			c0.1,0.1,0.3,0,0.5,0c0.2,0,0.3-0.3,0.3-0.4C73.4,143.4,73.2,143.2,73.1,143.2z"/>
		<path class="st0" d="M52,144.2c-0.1,0-0.2,0-0.2,0s-0.2,0.1-0.2,0.2c0,0.1,0,0.2,0.1,0.3c0.1,0.1,0.2,0.1,0.4,0.1
			c0.2,0,0.3-0.1,0.3-0.2c0-0.1-0.1-0.2-0.1-0.3C52.2,144.3,52.1,144.3,52,144.2z"/>
		<path class="st0" d="M29.9,186.5l-1.9,0.4l-1.5-2.2l1-1.6l-0.4-0.6l-3.7,6l6.9-1.4L29.9,186.5z M24.8,187.6l1.4-2.3l1.2,1.7
			L24.8,187.6z"/>
		<polygon class="st0" points="25.1,178.7 24.5,179 25.3,180.5 20.4,183.1 20.7,183.7 26.2,180.8 		"/>
		<polygon class="st0" points="24.4,177.6 24.2,176.9 20,177.5 20,177.5 23.5,174.2 18.7,173.8 18.7,173.7 22.4,171.6 22.1,171 
			16.4,174.3 22,174.7 17.8,178.5 		"/>
		<path class="st0" d="M21.7,168.8l-1.9-0.5l-0.4-2.6l1.6-1L21,164l-6,3.7l6.8,1.9L21.7,168.8z M16.6,167.5l2.3-1.4l0.3,2.1
			L16.6,167.5z"/>
		<polygon class="st0" points="20.8,160.8 20.9,160.1 16.7,159 16.7,159 21.3,157.3 17.1,155 17.1,155 21.3,154.5 21.3,153.8 
			14.7,154.6 19.7,157.2 14.4,159.1 		"/>
		<path class="st0" d="M21.7,152.5l-1.5-1.1l0.6-2.6l1.9-0.3l0.2-0.7l-7,1.1l5.6,4.3L21.7,152.5z M19.6,150.9l-2.2-1.6l2.7-0.4
			L19.6,150.9z"/>
		<polygon class="st0" points="18.5,143.7 23.7,145.7 23.9,145 18.7,143 19.3,141.6 18.7,141.4 17.4,144.8 18,145.1 		"/>
		<polygon class="st0" points="26.9,139 26.3,138.7 25.1,140.9 22.9,139.8 24.1,137.6 23.6,137.3 22.4,139.5 20.8,138.6 22,136.4 
			21.4,136.1 19.9,138.9 25.3,141.9 		"/>
		<path class="st0" d="M28.7,136.3l-2.2-1.6l0.1-0.1l3.3,0.1l0.5-0.7l-3.4,0c0.2-0.4,0.3-0.8,0.2-1.2c-0.1-0.4-0.3-0.8-0.7-1
			c-0.6-0.4-1.1-0.5-1.5-0.2c-0.4,0.2-0.8,0.6-1.2,1.1l-0.5,0.7l5,3.6L28.7,136.3z M26.1,134.2C26.1,134.2,26.1,134.2,26.1,134.2
			l-0.1,0.2l-1.8-1.3l0.1-0.2c0.2-0.3,0.5-0.6,0.8-0.8c0.3-0.2,0.6-0.1,1,0.2c0.4,0.3,0.5,0.6,0.5,0.9
			C26.5,133.6,26.3,133.9,26.1,134.2C26.1,134.2,26.1,134.2,26.1,134.2z"/>
		<polygon class="st0" points="97.6,137.2 98.1,136.8 97.1,135.4 101.6,132.2 101.2,131.6 96.2,135.3 		"/>
		
			<rect x="98.7" y="137.8" transform="matrix(0.8672 -0.498 0.498 0.8672 -55.2738 69.0233)" class="st0" width="6.2" height="0.7"/>
		<path class="st0" d="M101.1,143.6l2.5-1l0.2,0.5c0,0,0,0.1,0,0.1c0,0,0,0.1,0,0.1c0.1,0.2,0.2,0.4,0.3,0.6
			c0.1,0.2,0.3,0.3,0.5,0.4c0.2,0.1,0.4,0.2,0.7,0.2c0.2,0,0.5,0,0.7-0.1c0,0,0,0,0,0c0,0,0,0,0,0c0.3-0.1,0.5-0.3,0.7-0.5
			c0.2-0.2,0.3-0.4,0.4-0.7c0-0.2,0-0.5,0-0.7c0-0.2-0.1-0.4-0.2-0.7c0,0,0-0.1,0-0.1c0,0,0-0.1,0-0.1l-0.4-0.9l-5.7,2.4
			L101.1,143.6z M106.2,141.5l0.1,0.2c0,0,0,0,0,0c0,0,0,0,0,0c0.2,0.4,0.2,0.7,0.3,1.1c0,0.4-0.2,0.6-0.7,0.8c-0.4,0.2-0.7,0.2-1,0
			c-0.2-0.2-0.4-0.5-0.6-0.8l-0.2-0.4L106.2,141.5z"/>
		<path class="st0" d="M106.5,147.8c-0.2,0.3-0.3,0.7-0.3,1.1l-0.1,0.4c0,0,0,0,0,0c0,0,0,0,0,0c-0.1,0.3-0.1,0.6-0.2,0.8
			c-0.1,0.3-0.3,0.4-0.7,0.5c-0.3,0.1-0.7,0-0.9-0.2c-0.3-0.2-0.5-0.4-0.6-0.8c-0.1-0.3,0-0.6,0.1-0.9c0.2-0.3,0.4-0.5,0.7-0.6
			l-0.4-0.6c-0.4,0.2-0.8,0.5-1,0.9c-0.2,0.4-0.2,0.9-0.1,1.3c0.1,0.5,0.4,0.9,0.9,1.2c0.4,0.3,0.9,0.3,1.5,0.2
			c0.5-0.1,0.8-0.4,1-0.7c0.2-0.3,0.3-0.7,0.4-1.2l0.1-0.4c0,0,0-0.1,0-0.1c0,0,0-0.1,0-0.1c0-0.2,0.1-0.4,0.2-0.6
			c0.1-0.2,0.2-0.3,0.4-0.4c0.3-0.1,0.5,0,0.7,0.1c0.2,0.2,0.4,0.4,0.4,0.6c0.1,0.3,0.1,0.5,0,0.7c-0.1,0.2-0.2,0.4-0.4,0.5l0.5,0.4
			c0.3-0.2,0.4-0.5,0.5-0.8c0.1-0.3,0.1-0.6,0-1c-0.1-0.4-0.4-0.8-0.7-1.1c-0.4-0.3-0.8-0.3-1.2-0.2
			C107,147.3,106.7,147.5,106.5,147.8z"/>
		<polygon class="st0" points="108.9,150.3 108.9,150.3 108.9,150.3 		"/>
		
			<rect x="104.2" y="154.4" transform="matrix(0.9916 -0.129 0.129 0.9916 -19.0591 15.1365)" class="st0" width="6.2" height="0.7"/>
		<polygon class="st0" points="104.6,161.9 105.3,161.9 105.3,159.4 107.7,159.4 107.7,161.8 108.3,161.8 108.3,159.3 110.2,159.3 
			110.2,161.9 110.8,161.9 110.8,158.6 104.6,158.7 		"/>
		<polygon class="st0" points="104.4,165.5 104.3,166.2 109,167 103.1,170.9 109.5,172 109.6,171.4 104.9,170.5 110.8,166.7 		"/>
		<path class="st0" d="M106.9,175.5c-0.4-0.2-0.8-0.2-1.1,0c-0.3,0.2-0.6,0.4-0.9,0.7l-0.3,0.3c0,0,0,0,0,0c0,0,0,0,0,0
			c-0.2,0.2-0.4,0.4-0.7,0.5c-0.2,0.1-0.5,0.2-0.8,0c-0.3-0.1-0.6-0.3-0.7-0.7c-0.1-0.3-0.1-0.6,0-0.9c0.1-0.3,0.3-0.5,0.6-0.7
			c0.3-0.1,0.6-0.2,0.9-0.1l0.1-0.7c-0.5-0.1-0.9,0-1.3,0.2c-0.4,0.2-0.7,0.6-0.9,1c-0.2,0.5-0.2,1,0,1.5c0.2,0.5,0.6,0.8,1.1,1
			c0.5,0.2,0.9,0.2,1.2,0c0.3-0.2,0.7-0.4,1-0.8l0.3-0.3c0,0,0.1-0.1,0.1-0.1c0,0,0.1-0.1,0.1-0.1c0.1-0.1,0.3-0.2,0.5-0.3
			c0.2-0.1,0.4-0.1,0.6,0c0.3,0.1,0.4,0.3,0.5,0.5c0.1,0.3,0.1,0.5,0,0.8c-0.1,0.2-0.2,0.4-0.4,0.5c-0.2,0.1-0.4,0.2-0.6,0.2
			l0.1,0.6c0.3,0,0.6-0.2,0.9-0.4c0.3-0.2,0.4-0.5,0.6-0.8c0.2-0.4,0.2-0.9,0-1.3C107.6,176,107.3,175.7,106.9,175.5z"/>
		<polygon class="st0" points="106.3,178.8 106.3,178.8 106.3,178.8 		"/>
		
			<rect x="102.4" y="178" transform="matrix(0.4599 -0.888 0.888 0.4599 -105.3784 189.0256)" class="st0" width="0.7" height="6.2"/>
		<polygon class="st0" points="101,188.2 101,188.2 101,188.2 		"/>
		<path class="st0" d="M102.4,185.1c-0.4-0.2-0.7-0.3-1.1-0.2c-0.3,0.1-0.7,0.3-1,0.5l-0.4,0.2c0,0,0,0,0,0c0,0,0,0,0,0
			c-0.3,0.2-0.5,0.3-0.8,0.4c-0.3,0.1-0.5,0-0.8-0.2c-0.3-0.2-0.5-0.5-0.5-0.8c0-0.3,0-0.7,0.2-0.9c0.2-0.3,0.4-0.4,0.7-0.5
			c0.3-0.1,0.6,0,0.9,0.1l0.2-0.7c-0.5-0.2-0.9-0.2-1.3-0.1c-0.4,0.1-0.8,0.4-1.1,0.8c-0.3,0.4-0.4,0.9-0.3,1.4
			c0.1,0.5,0.4,0.9,0.8,1.2c0.4,0.3,0.8,0.4,1.2,0.3c0.4-0.1,0.7-0.3,1.1-0.5l0.4-0.2c0,0,0.1,0,0.1-0.1c0,0,0.1-0.1,0.1-0.1
			c0.2-0.1,0.4-0.2,0.5-0.2c0.2-0.1,0.4,0,0.6,0.1c0.2,0.2,0.4,0.4,0.4,0.6c0,0.3,0,0.5-0.2,0.7c-0.1,0.2-0.3,0.4-0.5,0.4
			c-0.2,0.1-0.4,0.1-0.6,0.1l0,0.6c0.3,0,0.7,0,1-0.2c0.3-0.1,0.5-0.3,0.7-0.6c0.3-0.4,0.4-0.8,0.3-1.2
			C103,185.7,102.8,185.4,102.4,185.1z"/>
		<path class="st0" d="M30.7,129.1c0.3,0,0.5-0.2,0.5-0.5c0-0.3-0.2-0.5-0.5-0.5c-0.3,0-0.5,0.2-0.5,0.5
			C30.2,128.8,30.4,129.1,30.7,129.1z"/>
		<path class="st0" d="M94.5,128.1c-0.3,0-0.5,0.2-0.5,0.5c0,0.3,0.2,0.5,0.5,0.5c0.3,0,0.5-0.2,0.5-0.5
			C95,128.3,94.8,128.1,94.5,128.1z"/>
		<path class="st0" d="M30.9,191.5c-0.3,0-0.5,0.2-0.5,0.5c0,0.3,0.2,0.5,0.5,0.5s0.5-0.2,0.5-0.5C31.4,191.8,31.1,191.5,30.9,191.5
			z"/>
		<path class="st0" d="M95,191.4c-0.3,0-0.5,0.2-0.5,0.5c0,0.3,0.2,0.5,0.5,0.5s0.5-0.2,0.5-0.5C95.5,191.6,95.3,191.4,95,191.4z"/>
	</g>
	<path d="M62.8,110.1c-27.6,0-50.1,22.5-50.1,50.1c0,17.6,9.1,33,22.8,42l0.3,0.2c7.8,5,17.1,8,27.1,8c27.6,0,50.1-22.5,50.1-50.1
		S90.4,110.1,62.8,110.1z M62.8,113.2H64v-0.6h-1.1v-1.5c3.1,0.1,5.8,1.4,6.9,3.4h-6.9V113.2z M71,115.1v1H54.1v-1H71z M87.4,135.2
		v-6.7c9.9,7.6,15.9,19.5,15.9,32.1c0,1.7-0.1,3.4-0.3,5.1h-4.2c0,0,0-4.3,0-7.5l2.3,2.1l0.4-0.5l-2.8-2.6c0-1.3,0-4.1,0-4.1
		c0.1,0.1,0.2,0.2,0.4,0.2c0.2,0,0.4-0.2,0.4-0.4c0-0.2-0.2-0.4-0.4-0.4c-0.2,0-0.3,0.1-0.4,0.2v-1c0.1,0.1,0.2,0.2,0.4,0.2
		c0.2,0,0.4-0.2,0.4-0.4c0-0.2-0.2-0.4-0.4-0.4c-0.2,0-0.3,0.1-0.4,0.2v-1c0.1,0.1,0.2,0.2,0.4,0.2c0.2,0,0.4-0.2,0.4-0.4
		c0-0.2-0.2-0.4-0.4-0.4c-0.2,0-0.3,0.1-0.4,0.2v-0.4h-0.1c0.1-0.1,0.2-0.2,0.2-0.3c0-0.2-0.2-0.4-0.4-0.4c-0.2,0-0.4,0.2-0.4,0.4
		c0,0.2,0.1,0.3,0.2,0.3H98v0.4c-0.1-0.1-0.2-0.2-0.3-0.2c-0.2,0-0.4,0.2-0.4,0.4c0,0.2,0.2,0.4,0.4,0.4c0.1,0,0.3-0.1,0.3-0.2v1
		c-0.1-0.1-0.2-0.2-0.3-0.2c-0.2,0-0.4,0.2-0.4,0.4c0,0.2,0.2,0.4,0.4,0.4c0.1,0,0.3-0.1,0.3-0.2v1c-0.1-0.1-0.2-0.2-0.3-0.2
		c-0.2,0-0.4,0.2-0.4,0.4c0,0.2,0.2,0.4,0.4,0.4c0.1,0,0.3-0.1,0.3-0.2v3.9l-3.4,0c0-0.1,0-12.8,0-12.8c0.1,0.1,0.2,0.2,0.4,0.2
		c0.2,0,0.4-0.2,0.4-0.4c0-0.2-0.2-0.4-0.4-0.4c-0.2,0-0.3,0.1-0.4,0.2v-1c0.1,0.1,0.2,0.2,0.4,0.2c0.2,0,0.4-0.2,0.4-0.4
		c0-0.2-0.2-0.4-0.4-0.4c-0.2,0-0.3,0.1-0.4,0.2v-1c0.1,0.1,0.2,0.2,0.4,0.2c0.2,0,0.4-0.2,0.4-0.4c0-0.2-0.2-0.4-0.4-0.4
		c-0.2,0-0.3,0.1-0.4,0.2v-0.4h-0.1c0.1-0.1,0.2-0.2,0.2-0.3c0-0.2-0.2-0.4-0.4-0.4c-0.2,0-0.4,0.2-0.4,0.4c0,0.2,0.1,0.3,0.2,0.3
		h-0.1v0.4c-0.1-0.1-0.2-0.2-0.3-0.2c-0.2,0-0.4,0.2-0.4,0.4c0,0.2,0.2,0.4,0.4,0.4c0.1,0,0.3-0.1,0.3-0.2v1
		c-0.1-0.1-0.2-0.2-0.3-0.2c-0.2,0-0.4,0.2-0.4,0.4c0,0.2,0.2,0.4,0.4,0.4c0.1,0,0.3-0.1,0.3-0.2v1c-0.1-0.1-0.2-0.2-0.3-0.2
		c-0.2,0-0.4,0.2-0.4,0.4c0,0.2,0.2,0.4,0.4,0.4c0.1,0,0.3-0.1,0.3-0.2v7.1c-1.2-5.6-4.4-9.8-6.5-11.3v-4.3H89v-0.6H87.4z
		 M86.7,192.3c0,0-0.1,0.1-0.1,0.1c-0.1,0.1-0.2,0.2-0.3,0.2c-0.4,0.3-1.1,0.5-1.6,0.5c-0.4,0.1-0.9-0.4-1.2-0.6
		c0.6-0.9,0.4-2.1,0.4-2.2c0-0.2-0.5-3.8-0.9-5.5c-0.3-1.5-0.1-3.9,0.7-6.9c0.1-0.5,0.2-1,0.3-1.6c0.4-2.5,0.5-5.6,0.4-7.2
		c-0.1-1.7-1-3.9-1.3-4.8c0.1,0,0.2,0,0.3-0.1c3.2,3.8,3.2,6.4,3.2,7.8L86.7,192.3C86.8,192.3,86.7,192.3,86.7,192.3z M86.8,193.1
		v6.4l-1.5,0l0-5.7C85.9,193.6,86.4,193.4,86.8,193.1z M78,197.7c0,0,0-0.9-0.1-1.3c-0.1-0.6-0.2-1.1-0.4-1.4
		c0.1-0.1,0.2-0.1,0.3-0.2c0.4-0.3,0.5-0.6,0.6-0.8c0.2-0.3,0.3-0.5,0.6-0.6c0.5-0.1,0.9,0,1.3,0c0,0,0.1,0,0.1,0
		c-0.4,0.8-1.2,2.8-1.1,3.6c0,0.2,0.1,0.4,0.1,0.6h0c0,0,0,0,0,0c0.1,0.1,0.4,0.9,0.5,1.1c0.2,0.4,0.5,0.8,0.7,1.4
		c0.1,0.3,0.1,0.5,0,0.7c-0.2,0.4-0.9,0.6-1.1,0.7c-0.6,0.1-1.3,0-1.5-0.1c-0.1-0.1-0.1-0.8-0.1-1.2C78,200,78,197.9,78,197.7z
		 M57.3,204.5l1.4-2.1h0.3v2.1H57.3z M59.1,205.1v1c-0.7-0.1-1.4-0.1-1.8-0.1c-1.3,0-2.2,0.1-2.9,0.3v-3.9H58l-1.8,2.7L59.1,205.1z
		 M42.3,201.8l0-2.4l-1.8,0v-1.2h2.9l0,0l0,0h2.8c-0.3,0.5-0.5,0.9-0.6,1.1c-0.1,0.4-0.1,1.1,0.8,1.6c0.2,0.1,0.4,0.1,0.7,0.1
		c0.8,0,1.7-0.4,1.9-0.7c0.2-0.4,0.3-1.3,0.2-2h1.2c0.1,0.3,0.3,0.5,0.6,0.7l0.1,0c0.3,0.1,0.5,0.2,0.7,0.2c0.4,0,0.7-0.2,1.3-0.7
		c0.3,0.5,0.5,0.8,0.7,0.9c0.2,0.1,0.4,0.4,0.6,0.6c0.4,0.5,0.8,1,1.4,1c0.1,0,0.3,0,0.4,0c0.2,0,0.4,0,0.6,0c0.8,0,1.6-0.1,1.7-0.7
		c0.2-1-0.8-1.5-1.5-1.7c-0.2-0.1-0.3-0.1-0.5-0.2c0,0,0,0,0,0h11.9c-0.2,0.2-0.4,0.3-0.6,0.5c-0.7,0.4-1.5,1.3-1.4,2.1
		c0.1,0.4,0.1,0.8,0.2,1H42.3z M39.9,182.7v16.7l-1.5,0v-58.6c0.7,0.3,1.6,0.7,3.4,1.1c0,0.3,0,0.6,0,0.8c0,1.8,0.6,3.4,1.6,4.8
		c-1,0.6-2.3,1.7-3.4,3.3c-0.7,1-0.8,4.7-0.8,4.7c0,1.2,0.4,3.1,0.6,3.8c0.2,0.8,0.1,1.6,0.1,2.2c0,0.3-0.1,0.5-0.1,0.7
		c0,0.3-0.1,0.9-0.3,1.5c-0.2,0.7-0.3,1.3-0.3,1.7c0,0.8,0.4,1.5,0.7,2v11.9l-0.7,0.2L39.9,182.7z M38.4,123v-0.7l6.7-3.6v9.6
		c-0.9-1.3-2.5-2.5-3-2.9v-2.4h-0.6v2.4c-0.5,0.3-1.8,1.3-3,2.4v-4.2h1.4V123H38.4z M41.8,125.8c1,0.7,3.3,2.6,3.3,3.9v5.6h-6.7
		v-6.7C39.6,127.3,41.2,126.2,41.8,125.8z M45.8,135.8c-1,0.6-1.9,1.3-2.5,2.2c-2.2-0.4-3.9-0.9-4.9-1.5l0,0v-0.7H45.8z M55,123
		v-6.3h15.3v6.3h-1.3v0.6h1.3v11.7h-0.9c-0.4-3.4-5.6-11.4-6.4-12.5v-3h-0.7v3.1c-0.8,1.2-5.8,8.9-6.2,12.5h-1v-11.7h1.3V123H55z
		 M71.6,135.8c-1.4,0.8-2.5,2-3.2,3.4c-2.1-0.3-4-0.8-5.3-1.5c0.2-0.1,0.4-0.3,0.4-0.3c0.2-0.2,0.3-0.5,0.3-0.9
		c0-0.3-0.1-0.5-0.2-0.7H71.6z M70.9,135.2V129c0-0.9,3.1-3,3.6-3.4c0.9,0.7,3,2.5,3.2,3.7v5.9c-0.7-0.2-1.5-0.3-2.3-0.3
		c-0.9,0-1.7,0.1-2.5,0.4H70.9z M70.6,146.2c-0.2-0.4-0.5-0.8-0.5-1.2c0-0.4,0.2-0.7,0.4-1c0.2-0.3,0.4-0.7,0.4-1.2
		c-0.1-0.8,0.2-2.6,1.2-3c0.9-0.4,1.4-0.2,1.8,0.1c-0.4,0.1-0.8,0.2-1.1,0.4c-0.8,0.6-1,1.2-1.1,1.7c-0.1,0.3-0.2,2.2-0.2,2.7
		c0,0.7,0.3,1.4,0.5,1.7l0,0c0,0,0.2,0.2,0.2,0.7c0.1,0.5,0.1,1.5,0.1,1.9c-0.3,0.1-0.9,0.3-1.5,0.3c-0.2,0-0.5,0-0.6,0
		c-0.1,0-0.1,0-0.2,0c-0.5-0.1-0.9-0.2-1.2-0.3c-0.1-0.3-0.2-0.8,0-0.9c0.1-0.1,0.4,0,0.6,0c0.5,0.1,1.1,0.2,1.6-0.5
		C71.2,147.2,70.9,146.7,70.6,146.2z M80.3,147.5c0.2,0.1,0.4,0.1,0.5,0.1c0.2,0,0.4,0,0.6-0.1c0.1,0.1,0.9,1,1.3,2.3
		c-0.3-0.1-1.2-0.7-1.2-0.7c-0.1,0-1.1-0.7-2.3-0.8c-0.5,0-1.1,0.2-1.5,0.3c0,0,0-0.1,0-0.1c0-0.3-0.1-0.6-0.1-0.8
		c0,0,0-0.2-0.1-0.3c0-0.1,0-0.1,0-0.1l0,0c-0.1-0.3-0.1-0.7,0-1c0.2-0.9,0.1-2.6,0.1-3.5c0-0.6-0.4-2-1.3-2.5
		c-0.3-0.2-0.6-0.3-0.9-0.4c0.3-0.3,0.8-0.5,1.6-0.5c0.4,0,0.8,0.3,1.1,0.7c0.5,0.7,0.8,1.7,0.7,2.4l0,0.2
		C78.5,144,77.9,146.7,80.3,147.5z M83.3,142c1.7-0.3,2.7-0.7,3.4-1.1v15.6c-0.1-0.1-0.1-0.2-0.2-0.3l-0.1-0.1
		c-0.1-0.1-0.2-0.2-0.4-0.4c-0.7-0.8-2.3-2.6-2.6-5c-0.2-1.6-1.2-2.9-1.6-3.4c0.9-1.3,1.4-2.9,1.4-4.5
		C83.4,142.5,83.4,142.2,83.3,142z M83.3,141.3c-0.2-0.9-0.5-1.8-1-2.6c1.9-0.4,3.5-0.8,4.5-1.3v2.7C86,140.5,85.1,141,83.3,141.3z
		 M65.4,168.9c-0.3-0.5-0.6-1.1-0.9-1.9c-0.6-1.9,2.5-3.5,3.8-4.1c0.2-0.1,0.3-0.2,0.5-0.3c1.1-0.6,2.4-1.3,4-0.9
		c0.2,0,0.5,0.1,0.8,0.2c-0.2,0.6-0.7,2.2-1.4,3.2c-0.9,1.3-2.4,3-2.9,3.3c-0.7,0.4-1.7,1.9-2,3c-0.2,0.7-0.7,2.5-1.5,3.2
		c0.1-0.8,0.1-1.6,0.2-2.4C66.3,170.6,65.9,169.8,65.4,168.9z M65.2,183.4c0.5,0.7,1.4,1.6,1.7,2c-0.6,1-1,2.3-1.3,3.9
		c-0.4,1.7-0.3,2.9,0.3,3.6c0.5,0.8,1.4,0.9,1.9,0.9c0.5,0.1,1.1,0,1.8-0.2c0.1,0.4,0.3,1.1,0.3,1.7c0,0.2,0,0.3,0,0.5
		c0,0.5,0.1,0.8-0.4,1.3l-0.2,0.3c-0.1,0.1-0.1,0.2-0.2,0.2h-9c-0.1,0.1-0.8,0-0.9,0c-0.1,0-0.6,0-0.8,0c0,0,0,0-0.1,0l0,0h-1.9
		c0-0.2,0-0.4,0-0.6c1.2-0.1,3-0.6,3.3-0.7c0.5-0.2,0.9-0.5,1-1c0.2-0.8-0.3-1.6-0.6-2.1c-0.1-0.1-0.1-0.2-0.1-0.3l0,0c0,0,0,0,0,0
		c-0.2-0.4-0.4-0.7-0.5-1c-0.3-0.8-0.3-3.6,0.2-5.6c0.3-1.2,0.7-1.8,1.3-2.4c0.3-0.4,0.7-0.9,1-1.5c0.4-1,0.3-2.2,0-3.7l-0.1-0.4
		c-0.2-1.3-0.4-2.2-0.1-3.2c0-0.1,0.1-0.2,0.2-0.3c0.3-0.6,0.9-1.7,0.3-4.2c-0.2-0.8-0.1-1.4,0-2.1c0.1-0.7,0.3-1.5-0.1-2.5
		c-0.2-0.8,0.1-2.4,0.4-3c0.6,1,1.5,1.7,1.9,2.1c-0.5,0.7-0.8,1.4-0.5,2.3c0.3,0.9,0.6,1.5,0.9,2.1c0.5,0.9,0.8,1.5,0.6,2.9
		c-0.1,0.9-0.2,1.7-0.3,2.5c-0.1,1.4-0.2,2.5-0.4,3.6C64.6,179.6,64.4,182.3,65.2,183.4z M82.7,155.8c-0.5-0.5-1.6-0.2-2.2,0
		c-0.5,0.2-1.5,0.8-1.4,1.5c0,0.4,0.4,0.5,0.7,0.6c0.1,0,0.3,0.1,0.3,0.1c0.1,0.3,0,0.7-0.2,0.8c-0.1,0.1-0.2,0.2-0.4,0.4
		c-0.7-0.5-1.1-1.3-1.1-2.2c0-1.5,1.2-2.7,2.7-2.7c1.5,0,2.7,1.2,2.7,2.7c0,0.6-0.2,1.2-0.6,1.7c-0.2,0-0.3,0-0.4,0
		c-0.1,0-0.2-0.1-0.2-0.1c-0.1-0.1,0.1-0.5,0.2-0.7C83,157.2,83.3,156.4,82.7,155.8z M79.4,160.6c0.1-0.4,0.7-1.2,0.9-1.4
		c0.3-0.3,0.5-0.9,0.4-1.4c-0.1-0.4-0.5-0.5-0.8-0.6c-0.1,0-0.3-0.1-0.3-0.1c0-0.1,0.4-0.5,1.1-0.8c0.6-0.3,1.4-0.4,1.6-0.2
		c0.3,0.4,0.2,0.8,0,1.4c-0.2,0.4-0.3,0.9-0.2,1.2c0.1,0.2,0.3,0.4,0.6,0.4c0.2,0.1,0.5,0,0.7,0c0.6-0.1,1.2-0.2,1.9,0.7
		c0.2,0.2,0,0.8-0.1,1.2c-0.2,0.6-0.3,1.1,0,1.5c0,0,0.1,0.1,0.2,0.2c-0.1,0.1-0.3,0.2-0.5,0.3c-0.5-0.5-0.5-0.8-1-1
		c-0.1,0-0.1-0.2-0.1-0.5c0-0.2,0-0.5-0.3-0.6c-0.3-0.1-0.8,0-1.5,1c-0.2,0.3-0.7,0.3-1.1,0.3c0-0.1,0.1-0.2,0.1-0.2
		c0.1-0.3,0.3-0.6,0.1-0.9c-0.2-0.2-0.5,0-0.7,0c-0.3,0.2-0.7,0.3-1.1,0.4C79.3,161.3,79.3,160.9,79.4,160.6z M80.3,161.9
		c-0.1,0.3-0.2,0.6-0.1,0.8c0,0.1,0.2,0.2,0.4,0.2h0l0.1,0c0.5,0,1.2,0,1.7-0.6c0.3-0.4,0.5-0.6,0.6-0.7v0c0,0.3,0,0.8,0.5,1
		c0.2,0.1,0.4,0.3,0.7,0.7c-0.7,0.3-1.7,0.6-2.7,0.6c-1.4,0-2.6-0.3-3.3-0.6c0.1-0.1,0.2-0.1,0.3-0.2c0.2-0.2,0.4-0.5,0.5-0.8
		C79.4,162.2,79.9,162.1,80.3,161.9z M81.7,164.5c0.3,0,0.6,0,0.9-0.1c0.3,0.7,1.3,3.1,1.3,4.7c0.1,1.6,0,4.7-0.4,7.1
		c0,0.1,0,0.1,0,0.2c-3.5-0.8-5.3,0.9-7.3,2.8c-1.4,1.3-2.8,2.6-4.9,3.2c-1.6,0.5-2.7,1.1-3.6,1.9c0.3-0.8,0.9-1.9,2.3-2.7
		c0.8-0.5,1.2-1.3,1.7-2.1c0.3-0.5,0.6-1.1,1-1.5c1-1.1,1.6-1.7,2.5-2.4l0.3-0.2c0.8-0.7,1.5-1.3,2.5-2.7c1-1.4,2.3-3.7,3.1-6
		C81.5,165.5,81.7,164.9,81.7,164.5z M82.6,184.9c0.4,1.7,0.9,5.5,0.9,5.5c0,0,0.2,1.1-0.4,1.8c-0.3,0.4-0.7,0.6-1.3,0.7
		c-0.5,0.1-0.9,0-1.3,0c-0.4-0.1-0.8-0.1-1.5,0c-0.6,0.2-0.8,0.5-0.9,0.9c-0.1,0.2-0.2,0.4-0.5,0.7c0,0-0.1,0-0.1,0
		c0.1-0.9,0.5-3.4,0.5-4.1c0.3-2.7-0.2-5.4-1.5-7.8c-0.5-0.9,0-2.5,0.1-2.9c0,0,0,0,0.1-0.1c2-1.8,3.6-3.4,6.8-2.6
		c-0.1,0.3-0.1,0.5-0.2,0.8C82.7,179.9,82.1,182.9,82.6,184.9z M84.6,193.7l0,4H80c-0.1-0.2-0.2-0.4-0.2-0.6c0-0.6,0.8-2.7,1.2-3.6
		c0.2,0,0.5,0,0.7,0c0.6-0.1,1-0.3,1.4-0.6C83.4,193.2,84,193.7,84.6,193.7z M70.5,195.8c0-0.1,0-0.3,0-0.4c0-0.6-0.2-1.3-0.4-1.8
		c0.5-0.1,0.9-0.2,1.4-0.2c0.5,0,0.9,0,1.3,0.1c-0.1,0.1-0.2,0.2-0.2,0.3c-1,1.4-0.7,2.7-0.5,3.1c0,0.1,0.1,0.1,0.1,0.2
		c0.2,0.4,0.5,0.9,0.5,1.5c-0.1,0.5-1,0.8-1.6,0.9c-0.5,0.1-1,0.3-1.8,0.8c-0.6,0.3-1.5,0.9-2,1.2c0-0.2-0.1-0.6-0.2-0.9
		c-0.1-0.5,0.5-1.1,1.1-1.4c0.4-0.2,0.8-0.6,1.2-1h0v0c0.1-0.1,0.2-0.3,0.4-0.4l0.2-0.3C70.6,196.9,70.6,196.4,70.5,195.8z
		 M72.7,196.7c-0.1-0.2-0.3-1.3,0.5-2.5c0.2-0.2,0.3-0.4,0.4-0.5c0.6,0.2,1,0.4,1.4,0.6l0.2,0.1c0.5,0.3,1.2,0.6,1.8,0.7
		c0.1,0.3,0.3,0.7,0.4,1.4c0,0.3,0.1,0.8,0.1,1.2h-4.2c-0.1-0.3-0.3-0.7-0.4-0.8C72.7,196.8,72.7,196.8,72.7,196.7z M74.5,184.3
		c-0.4-1.3,0-2.7,0.1-3.1c0.4-0.3,0.7-0.6,1.1-0.9c-0.1,0.7-0.2,1.7,0.2,2.4c1.2,2.3,1.7,4.9,1.4,7.5c-0.1,0.8-0.5,3.6-0.6,4.3
		c-0.4-0.1-0.9-0.3-1.4-0.6l-0.2-0.1c-0.3-0.2-0.7-0.4-1.2-0.6c0.1-0.3,0.7-1.4,0.8-2C75,190.3,75.3,186.9,74.5,184.3z M71.5,182.9
		c0.9-0.3,1.7-0.6,2.4-1.1c-0.1,0.7-0.2,1.7,0.1,2.7c0.8,2.5,0.4,5.9,0.3,6.6c-0.1,0.6-0.6,1.5-0.7,1.9c0,0-0.1,0-0.1,0.1
		c-0.5-0.1-1-0.2-1.5-0.2c-0.1,0-0.1,0-0.2,0c-0.7,0-1.4,0.2-2,0.3c-0.7,0.1-1.3,0.2-1.7,0.2c-0.6-0.1-1.1-0.2-1.5-0.7
		c-0.4-0.6-0.5-1.7-0.2-3.2C67,185.6,67.9,183.9,71.5,182.9z M50.3,197.6h-1.2c0,0-0.1-0.2-0.1-0.3l0.3-0.9c0.4,0.1,0.7,0.2,1.1,0.2
		c-0.1,0.4-0.1,0.7-0.1,0.7C50.3,197.3,50.3,197.4,50.3,197.6z M42,188.9l1.7-0.9l1.1,8.2l-0.9,0.9L42,188.9z M43.3,197.7h-2.8
		v-12.3L43.3,197.7z M41.7,172.5c0.1,0.1,0.1,0.2,0.1,0.3c-0.1,0.3-0.2,0.6-0.4,0.9c-0.2,0.3-0.4,0.7-0.5,1.1
		c-0.1,0.9,0.2,1.6,0.2,1.6l0.3,0.9l0.5,0.1c0.1,0,0.2-0.1,0.3-0.3l0.2,1.5l-1.8,0.7V168l0,0c0.2,0.2,0.4,0.4,0.6,0.5
		c0.2,0.1,0.3,0.2,0.4,0.3c0.3,0.3,0.2,0.7,0,1.4C41.5,170.9,41.3,171.7,41.7,172.5z M41.9,175.1l0.2,1.4c-0.1,0.1-0.2,0.2-0.3,0.2
		l-0.2-0.5c0,0-0.2-0.6-0.2-1.3c0-0.3,0.2-0.6,0.4-0.9c0.2-0.4,0.5-0.8,0.6-1.3l0,0c0.4-0.5,1.1-0.2,1.4-0.1
		c0.4,0.2,0.6,0.9,0.5,1.7c0,0,0,0,0,0c0,0,0,0.1,0.1,0.1c-0.4,0.4-1,1-1.7,1.6l-0.1-1L41.9,175.1z M44.7,174.9c0,0,0.1,0.1,0.1,0.1
		c0,0.4,0,0.8-0.1,1.3c0,0.5-0.1,1-0.1,1.5l-1.6,0.6l-0.2-1.8C43.4,176.1,44.2,175.4,44.7,174.9z M44.6,178.5
		c-0.1,1.5,0,3.2,0.2,5.1c0.2,1.4,0.3,2.3,0.5,2.9l-1,0.5l-1.1-7.9L44.6,178.5z M45.9,194.8l0.1,0.5l-0.6,0.5l-1.1-8.1l1.1-0.6
		c0,0.1,0.1,0.2,0.1,0.3c0.1,0.4,0.2,0.5,0.2,1c0,0.8,0,1.2-0.1,1.8c0,0.3,0,0.7-0.1,1.2C45.5,193.1,45.8,194.3,45.9,194.8z
		 M48.5,196.9c-0.1,0-0.1,0-0.2-0.1c-0.7-0.1-1.1,0.3-1.2,0.3c0,0,0,0-0.1,0l-0.4-2c0.1,0.1,0.1,0.1,0.2,0.1c0.3,0.2,1,0.5,1.9,0.8
		L48.5,196.9z M46.2,196.1l0.4,1.6h-2.4L46.2,196.1z M47.9,197.5c0.1,0,0.2,0,0.3,0c0.1,0,0.3,0.2,0.3,0.3c0.2,0.7,0.2,2,0,2.2
		c-0.1,0.2-1.3,0.6-1.8,0.4c-0.6-0.3-0.6-0.6-0.6-0.9C46.4,199,47.3,197.6,47.9,197.5z M50.5,196c-1.5-0.2-2.8-0.8-3.3-1.1
		c-0.4-0.3-0.7-0.7-0.8-0.9c-0.1-0.6-0.2-1.4-0.2-2.4c0-0.5,0-0.9,0.1-1.2c0-0.6,0.1-1,0.1-1.9c0-0.6-0.1-0.8-0.2-1.2
		c-0.2-0.5-0.4-1.3-0.7-3.7c-0.4-2.9-0.2-5.4-0.1-7.2c0-0.3,0-0.5,0.1-0.7c0,0,0,0,0,0.1l0,0c0,0,0,0,0,0c0,0,0-0.1,0-0.3
		c0.4,0.4,0.8,0.9,1.2,1.6c0.3,0.6,0.4,1,0.5,1.3c0.2,0.5,0.3,0.9,0.7,1.5c0.6,0.8,2.3,2.2,2.7,2.7c-0.1,0.9-0.2,1.8,0,2.7
		c0.1,0.7,0.2,1.3,0.3,1.8c0.2,1.7,0.4,2.7,0.2,4.5C50.9,193.1,50.7,194.8,50.5,196z M46.3,169.1c-0.1-0.5-0.2-0.9-0.2-1.3
		c-0.2-1.2-0.3-1.6-0.1-2.6c0.2-1.1-0.2-1.8-0.6-2.4c-0.1-0.2-0.2-0.3-0.3-0.5c-0.4-0.7-0.8-1.7-0.5-2.7c0.2-0.8,0.7-3,0-4.3
		c-0.5-0.9-1.3-2.1-2.1-2.5c-0.7-0.3-2.2-0.4-2.4-0.5c0.1-0.5,0.2-1,0.4-1.2c0.1-0.2,0.3-0.4,0.4-0.5c0.5,0.5,2.7,2.2,7.9,2.3h0.1
		c0.2,0,0.5,0,0.7,0c0.3,0.7,0.9,2.7,0.8,3.4c0,0.3-0.1,0.4-0.2,0.6c-0.2,0.4-0.3,0.7-0.1,1.7c0.1,0.6,0.3,1,0.4,1.4
		c0.2,0.5,0.3,0.9,0.3,1.4c0,0.3-0.1,0.7-0.3,1c-0.2,0.6-0.5,1.3-0.3,1.9c0.1,0.4,0.2,0.7,0.4,1c0.2,0.4,0.3,0.8,0.4,1.3
		c0.1,0.5,0,0.6-0.1,0.9c-0.1,0.2-0.2,0.5-0.2,1c0,0.8,0.6,1.6,1.2,2.3c0.2,0.2,0.3,0.4,0.4,0.6c0,0,1.1,2.6,1.4,3.1l0,0
		c0,0,0,0,0,0c0,0,0,0,0,0c-0.3,0.7-1.1,2.4-1.6,3.4c-0.3,0.6-1,2-1.4,3.8c-0.6-0.6-1.9-1.7-2.4-2.3c-0.4-0.5-0.5-0.8-0.6-1.3
		c-0.1-0.4-0.3-0.8-0.6-1.4c-0.5-1.1-1.4-1.9-1.8-2.2c0-0.1-0.1-0.2-0.1-0.2c0.1-0.1,0.2-0.3,0.2-0.4
		C45.6,173.6,46.9,171.5,46.3,169.1z M54.6,144.9c0.1,0.5,0.1,1-0.3,1.4c-0.4,0.5-1.3,0.2-1.7,0.1c0.1-0.1,0.2-0.3,0.3-0.3
		c0.2-0.2,1.6-2,1.1-3.3c-0.2-0.5-0.6-0.6-0.9-0.6c-0.2,0-0.3-0.1-0.5-0.2c-0.1-0.1-0.1-0.2-0.2-0.4c-0.1-0.3-0.2-0.6-0.7-0.8
		c-0.2-0.1-0.3-0.1-0.5-0.1c-0.2,0-0.5,0-0.9-0.1c-0.9-0.3-1.7,0.3-2,0.7c-0.1,0.2-0.2,0.3-0.2,0.4c0,0.1-0.1,0.3-0.3,0.7
		c-0.4,0.6-0.9,1-1.1,1.1c-0.1,0-0.1-0.1-0.2-0.1c-0.3-0.2-0.8-0.5-0.8-0.6c0-0.1,0.1-0.2,0.3-0.3c0.2-0.1,0.5-0.3,0.6-0.6
		c0.1-0.1,0.1-0.3,0.2-0.5c0.1-0.3,0.2-0.8,0.5-1c0.1-0.1,0.6-0.1,1-0.2c0.4,0,0.8-0.1,1-0.2c0.2-0.1,0.3-0.2,0.5-0.3
		c0.2-0.2,0.4-0.3,0.6-0.3c0.4,0,0.5,0.2,0.7,0.4c0.1,0.2,0.3,0.4,0.5,0.4c0.2,0,0.4-0.1,0.6-0.1c0.3-0.1,0.5-0.2,0.6-0.1
		c0.2,0.1,0.3,0.5,0.4,0.8c0.1,0.3,0.2,0.6,0.4,0.7c0.1,0.1,0.1,0.1,0.2,0.2c0.1,0.2,0.3,0.4,0.8,0.5c0.1,0,0.2,0.1,0.3,0.3
		c0.1,0.4,0,0.9-0.2,1.2C54.5,144.1,54.6,144.5,54.6,144.9z M48.3,142.8c0.3-0.5,0.4-0.7,0.4-0.9c0-0.1,0-0.1,0.1-0.2
		c0,0,0.7-0.8,1.4-0.5c0.5,0.2,0.9,0.2,1.1,0.2c0.1,0,0.2,0,0.2,0c0.2,0.1,0.3,0.2,0.3,0.4c0.1,0.2,0.2,0.5,0.4,0.7
		c0.2,0.2,0.5,0.2,0.7,0.3c0.3,0.1,0.4,0.1,0.4,0.3c0.3,0.8-0.6,2.2-1,2.7c-0.5,0.6-1.4,1.5-1.7,1.6c-0.5,0.2-1.1,0-1.4-0.2
		c-0.2-0.1-0.9-0.7-1.3-1c0,0,0,0,0-0.1c0.2-1.1-0.2-1.5-0.7-2c0,0-0.1-0.1-0.1-0.1C47.5,143.7,48,143.3,48.3,142.8z M49,147.6
		c0.3,0.2,0.7,0.3,1.2,0.3c0.2,0,0.4,0,0.6-0.1c0.1,0,0.2-0.1,0.4-0.2l2.1,1.1c-0.3,0.1-0.7,0.3-0.9,0.6l-0.1,0.2
		c-0.5,0.6-1,1.2-1.8,1.3c-0.4,0-0.7-0.2-1.1-0.4c-0.4-0.3-0.8-0.6-1.5-0.7c-0.5-0.1-0.9-0.1-1.3-0.1c-0.4,0-0.7,0-1.1-0.2
		c-0.6-0.3-1.2-1.2-1.2-1.2l-0.2-0.5c0.1,0,0.1-0.1,0.2-0.1c1.1-0.6,2.5-0.4,3.4-1C48.2,147,48.8,147.5,49,147.6z M45.3,150
		c0.5,0.2,0.8,0.3,1.3,0.3c0.3,0,0.7,0,1.2,0.1c0.5,0.1,0.9,0.3,1.2,0.6c0.4,0.3,0.7,0.5,1.3,0.5c0,0,0.1,0,0.2,0
		c1.1-0.1,1.7-0.9,2.2-1.5l0.1-0.2c0.4-0.5,1.3-0.6,1.3-0.6l0.1,0l0,0c0.2,0.4,0.7,1.3,1.1,1.7c-0.2,0.2-2.2,1.5-6.5,1.5
		c0,0-0.1,0-0.1,0c-5.1,0-7.2-1.8-7.5-2.1c0.8-1,1.7-1.7,2.4-2.1l0.2,0.5C44,148.6,44.6,149.6,45.3,150z M61.6,170.6
		c0.1,0.4,0.1,0.7,0.2,1c-0.4,0.2-1.6,0.9-2,2.8c-0.3,1.1-0.4,1.8-0.4,2.4c-0.1,0.5-0.1,0.8-0.2,1.1c-0.2,0.6-2.5,3.4-3.7,4.6
		c-0.1-0.2-0.1-0.4-0.1-0.5c-0.1-0.5,0.2-1,0.6-1.5c0.4-0.5,0.8-1.1,0.8-1.8c0-0.6-0.1-0.8-0.2-1.1c-0.2-0.4-0.4-0.9-0.4-2.9
		c0.1-2.9,0.6-5.1,0.7-5.5c0.6-0.7,2-1.9,2.4-2.2c0.3,0.1,0.5,0.2,0.8,0.2c0.1,0,0.1,0,0.2,0c0.5-0.1,1.1-0.5,1.5-0.8
		c0.1,0.7,0,1.3-0.1,1.9C61.5,168.9,61.4,169.6,61.6,170.6z M61.2,178.3l0.1,0.4c0.3,1.5,0.4,2.5,0,3.4c-0.2,0.6-0.6,1-0.9,1.4
		c-0.5,0.7-1.1,1.4-1.4,2.7c-0.5,2-0.5,5-0.1,6c0.1,0.3,0.3,0.7,0.5,1.1c0,0,0,0,0,0.1c0,0,0,0,0,0c0,0.1,0.1,0.1,0.1,0.2
		c0.3,0.4,0.7,1.1,0.5,1.6c-0.1,0.2-0.3,0.4-0.7,0.6c-0.3,0.1-2,0.6-3.1,0.7c-0.1-1.4-0.3-3.3-0.5-4.1c-0.4-1.5,0.1-3.8,0.4-5
		c0.3-1.3-0.2-3-0.7-4.2c1.2-1.1,3.7-4.3,4-5c0.1-0.4,0.2-0.7,0.3-1.2c0.1-0.5,0.2-1.3,0.4-2.3c0.3-1.3,1.1-2,1.5-2.2
		c0,1.1-0.3,1.8-0.5,2.2c-0.1,0.2-0.2,0.3-0.2,0.4C60.8,176,61,177,61.2,178.3z M61.5,165.7c-0.3,0.3-0.9,0.9-1.4,0.9
		c-0.9,0.1-1.9-1.2-2.3-1.8c0.5-0.6,1.6-1.8,1.9-2.1c0.2-0.2,0.4-0.2,0.6-0.2c0.6,0.1,1.1,0.9,1.3,1.3
		C61.5,164.4,61.4,165.2,61.5,165.7z M57.2,164.9c0,0,0.2,0.4,0.6,0.8l-0.9,0.2l-2.2-9l1.6-0.4l1.7,7c-0.4,0.5-0.7,0.9-0.8,0.9
		l-0.1,0.2L57.2,164.9z M59.3,162.2c-0.2,0.2-0.5,0.5-0.9,0.9l-1.6-6.6l2.2-0.5l1.4,6C60,161.8,59.7,161.9,59.3,162.2z M53.9,156.5
		l2.5,10.1l1.8-0.4c0.1,0.1,0.3,0.3,0.5,0.4c-0.4,0.3-1.9,1.6-2.5,2.4c-0.7,0.9-1,1.9-1.3,3c-0.2,0.8-0.6,1.5-0.9,2
		c-0.4-1-1.5-3.2-1.7-3.5c-0.4-0.6-1-1.4-1-1.9c0-0.4,0.1-0.6,0.1-0.8c0.1-0.3,0.2-0.5,0.1-1.2c-0.1-0.6-0.3-1-0.4-1.5
		c-0.1-0.3-0.2-0.6-0.3-1c-0.1-0.5,0.1-1,0.3-1.6c0.2-0.4,0.3-0.8,0.3-1.2c0-0.2,0-0.4-0.1-0.6h0c0,0,0-0.3,0.6-1.3
		c0.3-0.5,0.3-0.9,0.4-1.3c0.1-0.6,0.2-1.4,1.3-2.7c1.5-1.8,2.4-2.5,2.6-2.6c0.5,0.7,1.5,2,2,2.6L53.9,156.5z M53,155.1
		c-1.2,1.5-1.3,2.3-1.4,3c-0.1,0.4-0.1,0.7-0.3,1.1c-0.1,0.2-0.2,0.4-0.3,0.6c-0.1-0.3-0.2-0.7-0.4-1.3c-0.2-0.8-0.1-1,0-1.2
		c0.1-0.2,0.2-0.4,0.3-0.8c0.1-0.9-0.5-2.9-0.7-3.6c3.1-0.2,4.8-1.2,5.3-1.5c0,0,0,0.1,0,0.1c0,0.3,0.1,0.6,0.2,0.8
		C55.5,152.6,54.5,153.3,53,155.1z M50.9,197.3c0,0,0.5-3.2,0.7-5.7c0.2-1.9,0-3-0.2-4.7c-0.1-0.5-0.2-1.1-0.3-1.8
		c-0.4-3.2,1.1-6.3,1.5-6.9c0.5-1,1.4-2.9,1.6-3.5c0,0,0,0,0,0c0,0,0,0,0,0c0-0.1,0.1-0.2,0.1-0.2l0,0c0.4-0.7,0.8-1.5,1-2.4
		c0.2-0.5,0.3-1,0.6-1.5c-0.2,1-0.4,2.4-0.5,4.1c-0.1,2.2,0.2,2.7,0.4,3.2c0.1,0.2,0.2,0.4,0.2,0.8c0,0.5-0.4,1-0.7,1.5
		c-0.4,0.6-0.9,1.3-0.7,2c0.1,0.3,0.2,0.7,0.4,1.2c0.4,1.2,1,2.7,0.7,3.9c-0.4,1.6-0.9,3.8-0.4,5.3c0.3,1.1,0.5,3.9,0.6,5
		c-0.4-0.3-0.8-0.5-1.5-0.4c-0.5,0.1-0.9,0.2-1.1,0.4c-0.1,0.1-0.2,0.1-0.3,0.3c-1,1-1.1,0.9-1.7,0.7l-0.1,0
		C50.8,198.2,50.9,197.3,50.9,197.3z M54.4,197.7c0.8-0.1,1.3,0.5,1.6,0.8c0.1,0.1,0.2,0.2,0.3,0.3c0.1,0.1,0.3,0.2,0.5,0.3
		c0.7,0.3,1.2,0.6,1.1,1c-0.1,0.3-1.3,0.3-1.7,0.3c-0.2,0-0.3,0-0.4,0c-0.3,0-0.6-0.4-0.9-0.8c-0.3-0.3-0.5-0.6-0.8-0.8
		c-0.2-0.1-0.4-0.4-0.6-0.8C53.7,197.9,54,197.7,54.4,197.7z M73,161.1c-1.8-0.4-3.3,0.4-4.5,1c-0.1,0.1-0.3,0.1-0.4,0.2
		c-0.9,0.4-2.3,1.2-3.2,2.1c-0.5-0.4-1.4-1.2-2-2.2c2.4-1.5,5.9-3.4,6.6-3.2c2.4,0.6,3.7,0.1,4.2-0.1c0.1,0,0.2-0.1,0.3-0.1
		c0.2,0,0.3,0,0.7,0.1c0.2,0.1,0.5,0.2,1,0.2c1.3,0.3,1.5,0.6,1.5,0.7c0,0.2-0.1,0.5-0.5,0.8C75.5,161.6,73.8,161.2,73,161.1z
		 M69.6,158.4c-1.1-0.3-5.5,2.3-7,3.3c-0.1-0.2-0.1-0.4-0.1-0.6c-0.1-0.6,0.4-1.8,0.9-2.2c0.1-0.1,2.5-2.1,2.9-6.3
		c0.1-1.2,1.7-2.5,2.1-2.8c0.3,0.1,0.7,0.2,1.3,0.3c0.2,0,0.3,0,0.5,0.1c0,0,0,0,0,0c0.1,0,0.2,0,0.3,0c0,0,0.1,0,0.1,0
		c0.5,0,1.1-0.1,1.5-0.2c-0.1,0.4-0.1,1.1-0.2,1.3c0,0.1-0.1,0.2-0.1,0.3c-0.2,0.6-0.4,1-0.3,1.3c0,0,0,0.1,0,0.1
		c0,0.4,0.1,1.2,1,1.4c0.3,0.1,0.7,0.1,1.1,0.1c0.6,0,1.1-0.1,1.6-0.3c0.7-0.4,1.6-1.3,1.9-2.5c0.1-0.3,0.1-0.6,0.2-0.8
		c0.1-0.5,0.4-1.4,0.4-1.4c0.3-0.1,0.9-0.4,1.5-0.4c0.6,0,1.3,0.3,1.7,0.5c0.7,0.5,1.3,0.9,1.9,1c0,0.1,0,0.2,0,0.2
		c0,0.1,0,0.2,0,0.3c-0.3-0.1-0.7-0.1-1.2,0c-1.2,0.1-2.9,1-3.3,1.8c-0.9,1.5-3,2-3,2c-0.6,0.2-2.9,1-3.1,1.1
		c-0.6,0.4-2,2.1-2.5,2.6C69.7,158.4,69.7,158.4,69.6,158.4z M72.7,147.2c0.5,0,0.8-0.3,1.1-0.4c0.2-0.2,0.4-0.3,0.7-0.3
		c0.3,0,0.6,0.1,0.9,0.3c0.4,0.2,0.9,0.5,1.5,0.5c0,0.1,0.1,0.2,0.1,0.3c0,0,0,0,0,0c0.1,0.2,0.1,0.6,0.2,0.9c0,0.4-0.2,1.2-0.4,2
		c-0.1,0.3-0.2,0.6-0.2,0.8c-0.3,1-1,1.8-1.6,2.1c-0.5,0.3-1.5,0.3-2.4,0.1c-0.5-0.1-0.5-0.4-0.5-0.9c0-0.1,0-0.1,0-0.2
		c0-0.2,0.2-0.7,0.3-1c0-0.1,0.1-0.2,0.1-0.3c0.2-0.5,0.3-1.7,0.3-1.9C72.8,149.2,72.8,147.9,72.7,147.2z M76,140.9
		c0.4,0.2,0.7,0.8,0.8,1.3c-0.9-0.1-1.8,0.2-2,0.3l0.3,0.5c0.1-0.1,1.1-0.4,1.8-0.2c0,0,0,0,0,0.1c0.1,0.7,0.2,2.4,0,3.3
		c0,0.2-0.1,0.4-0.1,0.5c-0.4,0-0.8-0.2-1.1-0.4c-0.4-0.2-0.8-0.5-1.3-0.4c-0.4,0.1-0.7,0.3-1,0.5c-0.3,0.2-0.5,0.3-0.8,0.3
		c0-0.1,0-0.1,0-0.2l0,0c0,0,0,0,0,0c0,0,0,0,0,0c0,0,0-0.1,0-0.1c-0.1-0.2-0.4-0.9-0.4-1.6c0-0.3,0-1.3,0.1-1.9l0,0
		c0,0,0.2-0.1,0.6-0.1c0.4,0,0.7,0,0.9,0.2c0,0.1,0.1,0.3,0.1,0.5c-0.2,0.8-0.4,1.6-0.5,1.8c0,0,0.5,0,0.6,0c0-0.2,0.4-1.7,0.4-1.7
		c0.1-0.4,0-0.8-0.1-1c-0.3-0.4-1-0.5-1.5-0.5c-0.2,0-0.4,0-0.5,0.1c0,0,0,0,0,0c0.1-0.4,0.2-0.9,0.9-1.4
		C73.7,140.3,75.1,140.4,76,140.9z M68.5,147.6c-0.7,0.3-0.5,1.2-0.4,1.6c-0.6,0.4-2.2,1.8-2.3,3.2c-0.3,3.1-1.9,5.2-2.7,5.9
		c-0.7,0.6-1.3,1.9-1.2,2.7c0,0.4,0.2,0.8,0.3,1.2l-0.1,0c-0.1,0.2-0.2,0.4-0.4,0.8c-0.2-0.2-0.4-0.5-0.7-0.7l-1.7-7l-0.7,0.2
		c-0.4-0.6-2-2.6-2.3-3.1c-0.1-0.2-0.2-0.5-0.2-0.8c-0.1-0.4-0.1-0.8-0.5-1.1c-0.3-0.2-0.8-1.1-1-1.6c1.7-1.4,2.7-3.4,2.8-5.6
		c1.9-0.4,3.7-0.9,5-1.4c1.5,0.7,3.2,1.2,5,1.5c0.1,1.7,0.5,3.2,1.2,4.3C68.7,147.6,68.6,147.6,68.5,147.6z M67.6,142.6
		c-1.8-0.3-3.4-0.8-5-1.5l0,0c0,0,0,0-0.1,0c0,0,0,0,0,0l0,0c-1.3,0.6-3,1.1-4.9,1.5c0-1-0.2-1.9-0.6-2.8c2.3-0.3,4.2-0.9,5.6-1.6
		c1.3,0.7,3.3,1.3,5.6,1.6C67.8,140.7,67.6,141.6,67.6,142.6z M63.7,133.3C63.7,133.3,63.7,133.3,63.7,133.3
		c0.1,0.8,0.6,1.3,1.4,1.3h0c0.4,0,0.8-0.2,1.1-0.5c0.3-0.3,0.5-0.8,0.4-1.2c-0.1-0.9-0.7-1.5-1.6-1.7h0c0-1.1-0.9-2.1-1.9-2.1v0.6
		c0.7,0,1.3,0.6,1.3,1.4c-0.8,0-1.5,0.5-1.9,1.1c-0.4-0.7-1-1.1-1.9-1.1c0-0.8,0.6-1.4,1.3-1.4V129c-1.1,0-1.9,0.9-1.9,2.1h0
		c-0.9,0.2-1.5,0.9-1.6,1.7c0,0.4,0.1,0.9,0.4,1.2c0.3,0.3,0.7,0.5,1.1,0.5h0c0.8,0,1.3-0.5,1.4-1.2c0,0,0,0,0,0h-0.6l0,0
		c0,0.4-0.4,0.6-0.8,0.7c-0.3,0-0.5-0.1-0.7-0.3c-0.2-0.2-0.3-0.5-0.3-0.8c0.1-0.7,0.7-1.2,1.5-1.2h0c1,0,1.6,0.7,1.6,1.7v1.9h-5.7
		c0.4-3.3,4.8-10.2,6-11.9c1.1,1.8,5.7,8.9,6.1,11.9h-5.8v-1.9l0,0c0-1,0.7-1.7,1.6-1.7h0c0.8,0,1.4,0.5,1.5,1.2
		c0,0.3-0.1,0.6-0.3,0.8c-0.2,0.2-0.4,0.3-0.7,0.3h0c-0.4,0-0.7-0.2-0.8-0.7c0,0,0,0,0,0L63.7,133.3z M62.6,135.8
		c0.4,0,0.7,0.3,0.7,0.7c0,0.4-0.3,0.7-0.7,0.7c-0.4,0-0.7-0.3-0.7-0.7C61.9,136.2,62.2,135.8,62.6,135.8z M61.5,135.8
		c0,0.1-0.1,0.1-0.1,0.2c-0.1,0.2-0.1,0.3-0.1,0.5c0,0.2,0,0.4,0.1,0.5c0.1,0.1,0.1,0.2,0.2,0.3c0,0,0.3,0.3,0.5,0.4
		c-1.3,0.6-3.2,1.1-5.3,1.4c-0.7-1.4-1.8-2.6-3.2-3.4H61.5z M54.3,123h-1.5v0.6h1.5v4.3c-1.2-1.4-2.5-2.3-3.2-2.7v-2.4h-0.6v2.4
		c-0.5,0.4-2.1,1.6-3,2.8v-9.4l6.8,3.1V123z M50.7,125.6c0.5,0.4,3.5,2.6,3.5,3.7v6h-2.1c-0.8-0.3-1.6-0.4-2.5-0.4
		c-0.8,0-1.5,0.1-2.3,0.3v-5.7C47.6,128.2,49.8,126.3,50.7,125.6z M49.7,135.4c4,0,7.3,3.3,7.3,7.3c0,2.3-1.1,4.4-2.9,5.8l-2.4-1.3
		c0.2-0.1,0.4-0.3,0.4-0.3c0,0,0.1,0,0.1,0c0.5,0.1,1.7,0.5,2.5-0.2c0.6-0.6,0.5-1.4,0.5-1.9c0-0.3-0.1-0.6,0-0.8
		c0.2-0.4,0.4-1.1,0.2-1.7c-0.1-0.3-0.3-0.6-0.6-0.7c-0.3-0.1-0.4-0.2-0.5-0.4c-0.1-0.1-0.1-0.2-0.3-0.3c-0.1-0.1-0.2-0.3-0.2-0.5
		c-0.2-0.4-0.4-0.9-0.7-1.1c-0.4-0.2-0.8,0-1.1,0.1c-0.1,0-0.3,0.1-0.3,0.1c0,0-0.1-0.1-0.1-0.2c-0.2-0.3-0.5-0.7-1.2-0.7
		c-0.5,0-0.7,0.2-1,0.4c-0.1,0.1-0.2,0.2-0.3,0.2c-0.1,0.1-0.5,0.1-0.8,0.1c-0.6,0-1.1,0.1-1.3,0.3c-0.4,0.3-0.5,0.9-0.6,1.3
		c0,0.2-0.1,0.3-0.1,0.4c-0.1,0.2-0.2,0.2-0.4,0.4c-0.2,0.1-0.6,0.4-0.6,0.8c0,0.5,0.5,0.8,1,1.2c0.3,0.2,0.7,0.5,0.7,0.5
		c0.4,0.4,0.6,0.6,0.5,1.4c-0.1,0.5-0.4,0.6-0.9,0.6c-0.1,0-1.7,0.2-2.4,0.6c0,0-0.1,0.1-0.1,0.1c-1-1.3-1.5-2.8-1.5-4.5
		C42.4,138.7,45.7,135.4,49.7,135.4z M46.8,135.2h-1v-17l0.4-0.2l0.6,0.3V135.2z M42.9,138.7c-0.5,0.8-0.8,1.6-1,2.5
		c-2-0.4-2.9-0.8-3.5-1.2v-2.7C39.5,137.9,41,138.3,42.9,138.7z M39.8,165.6c0-0.3,0.1-1,0.3-1.6c0.1-0.7,0.3-1.3,0.3-1.6
		c0-0.2,0-0.4,0.1-0.6c0.1-0.7,0.2-1.5-0.1-2.5c-0.2-0.7-0.6-2.5-0.5-3.6c0-0.9,0.2-2.6,0.2-2.6c0.4,0,1.7,0.2,2.2,0.4
		c0.5,0.3,1.2,1.1,1.8,2.3c0.6,1.1,0.1,3.2-0.1,3.8c-0.4,1.2,0.1,2.4,0.6,3.2c0.1,0.2,0.2,0.4,0.3,0.5c0.4,0.6,0.7,1.1,0.5,2
		c-0.2,1.1-0.1,1.6,0.1,2.8c0.1,0.4,0.1,0.8,0.2,1.3c0.3,2.1-0.3,3.4-0.8,4.4c0,0,0,0,0,0c-0.1-0.7-0.3-1.3-0.8-1.6
		c-0.7-0.3-1.4-0.3-1.9,0c-0.2-0.5,0-1.1,0.1-1.7c0.2-0.7,0.3-1.4-0.2-2c-0.2-0.2-0.3-0.3-0.5-0.4c-0.2-0.1-1.3-0.8-1.5-1.4
		C39.9,166.3,39.8,165.9,39.8,165.6z M42.5,179.3l1.1,8l-1.7,0.9l-1.8-8L42.5,179.3z M66.9,202.5c0.4,0.3,1.2,0.8,1.6,1.2
		c0.3,0.3,0.2,0.6-0.1,0.9c-0.1,0.2-0.9,0.8-1.5,1.3c-0.3-0.3-1-1-1.4-1.4c-0.1-0.1-0.4-0.4,0.1-0.9C65.7,203.6,66.4,203,66.9,202.5
		z M68.9,205.1c0.7-0.8,0.4-1.4,0.1-1.8c-0.3-0.3-0.7-0.6-1.1-0.9h4.7l-0.6,0.6c0,0-0.4,0.4-0.3,0.9c0,0.2,0.1,0.4,0.4,0.6
		c0.6,0.4,0.8,0.6,0.8,0.6l0.4-0.5c0,0-0.2-0.2-0.8-0.6c-0.1-0.1-0.1-0.2-0.1-0.2c0-0.2,0.1-0.4,0.2-0.4l1-0.9
		c0.3,0.2,0.8,0.5,1.2,0.9c0.1,0.1,0.2,0.2,0,0.7c-0.1,0.3-0.4,0.5-0.4,0.5l-1.9,2c-1-0.4-2-0.6-3.8-0.6c-0.2,0-0.4,0-0.7,0
		C68.3,205.7,68.8,205.3,68.9,205.1z M68.1,201.8c0.5-0.3,1.1-0.7,1.5-0.9c0.7-0.4,1.2-0.6,1.6-0.7c0.1,0,1.9-0.4,2.1-1.4
		c0-0.2,0-0.3,0-0.5h4.1c0,0.1,0,0.2,0,0.3c0,0.4,0,0.8,0,1c0,0.2,0,0.4,0,0.7c0,0.6-0.1,1.2,0.2,1.6H68.1z M81.2,201.2
		c0.2-0.4,0.2-0.8,0-1.2c-0.3-0.6-0.5-1-0.8-1.4c-0.1-0.1-0.1-0.2-0.2-0.3h4.3l0,1.2h-1.4v2.4h-2.6
		C80.8,201.7,81.1,201.5,81.2,201.2z M84.1,164c0.9-0.3,1.5-0.7,1.7-0.8c0.6,0.4,1.4,0.8,1.9,1c0,0.1,0,0.1-0.1,0.2
		c-0.1,0.4-0.2,0.7-0.2,1c0,1.6,0.8,2.7,1.4,3.5c0.4,0.5,0.7,1,0.7,1.3c0,0.2-0.1,0.4-0.3,0.6c-0.4,0.4-1.3,0.5-1.9,0.6v-0.1
		C87.3,169.7,86.8,167.3,84.1,164z M89.5,171.4v2.1h-2.1V172C87.9,172,88.9,171.9,89.5,171.4z M87.4,184.9c0.1,0.2,0.3,0.4,0.5,0.6
		c0.6,0.6,1.4,0.9,2.3,0.9h0c2.4,0,2.9-2,2.9-2.6c0-0.3,0-0.7-0.1-1c0,0-0.2-0.5-0.2-0.5c-0.6-1.1-0.4-3.1,0.4-3.7
		c0.3-0.2,0.7-0.3,1.1-0.3c0.3,0.1,0.5,0.2,0.6,0.5c0.1,0.3,0.1,0.6,0,0.8c-0.1,0.2-0.4,0.4-0.6,0.3l0,0.6h0c0.5,0,0.9-0.2,1.1-0.6
		c0.3-0.4,0.3-0.9,0-1.4c-0.2-0.4-0.6-0.7-1-0.8c-0.5-0.1-1.1,0-1.5,0.3c-0.8,0.6-1.1,2.1-0.9,3.4c-0.3-0.2-0.7-0.3-1.2-0.3
		c-0.7,0-1.3,0.3-1.6,0.8c-0.3,0.5-0.3,1.1,0,1.6c0.3,0.4,0.7,0.7,1.3,0.7h0l0-0.6c-0.4,0-0.6-0.1-0.8-0.4c-0.2-0.3-0.2-0.7,0-1
		c0.1-0.2,0.4-0.5,1-0.5c0.6,0,1.1,0.2,1.4,0.5c0.4,0.4,0.5,1.1,0.5,1.5c0,0-0.2,2-2.3,2c0,0,0,0,0,0c-0.9,0-1.5-0.4-1.9-0.8
		c-0.6-0.6-0.9-1.2-0.9-2.1v-0.7l5.3-5.8h3.6V176h-3.8l-5,5.5v-7.3h8.8v-0.6h-1.7l0-7.2l6.9,0c-1.3,1-4,3-4.2,3.2
		c-0.4,0.4-0.8,0.8-0.8,1.9c0,0.5,0.2,1,0.6,1.3c0.4,0.4,1,0.7,1.5,0.7c0.7,0,1.8-0.4,1.8-1.6c0-0.5-0.2-0.9-0.5-1.1
		c-0.2-0.2-0.5-0.3-0.9-0.3c-0.7,0-1,0.7-1,1.1l0.6,0c0-0.1,0.1-0.5,0.5-0.5c0.2,0,0.4,0,0.5,0.2c0.1,0.1,0.3,0.4,0.3,0.7
		c0,0.8-0.9,1-1.2,1c-0.3,0-0.8-0.2-1.1-0.5c-0.2-0.2-0.4-0.5-0.4-0.9c0-0.9,0.3-1.2,0.6-1.4c0.3-0.3,4.9-3.7,4.9-3.7h0.3
		c-1.5,10.4-7,19.9-15.4,26.3V184.9z M89.8,151.5c-0.4-1-1-2.2-1.8-3.4c0.5-1.6,1.3-2.8,2-4.1c0.7,1.1,1.4,2.3,2,3.7
		C91,148.9,90.2,150.3,89.8,151.5z M92.2,148.4c1,2.6,1.7,5.6,1.7,8.9l0,16.2h-3.8c0,0,0-19,0-20.3C90.1,152,91,150,92.2,148.4z
		 M94.5,157.8h3.5v7.9h-3.5L94.5,157.8z M89.5,143.4c-0.7,1.2-1.6,2.6-2.2,4.3V141C88.1,141.6,88.8,142.4,89.5,143.4z M89.5,153.2
		L89.5,153.2l0,15.6c-0.1-0.1-0.1-0.2-0.2-0.3c-0.6-0.8-1.3-1.8-1.3-3.2c0-0.1,0.1-0.4,0.2-0.8c0.2-0.7,0.6-1.7,0.6-3
		c0-1-0.5-2.4-1.4-4.1v-9.2C88.6,150.1,89.5,152,89.5,153.2z M88.2,161.6c0,0.8-0.2,1.4-0.3,2c-0.9-0.4-2.1-1.1-2.3-1.4
		c-0.1-0.1,0-0.6,0.1-1c0.2-0.6,0.4-1.3,0-1.8c-0.6-0.7-1.2-0.9-1.7-0.9c0.3-0.5,0.4-1.1,0.4-1.6c0-1.8-1.5-3.3-3.3-3.3
		s-3.3,1.5-3.3,3.3c0,1.1,0.5,2.1,1.4,2.7c-0.2,0.3-0.3,0.6-0.4,0.8c-0.1,0.6-0.2,1.7-0.7,2.1c-0.2,0.2-0.4,0.3-0.6,0.4
		c-0.1,0.1-0.3,0.1-0.3,0.2c0,0.1,0,0.1,0.1,0.2c0,0,0,0,0,0c0,0,0.1,0.1,0.2,0.2c0.7,0.4,2.3,0.8,3.7,0.9c-0.1,0.4-0.2,1-0.5,1.9
		c-0.7,2.3-2,4.5-3,5.8c-1,1.3-1.7,1.9-2.4,2.6l-0.3,0.2c-0.9,0.8-1.4,1.3-2.5,2.4c-0.4,0.5-0.8,1.1-1.1,1.6
		c-0.4,0.8-0.9,1.5-1.5,1.8c-2,1.2-2.6,2.9-2.7,3.6c-0.4-0.4-1-1.1-1.4-1.6c-0.6-0.7-0.5-2.9-0.2-4.7c0.1-0.9,0.2-1.8,0.4-2.9
		c1-0.5,1.7-2.3,2.1-3.9c0.3-1,1.2-2.4,1.7-2.7c0.7-0.4,2.2-2.2,3.1-3.5c0.8-1.1,1.4-2.9,1.5-3.5c0.9,0,1.9-0.1,2.7-0.9
		c0.6-0.5,0.8-1,0.7-1.4c-0.1-0.5-0.8-0.9-2-1.1c-0.3-0.1-0.5-0.1-0.7-0.2c0.1-0.1,0.3-0.1,0.4-0.2c0.6-0.3,0.9-0.3,1.3-0.3l0-0.6
		c-0.5,0-0.9,0.1-1.5,0.3c-0.8,0.3-1.3,0.5-1.4,0.6c-0.1,0-0.2,0.1-0.3,0.1c-0.5,0.2-1.3,0.6-2.9,0.3c0.6-0.8,1.7-2,2.1-2.2
		c0.5-0.3,2.1-0.8,3-1.1c0.4-0.1,0.6-0.2,0.8-0.3c0.8-0.3,2-1.2,2.5-2c0.4-0.6,1.8-1.4,2.9-1.5c0.7-0.1,1.1,0.1,1.2,0.1
		c0.5,2.1,1.9,3.7,2.6,4.4c0.1,0.1,0.3,0.3,0.3,0.3l0.1,0.1C87.8,159.4,88.2,160.9,88.2,161.6z M86.8,135.2h-6.7v-5.7
		c0-1.2,2.3-3.1,3.4-3.9c0.5,0.4,2.1,1.3,3.3,2.5V135.2z M86.8,123h-1.4v0.6h1.4v3.7c-1.2-1.1-2.5-1.8-2.9-2.2v-2.4h-0.6v2.4
		c-0.5,0.4-2.2,1.7-3.1,3v-9.5l6.7,3.6V123z M86.8,135.8v0.7c-1,0.6-2.7,1.1-4.9,1.5c-0.7-0.9-1.5-1.7-2.5-2.2H86.8z M79.4,135.2h-1
		v-17L79,118l0.4,0.2V135.2z M82.8,142.7c0,1.5-0.4,2.9-1.3,4.1c-0.3,0.1-0.7,0.2-1,0.1c-1.9-0.6-1.4-2.9-1.2-4l0-0.2
		c0.2-0.9-0.2-2.1-0.8-2.9c-0.4-0.6-1-0.9-1.5-0.9c-1.3-0.1-1.9,0.4-2.3,0.9l-0.1,0.1c-0.4-0.5-1.2-1.3-2.8-0.6
		c-1.5,0.6-1.7,2.9-1.6,3.6c0,0.3-0.1,0.5-0.3,0.8c-0.2,0.3-0.5,0.7-0.5,1.3c0,0.6,0.3,1.1,0.6,1.6c0.3,0.4,0.4,0.7,0.3,0.9
		c-0.2,0.3-0.4,0.3-0.8,0.3c-0.9-1.1-1.4-2.9-1.4-4.9c0-4,3.3-7.3,7.3-7.3C79.5,135.4,82.8,138.7,82.8,142.7z M77.7,127.8
		c-0.9-1.2-2.4-2.4-2.9-2.7v-2.4h-0.6v2.4c-0.5,0.4-2,1.5-3.3,2.6v-4.2h1.5V123h-1.5v-1.3l6.8-3.1V127.8z M62.2,112.6h-1v0.6h1v1.3
		h-6.8c1.1-2,3.8-3.3,6.8-3.4V112.6z M13.3,160.2c0-26.3,20.6-47.8,46.4-49.4c-2.3,0.6-4.1,1.9-4.9,3.7h-1.2v2.2h0.8v4.3l-7.8-3.6
		v-3.5h-0.5v3.5l-7.6,4.1V119h-0.6l0,3.9h-1.5v0.6h1.5v4.7c-10,7.8-15.8,19.6-15.8,32.3c0,12.7,5.8,24.5,15.8,32.3v6.6l-1.9,0l0,2.4
		C22.3,193,13.3,177.6,13.3,160.2z M36.2,183.7c0.3-0.5,0.3-1.1,0-1.6c-0.3-0.5-0.9-0.8-1.6-0.8c-0.5,0-0.9,0.1-1.2,0.3
		c0.2-1.2-0.1-2.8-0.9-3.4c-0.5-0.3-1-0.5-1.5-0.3c-0.4,0.1-0.8,0.4-1,0.8c-0.2,0.5-0.2,1,0,1.4c0.2,0.4,0.7,0.6,1.1,0.6h0l0-0.6
		c-0.3,0-0.5-0.1-0.6-0.3c-0.1-0.2-0.1-0.5,0-0.8c0.1-0.3,0.3-0.4,0.6-0.5c0.3-0.1,0.7,0,1.1,0.3c0.8,0.6,1,2.6,0.4,3.7
		c0,0-0.3,0.6-0.3,1.5c0,0.5,0.5,2.6,2.9,2.6h0c0.9,0,1.7-0.3,2.3-0.9c0.2-0.2,0.3-0.4,0.4-0.5v7.1c-8.2-6.5-13.4-15.6-14.8-25.8
		h0.1c0,0,4.1,3.4,4.4,3.7c0.3,0.3,0.6,0.5,0.6,1.4c0,0.4-0.2,0.7-0.4,0.9c-0.3,0.3-0.8,0.4-1.1,0.4c-0.3,0-1.2-0.1-1.2-1
		c0-0.3,0.1-0.6,0.3-0.7c0.1-0.1,0.3-0.2,0.5-0.2c0.4,0,0.5,0.4,0.5,0.5l0.6,0c0-0.4-0.3-1.1-1.1-1.1c-0.4,0-0.7,0.1-0.9,0.3
		c-0.3,0.3-0.5,0.7-0.4,1.1c0,1.2,1.1,1.5,1.8,1.5c0.5,0,1.1-0.2,1.5-0.6c0.4-0.4,0.6-0.8,0.6-1.3c0-1.1-0.4-1.5-0.8-1.9
		c-0.3-0.2-2.6-2.3-3.8-3.2h6.6l0,7.2H29v0.6h8.8v7.3l-5-5.5H29v0.6h3.6l5.3,5.8v0.5c0.1,1-0.3,1.8-0.9,2.3c-0.4,0.4-1,0.8-1.9,0.8
		c0,0,0,0,0,0c-2.1,0-2.3-2-2.3-2c0-0.4,0-1.1,0.5-1.5c0.3-0.3,0.8-0.5,1.4-0.5c0.6,0,0.9,0.3,1,0.5c0.2,0.3,0.2,0.7,0,1
		c-0.1,0.2-0.4,0.4-0.8,0.4l0,0.6C35.5,184.4,35.9,184.1,36.2,183.7z M37.8,135.8v4.7c-2.1,1.6-5.1,5.7-6.4,11.3v-7.1
		c0.1,0.1,0.2,0.2,0.3,0.2c0.2,0,0.4-0.2,0.4-0.4c0-0.2-0.2-0.4-0.4-0.4c-0.1,0-0.3,0.1-0.3,0.2v-1c0.1,0.1,0.2,0.2,0.3,0.2
		c0.2,0,0.4-0.2,0.4-0.4c0-0.2-0.2-0.4-0.4-0.4c-0.1,0-0.3,0.1-0.3,0.2v-1c0.1,0.1,0.2,0.2,0.3,0.2c0.2,0,0.4-0.2,0.4-0.4
		c0-0.2-0.2-0.4-0.4-0.4c-0.1,0-0.3,0.1-0.3,0.2v-0.4h-0.1c0.1-0.1,0.2-0.2,0.2-0.3c0-0.2-0.2-0.4-0.4-0.4c-0.2,0-0.4,0.2-0.4,0.4
		c0,0.2,0.1,0.3,0.2,0.3h-0.1v0.4c-0.1-0.1-0.2-0.2-0.4-0.2c-0.2,0-0.4,0.2-0.4,0.4c0,0.2,0.2,0.4,0.4,0.4c0.2,0,0.3-0.1,0.4-0.2v1
		c-0.1-0.1-0.2-0.2-0.4-0.2c-0.2,0-0.4,0.2-0.4,0.4c0,0.2,0.2,0.4,0.4,0.4c0.2,0,0.3-0.1,0.4-0.2v1c-0.1-0.1-0.2-0.3-0.4-0.3
		c-0.2,0-0.4,0.2-0.4,0.4c0,0.2,0.2,0.4,0.4,0.4c0.2,0,0.3-0.1,0.4-0.2c0,0,0,12,0,12.9l-3.5,0v-3.9c0.1,0.1,0.2,0.2,0.3,0.2
		c0.2,0,0.4-0.2,0.4-0.4c0-0.2-0.2-0.4-0.4-0.4c-0.1,0-0.3,0.1-0.3,0.2v-1c0.1,0.1,0.2,0.2,0.3,0.2c0.2,0,0.4-0.2,0.4-0.4
		c0-0.2-0.2-0.4-0.4-0.4c-0.1,0-0.3,0.1-0.3,0.2v-1c0.1,0.1,0.2,0.2,0.3,0.2c0.2,0,0.4-0.2,0.4-0.4c0-0.2-0.2-0.4-0.4-0.4
		c-0.1,0-0.3,0.1-0.3,0.2v-0.4h-0.1c0.1-0.1,0.2-0.2,0.2-0.3c0-0.2-0.2-0.4-0.4-0.4c-0.2,0-0.4,0.2-0.4,0.4c0,0.2,0.1,0.3,0.2,0.3
		h-0.1v0.4c-0.1-0.1-0.2-0.2-0.4-0.2c-0.2,0-0.4,0.2-0.4,0.4c0,0.2,0.2,0.4,0.4,0.4c0.2,0,0.3-0.1,0.4-0.2v1
		c-0.1-0.1-0.2-0.2-0.4-0.2c-0.2,0-0.4,0.2-0.4,0.4c0,0.2,0.2,0.4,0.4,0.4c0.2,0,0.3-0.1,0.4-0.2v1c-0.1-0.1-0.2-0.2-0.4-0.2
		c-0.2,0-0.4,0.2-0.4,0.4c0,0.2,0.2,0.4,0.4,0.4c0.2,0,0.3-0.1,0.4-0.2v4.1l-2.8,2.6l0.4,0.5l2.4-2.2v7.2h-3.6
		c-0.2-1.7-0.3-3.4-0.3-5.1c0-12.4,5.5-23.8,15.2-31.5v6.2h-1.7v0.6H37.8z M35.1,153.6v19.9h-3.7l0-16c0-3.3,0.6-6.1,1.6-8.7
		c1.2,1.6,2,3.4,2,4.6C35.1,153.5,35.1,153.6,35.1,153.6z M33.3,148.1c0.6-1.4,1.3-2.6,2-3.7c0.7,1.2,1.5,2.5,2,4.1
		c-0.8,1.2-1.5,2.4-1.9,3.4C35,150.7,34.3,149.3,33.3,148.1z M35.7,153.6c0,0,0-0.1,0-0.2c0.1-1.1,0.9-2.9,2.1-4.6v24.7h-2.1V153.6z
		 M35.7,143.8c0.7-1,1.4-1.7,2.1-2.3v6.4C37.2,146.3,36.4,144.9,35.7,143.8z M30.8,158.2l0,7.5h-3.5v-7.5L30.8,158.2z M36.5,200
		l5.2,0l0,1.8h-5.2L36.5,200z M36.8,202.4h8.3c-0.7,0.8-0.6,1.6-0.2,2.2c0.1,0.2,1.7,2,2.4,2.7C43.6,206.1,40.1,204.4,36.8,202.4z
		 M47,206.1c-0.8-0.9-1.5-1.7-1.6-1.8c-0.2-0.3-0.4-0.8,0.2-1.4c0.2-0.2,0.5-0.4,0.7-0.4h0.6l1.9,2c-0.4,0-0.7,0.1-1,0.4
		C47.3,205.1,47.1,205.6,47,206.1z M48.1,207.2c-0.2-0.2-0.5-0.6-0.4-1c0-0.3,0.2-0.7,0.5-0.9c0.3-0.2,0.6-0.3,1-0.2
		c0.3,0.1,0.5,0.2,0.6,0.5c0,0.1,0,0.1,0,0.2c0.2,0,0.4,0,0.6,0c0-0.1,0-0.3-0.1-0.4c-0.1-0.2-0.3-0.5-0.5-0.6l-2.1-2.2h5.1
		l-1.3,1.2l0.4,0.4l1.8-1.6h0v4.1c-0.1,0-0.3,0.1-0.5,0.2l-0.2,0.1c-0.3,0.1-0.6,0.2-0.9,0.3c-1,0.4-2,0.7-2.6,0.7
		C49,207.8,48.4,207.5,48.1,207.2z M50.5,208.2c0.6-0.1,1.2-0.4,1.7-0.6c0.3-0.1,0.6-0.2,0.9-0.3l0.2-0.1c1.1-0.4,2-0.7,3.8-0.6
		c0.8,0,2,0.1,3.3,0.3c0.2,0.4,1,1.8,1.6,2.9C58.2,209.7,54.3,209.2,50.5,208.2z M62.6,209.3c-1.7-3-1.7-3-1.9-3
		c-0.3,0-0.7-0.1-1-0.1v-1.1h1.4l0-0.6h-1.4v-2.1h6.5c-0.4,0.4-0.9,0.8-1,0.9c-0.5,0.6-0.5,1.2,0,1.7c0.3,0.3,0.8,0.8,1.2,1.2
		c-0.5,0.1-1,0.1-1.6,0.2C64.6,206.4,64.5,206.4,62.6,209.3z M63,209.8c0.7-1.1,1.6-2.4,1.9-2.8c0.7-0.3,2.9-0.4,3.3-0.4
		c1.8,0,3,0.3,4.1,0.7l0.2,0.1c0.3,0.1,0.6,0.2,0.9,0.3c0.6,0.2,1.1,0.4,1.7,0.6C71.3,209.2,67.2,209.7,63,209.8z M77.7,207.2
		c-0.4,0.4-0.9,0.6-1.4,0.6c-0.7,0-1.7-0.4-2.6-0.7c-0.3-0.1-0.5-0.2-0.8-0.3l1.7-1.8c0.1-0.1,0.7-0.8,0.7-1.4
		c0-0.3-0.1-0.5-0.3-0.6c-0.2-0.2-0.4-0.4-0.6-0.5h3.8l-2.1,2.2c-0.2,0.2-0.4,0.4-0.5,0.6c0,0.1-0.1,0.3-0.1,0.4c0.2,0,0.4,0,0.6,0
		c0-0.1,0-0.1,0-0.2c0.1-0.3,0.3-0.4,0.6-0.5c0.3-0.1,0.7,0,1,0.2c0.3,0.2,0.5,0.6,0.5,0.9C78.1,206.6,77.9,206.9,77.7,207.2z
		 M78,204.7c-0.3-0.2-0.6-0.4-1-0.4l1.9-2h0.6c0.2,0.1,0.4,0.2,0.7,0.4c0.6,0.6,0.4,1.1,0.2,1.4c-0.1,0.1-0.9,1-1.6,1.8
		C78.7,205.6,78.4,205.1,78,204.7z M78.5,207.2c0.7-0.8,2.2-2.4,2.3-2.6c0.4-0.5,0.5-1.4-0.2-2.2h8.2
		C85.5,204.4,82.1,206,78.5,207.2z M89,201.8h-5.2V200H89V201.8z M89.6,201.8l0-2.4l-2.3,0v-6c10.3-7.7,16.5-19.9,16.5-32.8
		c0-12.9-6.2-25.1-16.5-32.8v-4.2h1.5V123h-1.5V119h-0.6v2.5l-7.5-4.1v-3.5h-0.5v3.5l-7.8,3.6v-4.3h0.7v-2.2h-1.2
		c-0.8-1.8-2.7-3.1-5.1-3.7c26.1,1.3,47,23,47,49.5C112.3,177.7,103.3,193,89.6,201.8z"/>
</g>
</svg>
