<?xml version="1.0" encoding="utf-8"?>
<!-- Generator: Adobe Illustrator 25.0.1, SVG Export Plug-In . SVG Version: 6.00 Build 0)  -->
<svg version="1.1" id="Ebene_1" xmlns="http://www.w3.org/2000/svg" xmlns:xlink="http://www.w3.org/1999/xlink" x="0px" y="0px"
	 viewBox="0 0 120.51 89.77" style="enable-background:new 0 0 120.51 89.77;" xml:space="preserve">
<style type="text/css">
	.st0{fill:#BE1D23;}
	.st1{fill:#CD1720;}
	.st2{fill:#EF7D00;}
	.st3{fill:#4A4A49;}
</style>
<g>
	<path class="st0" d="M72.33,67.84V66.1c0-0.96,0.78-1.75,1.75-1.75h1.74c0.97,0,1.75,0.78,1.75,1.75v1.74
		c0,0.96-0.78,1.75-1.75,1.75h-1.74C73.11,69.58,72.33,68.8,72.33,67.84L72.33,67.84z"/>
	<path class="st0" d="M95.68,49.73h-1.74c-0.96,0-1.75-0.78-1.75-1.75v-1.74c0-0.97,0.78-1.75,1.75-1.75h1.74
		c0.96,0,1.75,0.78,1.75,1.75v1.74C97.42,48.95,96.64,49.73,95.68,49.73L95.68,49.73z"/>
	<path class="st0" d="M82.27,57.9v-1.74c0-0.96,0.78-1.75,1.75-1.75h1.74c0.97,0,1.75,0.78,1.75,1.75v1.74
		c0,0.96-0.78,1.75-1.75,1.75h-1.74C83.05,59.64,82.27,58.86,82.27,57.9L82.27,57.9z"/>
	<path class="st1" d="M77.57,26.38v1.74c0,0.96-0.78,1.75-1.75,1.75h-1.74c-0.97,0-1.75-0.78-1.75-1.75v-1.74
		c0-0.96,0.78-1.75,1.75-1.75h1.74C76.79,24.63,77.57,25.41,77.57,26.38L77.57,26.38z"/>
	<path class="st2" d="M54.22,44.48h1.74c0.96,0,1.75,0.78,1.75,1.75v1.74c0,0.97-0.78,1.75-1.75,1.75h-1.74
		c-0.96,0-1.75-0.78-1.75-1.75v-1.74C52.47,45.27,53.26,44.48,54.22,44.48L54.22,44.48z"/>
	<path class="st2" d="M67.63,36.32v1.74c0,0.96-0.78,1.75-1.75,1.75h-1.74c-0.97,0-1.75-0.78-1.75-1.75v-1.74
		c0-0.96,0.78-1.75,1.75-1.75h1.74C66.85,34.57,67.63,35.35,67.63,36.32L67.63,36.32z"/>
	<path class="st2" d="M72.33,67.84V66.1c0-0.96,0.78-1.75,1.75-1.75h1.74c0.97,0,1.75,0.78,1.75,1.75v1.74
		c0,0.96-0.78,1.75-1.75,1.75h-1.74C73.11,69.58,72.33,68.8,72.33,67.84L72.33,67.84z"/>
	<path class="st2" d="M82.27,57.9v-1.74c0-0.96,0.78-1.75,1.75-1.75h1.74c0.97,0,1.75,0.78,1.75,1.75v1.74
		c0,0.96-0.78,1.75-1.75,1.75h-1.74C83.05,59.64,82.27,58.86,82.27,57.9L82.27,57.9z"/>
	<path class="st2" d="M95.68,49.73h-1.74c-0.96,0-1.75-0.78-1.75-1.75v-1.74c0-0.97,0.78-1.75,1.75-1.75h1.74
		c0.96,0,1.75,0.78,1.75,1.75v1.74C97.42,48.95,96.64,49.73,95.68,49.73L95.68,49.73z"/>
	<path class="st0" d="M71.71,58.11v-2.15c0-1.19,0.97-2.16,2.16-2.16h2.15c1.19,0,2.16,0.97,2.16,2.16v2.15
		c0,1.19-0.97,2.16-2.16,2.16h-2.15C72.68,60.27,71.71,59.3,71.71,58.11L71.71,58.11z"/>
	<path class="st0" d="M72.94,77.56v-1.33c0-0.74,0.6-1.33,1.34-1.33h1.33c0.74,0,1.34,0.6,1.34,1.33v1.33c0,0.74-0.6,1.34-1.34,1.34
		h-1.33C73.54,78.9,72.94,78.3,72.94,77.56L72.94,77.56z"/>
	<path class="st0" d="M85.95,50.35h-2.15c-1.19,0-2.16-0.97-2.16-2.16v-2.15c0-1.19,0.97-2.16,2.16-2.16h2.15
		c1.19,0,2.16,0.97,2.16,2.16v2.15C88.11,49.38,87.14,50.35,85.95,50.35L85.95,50.35z"/>
	<path class="st0" d="M105.4,49.11h-1.33c-0.74,0-1.34-0.6-1.34-1.34v-1.33c0-0.74,0.6-1.34,1.34-1.34h1.33
		c0.74,0,1.33,0.6,1.33,1.34v1.33C106.74,48.51,106.14,49.11,105.4,49.11L105.4,49.11z"/>
	<path class="st0" d="M92.81,57.69v-1.33c0-0.74,0.6-1.34,1.34-1.34h1.33c0.74,0,1.34,0.6,1.34,1.34v1.33c0,0.74-0.6,1.33-1.34,1.33
		h-1.33C93.41,59.03,92.81,58.43,92.81,57.69L92.81,57.69z"/>
	<path class="st0" d="M82.88,67.62v-1.33c0-0.74,0.6-1.34,1.34-1.34h1.33c0.74,0,1.34,0.6,1.34,1.34v1.33c0,0.74-0.6,1.34-1.34,1.34
		h-1.33C83.48,68.96,82.88,68.36,82.88,67.62L82.88,67.62z"/>
	<path class="st1" d="M71.71,58.11v-2.15c0-1.19,0.97-2.16,2.16-2.16h2.15c1.19,0,2.16,0.97,2.16,2.16v2.15
		c0,1.19-0.97,2.16-2.16,2.16h-2.15C72.68,60.27,71.71,59.3,71.71,58.11L71.71,58.11z"/>
	<path class="st1" d="M72.94,77.56v-1.33c0-0.74,0.6-1.33,1.34-1.33h1.33c0.74,0,1.34,0.6,1.34,1.33v1.33c0,0.74-0.6,1.34-1.34,1.34
		h-1.33C73.54,78.9,72.94,78.3,72.94,77.56L72.94,77.56z"/>
	<path class="st1" d="M85.95,50.35h-2.15c-1.19,0-2.16-0.97-2.16-2.16v-2.15c0-1.19,0.97-2.16,2.16-2.16h2.15
		c1.19,0,2.16,0.97,2.16,2.16v2.15C88.11,49.38,87.14,50.35,85.95,50.35L85.95,50.35z"/>
	<path class="st1" d="M105.4,49.11h-1.33c-0.74,0-1.34-0.6-1.34-1.34v-1.33c0-0.74,0.6-1.34,1.34-1.34h1.33
		c0.74,0,1.33,0.6,1.33,1.34v1.33C106.74,48.51,106.14,49.11,105.4,49.11L105.4,49.11z"/>
	<path class="st1" d="M92.81,57.69v-1.33c0-0.74,0.6-1.34,1.34-1.34h1.33c0.74,0,1.34,0.6,1.34,1.34v1.33c0,0.74-0.6,1.33-1.34,1.33
		h-1.33C93.41,59.03,92.81,58.43,92.81,57.69L92.81,57.69z"/>
	<path class="st2" d="M82.88,67.62v-1.33c0-0.74,0.6-1.34,1.34-1.34h1.33c0.74,0,1.34,0.6,1.34,1.34v1.33c0,0.74-0.6,1.34-1.34,1.34
		h-1.33C83.48,68.96,82.88,68.36,82.88,67.62L82.88,67.62z"/>
	<path class="st1" d="M78.19,36.1v2.15c0,1.19-0.97,2.16-2.16,2.16h-2.15c-1.2,0-2.16-0.97-2.16-2.16V36.1
		c0-1.19,0.97-2.16,2.16-2.16h2.15C77.22,33.95,78.19,34.91,78.19,36.1L78.19,36.1z"/>
	<path class="st2" d="M76.95,16.65v1.33c0,0.74-0.6,1.34-1.34,1.34h-1.33c-0.74,0-1.34-0.6-1.34-1.34v-1.33
		c0-0.74,0.6-1.34,1.34-1.34h1.33C76.35,15.32,76.95,15.92,76.95,16.65L76.95,16.65z"/>
	<path class="st1" d="M63.95,43.87h2.14c1.19,0,2.16,0.97,2.16,2.16v2.15c0,1.19-0.96,2.16-2.16,2.16h-2.14
		c-1.19,0-2.16-0.97-2.16-2.16v-2.15C61.79,44.84,62.75,43.87,63.95,43.87L63.95,43.87z"/>
	<path class="st1" d="M44.5,45.1h1.33c0.74,0,1.34,0.6,1.34,1.34v1.33c0,0.74-0.6,1.34-1.34,1.34H44.5c-0.74,0-1.34-0.6-1.34-1.34
		v-1.33C43.16,45.7,43.76,45.1,44.5,45.1L44.5,45.1z"/>
	<path class="st1" d="M57.09,36.52v1.33c0,0.74-0.6,1.34-1.34,1.34h-1.33c-0.74,0-1.34-0.6-1.34-1.34v-1.33
		c0-0.74,0.6-1.33,1.34-1.33h1.33C56.49,35.19,57.09,35.78,57.09,36.52L57.09,36.52z"/>
	<path class="st2" d="M67.01,26.59v1.33c0,0.74-0.6,1.34-1.34,1.34h-1.33c-0.74,0-1.34-0.6-1.34-1.34v-1.33
		c0-0.74,0.6-1.33,1.34-1.33h1.33C66.41,25.26,67.01,25.86,67.01,26.59L67.01,26.59z"/>
	<path class="st0" d="M85.35,78.27h-0.92c-0.51,0-0.93-0.41-0.93-0.92v-0.92c0-0.51,0.42-0.92,0.93-0.92h0.92
		c0.51,0,0.93,0.41,0.93,0.92v0.92C86.28,77.86,85.86,78.27,85.35,78.27L85.35,78.27z"/>
	<path class="st0" d="M95.28,68.34h-0.92c-0.51,0-0.93-0.41-0.93-0.92V66.5c0-0.51,0.42-0.92,0.93-0.92h0.92
		c0.51,0,0.93,0.41,0.93,0.92v0.92C96.2,67.93,95.79,68.34,95.28,68.34L95.28,68.34z"/>
	<path class="st0" d="M105.21,58.41h-0.92c-0.51,0-0.93-0.41-0.93-0.92v-0.92c0-0.51,0.42-0.92,0.93-0.92h0.92
		c0.51,0,0.93,0.41,0.93,0.92v0.92C106.13,58,105.72,58.41,105.21,58.41L105.21,58.41z"/>
	<path class="st0" d="M116.05,46.65v0.92c0,0.51-0.41,0.93-0.93,0.93h-0.92c-0.51,0-0.93-0.41-0.93-0.93v-0.92
		c0-0.51,0.41-0.93,0.93-0.93h0.92C115.64,45.72,116.05,46.13,116.05,46.65L116.05,46.65z"/>
	<path class="st0" d="M76.23,50.96h-2.55c-1.42,0-2.57-1.15-2.57-2.58v-2.56c0-1.42,1.15-2.58,2.57-2.58h2.55
		c1.42,0,2.57,1.15,2.57,2.58v2.56C78.79,49.81,77.64,50.96,76.23,50.96L76.23,50.96z"/>
	<path class="st1" d="M85.35,78.27h-0.92c-0.51,0-0.93-0.41-0.93-0.92v-0.92c0-0.51,0.42-0.92,0.93-0.92h0.92
		c0.51,0,0.93,0.41,0.93,0.92v0.92C86.28,77.86,85.86,78.27,85.35,78.27L85.35,78.27z"/>
	<path class="st2" d="M95.28,68.34h-0.92c-0.51,0-0.93-0.41-0.93-0.92V66.5c0-0.51,0.42-0.92,0.93-0.92h0.92
		c0.51,0,0.93,0.41,0.93,0.92v0.92C96.2,67.93,95.79,68.34,95.28,68.34L95.28,68.34z"/>
	<path class="st1" d="M105.21,58.41h-0.92c-0.51,0-0.93-0.41-0.93-0.92v-0.92c0-0.51,0.42-0.92,0.93-0.92h0.92
		c0.51,0,0.93,0.41,0.93,0.92v0.92C106.13,58,105.72,58.41,105.21,58.41L105.21,58.41z"/>
	<path class="st1" d="M116.05,46.65v0.92c0,0.51-0.41,0.93-0.93,0.93h-0.92c-0.51,0-0.93-0.41-0.93-0.93v-0.92
		c0-0.51,0.41-0.93,0.93-0.93h0.92C115.64,45.72,116.05,46.13,116.05,46.65L116.05,46.65z"/>
	<path class="st1" d="M76.23,50.96h-2.55c-1.42,0-2.57-1.15-2.57-2.58v-2.56c0-1.42,1.15-2.58,2.57-2.58h2.55
		c1.42,0,2.57,1.15,2.57,2.58v2.56C78.79,49.81,77.64,50.96,76.23,50.96L76.23,50.96z"/>
	<path class="st2" d="M64.55,15.94h0.92c0.51,0,0.93,0.41,0.93,0.92v0.92c0,0.51-0.42,0.92-0.93,0.92h-0.92
		c-0.51,0-0.93-0.41-0.93-0.92v-0.92C63.62,16.36,64.04,15.94,64.55,15.94L64.55,15.94z"/>
	<path class="st2" d="M54.62,25.87h0.92c0.51,0,0.93,0.41,0.93,0.92v0.92c0,0.51-0.42,0.92-0.93,0.92h-0.92
		c-0.51,0-0.93-0.41-0.93-0.92V26.8C53.69,26.29,54.11,25.87,54.62,25.87L54.62,25.87z"/>
	<path class="st1" d="M44.69,35.8h0.92c0.51,0,0.93,0.41,0.93,0.92v0.92c0,0.51-0.42,0.92-0.93,0.92h-0.92
		c-0.51,0-0.93-0.41-0.93-0.92v-0.92C43.76,36.21,44.18,35.8,44.69,35.8L44.69,35.8z"/>
	<path class="st1" d="M33.84,47.57v-0.92c0-0.51,0.41-0.93,0.92-0.93h0.92c0.51,0,0.92,0.42,0.92,0.93v0.92
		c0,0.51-0.41,0.93-0.92,0.93h-0.92C34.26,48.5,33.84,48.08,33.84,47.57L33.84,47.57z"/>
	<path class="st0" d="M75.41,88.21h-0.92c-0.51,0-0.93-0.41-0.93-0.92v-0.92c0-0.51,0.42-0.92,0.93-0.92h0.92
		c0.51,0,0.93,0.41,0.93,0.92v0.92C76.34,87.8,75.92,88.21,75.41,88.21L75.41,88.21z"/>
	<path class="st1" d="M75.41,88.21h-0.92c-0.51,0-0.93-0.41-0.93-0.92v-0.92c0-0.51,0.42-0.92,0.93-0.92h0.92
		c0.51,0,0.93,0.41,0.93,0.92v0.92C76.34,87.8,75.92,88.21,75.41,88.21L75.41,88.21z"/>
	<path class="st1" d="M74.49,6h0.92c0.51,0,0.93,0.41,0.93,0.92v0.92c0,0.51-0.42,0.92-0.93,0.92h-0.92c-0.51,0-0.93-0.41-0.93-0.92
		V6.93C73.56,6.42,73.98,6,74.49,6L74.49,6z"/>
	<g>
		<path class="st3" d="M4.28,54.11h9.33v1.98L7.1,67.43h6.55v2.15H4.07V67.6l6.51-11.34h-6.3V54.11z"/>
		<path class="st3" d="M16.37,69.58V54.11h4.76c3.52,0,4.74,1.45,4.74,3.77c0,2.15-1.45,3.27-2.99,3.6v0.04
			c2.44,0.23,3.52,1.58,3.52,3.69c0,3.14-2.09,4.36-5.54,4.36H16.37z M20.08,60.69c1.58,0,3.12-0.53,3.12-2.51
			c0-1.41-0.74-1.98-2.47-1.98h-1.75v4.49H20.08z M20.57,67.47c2,0,3.2-0.48,3.2-2.4c0-1.64-1.01-2.36-2.78-2.36h-2v4.76H20.57z"/>
		<path class="st3" d="M37.32,69.58l-4.17-13.65h-0.06v13.65h-1.39V54.11h2.32l4.02,13.63h0.06l4.05-13.63h2.23v15.47h-1.39V55.95
			h-0.06l-4.17,13.63H37.32z"/>
		<path class="st3" d="M54.91,62.23H49.5v6.13h6.57v1.22h-8.09V54.11h7.59v1.22H49.5V61h5.42V62.23z"/>
		<path class="st3" d="M58.7,69.58V54.11h2.19c5.77,0,7.44,2.3,7.44,7.67c0,5.6-1.77,7.8-7.44,7.8H58.7z M61.19,68.36
			c4.21,0,5.58-1.73,5.58-6.6c0-4.3-1.12-6.43-5.46-6.43h-1.1v13.02H61.19z"/>
	</g>
</g>
</svg>
